<svg width="81" height="44" viewBox="0 0 81 44" fill="none" xmlns="http://www.w3.org/2000/svg">
<path fill-rule="evenodd" clip-rule="evenodd" d="M72.4707 16.8536C73.5811 16.8536 74.457 15.978 74.457 14.9275C74.457 13.877 73.5811 13.0013 72.4707 13.0013C71.3602 13.0013 70.4844 13.877 70.4844 14.9275C70.4844 15.978 71.3602 16.8536 72.4707 16.8536ZM72.4707 17.4555C73.9001 17.4555 75.0589 16.3237 75.0589 14.9275C75.0589 13.5313 73.9001 12.3994 72.4707 12.3994C71.0412 12.3994 69.8824 13.5313 69.8824 14.9275C69.8824 16.3237 71.0412 17.4555 72.4707 17.4555Z" fill="#6A5ACD"/>
<path fill-rule="evenodd" clip-rule="evenodd" d="M77.5869 13.7237C78.6507 13.7237 79.513 12.8613 79.513 11.7976C79.513 10.7338 78.6507 9.87145 77.5869 9.87145C76.5231 9.87145 75.6608 10.7338 75.6608 11.7976C75.6608 12.8613 76.5231 13.7237 77.5869 13.7237ZM77.5869 14.3256C78.9831 14.3256 80.1149 13.1938 80.1149 11.7976C80.1149 10.4014 78.9831 9.26953 77.5869 9.26953C76.1907 9.26953 75.0588 10.4014 75.0588 11.7976C75.0588 13.1938 76.1907 14.3256 77.5869 14.3256Z" fill="#6A5ACD"/>
<path fill-rule="evenodd" clip-rule="evenodd" d="M72.4707 10.7141C73.5677 10.7141 74.457 9.82478 74.457 8.72776C74.457 7.63075 73.5677 6.74144 72.4707 6.74144C71.3737 6.74144 70.4844 7.63075 70.4844 8.72776C70.4844 9.82478 71.3737 10.7141 72.4707 10.7141ZM72.4707 11.316C73.9001 11.316 75.0589 10.1572 75.0589 8.72776C75.0589 7.29832 73.9001 6.13953 72.4707 6.13953C71.0412 6.13953 69.8824 7.29832 69.8824 8.72776C69.8824 10.1572 71.0412 11.316 72.4707 11.316Z" fill="#6A5ACD"/>
<path fill-rule="evenodd" clip-rule="evenodd" d="M72.4707 4.57456C73.5677 4.57456 74.457 3.68525 74.457 2.58824C74.457 1.49122 73.5677 0.601915 72.4707 0.601915C71.3737 0.601915 70.4844 1.49122 70.4844 2.58824C70.4844 3.68525 71.3737 4.57456 72.4707 4.57456ZM72.4707 5.17647C73.9001 5.17647 75.0589 4.01768 75.0589 2.58824C75.0589 1.15879 73.9001 0 72.4707 0C71.0412 0 69.8824 1.15879 69.8824 2.58824C69.8824 4.01768 71.0412 5.17647 72.4707 5.17647Z" fill="#6A5ACD"/>
<path fill-rule="evenodd" clip-rule="evenodd" d="M77.5869 7.58406C78.6507 7.58406 79.513 6.7217 79.513 5.65793C79.513 4.59416 78.6507 3.7318 77.5869 3.7318C76.5231 3.7318 75.6608 4.59416 75.6608 5.65793C75.6608 6.7217 76.5231 7.58406 77.5869 7.58406ZM77.5869 8.18597C78.9831 8.18597 80.1149 7.05413 80.1149 5.65793C80.1149 4.26173 78.9831 3.12988 77.5869 3.12988C76.1907 3.12988 75.0588 4.26173 75.0588 5.65793C75.0588 7.05413 76.1907 8.18597 77.5869 8.18597Z" fill="#6A5ACD"/>
<path d="M8.15479 26.4049L11.7663 16.4901H14.2028L17.8143 26.4049H15.562L12.9701 18.8845L10.3783 26.4049H8.15479ZM9.72699 24.238L10.294 22.5947H15.4921L16.0447 24.238H9.72699Z" fill="#6A5ACD"/>
<path d="M19.0422 26.4049V16.4901H22.8945C23.6974 16.4901 24.3632 16.6322 24.8916 16.9151C25.4298 17.1883 25.827 17.5567 26.081 18.0202C26.3459 18.4825 26.4771 18.9977 26.4771 19.5635C26.4771 20.092 26.3495 20.588 26.0943 21.0502C25.8487 21.5125 25.4611 21.8857 24.9326 22.1686C24.4041 22.4515 23.7191 22.5935 22.8788 22.5935H21.1646V26.4037H19.0422V26.4049ZM24.1549 26.4049L22.1578 22.0711H24.4378L26.5626 26.4049H24.1549ZM21.167 21.0659H22.7669C23.2954 21.0659 23.683 20.9383 23.9286 20.6831C24.1838 20.4278 24.3114 20.0835 24.3114 19.649C24.3114 19.224 24.1838 18.8893 23.9286 18.6438C23.683 18.3886 23.2954 18.2609 22.7669 18.2609H21.167V21.0659Z" fill="#6A5ACD"/>
<path d="M32.7333 26.5758C31.7606 26.5758 30.9059 26.3591 30.1691 25.9245C29.4324 25.4899 28.8521 24.8904 28.4272 24.126C28.0119 23.3519 27.8036 22.4599 27.8036 21.4486C27.8036 20.4386 28.0119 19.5502 28.4272 18.7858C28.8521 18.0117 29.4324 17.4074 30.1691 16.9728C30.9059 16.5382 31.7606 16.3215 32.7333 16.3215C33.706 16.3215 34.5655 16.5382 35.3107 16.9728C36.0571 17.4074 36.6325 18.0117 37.0382 18.7858C37.4535 19.5502 37.6618 20.4386 37.6618 21.4486C37.6618 22.4587 37.4535 23.3507 37.0382 24.126C36.6325 24.8904 36.0558 25.4899 35.3107 25.9245C34.5643 26.3579 33.706 26.5758 32.7333 26.5758ZM32.7333 24.6629C33.3087 24.6629 33.7999 24.5305 34.2068 24.2668C34.6221 24.002 34.9435 23.6336 35.1698 23.1617C35.3961 22.6802 35.5093 22.1083 35.5093 21.4474C35.5093 20.7865 35.3961 20.2195 35.1698 19.7476C34.9435 19.2661 34.6221 18.8977 34.2068 18.6425C33.8011 18.3777 33.3099 18.2465 32.7333 18.2465C32.1759 18.2465 31.6896 18.3789 31.2742 18.6425C30.8589 18.8977 30.5375 19.2661 30.3112 19.7476C30.0848 20.2195 29.9717 20.7865 29.9717 21.4474C29.9717 22.1083 30.0848 22.6802 30.3112 23.1617C30.5375 23.6336 30.8589 24.002 31.2742 24.2668C31.6896 24.5305 32.1759 24.6629 32.7333 24.6629Z" fill="#6A5ACD"/>
<path d="M39.2498 26.4049V16.4901H41.7995L44.6887 22.4527L47.5502 16.4901H50.0854V26.4049H47.9607V20.0739L45.5241 25.0168H43.8243L41.3745 20.0739V26.4049H39.2498Z" fill="#6A5ACD"/>
<path d="M51.3241 26.4049L54.9356 16.4901H57.3721L60.9836 26.4049H58.7313L56.1394 18.8845L53.5476 26.4049H51.3241ZM52.8951 24.238L53.4621 22.5947H58.6602L59.2128 24.238H52.8951Z" fill="#6A5ACD"/>
<path d="M5.78442 35.8476V25.9329H11.7759V26.7539H6.69091V30.4653H11.3786V31.2863H6.69091V35.0254H11.8325V35.8464H5.78442V35.8476Z" fill="#6A5ACD"/>
<path d="M17.0631 36.0464C16.3552 36.0464 15.722 35.9236 15.1646 35.678C14.6072 35.4228 14.1678 35.0412 13.8476 34.5308C13.5262 34.0119 13.3661 33.3546 13.3661 32.5625V32.2929H14.2726V32.5625C14.2726 33.4786 14.5326 34.1588 15.0515 34.6018C15.5799 35.0364 16.2505 35.2531 17.0631 35.2531C17.8841 35.2531 18.5173 35.0641 18.9615 34.6861C19.4057 34.2984 19.6272 33.8085 19.6272 33.2126C19.6272 32.8165 19.5285 32.4999 19.3299 32.264C19.1409 32.0184 18.8724 31.8246 18.5221 31.6837C18.1826 31.5332 17.7854 31.4008 17.3327 31.2877L16.4262 31.0613C15.8881 30.9193 15.4066 30.7447 14.9816 30.5377C14.5567 30.321 14.222 30.0417 13.9764 29.7022C13.7308 29.3531 13.6081 28.9089 13.6081 28.3708C13.6081 27.8327 13.7453 27.3656 14.0186 26.9683C14.3015 26.5723 14.6891 26.2701 15.1803 26.0618C15.6714 25.8451 16.242 25.7356 16.8945 25.7356C17.547 25.7356 18.1321 25.8488 18.6509 26.0751C19.1794 26.3014 19.5947 26.6373 19.8969 27.0803C20.2087 27.5149 20.364 28.0626 20.364 28.7235V29.3892H19.4575V28.7235C19.4575 28.2047 19.3443 27.7845 19.118 27.4631C18.8917 27.1417 18.5847 26.9057 18.1971 26.7552C17.8094 26.6048 17.376 26.5289 16.8945 26.5289C16.2047 26.5289 15.6341 26.689 15.1803 27.0105C14.736 27.3222 14.5145 27.7749 14.5145 28.3696C14.5145 28.7656 14.6048 29.0822 14.7842 29.3182C14.9732 29.5541 15.2332 29.7431 15.5631 29.8852C15.9026 30.0273 16.2998 30.1549 16.7525 30.268L17.6589 30.4943C18.1778 30.6171 18.6557 30.7821 19.0891 30.9903C19.5237 31.1889 19.8728 31.467 20.1376 31.8258C20.4025 32.1749 20.5337 32.6384 20.5337 33.2138C20.5337 33.7892 20.3868 34.29 20.0943 34.715C19.8114 35.1399 19.4093 35.4698 18.8905 35.7069C18.3716 35.9332 17.7625 36.0464 17.0631 36.0464Z" fill="#6A5ACD"/>
<path d="M25.7908 36.0464C25.083 36.0464 24.4498 35.9236 23.8924 35.678C23.335 35.4228 22.8956 35.0412 22.5754 34.5308C22.254 34.0119 22.0939 33.3546 22.0939 32.5625V32.2929H23.0004V32.5625C23.0004 33.4786 23.2604 34.1588 23.7792 34.6018C24.3077 35.0364 24.9783 35.2531 25.7908 35.2531C26.6118 35.2531 27.2451 35.0641 27.6893 34.6861C28.1335 34.2984 28.355 33.8085 28.355 33.2126C28.355 32.8165 28.2563 32.4999 28.0576 32.264C27.8686 32.0184 27.6002 31.8246 27.2499 31.6837C26.9104 31.5332 26.5131 31.4008 26.0605 31.2877L25.154 31.0613C24.6159 30.9193 24.1344 30.7447 23.7094 30.5377C23.2845 30.321 22.9498 30.0417 22.7042 29.7022C22.4586 29.3531 22.3358 28.9089 22.3358 28.3708C22.3358 27.8327 22.4731 27.3656 22.7463 26.9683C23.0292 26.5723 23.4169 26.2701 23.908 26.0618C24.3992 25.8451 24.9698 25.7356 25.6223 25.7356C26.2736 25.7356 26.8598 25.8488 27.3787 26.0751C27.9072 26.3014 28.3225 26.6373 28.6247 27.0803C28.9364 27.5149 29.0917 28.0626 29.0917 28.7235V29.3892H28.1853V28.7235C28.1853 28.2047 28.0721 27.7845 27.8458 27.4631C27.6195 27.1417 27.3125 26.9057 26.9248 26.7552C26.5372 26.6048 26.1038 26.5289 25.6223 26.5289C24.9325 26.5289 24.3619 26.689 23.908 27.0105C23.4638 27.3222 23.2423 27.7749 23.2423 28.3696C23.2423 28.7656 23.3326 29.0822 23.512 29.3182C23.701 29.5541 23.961 29.7431 24.2909 29.8852C24.6303 30.0273 25.0276 30.1549 25.4802 30.268L26.3867 30.4943C26.9056 30.6171 27.3835 30.7821 27.8169 30.9903C28.2515 31.1889 28.6006 31.467 28.8654 31.8258C29.1303 32.1749 29.2615 32.6384 29.2615 33.2138C29.2615 33.7892 29.1146 34.29 28.8221 34.715C28.5392 35.1399 28.1371 35.4698 27.6183 35.7069C27.0994 35.9332 26.4903 36.0464 25.7908 36.0464Z" fill="#6A5ACD"/>
<path d="M31.2755 35.8476V25.9329H37.267V26.7539H32.182V30.4653H36.8697V31.2863H32.182V35.0254H37.3236V35.8464H31.2755V35.8476Z" fill="#6A5ACD"/>
<path d="M39.3123 35.8476V25.9329H41.1108L45.1617 35.3095H45.3314V25.9329H46.2379V35.8476H44.4394L40.3885 26.4565H40.2187V35.8476H39.3123Z" fill="#6A5ACD"/>
<path d="M52.1885 36.0464C51.0268 36.0464 50.0974 35.7069 49.398 35.0268C48.7082 34.337 48.3639 33.3318 48.3639 32.01V29.772C48.3639 28.4502 48.7082 27.4486 49.398 26.7697C50.0962 26.0799 51.0268 25.7356 52.1885 25.7356C53.3405 25.7356 54.2181 26.0618 54.8224 26.7131C55.4364 27.3547 55.7434 28.2335 55.7434 29.3471V29.4181H54.8369V29.3194C54.8369 28.5068 54.6202 27.8459 54.1856 27.3367C53.7607 26.8178 53.0949 26.5578 52.1885 26.5578C51.2723 26.5578 50.5549 26.8359 50.036 27.3933C49.5256 27.9506 49.2716 28.7343 49.2716 29.7444V32.0389C49.2716 33.0489 49.5268 33.8326 50.036 34.3899C50.5549 34.9473 51.2735 35.2254 52.1885 35.2254C53.0949 35.2254 53.7607 34.9702 54.1856 34.461C54.6202 33.9421 54.8369 33.2764 54.8369 32.4638V32.2519H55.7434V32.4361C55.7434 33.5509 55.4364 34.4333 54.8224 35.0845C54.2181 35.725 53.3405 36.0464 52.1885 36.0464Z" fill="#6A5ACD"/>
<path d="M57.7501 35.8476V25.9329H63.7416V26.7539H58.6566V30.4653H63.3443V31.2863H58.6566V35.0254H63.7982V35.8464H57.7501V35.8476Z" fill="#6A5ACD"/>
<path fill-rule="evenodd" clip-rule="evenodd" d="M2.70862 8.96849C1.5446 8.96849 0.601915 9.91118 0.601915 11.0752V41.2913C0.601915 42.4554 1.5446 43.398 2.70862 43.398H66.8728C68.0368 43.398 68.9795 42.4554 68.9795 41.2913V11.0752C68.9795 9.91118 68.0368 8.96849 66.8728 8.96849H2.70862ZM0 11.0752C0 9.57875 1.21217 8.36658 2.70862 8.36658H66.8728C68.3692 8.36658 69.5814 9.57875 69.5814 11.0752V41.2913C69.5814 42.7878 68.3692 44 66.8728 44H2.70862C1.21217 44 0 42.7878 0 41.2913V11.0752Z" fill="#6A5ACD"/>
</svg>
