<svg width="243" height="240" viewBox="0 0 243 240" fill="none" xmlns="http://www.w3.org/2000/svg">
<g filter="url(#filter0_f_329_281)">
<ellipse cx="203.081" cy="98.6862" rx="9.32577" ry="58.5698" fill="#050259" fill-opacity="0.5" style="mix-blend-mode:overlay"/>
</g>
<ellipse cx="129.252" cy="103.5" rx="100.252" ry="103.5" fill="url(#paint0_linear_329_281)"/>
<g filter="url(#filter1_f_329_281)">
<ellipse cx="110.601" cy="129.977" rx="59.8404" ry="59.3721" fill="#A1A4F3" fill-opacity="0.2"/>
</g>
<path d="M77.1886 74V60H82.9286C83.9019 60 84.7219 60.1533 85.3886 60.46C86.0553 60.7667 86.5553 61.1933 86.8886 61.74C87.2353 62.2733 87.4086 62.8933 87.4086 63.6C87.4086 64.3067 87.2553 64.9 86.9486 65.38C86.6419 65.86 86.2353 66.2333 85.7286 66.5C85.2353 66.7533 84.6886 66.9 84.0886 66.94L84.4086 66.72C85.0486 66.7467 85.6153 66.92 86.1086 67.24C86.6153 67.5467 87.0086 67.96 87.2886 68.48C87.5819 69 87.7286 69.5667 87.7286 70.18C87.7286 70.9267 87.5486 71.5867 87.1886 72.16C86.8286 72.7333 86.3086 73.1867 85.6286 73.52C84.9486 73.84 84.1153 74 83.1286 74H77.1886ZM79.8886 71.8H82.6886C83.4219 71.8 83.9886 71.6333 84.3886 71.3C84.7886 70.9667 84.9886 70.4867 84.9886 69.86C84.9886 69.2333 84.7819 68.7467 84.3686 68.4C83.9553 68.04 83.3819 67.86 82.6486 67.86H79.8886V71.8ZM79.8886 65.84H82.4886C83.1953 65.84 83.7286 65.68 84.0886 65.36C84.4619 65.04 84.6486 64.5867 84.6486 64C84.6486 63.4267 84.4619 62.98 84.0886 62.66C83.7286 62.3267 83.1886 62.16 82.4686 62.16H79.8886V65.84ZM94.7225 74.24C93.7092 74.24 92.8092 74.0267 92.0225 73.6C91.2492 73.16 90.6425 72.5533 90.2025 71.78C89.7758 70.9933 89.5625 70.0867 89.5625 69.06C89.5625 68.0067 89.7758 67.08 90.2025 66.28C90.6425 65.4667 91.2492 64.8333 92.0225 64.38C92.7958 63.9133 93.6958 63.68 94.7225 63.68C95.7225 63.68 96.5958 63.9 97.3425 64.34C98.0892 64.78 98.6692 65.3733 99.0825 66.12C99.4958 66.8667 99.7025 67.7133 99.7025 68.66C99.7025 68.7933 99.7025 68.9467 99.7025 69.12C99.7025 69.28 99.6892 69.4467 99.6625 69.62H91.4825V67.98H96.9825C96.9425 67.3267 96.7092 66.8133 96.2825 66.44C95.8692 66.0667 95.3492 65.88 94.7225 65.88C94.2692 65.88 93.8492 65.9867 93.4625 66.2C93.0758 66.4 92.7692 66.7133 92.5425 67.14C92.3292 67.5667 92.2225 68.1067 92.2225 68.76V69.34C92.2225 69.8867 92.3225 70.3667 92.5225 70.78C92.7358 71.18 93.0292 71.4933 93.4025 71.72C93.7758 71.9333 94.2092 72.04 94.7025 72.04C95.1958 72.04 95.6025 71.9333 95.9225 71.72C96.2558 71.5067 96.5025 71.2333 96.6625 70.9H99.4225C99.2358 71.5267 98.9225 72.0933 98.4825 72.6C98.0425 73.1067 97.5025 73.5067 96.8625 73.8C96.2225 74.0933 95.5092 74.24 94.7225 74.24ZM101.914 74V63.92H104.314L104.574 65.78C104.814 65.34 105.114 64.9667 105.474 64.66C105.847 64.3533 106.267 64.1133 106.734 63.94C107.214 63.7667 107.74 63.68 108.314 63.68V66.54H107.394C106.994 66.54 106.62 66.5867 106.274 66.68C105.94 66.7733 105.647 66.9267 105.394 67.14C105.14 67.34 104.947 67.62 104.814 67.98C104.68 68.34 104.614 68.7933 104.614 69.34V74H101.914ZM114.203 78.64C113.243 78.64 112.403 78.52 111.683 78.28C110.963 78.0533 110.403 77.7 110.003 77.22C109.616 76.7533 109.423 76.1733 109.423 75.48C109.423 75.0133 109.543 74.5733 109.783 74.16C110.023 73.7467 110.37 73.3733 110.823 73.04C111.29 72.6933 111.87 72.4 112.563 72.16L113.583 73.48C112.97 73.68 112.523 73.9267 112.243 74.22C111.976 74.5267 111.843 74.8533 111.843 75.2C111.843 75.5067 111.943 75.7667 112.143 75.98C112.356 76.1933 112.636 76.3467 112.983 76.44C113.343 76.5467 113.743 76.6 114.183 76.6C114.61 76.6 114.976 76.5467 115.283 76.44C115.603 76.3333 115.85 76.1733 116.023 75.96C116.21 75.76 116.303 75.52 116.303 75.24C116.303 74.88 116.176 74.5867 115.923 74.36C115.67 74.1333 115.163 73.9933 114.403 73.94C113.723 73.8867 113.116 73.8133 112.583 73.72C112.063 73.6133 111.603 73.4933 111.203 73.36C110.803 73.2133 110.463 73.0533 110.183 72.88C109.916 72.7067 109.696 72.5333 109.523 72.36V71.9L111.663 69.6L113.603 70.22L111.083 72.7L111.843 71.38C111.99 71.46 112.13 71.54 112.263 71.62C112.41 71.6867 112.59 71.7533 112.803 71.82C113.016 71.8733 113.296 71.9267 113.643 71.98C113.99 72.0333 114.43 72.08 114.963 72.12C115.843 72.2 116.563 72.3667 117.123 72.62C117.696 72.8733 118.116 73.2133 118.383 73.64C118.65 74.0533 118.783 74.5667 118.783 75.18C118.783 75.78 118.616 76.34 118.283 76.86C117.963 77.3933 117.463 77.82 116.783 78.14C116.103 78.4733 115.243 78.64 114.203 78.64ZM114.203 71.02C113.363 71.02 112.636 70.86 112.023 70.54C111.423 70.2067 110.956 69.7667 110.623 69.22C110.303 68.66 110.143 68.04 110.143 67.36C110.143 66.68 110.303 66.0667 110.623 65.52C110.956 64.96 111.423 64.5133 112.023 64.18C112.636 63.8467 113.363 63.68 114.203 63.68C115.056 63.68 115.783 63.8467 116.383 64.18C116.996 64.5133 117.463 64.96 117.783 65.52C118.103 66.0667 118.263 66.68 118.263 67.36C118.263 68.04 118.103 68.66 117.783 69.22C117.463 69.7667 116.996 70.2067 116.383 70.54C115.783 70.86 115.056 71.02 114.203 71.02ZM114.203 68.96C114.723 68.96 115.143 68.8267 115.463 68.56C115.783 68.2933 115.943 67.9 115.943 67.38C115.943 66.86 115.783 66.4667 115.463 66.2C115.143 65.92 114.723 65.78 114.203 65.78C113.696 65.78 113.276 65.92 112.943 66.2C112.623 66.4667 112.463 66.86 112.463 67.38C112.463 67.9 112.623 68.2933 112.943 68.56C113.276 68.8267 113.696 68.96 114.203 68.96ZM115.883 65.84L115.443 63.92H119.583V65.52L115.883 65.84ZM125.177 74.24C124.337 74.24 123.644 74.1067 123.097 73.84C122.55 73.56 122.144 73.1933 121.877 72.74C121.624 72.2733 121.497 71.76 121.497 71.2C121.497 70.5867 121.65 70.0467 121.957 69.58C122.277 69.1133 122.75 68.7467 123.377 68.48C124.017 68.2133 124.817 68.08 125.777 68.08H128.277C128.277 67.5867 128.21 67.18 128.077 66.86C127.944 66.5267 127.737 66.28 127.457 66.12C127.177 65.96 126.804 65.88 126.337 65.88C125.83 65.88 125.397 65.9933 125.037 66.22C124.69 66.4333 124.477 66.7667 124.397 67.22H121.777C121.844 66.5 122.077 65.88 122.477 65.36C122.89 64.8267 123.43 64.4133 124.097 64.12C124.777 63.8267 125.53 63.68 126.357 63.68C127.304 63.68 128.124 63.84 128.817 64.16C129.51 64.48 130.044 64.94 130.417 65.54C130.79 66.14 130.977 66.88 130.977 67.76V74H128.697L128.397 72.46C128.25 72.7267 128.077 72.9667 127.877 73.18C127.677 73.3933 127.444 73.58 127.177 73.74C126.91 73.9 126.61 74.02 126.277 74.1C125.944 74.1933 125.577 74.24 125.177 74.24ZM125.817 72.16C126.164 72.16 126.47 72.1 126.737 71.98C127.017 71.8467 127.257 71.6733 127.457 71.46C127.657 71.2333 127.81 70.98 127.917 70.7C128.037 70.4067 128.117 70.0933 128.157 69.76V69.74H126.097C125.684 69.74 125.344 69.7933 125.077 69.9C124.824 69.9933 124.637 70.1333 124.517 70.32C124.397 70.5067 124.337 70.72 124.337 70.96C124.337 71.2267 124.397 71.4467 124.517 71.62C124.637 71.7933 124.81 71.9267 125.037 72.02C125.264 72.1133 125.524 72.16 125.817 72.16ZM133.496 74V63.92H135.876L136.096 65.26C136.416 64.78 136.836 64.4 137.356 64.12C137.889 63.8267 138.496 63.68 139.176 63.68C139.682 63.68 140.136 63.7467 140.536 63.88C140.936 64.0133 141.289 64.2067 141.596 64.46C141.916 64.7133 142.176 65.0333 142.376 65.42C142.749 64.8733 143.236 64.4467 143.836 64.14C144.436 63.8333 145.089 63.68 145.796 63.68C146.676 63.68 147.409 63.86 147.996 64.22C148.582 64.5667 149.022 65.0733 149.316 65.74C149.622 66.4067 149.776 67.2267 149.776 68.2V74H147.096V68.44C147.096 67.64 146.936 67.0267 146.616 66.6C146.309 66.1733 145.829 65.96 145.176 65.96C144.749 65.96 144.369 66.0667 144.036 66.28C143.702 66.4933 143.442 66.8 143.256 67.2C143.082 67.6 142.996 68.08 142.996 68.64V74H140.296V68.44C140.296 67.64 140.136 67.0267 139.816 66.6C139.496 66.1733 139.002 65.96 138.336 65.96C137.922 65.96 137.549 66.0667 137.216 66.28C136.896 66.4933 136.642 66.8 136.456 67.2C136.282 67.6 136.196 68.08 136.196 68.64V74H133.496ZM157.084 74.24C156.124 74.24 155.257 74.02 154.484 73.58C153.724 73.1267 153.117 72.5067 152.664 71.72C152.224 70.92 152.004 70.0067 152.004 68.98C152.004 67.9267 152.224 67.0067 152.664 66.22C153.117 65.42 153.731 64.8 154.504 64.36C155.277 63.9067 156.144 63.68 157.104 63.68C158.077 63.68 158.944 63.9067 159.704 64.36C160.477 64.8 161.084 65.42 161.524 66.22C161.977 67.0067 162.204 67.92 162.204 68.96C162.204 70 161.977 70.92 161.524 71.72C161.084 72.5067 160.477 73.1267 159.704 73.58C158.931 74.02 158.057 74.24 157.084 74.24ZM157.084 71.9C157.537 71.9 157.937 71.7933 158.284 71.58C158.644 71.3667 158.924 71.04 159.124 70.6C159.337 70.16 159.444 69.6133 159.444 68.96C159.444 68.3067 159.337 67.7667 159.124 67.34C158.924 66.9 158.644 66.5733 158.284 66.36C157.937 66.1333 157.544 66.02 157.104 66.02C156.677 66.02 156.284 66.1333 155.924 66.36C155.564 66.5733 155.277 66.9 155.064 67.34C154.864 67.7667 154.764 68.3067 154.764 68.96C154.764 69.6133 154.864 70.16 155.064 70.6C155.277 71.04 155.557 71.3667 155.904 71.58C156.264 71.7933 156.657 71.9 157.084 71.9ZM168.68 74C167.974 74 167.354 73.8933 166.82 73.68C166.3 73.4533 165.894 73.0867 165.6 72.58C165.307 72.06 165.16 71.3533 165.16 70.46V66.18H163.44V63.92H165.16L165.46 61.18H167.86V63.92H170.52V66.18H167.86V70.5C167.86 70.9533 167.96 71.2667 168.16 71.44C168.36 71.6133 168.7 71.7 169.18 71.7H170.5V74H168.68ZM176.193 74.24C175.353 74.24 174.659 74.1067 174.113 73.84C173.566 73.56 173.159 73.1933 172.893 72.74C172.639 72.2733 172.513 71.76 172.513 71.2C172.513 70.5867 172.666 70.0467 172.973 69.58C173.293 69.1133 173.766 68.7467 174.393 68.48C175.033 68.2133 175.833 68.08 176.793 68.08H179.293C179.293 67.5867 179.226 67.18 179.093 66.86C178.959 66.5267 178.753 66.28 178.473 66.12C178.193 65.96 177.819 65.88 177.353 65.88C176.846 65.88 176.413 65.9933 176.053 66.22C175.706 66.4333 175.493 66.7667 175.413 67.22H172.793C172.859 66.5 173.093 65.88 173.493 65.36C173.906 64.8267 174.446 64.4133 175.113 64.12C175.793 63.8267 176.546 63.68 177.373 63.68C178.319 63.68 179.139 63.84 179.833 64.16C180.526 64.48 181.059 64.94 181.433 65.54C181.806 66.14 181.993 66.88 181.993 67.76V74H179.713L179.413 72.46C179.266 72.7267 179.093 72.9667 178.893 73.18C178.693 73.3933 178.459 73.58 178.193 73.74C177.926 73.9 177.626 74.02 177.293 74.1C176.959 74.1933 176.593 74.24 176.193 74.24ZM176.833 72.16C177.179 72.16 177.486 72.1 177.753 71.98C178.033 71.8467 178.273 71.6733 178.473 71.46C178.673 71.2333 178.826 70.98 178.933 70.7C179.053 70.4067 179.133 70.0933 179.173 69.76V69.74H177.113C176.699 69.74 176.359 69.7933 176.093 69.9C175.839 69.9933 175.653 70.1333 175.533 70.32C175.413 70.5067 175.353 70.72 175.353 70.96C175.353 71.2267 175.413 71.4467 175.533 71.62C175.653 71.7933 175.826 71.9267 176.053 72.02C176.279 72.1133 176.539 72.16 176.833 72.16ZM102.052 98V84H104.752L111.192 93.66V84H113.892V98H111.192L104.752 88.36V98H102.052ZM121.402 98.24C120.389 98.24 119.489 98.0267 118.702 97.6C117.929 97.16 117.322 96.5533 116.882 95.78C116.456 94.9933 116.242 94.0867 116.242 93.06C116.242 92.0067 116.456 91.08 116.882 90.28C117.322 89.4667 117.929 88.8333 118.702 88.38C119.476 87.9133 120.376 87.68 121.402 87.68C122.402 87.68 123.276 87.9 124.022 88.34C124.769 88.78 125.349 89.3733 125.762 90.12C126.176 90.8667 126.382 91.7133 126.382 92.66C126.382 92.7933 126.382 92.9467 126.382 93.12C126.382 93.28 126.369 93.4467 126.342 93.62H118.162V91.98H123.662C123.622 91.3267 123.389 90.8133 122.962 90.44C122.549 90.0667 122.029 89.88 121.402 89.88C120.949 89.88 120.529 89.9867 120.142 90.2C119.756 90.4 119.449 90.7133 119.222 91.14C119.009 91.5667 118.902 92.1067 118.902 92.76V93.34C118.902 93.8867 119.002 94.3667 119.202 94.78C119.416 95.18 119.709 95.4933 120.082 95.72C120.456 95.9333 120.889 96.04 121.382 96.04C121.876 96.04 122.282 95.9333 122.602 95.72C122.936 95.5067 123.182 95.2333 123.342 94.9H126.102C125.916 95.5267 125.602 96.0933 125.162 96.6C124.722 97.1067 124.182 97.5067 123.542 97.8C122.902 98.0933 122.189 98.24 121.402 98.24ZM128.593 98V87.92H130.993L131.253 89.78C131.493 89.34 131.793 88.9667 132.153 88.66C132.527 88.3533 132.947 88.1133 133.413 87.94C133.893 87.7667 134.42 87.68 134.993 87.68V90.54H134.073C133.673 90.54 133.3 90.5867 132.953 90.68C132.62 90.7733 132.327 90.9267 132.073 91.14C131.82 91.34 131.627 91.62 131.493 91.98C131.36 92.34 131.293 92.7933 131.293 93.34V98H128.593ZM141.381 98.24C140.421 98.24 139.554 98.02 138.781 97.58C138.021 97.1267 137.414 96.5067 136.961 95.72C136.521 94.92 136.301 94.0067 136.301 92.98C136.301 91.9267 136.521 91.0067 136.961 90.22C137.414 89.42 138.027 88.8 138.801 88.36C139.574 87.9067 140.441 87.68 141.401 87.68C142.374 87.68 143.241 87.9067 144.001 88.36C144.774 88.8 145.381 89.42 145.821 90.22C146.274 91.0067 146.501 91.92 146.501 92.96C146.501 94 146.274 94.92 145.821 95.72C145.381 96.5067 144.774 97.1267 144.001 97.58C143.227 98.02 142.354 98.24 141.381 98.24ZM141.381 95.9C141.834 95.9 142.234 95.7933 142.581 95.58C142.941 95.3667 143.221 95.04 143.421 94.6C143.634 94.16 143.741 93.6133 143.741 92.96C143.741 92.3067 143.634 91.7667 143.421 91.34C143.221 90.9 142.941 90.5733 142.581 90.36C142.234 90.1333 141.841 90.02 141.401 90.02C140.974 90.02 140.581 90.1333 140.221 90.36C139.861 90.5733 139.574 90.9 139.361 91.34C139.161 91.7667 139.061 92.3067 139.061 92.96C139.061 93.6133 139.161 94.16 139.361 94.6C139.574 95.04 139.854 95.3667 140.201 95.58C140.561 95.7933 140.954 95.9 141.381 95.9ZM148.828 98V83.6H151.528V98H148.828ZM154.22 98V87.92H156.92V98H154.22ZM155.58 86.54C155.1 86.54 154.7 86.4 154.38 86.12C154.073 85.8267 153.92 85.46 153.92 85.02C153.92 84.58 154.073 84.22 154.38 83.94C154.7 83.6467 155.1 83.5 155.58 83.5C156.073 83.5 156.473 83.6467 156.78 83.94C157.1 84.22 157.26 84.58 157.26 85.02C157.26 85.46 157.1 85.8267 156.78 86.12C156.473 86.4 156.073 86.54 155.58 86.54ZM78.1426 122V117.08L73.4226 108H76.4826L79.7826 114.92H79.2426L82.5226 108H85.5626L80.8426 117.08V122H78.1426ZM87.1579 122V107.6H89.8579V122H87.1579ZM95.8899 122.24C95.0499 122.24 94.3566 122.107 93.8099 121.84C93.2633 121.56 92.8566 121.193 92.5899 120.74C92.3366 120.273 92.2099 119.76 92.2099 119.2C92.2099 118.587 92.3633 118.047 92.6699 117.58C92.9899 117.113 93.4633 116.747 94.0899 116.48C94.7299 116.213 95.5299 116.08 96.4899 116.08H98.9899C98.9899 115.587 98.9233 115.18 98.7899 114.86C98.6566 114.527 98.4499 114.28 98.1699 114.12C97.8899 113.96 97.5166 113.88 97.0499 113.88C96.5433 113.88 96.1099 113.993 95.7499 114.22C95.4033 114.433 95.1899 114.767 95.1099 115.22H92.4899C92.5566 114.5 92.7899 113.88 93.1899 113.36C93.6033 112.827 94.1433 112.413 94.8099 112.12C95.4899 111.827 96.2433 111.68 97.0699 111.68C98.0166 111.68 98.8366 111.84 99.5299 112.16C100.223 112.48 100.757 112.94 101.13 113.54C101.503 114.14 101.69 114.88 101.69 115.76V122H99.4099L99.1099 120.46C98.9633 120.727 98.7899 120.967 98.5899 121.18C98.3899 121.393 98.1566 121.58 97.8899 121.74C97.6233 121.9 97.3233 122.02 96.9899 122.1C96.6566 122.193 96.2899 122.24 95.8899 122.24ZM96.5299 120.16C96.8766 120.16 97.1833 120.1 97.4499 119.98C97.7299 119.847 97.9699 119.673 98.1699 119.46C98.3699 119.233 98.5233 118.98 98.6299 118.7C98.7499 118.407 98.8299 118.093 98.8699 117.76V117.74H96.8099C96.3966 117.74 96.0566 117.793 95.7899 117.9C95.5366 117.993 95.3499 118.133 95.2299 118.32C95.1099 118.507 95.0499 118.72 95.0499 118.96C95.0499 119.227 95.1099 119.447 95.2299 119.62C95.3499 119.793 95.5233 119.927 95.7499 120.02C95.9766 120.113 96.2366 120.16 96.5299 120.16ZM104.209 122V111.92H106.589L106.789 113.56C107.095 113 107.529 112.547 108.089 112.2C108.662 111.853 109.342 111.68 110.129 111.68C110.969 111.68 111.675 111.853 112.249 112.2C112.822 112.547 113.255 113.053 113.549 113.72C113.855 114.387 114.009 115.207 114.009 116.18V122H111.329V116.44C111.329 115.64 111.155 115.027 110.809 114.6C110.475 114.173 109.955 113.96 109.249 113.96C108.795 113.96 108.389 114.067 108.029 114.28C107.682 114.493 107.409 114.8 107.209 115.2C107.009 115.587 106.909 116.06 106.909 116.62V122H104.209ZM120.892 126.64C119.932 126.64 119.092 126.52 118.372 126.28C117.652 126.053 117.092 125.7 116.692 125.22C116.306 124.753 116.112 124.173 116.112 123.48C116.112 123.013 116.232 122.573 116.472 122.16C116.712 121.747 117.059 121.373 117.512 121.04C117.979 120.693 118.559 120.4 119.252 120.16L120.272 121.48C119.659 121.68 119.212 121.927 118.932 122.22C118.666 122.527 118.532 122.853 118.532 123.2C118.532 123.507 118.632 123.767 118.832 123.98C119.046 124.193 119.326 124.347 119.672 124.44C120.032 124.547 120.432 124.6 120.872 124.6C121.299 124.6 121.666 124.547 121.972 124.44C122.292 124.333 122.539 124.173 122.712 123.96C122.899 123.76 122.992 123.52 122.992 123.24C122.992 122.88 122.866 122.587 122.612 122.36C122.359 122.133 121.852 121.993 121.092 121.94C120.412 121.887 119.806 121.813 119.272 121.72C118.752 121.613 118.292 121.493 117.892 121.36C117.492 121.213 117.152 121.053 116.872 120.88C116.606 120.707 116.386 120.533 116.212 120.36V119.9L118.352 117.6L120.292 118.22L117.772 120.7L118.532 119.38C118.679 119.46 118.819 119.54 118.952 119.62C119.099 119.687 119.279 119.753 119.492 119.82C119.706 119.873 119.986 119.927 120.332 119.98C120.679 120.033 121.119 120.08 121.652 120.12C122.532 120.2 123.252 120.367 123.812 120.62C124.386 120.873 124.806 121.213 125.072 121.64C125.339 122.053 125.472 122.567 125.472 123.18C125.472 123.78 125.306 124.34 124.972 124.86C124.652 125.393 124.152 125.82 123.472 126.14C122.792 126.473 121.932 126.64 120.892 126.64ZM120.892 119.02C120.052 119.02 119.326 118.86 118.712 118.54C118.112 118.207 117.646 117.767 117.312 117.22C116.992 116.66 116.832 116.04 116.832 115.36C116.832 114.68 116.992 114.067 117.312 113.52C117.646 112.96 118.112 112.513 118.712 112.18C119.326 111.847 120.052 111.68 120.892 111.68C121.746 111.68 122.472 111.847 123.072 112.18C123.686 112.513 124.152 112.96 124.472 113.52C124.792 114.067 124.952 114.68 124.952 115.36C124.952 116.04 124.792 116.66 124.472 117.22C124.152 117.767 123.686 118.207 123.072 118.54C122.472 118.86 121.746 119.02 120.892 119.02ZM120.892 116.96C121.412 116.96 121.832 116.827 122.152 116.56C122.472 116.293 122.632 115.9 122.632 115.38C122.632 114.86 122.472 114.467 122.152 114.2C121.832 113.92 121.412 113.78 120.892 113.78C120.386 113.78 119.966 113.92 119.632 114.2C119.312 114.467 119.152 114.86 119.152 115.38C119.152 115.9 119.312 116.293 119.632 116.56C119.966 116.827 120.386 116.96 120.892 116.96ZM122.572 113.84L122.132 111.92H126.272V113.52L122.572 113.84ZM136.854 122V117.08L132.134 108H135.194L138.494 114.92H137.954L141.234 108H144.274L139.554 117.08V122H136.854ZM145.869 122V107.6H148.569V122H145.869ZM154.601 122.24C153.761 122.24 153.068 122.107 152.521 121.84C151.974 121.56 151.568 121.193 151.301 120.74C151.048 120.273 150.921 119.76 150.921 119.2C150.921 118.587 151.074 118.047 151.381 117.58C151.701 117.113 152.174 116.747 152.801 116.48C153.441 116.213 154.241 116.08 155.201 116.08H157.701C157.701 115.587 157.634 115.18 157.501 114.86C157.368 114.527 157.161 114.28 156.881 114.12C156.601 113.96 156.228 113.88 155.761 113.88C155.254 113.88 154.821 113.993 154.461 114.22C154.114 114.433 153.901 114.767 153.821 115.22H151.201C151.268 114.5 151.501 113.88 151.901 113.36C152.314 112.827 152.854 112.413 153.521 112.12C154.201 111.827 154.954 111.68 155.781 111.68C156.728 111.68 157.548 111.84 158.241 112.16C158.934 112.48 159.468 112.94 159.841 113.54C160.214 114.14 160.401 114.88 160.401 115.76V122H158.121L157.821 120.46C157.674 120.727 157.501 120.967 157.301 121.18C157.101 121.393 156.868 121.58 156.601 121.74C156.334 121.9 156.034 122.02 155.701 122.1C155.368 122.193 155.001 122.24 154.601 122.24ZM155.241 120.16C155.588 120.16 155.894 120.1 156.161 119.98C156.441 119.847 156.681 119.673 156.881 119.46C157.081 119.233 157.234 118.98 157.341 118.7C157.461 118.407 157.541 118.093 157.581 117.76V117.74H155.521C155.108 117.74 154.768 117.793 154.501 117.9C154.248 117.993 154.061 118.133 153.941 118.32C153.821 118.507 153.761 118.72 153.761 118.96C153.761 119.227 153.821 119.447 153.941 119.62C154.061 119.793 154.234 119.927 154.461 120.02C154.688 120.113 154.948 120.16 155.241 120.16ZM162.92 122V111.92H165.3L165.5 113.56C165.806 113 166.24 112.547 166.8 112.2C167.373 111.853 168.053 111.68 168.84 111.68C169.68 111.68 170.386 111.853 170.96 112.2C171.533 112.547 171.966 113.053 172.26 113.72C172.566 114.387 172.72 115.207 172.72 116.18V122H170.04V116.44C170.04 115.64 169.866 115.027 169.52 114.6C169.186 114.173 168.666 113.96 167.96 113.96C167.506 113.96 167.1 114.067 166.74 114.28C166.393 114.493 166.12 114.8 165.92 115.2C165.72 115.587 165.62 116.06 165.62 116.62V122H162.92ZM179.603 126.64C178.643 126.64 177.803 126.52 177.083 126.28C176.363 126.053 175.803 125.7 175.403 125.22C175.017 124.753 174.823 124.173 174.823 123.48C174.823 123.013 174.943 122.573 175.183 122.16C175.423 121.747 175.77 121.373 176.223 121.04C176.69 120.693 177.27 120.4 177.963 120.16L178.983 121.48C178.37 121.68 177.923 121.927 177.643 122.22C177.377 122.527 177.243 122.853 177.243 123.2C177.243 123.507 177.343 123.767 177.543 123.98C177.757 124.193 178.037 124.347 178.383 124.44C178.743 124.547 179.143 124.6 179.583 124.6C180.01 124.6 180.377 124.547 180.683 124.44C181.003 124.333 181.25 124.173 181.423 123.96C181.61 123.76 181.703 123.52 181.703 123.24C181.703 122.88 181.577 122.587 181.323 122.36C181.07 122.133 180.563 121.993 179.803 121.94C179.123 121.887 178.517 121.813 177.983 121.72C177.463 121.613 177.003 121.493 176.603 121.36C176.203 121.213 175.863 121.053 175.583 120.88C175.317 120.707 175.097 120.533 174.923 120.36V119.9L177.063 117.6L179.003 118.22L176.483 120.7L177.243 119.38C177.39 119.46 177.53 119.54 177.663 119.62C177.81 119.687 177.99 119.753 178.203 119.82C178.417 119.873 178.697 119.927 179.043 119.98C179.39 120.033 179.83 120.08 180.363 120.12C181.243 120.2 181.963 120.367 182.523 120.62C183.097 120.873 183.517 121.213 183.783 121.64C184.05 122.053 184.183 122.567 184.183 123.18C184.183 123.78 184.017 124.34 183.683 124.86C183.363 125.393 182.863 125.82 182.183 126.14C181.503 126.473 180.643 126.64 179.603 126.64ZM179.603 119.02C178.763 119.02 178.037 118.86 177.423 118.54C176.823 118.207 176.357 117.767 176.023 117.22C175.703 116.66 175.543 116.04 175.543 115.36C175.543 114.68 175.703 114.067 176.023 113.52C176.357 112.96 176.823 112.513 177.423 112.18C178.037 111.847 178.763 111.68 179.603 111.68C180.457 111.68 181.183 111.847 181.783 112.18C182.397 112.513 182.863 112.96 183.183 113.52C183.503 114.067 183.663 114.68 183.663 115.36C183.663 116.04 183.503 116.66 183.183 117.22C182.863 117.767 182.397 118.207 181.783 118.54C181.183 118.86 180.457 119.02 179.603 119.02ZM179.603 116.96C180.123 116.96 180.543 116.827 180.863 116.56C181.183 116.293 181.343 115.9 181.343 115.38C181.343 114.86 181.183 114.467 180.863 114.2C180.543 113.92 180.123 113.78 179.603 113.78C179.097 113.78 178.677 113.92 178.343 114.2C178.023 114.467 177.863 114.86 177.863 115.38C177.863 115.9 178.023 116.293 178.343 116.56C178.677 116.827 179.097 116.96 179.603 116.96ZM181.283 113.84L180.843 111.92H184.983V113.52L181.283 113.84ZM89.796 146V132H92.496V143.9H98.636V146H89.796ZM104.288 146.24C103.448 146.24 102.755 146.107 102.208 145.84C101.662 145.56 101.255 145.193 100.988 144.74C100.735 144.273 100.608 143.76 100.608 143.2C100.608 142.587 100.762 142.047 101.068 141.58C101.388 141.113 101.862 140.747 102.488 140.48C103.128 140.213 103.928 140.08 104.888 140.08H107.388C107.388 139.587 107.322 139.18 107.188 138.86C107.055 138.527 106.848 138.28 106.568 138.12C106.288 137.96 105.915 137.88 105.448 137.88C104.942 137.88 104.508 137.993 104.148 138.22C103.802 138.433 103.588 138.767 103.508 139.22H100.888C100.955 138.5 101.188 137.88 101.588 137.36C102.002 136.827 102.542 136.413 103.208 136.12C103.888 135.827 104.642 135.68 105.468 135.68C106.415 135.68 107.235 135.84 107.928 136.16C108.622 136.48 109.155 136.94 109.528 137.54C109.902 138.14 110.088 138.88 110.088 139.76V146H107.808L107.508 144.46C107.362 144.727 107.188 144.967 106.988 145.18C106.788 145.393 106.555 145.58 106.288 145.74C106.022 145.9 105.722 146.02 105.388 146.1C105.055 146.193 104.688 146.24 104.288 146.24ZM104.928 144.16C105.275 144.16 105.582 144.1 105.848 143.98C106.128 143.847 106.368 143.673 106.568 143.46C106.768 143.233 106.922 142.98 107.028 142.7C107.148 142.407 107.228 142.093 107.268 141.76V141.74H105.208C104.795 141.74 104.455 141.793 104.188 141.9C103.935 141.993 103.748 142.133 103.628 142.32C103.508 142.507 103.448 142.72 103.448 142.96C103.448 143.227 103.508 143.447 103.628 143.62C103.748 143.793 103.922 143.927 104.148 144.02C104.375 144.113 104.635 144.16 104.928 144.16ZM115.014 146L111.314 135.92H114.154L116.654 143.46L119.154 135.92H121.974L118.294 146H115.014ZM126.417 146.24C125.577 146.24 124.884 146.107 124.337 145.84C123.791 145.56 123.384 145.193 123.117 144.74C122.864 144.273 122.737 143.76 122.737 143.2C122.737 142.587 122.891 142.047 123.197 141.58C123.517 141.113 123.991 140.747 124.617 140.48C125.257 140.213 126.057 140.08 127.017 140.08H129.517C129.517 139.587 129.451 139.18 129.317 138.86C129.184 138.527 128.977 138.28 128.697 138.12C128.417 137.96 128.044 137.88 127.577 137.88C127.071 137.88 126.637 137.993 126.277 138.22C125.931 138.433 125.717 138.767 125.637 139.22H123.017C123.084 138.5 123.317 137.88 123.717 137.36C124.131 136.827 124.671 136.413 125.337 136.12C126.017 135.827 126.771 135.68 127.597 135.68C128.544 135.68 129.364 135.84 130.057 136.16C130.751 136.48 131.284 136.94 131.657 137.54C132.031 138.14 132.217 138.88 132.217 139.76V146H129.937L129.637 144.46C129.491 144.727 129.317 144.967 129.117 145.18C128.917 145.393 128.684 145.58 128.417 145.74C128.151 145.9 127.851 146.02 127.517 146.1C127.184 146.193 126.817 146.24 126.417 146.24ZM127.057 144.16C127.404 144.16 127.711 144.1 127.977 143.98C128.257 143.847 128.497 143.673 128.697 143.46C128.897 143.233 129.051 142.98 129.157 142.7C129.277 142.407 129.357 142.093 129.397 141.76V141.74H127.337C126.924 141.74 126.584 141.793 126.317 141.9C126.064 141.993 125.877 142.133 125.757 142.32C125.637 142.507 125.577 142.72 125.577 142.96C125.577 143.227 125.637 143.447 125.757 143.62C125.877 143.793 126.051 143.927 126.277 144.02C126.504 144.113 126.764 144.16 127.057 144.16ZM134.736 146V135.92H137.116L137.316 137.56C137.623 137 138.056 136.547 138.616 136.2C139.189 135.853 139.869 135.68 140.656 135.68C141.496 135.68 142.203 135.853 142.776 136.2C143.349 136.547 143.783 137.053 144.076 137.72C144.383 138.387 144.536 139.207 144.536 140.18V146H141.856V140.44C141.856 139.64 141.683 139.027 141.336 138.6C141.003 138.173 140.483 137.96 139.776 137.96C139.323 137.96 138.916 138.067 138.556 138.28C138.209 138.493 137.936 138.8 137.736 139.2C137.536 139.587 137.436 140.06 137.436 140.62V146H134.736ZM151.56 146.24C150.64 146.24 149.813 146.013 149.08 145.56C148.36 145.107 147.793 144.48 147.38 143.68C146.966 142.88 146.76 141.98 146.76 140.98C146.76 139.953 146.966 139.047 147.38 138.26C147.806 137.46 148.386 136.833 149.12 136.38C149.866 135.913 150.7 135.68 151.62 135.68C152.34 135.68 152.973 135.813 153.52 136.08C154.066 136.347 154.506 136.727 154.84 137.22V131.6H157.54V146H155.14L154.84 144.62C154.64 144.9 154.386 145.167 154.08 145.42C153.786 145.673 153.433 145.873 153.02 146.02C152.606 146.167 152.12 146.24 151.56 146.24ZM152.2 143.88C152.733 143.88 153.2 143.76 153.6 143.52C154.013 143.267 154.333 142.92 154.56 142.48C154.786 142.04 154.9 141.533 154.9 140.96C154.9 140.387 154.786 139.88 154.56 139.44C154.333 139 154.013 138.66 153.6 138.42C153.2 138.167 152.733 138.04 152.2 138.04C151.693 138.04 151.233 138.167 150.82 138.42C150.406 138.66 150.08 139 149.84 139.44C149.613 139.88 149.5 140.38 149.5 140.94C149.5 141.527 149.613 142.04 149.84 142.48C150.08 142.92 150.4 143.267 150.8 143.52C151.213 143.76 151.68 143.88 152.2 143.88ZM163.585 146.24C162.745 146.24 162.052 146.107 161.505 145.84C160.959 145.56 160.552 145.193 160.285 144.74C160.032 144.273 159.905 143.76 159.905 143.2C159.905 142.587 160.059 142.047 160.365 141.58C160.685 141.113 161.159 140.747 161.785 140.48C162.425 140.213 163.225 140.08 164.185 140.08H166.685C166.685 139.587 166.619 139.18 166.485 138.86C166.352 138.527 166.145 138.28 165.865 138.12C165.585 137.96 165.212 137.88 164.745 137.88C164.239 137.88 163.805 137.993 163.445 138.22C163.099 138.433 162.885 138.767 162.805 139.22H160.185C160.252 138.5 160.485 137.88 160.885 137.36C161.299 136.827 161.839 136.413 162.505 136.12C163.185 135.827 163.939 135.68 164.765 135.68C165.712 135.68 166.532 135.84 167.225 136.16C167.919 136.48 168.452 136.94 168.825 137.54C169.199 138.14 169.385 138.88 169.385 139.76V146H167.105L166.805 144.46C166.659 144.727 166.485 144.967 166.285 145.18C166.085 145.393 165.852 145.58 165.585 145.74C165.319 145.9 165.019 146.02 164.685 146.1C164.352 146.193 163.985 146.24 163.585 146.24ZM164.225 144.16C164.572 144.16 164.879 144.1 165.145 143.98C165.425 143.847 165.665 143.673 165.865 143.46C166.065 143.233 166.219 142.98 166.325 142.7C166.445 142.407 166.525 142.093 166.565 141.76V141.74H164.505C164.092 141.74 163.752 141.793 163.485 141.9C163.232 141.993 163.045 142.133 162.925 142.32C162.805 142.507 162.745 142.72 162.745 142.96C162.745 143.227 162.805 143.447 162.925 143.62C163.045 143.793 163.219 143.927 163.445 144.02C163.672 144.113 163.932 144.16 164.225 144.16Z" fill="#6A5ACD"/>
<defs>
<filter id="filter0_f_329_281" x="163.755" y="10.1165" width="78.6514" height="177.139" filterUnits="userSpaceOnUse" color-interpolation-filters="sRGB">
<feFlood flood-opacity="0" result="BackgroundImageFix"/>
<feBlend mode="normal" in="SourceGraphic" in2="BackgroundImageFix" result="shape"/>
<feGaussianBlur stdDeviation="15" result="effect1_foregroundBlur_329_281"/>
</filter>
<filter id="filter1_f_329_281" x="0.760254" y="20.605" width="219.681" height="218.744" filterUnits="userSpaceOnUse" color-interpolation-filters="sRGB">
<feFlood flood-opacity="0" result="BackgroundImageFix"/>
<feBlend mode="normal" in="SourceGraphic" in2="BackgroundImageFix" result="shape"/>
<feGaussianBlur stdDeviation="25" result="effect1_foregroundBlur_329_281"/>
</filter>
<linearGradient id="paint0_linear_329_281" x1="188.694" y1="207" x2="21.2126" y2="-75.993" gradientUnits="userSpaceOnUse">
<stop stop-color="#A1A4F3"/>
<stop offset="0.992945" stop-color="white" stop-opacity="0.86"/>
</linearGradient>
</defs>
</svg>
