<svg width="353" height="320" viewBox="0 0 353 320" fill="none" xmlns="http://www.w3.org/2000/svg">
<g filter="url(#filter0_f_329_479)">
<ellipse cx="203.081" cy="98.6862" rx="9.32577" ry="58.5698" fill="#050259" fill-opacity="0.5" style="mix-blend-mode:overlay"/>
</g>
<ellipse cx="129.252" cy="103.5" rx="100.252" ry="103.5" fill="url(#paint0_linear_329_479)"/>
<g filter="url(#filter1_f_329_479)">
<ellipse cx="110.6" cy="129.977" rx="59.8404" ry="59.3721" fill="#A1A4F3" fill-opacity="0.2"/>
</g>
<path d="M65.2648 86V72H67.9648V83.9H74.1048V86H65.2648ZM79.7571 86.24C78.9171 86.24 78.2238 86.1067 77.6771 85.84C77.1304 85.56 76.7238 85.1933 76.4571 84.74C76.2038 84.2733 76.0771 83.76 76.0771 83.2C76.0771 82.5867 76.2304 82.0467 76.5371 81.58C76.8571 81.1133 77.3304 80.7467 77.9571 80.48C78.5971 80.2133 79.3971 80.08 80.3571 80.08H82.8571C82.8571 79.5867 82.7904 79.18 82.6571 78.86C82.5238 78.5267 82.3171 78.28 82.0371 78.12C81.7571 77.96 81.3838 77.88 80.9171 77.88C80.4104 77.88 79.9771 77.9933 79.6171 78.22C79.2704 78.4333 79.0571 78.7667 78.9771 79.22H76.3571C76.4238 78.5 76.6571 77.88 77.0571 77.36C77.4704 76.8267 78.0104 76.4133 78.6771 76.12C79.3571 75.8267 80.1104 75.68 80.9371 75.68C81.8838 75.68 82.7038 75.84 83.3971 76.16C84.0904 76.48 84.6238 76.94 84.9971 77.54C85.3704 78.14 85.5571 78.88 85.5571 79.76V86H83.2771L82.9771 84.46C82.8304 84.7267 82.6571 84.9667 82.4571 85.18C82.2571 85.3933 82.0238 85.58 81.7571 85.74C81.4904 85.9 81.1904 86.02 80.8571 86.1C80.5238 86.1933 80.1571 86.24 79.7571 86.24ZM80.3971 84.16C80.7438 84.16 81.0504 84.1 81.3171 83.98C81.5971 83.8467 81.8371 83.6733 82.0371 83.46C82.2371 83.2333 82.3904 82.98 82.4971 82.7C82.6171 82.4067 82.6971 82.0933 82.7371 81.76V81.74H80.6771C80.2638 81.74 79.9238 81.7933 79.6571 81.9C79.4038 81.9933 79.2171 82.1333 79.0971 82.32C78.9771 82.5067 78.9171 82.72 78.9171 82.96C78.9171 83.2267 78.9771 83.4467 79.0971 83.62C79.2171 83.7933 79.3904 83.9267 79.6171 84.02C79.8438 84.1133 80.1038 84.16 80.3971 84.16ZM88.0759 86V75.92H90.4759L90.7359 77.78C90.9759 77.34 91.2759 76.9667 91.6359 76.66C92.0092 76.3533 92.4292 76.1133 92.8959 75.94C93.3759 75.7667 93.9025 75.68 94.4759 75.68V78.54H93.5559C93.1559 78.54 92.7825 78.5867 92.4359 78.68C92.1025 78.7733 91.8092 78.9267 91.5559 79.14C91.3025 79.34 91.1092 79.62 90.9759 79.98C90.8425 80.34 90.7759 80.7933 90.7759 81.34V86H88.0759ZM99.6595 86.24C98.8195 86.24 98.1261 86.1067 97.5795 85.84C97.0328 85.56 96.6261 85.1933 96.3595 84.74C96.1061 84.2733 95.9795 83.76 95.9795 83.2C95.9795 82.5867 96.1328 82.0467 96.4395 81.58C96.7595 81.1133 97.2328 80.7467 97.8595 80.48C98.4995 80.2133 99.2995 80.08 100.259 80.08H102.759C102.759 79.5867 102.693 79.18 102.559 78.86C102.426 78.5267 102.219 78.28 101.939 78.12C101.659 77.96 101.286 77.88 100.819 77.88C100.313 77.88 99.8795 77.9933 99.5195 78.22C99.1728 78.4333 98.9595 78.7667 98.8795 79.22H96.2595C96.3261 78.5 96.5595 77.88 96.9595 77.36C97.3728 76.8267 97.9128 76.4133 98.5795 76.12C99.2595 75.8267 100.013 75.68 100.839 75.68C101.786 75.68 102.606 75.84 103.299 76.16C103.993 76.48 104.526 76.94 104.899 77.54C105.273 78.14 105.459 78.88 105.459 79.76V86H103.179L102.879 84.46C102.733 84.7267 102.559 84.9667 102.359 85.18C102.159 85.3933 101.926 85.58 101.659 85.74C101.393 85.9 101.093 86.02 100.759 86.1C100.426 86.1933 100.059 86.24 99.6595 86.24ZM100.299 84.16C100.646 84.16 100.953 84.1 101.219 83.98C101.499 83.8467 101.739 83.6733 101.939 83.46C102.139 83.2333 102.293 82.98 102.399 82.7C102.519 82.4067 102.599 82.0933 102.639 81.76V81.74H100.579C100.166 81.74 99.8261 81.7933 99.5595 81.9C99.3061 81.9933 99.1195 82.1333 98.9995 82.32C98.8795 82.5067 98.8195 82.72 98.8195 82.96C98.8195 83.2267 98.8795 83.4467 98.9995 83.62C99.1195 83.7933 99.2928 83.9267 99.5195 84.02C99.7461 84.1133 100.006 84.16 100.299 84.16ZM107.978 86V75.92H110.358L110.558 77.56C110.865 77 111.298 76.5467 111.858 76.2C112.432 75.8533 113.112 75.68 113.898 75.68C114.738 75.68 115.445 75.8533 116.018 76.2C116.592 76.5467 117.025 77.0533 117.318 77.72C117.625 78.3867 117.778 79.2067 117.778 80.18V86H115.098V80.44C115.098 79.64 114.925 79.0267 114.578 78.6C114.245 78.1733 113.725 77.96 113.018 77.96C112.565 77.96 112.158 78.0667 111.798 78.28C111.452 78.4933 111.178 78.8 110.978 79.2C110.778 79.5867 110.678 80.06 110.678 80.62V86H107.978ZM118.422 90.4V88.1H119.242C119.669 88.1 119.969 88.0133 120.142 87.84C120.329 87.6667 120.422 87.3867 120.422 87V75.92H123.122V86.98C123.122 87.8067 122.975 88.4667 122.682 88.96C122.402 89.4667 122.002 89.8333 121.482 90.06C120.962 90.2867 120.349 90.4 119.642 90.4H118.422ZM121.782 74.54C121.289 74.54 120.889 74.4 120.582 74.12C120.275 73.8267 120.122 73.46 120.122 73.02C120.122 72.58 120.275 72.22 120.582 71.94C120.889 71.6467 121.289 71.5 121.782 71.5C122.275 71.5 122.675 71.6467 122.982 71.94C123.289 72.22 123.442 72.58 123.442 73.02C123.442 73.46 123.289 73.8267 122.982 74.12C122.675 74.4 122.275 74.54 121.782 74.54ZM129.21 86.24C128.37 86.24 127.677 86.1067 127.13 85.84C126.584 85.56 126.177 85.1933 125.91 84.74C125.657 84.2733 125.53 83.76 125.53 83.2C125.53 82.5867 125.684 82.0467 125.99 81.58C126.31 81.1133 126.784 80.7467 127.41 80.48C128.05 80.2133 128.85 80.08 129.81 80.08H132.31C132.31 79.5867 132.244 79.18 132.11 78.86C131.977 78.5267 131.77 78.28 131.49 78.12C131.21 77.96 130.837 77.88 130.37 77.88C129.864 77.88 129.43 77.9933 129.07 78.22C128.724 78.4333 128.51 78.7667 128.43 79.22H125.81C125.877 78.5 126.11 77.88 126.51 77.36C126.924 76.8267 127.464 76.4133 128.13 76.12C128.81 75.8267 129.564 75.68 130.39 75.68C131.337 75.68 132.157 75.84 132.85 76.16C133.544 76.48 134.077 76.94 134.45 77.54C134.824 78.14 135.01 78.88 135.01 79.76V86H132.73L132.43 84.46C132.284 84.7267 132.11 84.9667 131.91 85.18C131.71 85.3933 131.477 85.58 131.21 85.74C130.944 85.9 130.644 86.02 130.31 86.1C129.977 86.1933 129.61 86.24 129.21 86.24ZM129.85 84.16C130.197 84.16 130.504 84.1 130.77 83.98C131.05 83.8467 131.29 83.6733 131.49 83.46C131.69 83.2333 131.844 82.98 131.95 82.7C132.07 82.4067 132.15 82.0933 132.19 81.76V81.74H130.13C129.717 81.74 129.377 81.7933 129.11 81.9C128.857 81.9933 128.67 82.1333 128.55 82.32C128.43 82.5067 128.37 82.72 128.37 82.96C128.37 83.2267 128.43 83.4467 128.55 83.62C128.67 83.7933 128.844 83.9267 129.07 84.02C129.297 84.1133 129.557 84.16 129.85 84.16ZM146.716 86.24C145.796 86.24 144.969 86.0133 144.236 85.56C143.516 85.1067 142.949 84.48 142.536 83.68C142.123 82.88 141.916 81.98 141.916 80.98C141.916 79.9533 142.123 79.0467 142.536 78.26C142.963 77.46 143.543 76.8333 144.276 76.38C145.023 75.9133 145.856 75.68 146.776 75.68C147.496 75.68 148.129 75.8133 148.676 76.08C149.223 76.3467 149.663 76.7267 149.996 77.22V71.6H152.696V86H150.296L149.996 84.62C149.796 84.9 149.543 85.1667 149.236 85.42C148.943 85.6733 148.589 85.8733 148.176 86.02C147.763 86.1667 147.276 86.24 146.716 86.24ZM147.356 83.88C147.889 83.88 148.356 83.76 148.756 83.52C149.169 83.2667 149.489 82.92 149.716 82.48C149.943 82.04 150.056 81.5333 150.056 80.96C150.056 80.3867 149.943 79.88 149.716 79.44C149.489 79 149.169 78.66 148.756 78.42C148.356 78.1667 147.889 78.04 147.356 78.04C146.849 78.04 146.389 78.1667 145.976 78.42C145.563 78.66 145.236 79 144.996 79.44C144.769 79.88 144.656 80.38 144.656 80.94C144.656 81.5267 144.769 82.04 144.996 82.48C145.236 82.92 145.556 83.2667 145.956 83.52C146.369 83.76 146.836 83.88 147.356 83.88ZM160.101 86.24C159.141 86.24 158.275 86.02 157.501 85.58C156.741 85.1267 156.135 84.5067 155.681 83.72C155.241 82.92 155.021 82.0067 155.021 80.98C155.021 79.9267 155.241 79.0067 155.681 78.22C156.135 77.42 156.748 76.8 157.521 76.36C158.295 75.9067 159.161 75.68 160.121 75.68C161.095 75.68 161.961 75.9067 162.721 76.36C163.495 76.8 164.101 77.42 164.541 78.22C164.995 79.0067 165.221 79.92 165.221 80.96C165.221 82 164.995 82.92 164.541 83.72C164.101 84.5067 163.495 85.1267 162.721 85.58C161.948 86.02 161.075 86.24 160.101 86.24ZM160.101 83.9C160.555 83.9 160.955 83.7933 161.301 83.58C161.661 83.3667 161.941 83.04 162.141 82.6C162.355 82.16 162.461 81.6133 162.461 80.96C162.461 80.3067 162.355 79.7667 162.141 79.34C161.941 78.9 161.661 78.5733 161.301 78.36C160.955 78.1333 160.561 78.02 160.121 78.02C159.695 78.02 159.301 78.1333 158.941 78.36C158.581 78.5733 158.295 78.9 158.081 79.34C157.881 79.7667 157.781 80.3067 157.781 80.96C157.781 81.6133 157.881 82.16 158.081 82.6C158.295 83.04 158.575 83.3667 158.921 83.58C159.281 83.7933 159.675 83.9 160.101 83.9ZM172.429 86.24C171.415 86.24 170.515 86.0133 169.729 85.56C168.942 85.1067 168.329 84.4867 167.889 83.7C167.449 82.9133 167.229 82.0133 167.229 81C167.229 79.96 167.449 79.0467 167.889 78.26C168.329 77.46 168.942 76.8333 169.729 76.38C170.515 75.9133 171.415 75.68 172.429 75.68C173.722 75.68 174.809 76.02 175.689 76.7C176.569 77.38 177.129 78.3133 177.369 79.5H174.509C174.389 79.0333 174.135 78.6667 173.749 78.4C173.375 78.1333 172.929 78 172.409 78C171.942 78 171.522 78.12 171.149 78.36C170.789 78.5867 170.502 78.9267 170.289 79.38C170.089 79.82 169.989 80.3467 169.989 80.96C169.989 81.4267 170.049 81.8467 170.169 82.22C170.289 82.58 170.455 82.8933 170.669 83.16C170.882 83.4133 171.135 83.6067 171.429 83.74C171.735 83.8733 172.062 83.94 172.409 83.94C172.755 83.94 173.069 83.88 173.349 83.76C173.642 83.64 173.889 83.4733 174.089 83.26C174.289 83.0333 174.429 82.76 174.509 82.44H177.369C177.129 83.6 176.562 84.5267 175.669 85.22C174.789 85.9 173.709 86.24 172.429 86.24ZM184.537 86.24C183.524 86.24 182.624 86.0267 181.837 85.6C181.064 85.16 180.457 84.5533 180.017 83.78C179.59 82.9933 179.377 82.0867 179.377 81.06C179.377 80.0067 179.59 79.08 180.017 78.28C180.457 77.4667 181.064 76.8333 181.837 76.38C182.61 75.9133 183.51 75.68 184.537 75.68C185.537 75.68 186.41 75.9 187.157 76.34C187.904 76.78 188.484 77.3733 188.897 78.12C189.31 78.8667 189.517 79.7133 189.517 80.66C189.517 80.7933 189.517 80.9467 189.517 81.12C189.517 81.28 189.504 81.4467 189.477 81.62H181.297V79.98H186.797C186.757 79.3267 186.524 78.8133 186.097 78.44C185.684 78.0667 185.164 77.88 184.537 77.88C184.084 77.88 183.664 77.9867 183.277 78.2C182.89 78.4 182.584 78.7133 182.357 79.14C182.144 79.5667 182.037 80.1067 182.037 80.76V81.34C182.037 81.8867 182.137 82.3667 182.337 82.78C182.55 83.18 182.844 83.4933 183.217 83.72C183.59 83.9333 184.024 84.04 184.517 84.04C185.01 84.04 185.417 83.9333 185.737 83.72C186.07 83.5067 186.317 83.2333 186.477 82.9H189.237C189.05 83.5267 188.737 84.0933 188.297 84.6C187.857 85.1067 187.317 85.5067 186.677 85.8C186.037 86.0933 185.324 86.24 184.537 86.24ZM101.183 110V96H103.883V107.9H110.023V110H101.183ZM112.335 110V99.92H115.035V110H112.335ZM113.695 98.54C113.215 98.54 112.815 98.4 112.495 98.12C112.188 97.8267 112.035 97.46 112.035 97.02C112.035 96.58 112.188 96.22 112.495 95.94C112.815 95.6467 113.215 95.5 113.695 95.5C114.188 95.5 114.588 95.6467 114.895 95.94C115.215 96.22 115.375 96.58 115.375 97.02C115.375 97.46 115.215 97.8267 114.895 98.12C114.588 98.4 114.188 98.54 113.695 98.54ZM117.763 110V99.92H120.143L120.363 101.26C120.683 100.78 121.103 100.4 121.623 100.12C122.157 99.8267 122.763 99.68 123.443 99.68C123.95 99.68 124.403 99.7467 124.803 99.88C125.203 100.013 125.557 100.207 125.863 100.46C126.183 100.713 126.443 101.033 126.643 101.42C127.017 100.873 127.503 100.447 128.103 100.14C128.703 99.8333 129.357 99.68 130.063 99.68C130.943 99.68 131.677 99.86 132.263 100.22C132.85 100.567 133.29 101.073 133.583 101.74C133.89 102.407 134.043 103.227 134.043 104.2V110H131.363V104.44C131.363 103.64 131.203 103.027 130.883 102.6C130.577 102.173 130.097 101.96 129.443 101.96C129.017 101.96 128.637 102.067 128.303 102.28C127.97 102.493 127.71 102.8 127.523 103.2C127.35 103.6 127.263 104.08 127.263 104.64V110H124.563V104.44C124.563 103.64 124.403 103.027 124.083 102.6C123.763 102.173 123.27 101.96 122.603 101.96C122.19 101.96 121.817 102.067 121.483 102.28C121.163 102.493 120.91 102.8 120.723 103.2C120.55 103.6 120.463 104.08 120.463 104.64V110H117.763ZM139.991 110.24C139.151 110.24 138.458 110.107 137.911 109.84C137.365 109.56 136.958 109.193 136.691 108.74C136.438 108.273 136.311 107.76 136.311 107.2C136.311 106.587 136.465 106.047 136.771 105.58C137.091 105.113 137.565 104.747 138.191 104.48C138.831 104.213 139.631 104.08 140.591 104.08H143.091C143.091 103.587 143.025 103.18 142.891 102.86C142.758 102.527 142.551 102.28 142.271 102.12C141.991 101.96 141.618 101.88 141.151 101.88C140.645 101.88 140.211 101.993 139.851 102.22C139.505 102.433 139.291 102.767 139.211 103.22H136.591C136.658 102.5 136.891 101.88 137.291 101.36C137.705 100.827 138.245 100.413 138.911 100.12C139.591 99.8267 140.345 99.68 141.171 99.68C142.118 99.68 142.938 99.84 143.631 100.16C144.325 100.48 144.858 100.94 145.231 101.54C145.605 102.14 145.791 102.88 145.791 103.76V110H143.511L143.211 108.46C143.065 108.727 142.891 108.967 142.691 109.18C142.491 109.393 142.258 109.58 141.991 109.74C141.725 109.9 141.425 110.02 141.091 110.1C140.758 110.193 140.391 110.24 139.991 110.24ZM140.631 108.16C140.978 108.16 141.285 108.1 141.551 107.98C141.831 107.847 142.071 107.673 142.271 107.46C142.471 107.233 142.625 106.98 142.731 106.7C142.851 106.407 142.931 106.093 142.971 105.76V105.74H140.911C140.498 105.74 140.158 105.793 139.891 105.9C139.638 105.993 139.451 106.133 139.331 106.32C139.211 106.507 139.151 106.72 139.151 106.96C139.151 107.227 139.211 107.447 139.331 107.62C139.451 107.793 139.625 107.927 139.851 108.02C140.078 108.113 140.338 108.16 140.631 108.16ZM142.231 98.6C141.845 98.6 141.511 98.5267 141.231 98.38C140.965 98.2333 140.718 98.0867 140.491 97.94C140.265 97.78 140.011 97.7 139.731 97.7C139.518 97.7 139.331 97.7733 139.171 97.92C139.025 98.0667 138.925 98.2933 138.871 98.6H137.451C137.598 97.7067 137.878 97.0533 138.291 96.64C138.718 96.2267 139.238 96.02 139.851 96.02C140.238 96.02 140.565 96.1 140.831 96.26C141.098 96.4067 141.345 96.56 141.571 96.72C141.811 96.8667 142.071 96.94 142.351 96.94C142.578 96.94 142.765 96.8667 142.911 96.72C143.071 96.5733 143.171 96.3467 143.211 96.04H144.631C144.498 96.9333 144.218 97.5867 143.791 98C143.378 98.4 142.858 98.6 142.231 98.6ZM153.07 110.24C152.11 110.24 151.244 110.02 150.47 109.58C149.71 109.127 149.104 108.507 148.65 107.72C148.21 106.92 147.99 106.007 147.99 104.98C147.99 103.927 148.21 103.007 148.65 102.22C149.104 101.42 149.717 100.8 150.49 100.36C151.264 99.9067 152.13 99.68 153.09 99.68C154.064 99.68 154.93 99.9067 155.69 100.36C156.464 100.8 157.07 101.42 157.51 102.22C157.964 103.007 158.19 103.92 158.19 104.96C158.19 106 157.964 106.92 157.51 107.72C157.07 108.507 156.464 109.127 155.69 109.58C154.917 110.02 154.044 110.24 153.07 110.24ZM153.07 107.9C153.524 107.9 153.924 107.793 154.27 107.58C154.63 107.367 154.91 107.04 155.11 106.6C155.324 106.16 155.43 105.613 155.43 104.96C155.43 104.307 155.324 103.767 155.11 103.34C154.91 102.9 154.63 102.573 154.27 102.36C153.924 102.133 153.53 102.02 153.09 102.02C152.664 102.02 152.27 102.133 151.91 102.36C151.55 102.573 151.264 102.9 151.05 103.34C150.85 103.767 150.75 104.307 150.75 104.96C150.75 105.613 150.85 106.16 151.05 106.6C151.264 107.04 151.544 107.367 151.89 107.58C152.25 107.793 152.644 107.9 153.07 107.9ZM77.1886 134V120H82.9286C83.9019 120 84.7219 120.153 85.3886 120.46C86.0553 120.767 86.5553 121.193 86.8886 121.74C87.2353 122.273 87.4086 122.893 87.4086 123.6C87.4086 124.307 87.2553 124.9 86.9486 125.38C86.6419 125.86 86.2353 126.233 85.7286 126.5C85.2353 126.753 84.6886 126.9 84.0886 126.94L84.4086 126.72C85.0486 126.747 85.6153 126.92 86.1086 127.24C86.6153 127.547 87.0086 127.96 87.2886 128.48C87.5819 129 87.7286 129.567 87.7286 130.18C87.7286 130.927 87.5486 131.587 87.1886 132.16C86.8286 132.733 86.3086 133.187 85.6286 133.52C84.9486 133.84 84.1153 134 83.1286 134H77.1886ZM79.8886 131.8H82.6886C83.4219 131.8 83.9886 131.633 84.3886 131.3C84.7886 130.967 84.9886 130.487 84.9886 129.86C84.9886 129.233 84.7819 128.747 84.3686 128.4C83.9553 128.04 83.3819 127.86 82.6486 127.86H79.8886V131.8ZM79.8886 125.84H82.4886C83.1953 125.84 83.7286 125.68 84.0886 125.36C84.4619 125.04 84.6486 124.587 84.6486 124C84.6486 123.427 84.4619 122.98 84.0886 122.66C83.7286 122.327 83.1886 122.16 82.4686 122.16H79.8886V125.84ZM94.7225 134.24C93.7092 134.24 92.8092 134.027 92.0225 133.6C91.2492 133.16 90.6425 132.553 90.2025 131.78C89.7758 130.993 89.5625 130.087 89.5625 129.06C89.5625 128.007 89.7758 127.08 90.2025 126.28C90.6425 125.467 91.2492 124.833 92.0225 124.38C92.7958 123.913 93.6958 123.68 94.7225 123.68C95.7225 123.68 96.5958 123.9 97.3425 124.34C98.0892 124.78 98.6692 125.373 99.0825 126.12C99.4958 126.867 99.7025 127.713 99.7025 128.66C99.7025 128.793 99.7025 128.947 99.7025 129.12C99.7025 129.28 99.6892 129.447 99.6625 129.62H91.4825V127.98H96.9825C96.9425 127.327 96.7092 126.813 96.2825 126.44C95.8692 126.067 95.3492 125.88 94.7225 125.88C94.2692 125.88 93.8492 125.987 93.4625 126.2C93.0758 126.4 92.7692 126.713 92.5425 127.14C92.3292 127.567 92.2225 128.107 92.2225 128.76V129.34C92.2225 129.887 92.3225 130.367 92.5225 130.78C92.7358 131.18 93.0292 131.493 93.4025 131.72C93.7758 131.933 94.2092 132.04 94.7025 132.04C95.1958 132.04 95.6025 131.933 95.9225 131.72C96.2558 131.507 96.5025 131.233 96.6625 130.9H99.4225C99.2358 131.527 98.9225 132.093 98.4825 132.6C98.0425 133.107 97.5025 133.507 96.8625 133.8C96.2225 134.093 95.5092 134.24 94.7225 134.24ZM101.914 134V123.92H104.314L104.574 125.78C104.814 125.34 105.114 124.967 105.474 124.66C105.847 124.353 106.267 124.113 106.734 123.94C107.214 123.767 107.74 123.68 108.314 123.68V126.54H107.394C106.994 126.54 106.62 126.587 106.274 126.68C105.94 126.773 105.647 126.927 105.394 127.14C105.14 127.34 104.947 127.62 104.814 127.98C104.68 128.34 104.614 128.793 104.614 129.34V134H101.914ZM114.203 138.64C113.243 138.64 112.403 138.52 111.683 138.28C110.963 138.053 110.403 137.7 110.003 137.22C109.616 136.753 109.423 136.173 109.423 135.48C109.423 135.013 109.543 134.573 109.783 134.16C110.023 133.747 110.37 133.373 110.823 133.04C111.29 132.693 111.87 132.4 112.563 132.16L113.583 133.48C112.97 133.68 112.523 133.927 112.243 134.22C111.976 134.527 111.843 134.853 111.843 135.2C111.843 135.507 111.943 135.767 112.143 135.98C112.356 136.193 112.636 136.347 112.983 136.44C113.343 136.547 113.743 136.6 114.183 136.6C114.61 136.6 114.976 136.547 115.283 136.44C115.603 136.333 115.85 136.173 116.023 135.96C116.21 135.76 116.303 135.52 116.303 135.24C116.303 134.88 116.176 134.587 115.923 134.36C115.67 134.133 115.163 133.993 114.403 133.94C113.723 133.887 113.116 133.813 112.583 133.72C112.063 133.613 111.603 133.493 111.203 133.36C110.803 133.213 110.463 133.053 110.183 132.88C109.916 132.707 109.696 132.533 109.523 132.36V131.9L111.663 129.6L113.603 130.22L111.083 132.7L111.843 131.38C111.99 131.46 112.13 131.54 112.263 131.62C112.41 131.687 112.59 131.753 112.803 131.82C113.016 131.873 113.296 131.927 113.643 131.98C113.99 132.033 114.43 132.08 114.963 132.12C115.843 132.2 116.563 132.367 117.123 132.62C117.696 132.873 118.116 133.213 118.383 133.64C118.65 134.053 118.783 134.567 118.783 135.18C118.783 135.78 118.616 136.34 118.283 136.86C117.963 137.393 117.463 137.82 116.783 138.14C116.103 138.473 115.243 138.64 114.203 138.64ZM114.203 131.02C113.363 131.02 112.636 130.86 112.023 130.54C111.423 130.207 110.956 129.767 110.623 129.22C110.303 128.66 110.143 128.04 110.143 127.36C110.143 126.68 110.303 126.067 110.623 125.52C110.956 124.96 111.423 124.513 112.023 124.18C112.636 123.847 113.363 123.68 114.203 123.68C115.056 123.68 115.783 123.847 116.383 124.18C116.996 124.513 117.463 124.96 117.783 125.52C118.103 126.067 118.263 126.68 118.263 127.36C118.263 128.04 118.103 128.66 117.783 129.22C117.463 129.767 116.996 130.207 116.383 130.54C115.783 130.86 115.056 131.02 114.203 131.02ZM114.203 128.96C114.723 128.96 115.143 128.827 115.463 128.56C115.783 128.293 115.943 127.9 115.943 127.38C115.943 126.86 115.783 126.467 115.463 126.2C115.143 125.92 114.723 125.78 114.203 125.78C113.696 125.78 113.276 125.92 112.943 126.2C112.623 126.467 112.463 126.86 112.463 127.38C112.463 127.9 112.623 128.293 112.943 128.56C113.276 128.827 113.696 128.96 114.203 128.96ZM115.883 125.84L115.443 123.92H119.583V125.52L115.883 125.84ZM125.177 134.24C124.337 134.24 123.644 134.107 123.097 133.84C122.55 133.56 122.144 133.193 121.877 132.74C121.624 132.273 121.497 131.76 121.497 131.2C121.497 130.587 121.65 130.047 121.957 129.58C122.277 129.113 122.75 128.747 123.377 128.48C124.017 128.213 124.817 128.08 125.777 128.08H128.277C128.277 127.587 128.21 127.18 128.077 126.86C127.944 126.527 127.737 126.28 127.457 126.12C127.177 125.96 126.804 125.88 126.337 125.88C125.83 125.88 125.397 125.993 125.037 126.22C124.69 126.433 124.477 126.767 124.397 127.22H121.777C121.844 126.5 122.077 125.88 122.477 125.36C122.89 124.827 123.43 124.413 124.097 124.12C124.777 123.827 125.53 123.68 126.357 123.68C127.304 123.68 128.124 123.84 128.817 124.16C129.51 124.48 130.044 124.94 130.417 125.54C130.79 126.14 130.977 126.88 130.977 127.76V134H128.697L128.397 132.46C128.25 132.727 128.077 132.967 127.877 133.18C127.677 133.393 127.444 133.58 127.177 133.74C126.91 133.9 126.61 134.02 126.277 134.1C125.944 134.193 125.577 134.24 125.177 134.24ZM125.817 132.16C126.164 132.16 126.47 132.1 126.737 131.98C127.017 131.847 127.257 131.673 127.457 131.46C127.657 131.233 127.81 130.98 127.917 130.7C128.037 130.407 128.117 130.093 128.157 129.76V129.74H126.097C125.684 129.74 125.344 129.793 125.077 129.9C124.824 129.993 124.637 130.133 124.517 130.32C124.397 130.507 124.337 130.72 124.337 130.96C124.337 131.227 124.397 131.447 124.517 131.62C124.637 131.793 124.81 131.927 125.037 132.02C125.264 132.113 125.524 132.16 125.817 132.16ZM133.496 134V123.92H135.876L136.096 125.26C136.416 124.78 136.836 124.4 137.356 124.12C137.889 123.827 138.496 123.68 139.176 123.68C139.682 123.68 140.136 123.747 140.536 123.88C140.936 124.013 141.289 124.207 141.596 124.46C141.916 124.713 142.176 125.033 142.376 125.42C142.749 124.873 143.236 124.447 143.836 124.14C144.436 123.833 145.089 123.68 145.796 123.68C146.676 123.68 147.409 123.86 147.996 124.22C148.582 124.567 149.022 125.073 149.316 125.74C149.622 126.407 149.776 127.227 149.776 128.2V134H147.096V128.44C147.096 127.64 146.936 127.027 146.616 126.6C146.309 126.173 145.829 125.96 145.176 125.96C144.749 125.96 144.369 126.067 144.036 126.28C143.702 126.493 143.442 126.8 143.256 127.2C143.082 127.6 142.996 128.08 142.996 128.64V134H140.296V128.44C140.296 127.64 140.136 127.027 139.816 126.6C139.496 126.173 139.002 125.96 138.336 125.96C137.922 125.96 137.549 126.067 137.216 126.28C136.896 126.493 136.642 126.8 136.456 127.2C136.282 127.6 136.196 128.08 136.196 128.64V134H133.496ZM157.084 134.24C156.124 134.24 155.257 134.02 154.484 133.58C153.724 133.127 153.117 132.507 152.664 131.72C152.224 130.92 152.004 130.007 152.004 128.98C152.004 127.927 152.224 127.007 152.664 126.22C153.117 125.42 153.731 124.8 154.504 124.36C155.277 123.907 156.144 123.68 157.104 123.68C158.077 123.68 158.944 123.907 159.704 124.36C160.477 124.8 161.084 125.42 161.524 126.22C161.977 127.007 162.204 127.92 162.204 128.96C162.204 130 161.977 130.92 161.524 131.72C161.084 132.507 160.477 133.127 159.704 133.58C158.931 134.02 158.057 134.24 157.084 134.24ZM157.084 131.9C157.537 131.9 157.937 131.793 158.284 131.58C158.644 131.367 158.924 131.04 159.124 130.6C159.337 130.16 159.444 129.613 159.444 128.96C159.444 128.307 159.337 127.767 159.124 127.34C158.924 126.9 158.644 126.573 158.284 126.36C157.937 126.133 157.544 126.02 157.104 126.02C156.677 126.02 156.284 126.133 155.924 126.36C155.564 126.573 155.277 126.9 155.064 127.34C154.864 127.767 154.764 128.307 154.764 128.96C154.764 129.613 154.864 130.16 155.064 130.6C155.277 131.04 155.557 131.367 155.904 131.58C156.264 131.793 156.657 131.9 157.084 131.9ZM168.68 134C167.974 134 167.354 133.893 166.82 133.68C166.3 133.453 165.894 133.087 165.6 132.58C165.307 132.06 165.16 131.353 165.16 130.46V126.18H163.44V123.92H165.16L165.46 121.18H167.86V123.92H170.52V126.18H167.86V130.5C167.86 130.953 167.96 131.267 168.16 131.44C168.36 131.613 168.7 131.7 169.18 131.7H170.5V134H168.68ZM176.193 134.24C175.353 134.24 174.659 134.107 174.113 133.84C173.566 133.56 173.159 133.193 172.893 132.74C172.639 132.273 172.513 131.76 172.513 131.2C172.513 130.587 172.666 130.047 172.973 129.58C173.293 129.113 173.766 128.747 174.393 128.48C175.033 128.213 175.833 128.08 176.793 128.08H179.293C179.293 127.587 179.226 127.18 179.093 126.86C178.959 126.527 178.753 126.28 178.473 126.12C178.193 125.96 177.819 125.88 177.353 125.88C176.846 125.88 176.413 125.993 176.053 126.22C175.706 126.433 175.493 126.767 175.413 127.22H172.793C172.859 126.5 173.093 125.88 173.493 125.36C173.906 124.827 174.446 124.413 175.113 124.12C175.793 123.827 176.546 123.68 177.373 123.68C178.319 123.68 179.139 123.84 179.833 124.16C180.526 124.48 181.059 124.94 181.433 125.54C181.806 126.14 181.993 126.88 181.993 127.76V134H179.713L179.413 132.46C179.266 132.727 179.093 132.967 178.893 133.18C178.693 133.393 178.459 133.58 178.193 133.74C177.926 133.9 177.626 134.02 177.293 134.1C176.959 134.193 176.593 134.24 176.193 134.24ZM176.833 132.16C177.179 132.16 177.486 132.1 177.753 131.98C178.033 131.847 178.273 131.673 178.473 131.46C178.673 131.233 178.826 130.98 178.933 130.7C179.053 130.407 179.133 130.093 179.173 129.76V129.74H177.113C176.699 129.74 176.359 129.793 176.093 129.9C175.839 129.993 175.653 130.133 175.533 130.32C175.413 130.507 175.353 130.72 175.353 130.96C175.353 131.227 175.413 131.447 175.533 131.62C175.653 131.793 175.826 131.927 176.053 132.02C176.279 132.113 176.539 132.16 176.833 132.16Z" fill="#6A5ACD"/>
<g filter="url(#filter2_f_329_479)">
<ellipse cx="255" cy="178.601" rx="41.0435" ry="14.3638" fill="#A1A4F3" fill-opacity="0.5" style="mix-blend-mode:overlay"/>
</g>
<ellipse cx="255" cy="229.592" rx="80" ry="82.5918" fill="url(#paint1_linear_329_479)"/>
<g filter="url(#filter3_f_329_479)">
<ellipse cx="250.13" cy="234.619" rx="52.8696" ry="34.4731" fill="#A1A4F3" fill-opacity="0.15" style="mix-blend-mode:overlay"/>
</g>
<path d="M213.443 212V198H216.143V209.9H222.283V212H213.443ZM227.935 212.24C227.095 212.24 226.402 212.107 225.855 211.84C225.308 211.56 224.902 211.193 224.635 210.74C224.382 210.273 224.255 209.76 224.255 209.2C224.255 208.587 224.408 208.047 224.715 207.58C225.035 207.113 225.508 206.747 226.135 206.48C226.775 206.213 227.575 206.08 228.535 206.08H231.035C231.035 205.587 230.968 205.18 230.835 204.86C230.702 204.527 230.495 204.28 230.215 204.12C229.935 203.96 229.562 203.88 229.095 203.88C228.588 203.88 228.155 203.993 227.795 204.22C227.448 204.433 227.235 204.767 227.155 205.22H224.535C224.602 204.5 224.835 203.88 225.235 203.36C225.648 202.827 226.188 202.413 226.855 202.12C227.535 201.827 228.288 201.68 229.115 201.68C230.062 201.68 230.882 201.84 231.575 202.16C232.268 202.48 232.802 202.94 233.175 203.54C233.548 204.14 233.735 204.88 233.735 205.76V212H231.455L231.155 210.46C231.008 210.727 230.835 210.967 230.635 211.18C230.435 211.393 230.202 211.58 229.935 211.74C229.668 211.9 229.368 212.02 229.035 212.1C228.702 212.193 228.335 212.24 227.935 212.24ZM228.575 210.16C228.922 210.16 229.228 210.1 229.495 209.98C229.775 209.847 230.015 209.673 230.215 209.46C230.415 209.233 230.568 208.98 230.675 208.7C230.795 208.407 230.875 208.093 230.915 207.76V207.74H228.855C228.442 207.74 228.102 207.793 227.835 207.9C227.582 207.993 227.395 208.133 227.275 208.32C227.155 208.507 227.095 208.72 227.095 208.96C227.095 209.227 227.155 209.447 227.275 209.62C227.395 209.793 227.568 209.927 227.795 210.02C228.022 210.113 228.282 210.16 228.575 210.16ZM238.661 212L234.961 201.92H237.801L240.301 209.46L242.801 201.92H245.621L241.941 212H238.661ZM250.064 212.24C249.224 212.24 248.53 212.107 247.984 211.84C247.437 211.56 247.03 211.193 246.764 210.74C246.51 210.273 246.384 209.76 246.384 209.2C246.384 208.587 246.537 208.047 246.844 207.58C247.164 207.113 247.637 206.747 248.264 206.48C248.904 206.213 249.704 206.08 250.664 206.08H253.164C253.164 205.587 253.097 205.18 252.964 204.86C252.83 204.527 252.624 204.28 252.344 204.12C252.064 203.96 251.69 203.88 251.224 203.88C250.717 203.88 250.284 203.993 249.924 204.22C249.577 204.433 249.364 204.767 249.284 205.22H246.664C246.73 204.5 246.964 203.88 247.364 203.36C247.777 202.827 248.317 202.413 248.984 202.12C249.664 201.827 250.417 201.68 251.244 201.68C252.19 201.68 253.01 201.84 253.704 202.16C254.397 202.48 254.93 202.94 255.304 203.54C255.677 204.14 255.864 204.88 255.864 205.76V212H253.584L253.284 210.46C253.137 210.727 252.964 210.967 252.764 211.18C252.564 211.393 252.33 211.58 252.064 211.74C251.797 211.9 251.497 212.02 251.164 212.1C250.83 212.193 250.464 212.24 250.064 212.24ZM250.704 210.16C251.05 210.16 251.357 210.1 251.624 209.98C251.904 209.847 252.144 209.673 252.344 209.46C252.544 209.233 252.697 208.98 252.804 208.7C252.924 208.407 253.004 208.093 253.044 207.76V207.74H250.984C250.57 207.74 250.23 207.793 249.964 207.9C249.71 207.993 249.524 208.133 249.404 208.32C249.284 208.507 249.224 208.72 249.224 208.96C249.224 209.227 249.284 209.447 249.404 209.62C249.524 209.793 249.697 209.927 249.924 210.02C250.15 210.113 250.41 210.16 250.704 210.16ZM258.382 212V201.92H260.763L260.963 203.56C261.269 203 261.703 202.547 262.263 202.2C262.836 201.853 263.516 201.68 264.303 201.68C265.143 201.68 265.849 201.853 266.423 202.2C266.996 202.547 267.429 203.053 267.723 203.72C268.029 204.387 268.183 205.207 268.183 206.18V212H265.503V206.44C265.503 205.64 265.329 205.027 264.983 204.6C264.649 204.173 264.129 203.96 263.423 203.96C262.969 203.96 262.563 204.067 262.202 204.28C261.856 204.493 261.583 204.8 261.383 205.2C261.183 205.587 261.083 206.06 261.083 206.62V212H258.382ZM275.206 212.24C274.286 212.24 273.46 212.013 272.726 211.56C272.006 211.107 271.44 210.48 271.026 209.68C270.613 208.88 270.406 207.98 270.406 206.98C270.406 205.953 270.613 205.047 271.026 204.26C271.453 203.46 272.033 202.833 272.766 202.38C273.513 201.913 274.346 201.68 275.266 201.68C275.986 201.68 276.62 201.813 277.166 202.08C277.713 202.347 278.153 202.727 278.486 203.22V197.6H281.186V212H278.786L278.486 210.62C278.286 210.9 278.033 211.167 277.726 211.42C277.433 211.673 277.08 211.873 276.666 212.02C276.253 212.167 275.766 212.24 275.206 212.24ZM275.846 209.88C276.38 209.88 276.846 209.76 277.246 209.52C277.66 209.267 277.98 208.92 278.206 208.48C278.433 208.04 278.546 207.533 278.546 206.96C278.546 206.387 278.433 205.88 278.206 205.44C277.98 205 277.66 204.66 277.246 204.42C276.846 204.167 276.38 204.04 275.846 204.04C275.34 204.04 274.88 204.167 274.466 204.42C274.053 204.66 273.726 205 273.486 205.44C273.26 205.88 273.146 206.38 273.146 206.94C273.146 207.527 273.26 208.04 273.486 208.48C273.726 208.92 274.046 209.267 274.446 209.52C274.86 209.76 275.326 209.88 275.846 209.88ZM287.232 212.24C286.392 212.24 285.698 212.107 285.152 211.84C284.605 211.56 284.198 211.193 283.932 210.74C283.678 210.273 283.552 209.76 283.552 209.2C283.552 208.587 283.705 208.047 284.012 207.58C284.332 207.113 284.805 206.747 285.432 206.48C286.072 206.213 286.872 206.08 287.832 206.08H290.332C290.332 205.587 290.265 205.18 290.132 204.86C289.998 204.527 289.792 204.28 289.512 204.12C289.232 203.96 288.858 203.88 288.392 203.88C287.885 203.88 287.452 203.993 287.092 204.22C286.745 204.433 286.532 204.767 286.452 205.22H283.832C283.898 204.5 284.132 203.88 284.532 203.36C284.945 202.827 285.485 202.413 286.152 202.12C286.832 201.827 287.585 201.68 288.412 201.68C289.358 201.68 290.178 201.84 290.872 202.16C291.565 202.48 292.098 202.94 292.472 203.54C292.845 204.14 293.032 204.88 293.032 205.76V212H290.752L290.452 210.46C290.305 210.727 290.132 210.967 289.932 211.18C289.732 211.393 289.498 211.58 289.232 211.74C288.965 211.9 288.665 212.02 288.332 212.1C287.998 212.193 287.632 212.24 287.232 212.24ZM287.872 210.16C288.218 210.16 288.525 210.1 288.792 209.98C289.072 209.847 289.312 209.673 289.512 209.46C289.712 209.233 289.865 208.98 289.972 208.7C290.092 208.407 290.172 208.093 290.212 207.76V207.74H288.152C287.738 207.74 287.398 207.793 287.132 207.9C286.878 207.993 286.692 208.133 286.572 208.32C286.452 208.507 286.392 208.72 286.392 208.96C286.392 209.227 286.452 209.447 286.572 209.62C286.692 209.793 286.865 209.927 287.092 210.02C287.318 210.113 287.578 210.16 287.872 210.16ZM204.143 236V231.08L199.423 222H202.483L205.783 228.92H205.243L208.523 222H211.563L206.843 231.08V236H204.143ZM213.158 236V221.6H215.858V236H213.158ZM221.89 236.24C221.05 236.24 220.357 236.107 219.81 235.84C219.263 235.56 218.857 235.193 218.59 234.74C218.337 234.273 218.21 233.76 218.21 233.2C218.21 232.587 218.363 232.047 218.67 231.58C218.99 231.113 219.463 230.747 220.09 230.48C220.73 230.213 221.53 230.08 222.49 230.08H224.99C224.99 229.587 224.923 229.18 224.79 228.86C224.657 228.527 224.45 228.28 224.17 228.12C223.89 227.96 223.517 227.88 223.05 227.88C222.543 227.88 222.11 227.993 221.75 228.22C221.403 228.433 221.19 228.767 221.11 229.22H218.49C218.557 228.5 218.79 227.88 219.19 227.36C219.603 226.827 220.143 226.413 220.81 226.12C221.49 225.827 222.243 225.68 223.07 225.68C224.017 225.68 224.837 225.84 225.53 226.16C226.223 226.48 226.757 226.94 227.13 227.54C227.503 228.14 227.69 228.88 227.69 229.76V236H225.41L225.11 234.46C224.963 234.727 224.79 234.967 224.59 235.18C224.39 235.393 224.157 235.58 223.89 235.74C223.623 235.9 223.323 236.02 222.99 236.1C222.657 236.193 222.29 236.24 221.89 236.24ZM222.53 234.16C222.877 234.16 223.183 234.1 223.45 233.98C223.73 233.847 223.97 233.673 224.17 233.46C224.37 233.233 224.523 232.98 224.63 232.7C224.75 232.407 224.83 232.093 224.87 231.76V231.74H222.81C222.397 231.74 222.057 231.793 221.79 231.9C221.537 231.993 221.35 232.133 221.23 232.32C221.11 232.507 221.05 232.72 221.05 232.96C221.05 233.227 221.11 233.447 221.23 233.62C221.35 233.793 221.523 233.927 221.75 234.02C221.977 234.113 222.237 234.16 222.53 234.16ZM230.209 236V225.92H232.589L232.789 227.56C233.095 227 233.529 226.547 234.089 226.2C234.662 225.853 235.342 225.68 236.129 225.68C236.969 225.68 237.675 225.853 238.249 226.2C238.822 226.547 239.255 227.053 239.549 227.72C239.855 228.387 240.009 229.207 240.009 230.18V236H237.329V230.44C237.329 229.64 237.155 229.027 236.809 228.6C236.475 228.173 235.955 227.96 235.249 227.96C234.795 227.96 234.389 228.067 234.029 228.28C233.682 228.493 233.409 228.8 233.209 229.2C233.009 229.587 232.909 230.06 232.909 230.62V236H230.209ZM246.892 240.64C245.932 240.64 245.092 240.52 244.372 240.28C243.652 240.053 243.092 239.7 242.692 239.22C242.306 238.753 242.112 238.173 242.112 237.48C242.112 237.013 242.232 236.573 242.472 236.16C242.712 235.747 243.059 235.373 243.512 235.04C243.979 234.693 244.559 234.4 245.252 234.16L246.272 235.48C245.659 235.68 245.212 235.927 244.932 236.22C244.666 236.527 244.532 236.853 244.532 237.2C244.532 237.507 244.632 237.767 244.832 237.98C245.046 238.193 245.326 238.347 245.672 238.44C246.032 238.547 246.432 238.6 246.872 238.6C247.299 238.6 247.666 238.547 247.972 238.44C248.292 238.333 248.539 238.173 248.712 237.96C248.899 237.76 248.992 237.52 248.992 237.24C248.992 236.88 248.866 236.587 248.612 236.36C248.359 236.133 247.852 235.993 247.092 235.94C246.412 235.887 245.806 235.813 245.272 235.72C244.752 235.613 244.292 235.493 243.892 235.36C243.492 235.213 243.152 235.053 242.872 234.88C242.606 234.707 242.386 234.533 242.212 234.36V233.9L244.352 231.6L246.292 232.22L243.772 234.7L244.532 233.38C244.679 233.46 244.819 233.54 244.952 233.62C245.099 233.687 245.279 233.753 245.492 233.82C245.706 233.873 245.986 233.927 246.332 233.98C246.679 234.033 247.119 234.08 247.652 234.12C248.532 234.2 249.252 234.367 249.812 234.62C250.386 234.873 250.806 235.213 251.072 235.64C251.339 236.053 251.472 236.567 251.472 237.18C251.472 237.78 251.306 238.34 250.972 238.86C250.652 239.393 250.152 239.82 249.472 240.14C248.792 240.473 247.932 240.64 246.892 240.64ZM246.892 233.02C246.052 233.02 245.326 232.86 244.712 232.54C244.112 232.207 243.646 231.767 243.312 231.22C242.992 230.66 242.832 230.04 242.832 229.36C242.832 228.68 242.992 228.067 243.312 227.52C243.646 226.96 244.112 226.513 244.712 226.18C245.326 225.847 246.052 225.68 246.892 225.68C247.746 225.68 248.472 225.847 249.072 226.18C249.686 226.513 250.152 226.96 250.472 227.52C250.792 228.067 250.952 228.68 250.952 229.36C250.952 230.04 250.792 230.66 250.472 231.22C250.152 231.767 249.686 232.207 249.072 232.54C248.472 232.86 247.746 233.02 246.892 233.02ZM246.892 230.96C247.412 230.96 247.832 230.827 248.152 230.56C248.472 230.293 248.632 229.9 248.632 229.38C248.632 228.86 248.472 228.467 248.152 228.2C247.832 227.92 247.412 227.78 246.892 227.78C246.386 227.78 245.966 227.92 245.632 228.2C245.312 228.467 245.152 228.86 245.152 229.38C245.152 229.9 245.312 230.293 245.632 230.56C245.966 230.827 246.386 230.96 246.892 230.96ZM248.572 227.84L248.132 225.92H252.272V227.52L248.572 227.84ZM262.854 236V231.08L258.134 222H261.194L264.494 228.92H263.954L267.234 222H270.274L265.554 231.08V236H262.854ZM271.869 236V221.6H274.569V236H271.869ZM280.601 236.24C279.761 236.24 279.068 236.107 278.521 235.84C277.974 235.56 277.568 235.193 277.301 234.74C277.048 234.273 276.921 233.76 276.921 233.2C276.921 232.587 277.074 232.047 277.381 231.58C277.701 231.113 278.174 230.747 278.801 230.48C279.441 230.213 280.241 230.08 281.201 230.08H283.701C283.701 229.587 283.634 229.18 283.501 228.86C283.368 228.527 283.161 228.28 282.881 228.12C282.601 227.96 282.228 227.88 281.761 227.88C281.254 227.88 280.821 227.993 280.461 228.22C280.114 228.433 279.901 228.767 279.821 229.22H277.201C277.268 228.5 277.501 227.88 277.901 227.36C278.314 226.827 278.854 226.413 279.521 226.12C280.201 225.827 280.954 225.68 281.781 225.68C282.728 225.68 283.548 225.84 284.241 226.16C284.934 226.48 285.468 226.94 285.841 227.54C286.214 228.14 286.401 228.88 286.401 229.76V236H284.121L283.821 234.46C283.674 234.727 283.501 234.967 283.301 235.18C283.101 235.393 282.868 235.58 282.601 235.74C282.334 235.9 282.034 236.02 281.701 236.1C281.368 236.193 281.001 236.24 280.601 236.24ZM281.241 234.16C281.588 234.16 281.894 234.1 282.161 233.98C282.441 233.847 282.681 233.673 282.881 233.46C283.081 233.233 283.234 232.98 283.341 232.7C283.461 232.407 283.541 232.093 283.581 231.76V231.74H281.521C281.108 231.74 280.768 231.793 280.501 231.9C280.248 231.993 280.061 232.133 279.941 232.32C279.821 232.507 279.761 232.72 279.761 232.96C279.761 233.227 279.821 233.447 279.941 233.62C280.061 233.793 280.234 233.927 280.461 234.02C280.688 234.113 280.948 234.16 281.241 234.16ZM288.92 236V225.92H291.3L291.5 227.56C291.806 227 292.24 226.547 292.8 226.2C293.373 225.853 294.053 225.68 294.84 225.68C295.68 225.68 296.386 225.853 296.96 226.2C297.533 226.547 297.966 227.053 298.26 227.72C298.566 228.387 298.72 229.207 298.72 230.18V236H296.04V230.44C296.04 229.64 295.866 229.027 295.52 228.6C295.186 228.173 294.666 227.96 293.96 227.96C293.506 227.96 293.1 228.067 292.74 228.28C292.393 228.493 292.12 228.8 291.92 229.2C291.72 229.587 291.62 230.06 291.62 230.62V236H288.92ZM305.603 240.64C304.643 240.64 303.803 240.52 303.083 240.28C302.363 240.053 301.803 239.7 301.403 239.22C301.017 238.753 300.823 238.173 300.823 237.48C300.823 237.013 300.943 236.573 301.183 236.16C301.423 235.747 301.77 235.373 302.223 235.04C302.69 234.693 303.27 234.4 303.963 234.16L304.983 235.48C304.37 235.68 303.923 235.927 303.643 236.22C303.377 236.527 303.243 236.853 303.243 237.2C303.243 237.507 303.343 237.767 303.543 237.98C303.757 238.193 304.037 238.347 304.383 238.44C304.743 238.547 305.143 238.6 305.583 238.6C306.01 238.6 306.377 238.547 306.683 238.44C307.003 238.333 307.25 238.173 307.423 237.96C307.61 237.76 307.703 237.52 307.703 237.24C307.703 236.88 307.577 236.587 307.323 236.36C307.07 236.133 306.563 235.993 305.803 235.94C305.123 235.887 304.517 235.813 303.983 235.72C303.463 235.613 303.003 235.493 302.603 235.36C302.203 235.213 301.863 235.053 301.583 234.88C301.317 234.707 301.097 234.533 300.923 234.36V233.9L303.063 231.6L305.003 232.22L302.483 234.7L303.243 233.38C303.39 233.46 303.53 233.54 303.663 233.62C303.81 233.687 303.99 233.753 304.203 233.82C304.417 233.873 304.697 233.927 305.043 233.98C305.39 234.033 305.83 234.08 306.363 234.12C307.243 234.2 307.963 234.367 308.523 234.62C309.097 234.873 309.517 235.213 309.783 235.64C310.05 236.053 310.183 236.567 310.183 237.18C310.183 237.78 310.017 238.34 309.683 238.86C309.363 239.393 308.863 239.82 308.183 240.14C307.503 240.473 306.643 240.64 305.603 240.64ZM305.603 233.02C304.763 233.02 304.037 232.86 303.423 232.54C302.823 232.207 302.357 231.767 302.023 231.22C301.703 230.66 301.543 230.04 301.543 229.36C301.543 228.68 301.703 228.067 302.023 227.52C302.357 226.96 302.823 226.513 303.423 226.18C304.037 225.847 304.763 225.68 305.603 225.68C306.457 225.68 307.183 225.847 307.783 226.18C308.397 226.513 308.863 226.96 309.183 227.52C309.503 228.067 309.663 228.68 309.663 229.36C309.663 230.04 309.503 230.66 309.183 231.22C308.863 231.767 308.397 232.207 307.783 232.54C307.183 232.86 306.457 233.02 305.603 233.02ZM305.603 230.96C306.123 230.96 306.543 230.827 306.863 230.56C307.183 230.293 307.343 229.9 307.343 229.38C307.343 228.86 307.183 228.467 306.863 228.2C306.543 227.92 306.123 227.78 305.603 227.78C305.097 227.78 304.677 227.92 304.343 228.2C304.023 228.467 303.863 228.86 303.863 229.38C303.863 229.9 304.023 230.293 304.343 230.56C304.677 230.827 305.097 230.96 305.603 230.96ZM307.283 227.84L306.843 225.92H310.983V227.52L307.283 227.84ZM224.25 260.24C222.917 260.24 221.757 259.947 220.77 259.36C219.784 258.76 219.017 257.927 218.47 256.86C217.924 255.78 217.65 254.527 217.65 253.1C217.65 251.66 217.93 250.393 218.49 249.3C219.05 248.193 219.857 247.327 220.91 246.7C221.964 246.073 223.224 245.76 224.69 245.76C226.33 245.76 227.69 246.153 228.77 246.94C229.864 247.727 230.57 248.82 230.89 250.22H227.87C227.67 249.607 227.297 249.127 226.75 248.78C226.217 248.42 225.524 248.24 224.67 248.24C223.764 248.24 222.99 248.44 222.35 248.84C221.71 249.24 221.224 249.8 220.89 250.52C220.557 251.24 220.39 252.1 220.39 253.1C220.39 254.113 220.557 254.973 220.89 255.68C221.224 256.387 221.697 256.927 222.31 257.3C222.937 257.66 223.67 257.84 224.51 257.84C225.737 257.84 226.664 257.513 227.29 256.86C227.93 256.193 228.31 255.333 228.43 254.28H224.99V252.26H231.15V260H228.65L228.45 258.22C228.157 258.66 227.81 259.033 227.41 259.34C227.024 259.633 226.57 259.853 226.05 260C225.53 260.16 224.93 260.24 224.25 260.24ZM238.457 260.24C237.444 260.24 236.544 260.027 235.757 259.6C234.984 259.16 234.377 258.553 233.937 257.78C233.51 256.993 233.297 256.087 233.297 255.06C233.297 254.007 233.51 253.08 233.937 252.28C234.377 251.467 234.984 250.833 235.757 250.38C236.53 249.913 237.43 249.68 238.457 249.68C239.457 249.68 240.33 249.9 241.077 250.34C241.824 250.78 242.404 251.373 242.817 252.12C243.23 252.867 243.437 253.713 243.437 254.66C243.437 254.793 243.437 254.947 243.437 255.12C243.437 255.28 243.424 255.447 243.397 255.62H235.217V253.98H240.717C240.677 253.327 240.444 252.813 240.017 252.44C239.604 252.067 239.084 251.88 238.457 251.88C238.004 251.88 237.584 251.987 237.197 252.2C236.81 252.4 236.504 252.713 236.277 253.14C236.064 253.567 235.957 254.107 235.957 254.76V255.34C235.957 255.887 236.057 256.367 236.257 256.78C236.47 257.18 236.764 257.493 237.137 257.72C237.51 257.933 237.944 258.04 238.437 258.04C238.93 258.04 239.337 257.933 239.657 257.72C239.99 257.507 240.237 257.233 240.397 256.9H243.157C242.97 257.527 242.657 258.093 242.217 258.6C241.777 259.107 241.237 259.507 240.597 259.8C239.957 260.093 239.244 260.24 238.457 260.24ZM245.648 260V249.92H248.048L248.308 251.78C248.548 251.34 248.848 250.967 249.208 250.66C249.581 250.353 250.001 250.113 250.468 249.94C250.948 249.767 251.475 249.68 252.048 249.68V252.54H251.128C250.728 252.54 250.355 252.587 250.008 252.68C249.675 252.773 249.381 252.927 249.128 253.14C248.875 253.34 248.681 253.62 248.548 253.98C248.415 254.34 248.348 254.793 248.348 255.34V260H245.648ZM257.232 260.24C256.392 260.24 255.698 260.107 255.152 259.84C254.605 259.56 254.198 259.193 253.932 258.74C253.678 258.273 253.552 257.76 253.552 257.2C253.552 256.587 253.705 256.047 254.012 255.58C254.332 255.113 254.805 254.747 255.432 254.48C256.072 254.213 256.872 254.08 257.832 254.08H260.332C260.332 253.587 260.265 253.18 260.132 252.86C259.998 252.527 259.792 252.28 259.512 252.12C259.232 251.96 258.858 251.88 258.392 251.88C257.885 251.88 257.452 251.993 257.092 252.22C256.745 252.433 256.532 252.767 256.452 253.22H253.832C253.898 252.5 254.132 251.88 254.532 251.36C254.945 250.827 255.485 250.413 256.152 250.12C256.832 249.827 257.585 249.68 258.412 249.68C259.358 249.68 260.178 249.84 260.872 250.16C261.565 250.48 262.098 250.94 262.472 251.54C262.845 252.14 263.032 252.88 263.032 253.76V260H260.752L260.452 258.46C260.305 258.727 260.132 258.967 259.932 259.18C259.732 259.393 259.498 259.58 259.232 259.74C258.965 259.9 258.665 260.02 258.332 260.1C257.998 260.193 257.632 260.24 257.232 260.24ZM257.872 258.16C258.218 258.16 258.525 258.1 258.792 257.98C259.072 257.847 259.312 257.673 259.512 257.46C259.712 257.233 259.865 256.98 259.972 256.7C260.092 256.407 260.172 256.093 260.212 255.76V255.74H258.152C257.738 255.74 257.398 255.793 257.132 255.9C256.878 255.993 256.692 256.133 256.572 256.32C256.452 256.507 256.392 256.72 256.392 256.96C256.392 257.227 256.452 257.447 256.572 257.62C256.692 257.793 256.865 257.927 257.092 258.02C257.318 258.113 257.578 258.16 257.872 258.16ZM255.352 249V247.08L258.312 245.48L261.252 247.08V249L258.312 247.36L255.352 249ZM265.55 260V249.92H267.93L268.13 251.56C268.437 251 268.87 250.547 269.43 250.2C270.004 249.853 270.684 249.68 271.47 249.68C272.31 249.68 273.017 249.853 273.59 250.2C274.164 250.547 274.597 251.053 274.89 251.72C275.197 252.387 275.35 253.207 275.35 254.18V260H272.67V254.44C272.67 253.64 272.497 253.027 272.15 252.6C271.817 252.173 271.297 251.96 270.59 251.96C270.137 251.96 269.73 252.067 269.37 252.28C269.024 252.493 268.75 252.8 268.55 253.2C268.35 253.587 268.25 254.06 268.25 254.62V260H265.55ZM277.954 260V249.92H280.654V260H277.954ZM279.314 248.54C278.834 248.54 278.434 248.4 278.114 248.12C277.808 247.827 277.654 247.46 277.654 247.02C277.654 246.58 277.808 246.22 278.114 245.94C278.434 245.647 278.834 245.5 279.314 245.5C279.808 245.5 280.208 245.647 280.514 245.94C280.834 246.22 280.994 246.58 280.994 247.02C280.994 247.46 280.834 247.827 280.514 248.12C280.208 248.4 279.808 248.54 279.314 248.54ZM288.143 260.24C287.183 260.24 286.316 260.02 285.543 259.58C284.783 259.127 284.176 258.507 283.723 257.72C283.283 256.92 283.063 256.007 283.063 254.98C283.063 253.927 283.283 253.007 283.723 252.22C284.176 251.42 284.789 250.8 285.563 250.36C286.336 249.907 287.203 249.68 288.163 249.68C289.136 249.68 290.003 249.907 290.763 250.36C291.536 250.8 292.143 251.42 292.583 252.22C293.036 253.007 293.263 253.92 293.263 254.96C293.263 256 293.036 256.92 292.583 257.72C292.143 258.507 291.536 259.127 290.763 259.58C289.989 260.02 289.116 260.24 288.143 260.24ZM288.143 257.9C288.596 257.9 288.996 257.793 289.343 257.58C289.703 257.367 289.983 257.04 290.183 256.6C290.396 256.16 290.503 255.613 290.503 254.96C290.503 254.307 290.396 253.767 290.183 253.34C289.983 252.9 289.703 252.573 289.343 252.36C288.996 252.133 288.603 252.02 288.163 252.02C287.736 252.02 287.343 252.133 286.983 252.36C286.623 252.573 286.336 252.9 286.123 253.34C285.923 253.767 285.823 254.307 285.823 254.96C285.823 255.613 285.923 256.16 286.123 256.6C286.336 257.04 286.616 257.367 286.963 257.58C287.323 257.793 287.716 257.9 288.143 257.9Z" fill="#6A5ACD"/>
<ellipse cx="201" cy="175" rx="18" ry="19" fill="url(#paint2_linear_329_479)"/>
<path d="M194.08 181.24C193.12 181.24 192.253 181.02 191.48 180.58C190.72 180.127 190.113 179.507 189.66 178.72C189.22 177.92 189 177.007 189 175.98C189 174.927 189.22 174.007 189.66 173.22C190.113 172.42 190.727 171.8 191.5 171.36C192.273 170.907 193.14 170.68 194.1 170.68C195.073 170.68 195.94 170.907 196.7 171.36C197.473 171.8 198.08 172.42 198.52 173.22C198.973 174.007 199.2 174.92 199.2 175.96C199.2 177 198.973 177.92 198.52 178.72C198.08 179.507 197.473 180.127 196.7 180.58C195.927 181.02 195.053 181.24 194.08 181.24ZM194.08 178.9C194.533 178.9 194.933 178.793 195.28 178.58C195.64 178.367 195.92 178.04 196.12 177.6C196.333 177.16 196.44 176.613 196.44 175.96C196.44 175.307 196.333 174.767 196.12 174.34C195.92 173.9 195.64 173.573 195.28 173.36C194.933 173.133 194.54 173.02 194.1 173.02C193.673 173.02 193.28 173.133 192.92 173.36C192.56 173.573 192.273 173.9 192.06 174.34C191.86 174.767 191.76 175.307 191.76 175.96C191.76 176.613 191.86 177.16 192.06 177.6C192.273 178.04 192.553 178.367 192.9 178.58C193.26 178.793 193.653 178.9 194.08 178.9ZM205.287 181.24C204.474 181.24 203.774 181.073 203.187 180.74C202.614 180.393 202.174 179.893 201.867 179.24C201.56 178.573 201.407 177.753 201.407 176.78V170.92H204.107V176.5C204.107 177.313 204.274 177.927 204.607 178.34C204.954 178.753 205.48 178.96 206.187 178.96C206.64 178.96 207.04 178.86 207.387 178.66C207.734 178.447 208.007 178.147 208.207 177.76C208.42 177.36 208.527 176.873 208.527 176.3V170.92H211.207V181H208.847L208.627 179.36C208.334 179.933 207.9 180.393 207.327 180.74C206.754 181.073 206.074 181.24 205.287 181.24Z" fill="#6A5ACD"/>
<defs>
<filter id="filter0_f_329_479" x="163.755" y="10.1165" width="78.6516" height="177.14" filterUnits="userSpaceOnUse" color-interpolation-filters="sRGB">
<feFlood flood-opacity="0" result="BackgroundImageFix"/>
<feBlend mode="normal" in="SourceGraphic" in2="BackgroundImageFix" result="shape"/>
<feGaussianBlur stdDeviation="15" result="effect1_foregroundBlur_329_479"/>
</filter>
<filter id="filter1_f_329_479" x="0.76001" y="20.6049" width="219.681" height="218.744" filterUnits="userSpaceOnUse" color-interpolation-filters="sRGB">
<feFlood flood-opacity="0" result="BackgroundImageFix"/>
<feBlend mode="normal" in="SourceGraphic" in2="BackgroundImageFix" result="shape"/>
<feGaussianBlur stdDeviation="25" result="effect1_foregroundBlur_329_479"/>
</filter>
<filter id="filter2_f_329_479" x="183.957" y="134.237" width="142.087" height="88.7275" filterUnits="userSpaceOnUse" color-interpolation-filters="sRGB">
<feFlood flood-opacity="0" result="BackgroundImageFix"/>
<feBlend mode="normal" in="SourceGraphic" in2="BackgroundImageFix" result="shape"/>
<feGaussianBlur stdDeviation="15" result="effect1_foregroundBlur_329_479"/>
</filter>
<filter id="filter3_f_329_479" x="147.261" y="150.146" width="205.739" height="168.946" filterUnits="userSpaceOnUse" color-interpolation-filters="sRGB">
<feFlood flood-opacity="0" result="BackgroundImageFix"/>
<feBlend mode="normal" in="SourceGraphic" in2="BackgroundImageFix" result="shape"/>
<feGaussianBlur stdDeviation="25" result="effect1_foregroundBlur_329_479"/>
</filter>
<linearGradient id="paint0_linear_329_479" x1="188.694" y1="207" x2="21.2126" y2="-75.993" gradientUnits="userSpaceOnUse">
<stop stop-color="#A1A4F3"/>
<stop offset="0.992945" stop-color="white" stop-opacity="0.86"/>
</linearGradient>
<linearGradient id="paint1_linear_329_479" x1="302.434" y1="312.184" x2="168.786" y2="86.3585" gradientUnits="userSpaceOnUse">
<stop stop-color="#BBBCF2"/>
<stop offset="0.992945" stop-color="white" stop-opacity="0.86"/>
</linearGradient>
<linearGradient id="paint2_linear_329_479" x1="211.673" y1="194" x2="180.603" y2="142.654" gradientUnits="userSpaceOnUse">
<stop stop-color="#BBBCF2"/>
<stop offset="0.992945" stop-color="white" stop-opacity="0.86"/>
</linearGradient>
</defs>
</svg>
