<svg width="243" height="240" viewBox="0 0 243 240" fill="none" xmlns="http://www.w3.org/2000/svg">
<g filter="url(#filter0_f_329_511)">
<ellipse cx="203.081" cy="98.686" rx="9.32577" ry="58.5698" fill="#050259" fill-opacity="0.5" style="mix-blend-mode:overlay"/>
</g>
<ellipse cx="129.252" cy="103.5" rx="100.252" ry="103.5" fill="url(#paint0_linear_329_511)"/>
<g filter="url(#filter1_f_329_511)">
<ellipse cx="110.601" cy="129.977" rx="59.8404" ry="59.3721" fill="#A1A4F3" fill-opacity="0.2"/>
</g>
<path d="M91.8443 74L96.9643 60H100.024L105.124 74H102.264L98.4843 63.08L94.6843 74H91.8443ZM94.1043 70.82L94.8243 68.72H101.944L102.644 70.82H94.1043ZM106.904 74V59.6H109.604V74H106.904ZM117.076 74.24C116.063 74.24 115.163 74.0267 114.376 73.6C113.603 73.16 112.996 72.5533 112.556 71.78C112.129 70.9933 111.916 70.0867 111.916 69.06C111.916 68.0067 112.129 67.08 112.556 66.28C112.996 65.4667 113.603 64.8333 114.376 64.38C115.149 63.9133 116.049 63.68 117.076 63.68C118.076 63.68 118.949 63.9 119.696 64.34C120.443 64.78 121.023 65.3733 121.436 66.12C121.849 66.8667 122.056 67.7133 122.056 68.66C122.056 68.7933 122.056 68.9467 122.056 69.12C122.056 69.28 122.043 69.4467 122.016 69.62H113.836V67.98H119.336C119.296 67.3267 119.063 66.8133 118.636 66.44C118.223 66.0667 117.703 65.88 117.076 65.88C116.623 65.88 116.203 65.9867 115.816 66.2C115.429 66.4 115.123 66.7133 114.896 67.14C114.683 67.5667 114.576 68.1067 114.576 68.76V69.34C114.576 69.8867 114.676 70.3667 114.876 70.78C115.089 71.18 115.383 71.4933 115.756 71.72C116.129 71.9333 116.563 72.04 117.056 72.04C117.549 72.04 117.956 71.9333 118.276 71.72C118.609 71.5067 118.856 71.2333 119.016 70.9H121.776C121.589 71.5267 121.276 72.0933 120.836 72.6C120.396 73.1067 119.856 73.5067 119.216 73.8C118.576 74.0933 117.863 74.24 117.076 74.24ZM129.147 74.24C128.134 74.24 127.234 74.0133 126.447 73.56C125.661 73.1067 125.047 72.4867 124.607 71.7C124.167 70.9133 123.947 70.0133 123.947 69C123.947 67.96 124.167 67.0467 124.607 66.26C125.047 65.46 125.661 64.8333 126.447 64.38C127.234 63.9133 128.134 63.68 129.147 63.68C130.441 63.68 131.527 64.02 132.407 64.7C133.287 65.38 133.847 66.3133 134.087 67.5H131.227C131.107 67.0333 130.854 66.6667 130.467 66.4C130.094 66.1333 129.647 66 129.127 66C128.661 66 128.241 66.12 127.867 66.36C127.507 66.5867 127.221 66.9267 127.007 67.38C126.807 67.82 126.707 68.3467 126.707 68.96C126.707 69.4267 126.767 69.8467 126.887 70.22C127.007 70.58 127.174 70.8933 127.387 71.16C127.601 71.4133 127.854 71.6067 128.147 71.74C128.454 71.8733 128.781 71.94 129.127 71.94C129.474 71.94 129.787 71.88 130.067 71.76C130.361 71.64 130.607 71.4733 130.807 71.26C131.007 71.0333 131.147 70.76 131.227 70.44H134.087C133.847 71.6 133.281 72.5267 132.387 73.22C131.507 73.9 130.427 74.24 129.147 74.24ZM136.416 74V63.92H138.816L139.076 65.78C139.316 65.34 139.616 64.9667 139.976 64.66C140.349 64.3533 140.769 64.1133 141.236 63.94C141.716 63.7667 142.242 63.68 142.816 63.68V66.54H141.896C141.496 66.54 141.122 66.5867 140.776 66.68C140.442 66.7733 140.149 66.9267 139.896 67.14C139.642 67.34 139.449 67.62 139.316 67.98C139.182 68.34 139.116 68.7933 139.116 69.34V74H136.416ZM144.659 74V63.92H147.359V74H144.659ZM146.019 62.54C145.539 62.54 145.139 62.4 144.819 62.12C144.513 61.8267 144.359 61.46 144.359 61.02C144.359 60.58 144.513 60.22 144.819 59.94C145.139 59.6467 145.539 59.5 146.019 59.5C146.513 59.5 146.913 59.6467 147.219 59.94C147.539 60.22 147.699 60.58 147.699 61.02C147.699 61.46 147.539 61.8267 147.219 62.12C146.913 62.4 146.513 62.54 146.019 62.54ZM150.088 74V63.92H152.468L152.688 65.26C153.008 64.78 153.428 64.4 153.948 64.12C154.481 63.8267 155.088 63.68 155.768 63.68C156.274 63.68 156.728 63.7467 157.128 63.88C157.528 64.0133 157.881 64.2067 158.188 64.46C158.508 64.7133 158.768 65.0333 158.968 65.42C159.341 64.8733 159.828 64.4467 160.428 64.14C161.028 63.8333 161.681 63.68 162.388 63.68C163.268 63.68 164.001 63.86 164.588 64.22C165.174 64.5667 165.614 65.0733 165.908 65.74C166.214 66.4067 166.368 67.2267 166.368 68.2V74H163.688V68.44C163.688 67.64 163.528 67.0267 163.208 66.6C162.901 66.1733 162.421 65.96 161.768 65.96C161.341 65.96 160.961 66.0667 160.628 66.28C160.294 66.4933 160.034 66.8 159.848 67.2C159.674 67.6 159.588 68.08 159.588 68.64V74H156.888V68.44C156.888 67.64 156.728 67.0267 156.408 66.6C156.088 66.1733 155.594 65.96 154.928 65.96C154.514 65.96 154.141 66.0667 153.808 66.28C153.488 66.4933 153.234 66.8 153.048 67.2C152.874 67.6 152.788 68.08 152.788 68.64V74H150.088ZM107.092 98.24C105.692 98.24 104.485 97.94 103.472 97.34C102.472 96.7267 101.698 95.88 101.152 94.8C100.618 93.7067 100.352 92.4467 100.352 91.02C100.352 89.5933 100.618 88.3333 101.152 87.24C101.698 86.1467 102.472 85.2933 103.472 84.68C104.485 84.0667 105.692 83.76 107.092 83.76C108.785 83.76 110.172 84.18 111.252 85.02C112.332 85.86 113.005 87.0467 113.272 88.58H110.332C110.158 87.8333 109.792 87.2533 109.232 86.84C108.685 86.4133 107.965 86.2 107.072 86.2C106.245 86.2 105.532 86.4 104.932 86.8C104.345 87.1867 103.892 87.74 103.572 88.46C103.252 89.1667 103.092 90.02 103.092 91.02C103.092 92.0067 103.252 92.86 103.572 93.58C103.892 94.3 104.345 94.8533 104.932 95.24C105.532 95.6267 106.245 95.82 107.072 95.82C107.965 95.82 108.685 95.6267 109.232 95.24C109.778 94.84 110.138 94.2867 110.312 93.58H113.272C113.005 95.0333 112.332 96.1733 111.252 97C110.172 97.8267 108.785 98.24 107.092 98.24ZM120.357 98.24C119.344 98.24 118.444 98.0267 117.657 97.6C116.884 97.16 116.277 96.5533 115.837 95.78C115.411 94.9933 115.197 94.0867 115.197 93.06C115.197 92.0067 115.411 91.08 115.837 90.28C116.277 89.4667 116.884 88.8333 117.657 88.38C118.431 87.9133 119.331 87.68 120.357 87.68C121.357 87.68 122.231 87.9 122.977 88.34C123.724 88.78 124.304 89.3733 124.717 90.12C125.131 90.8667 125.337 91.7133 125.337 92.66C125.337 92.7933 125.337 92.9467 125.337 93.12C125.337 93.28 125.324 93.4467 125.297 93.62H117.117V91.98H122.617C122.577 91.3267 122.344 90.8133 121.917 90.44C121.504 90.0667 120.984 89.88 120.357 89.88C119.904 89.88 119.484 89.9867 119.097 90.2C118.711 90.4 118.404 90.7133 118.177 91.14C117.964 91.5667 117.857 92.1067 117.857 92.76V93.34C117.857 93.8867 117.957 94.3667 118.157 94.78C118.371 95.18 118.664 95.4933 119.037 95.72C119.411 95.9333 119.844 96.04 120.337 96.04C120.831 96.04 121.237 95.9333 121.557 95.72C121.891 95.5067 122.137 95.2333 122.297 94.9H125.057C124.871 95.5267 124.557 96.0933 124.117 96.6C123.677 97.1067 123.137 97.5067 122.497 97.8C121.857 98.0933 121.144 98.24 120.357 98.24ZM132.029 98.24C131.109 98.24 130.282 98.0133 129.549 97.56C128.829 97.1067 128.262 96.48 127.849 95.68C127.435 94.88 127.229 93.98 127.229 92.98C127.229 91.9533 127.435 91.0467 127.849 90.26C128.275 89.46 128.855 88.8333 129.589 88.38C130.335 87.9133 131.169 87.68 132.089 87.68C132.809 87.68 133.442 87.8133 133.989 88.08C134.535 88.3467 134.975 88.7267 135.309 89.22V83.6H138.009V98H135.609L135.309 96.62C135.109 96.9 134.855 97.1667 134.549 97.42C134.255 97.6733 133.902 97.8733 133.489 98.02C133.075 98.1667 132.589 98.24 132.029 98.24ZM132.669 95.88C133.202 95.88 133.669 95.76 134.069 95.52C134.482 95.2667 134.802 94.92 135.029 94.48C135.255 94.04 135.369 93.5333 135.369 92.96C135.369 92.3867 135.255 91.88 135.029 91.44C134.802 91 134.482 90.66 134.069 90.42C133.669 90.1667 133.202 90.04 132.669 90.04C132.162 90.04 131.702 90.1667 131.289 90.42C130.875 90.66 130.549 91 130.309 91.44C130.082 91.88 129.969 92.38 129.969 92.94C129.969 93.5267 130.082 94.04 130.309 94.48C130.549 94.92 130.869 95.2667 131.269 95.52C131.682 95.76 132.149 95.88 132.669 95.88ZM140.654 98V87.92H143.054L143.314 89.78C143.554 89.34 143.854 88.9667 144.214 88.66C144.587 88.3533 145.007 88.1133 145.474 87.94C145.954 87.7667 146.481 87.68 147.054 87.68V90.54H146.134C145.734 90.54 145.361 90.5867 145.014 90.68C144.681 90.7733 144.387 90.9267 144.134 91.14C143.881 91.34 143.687 91.62 143.554 91.98C143.421 92.34 143.354 92.7933 143.354 93.34V98H140.654ZM153.441 98.24C152.481 98.24 151.615 98.02 150.841 97.58C150.081 97.1267 149.475 96.5067 149.021 95.72C148.581 94.92 148.361 94.0067 148.361 92.98C148.361 91.9267 148.581 91.0067 149.021 90.22C149.475 89.42 150.088 88.8 150.861 88.36C151.635 87.9067 152.501 87.68 153.461 87.68C154.435 87.68 155.301 87.9067 156.061 88.36C156.835 88.8 157.441 89.42 157.881 90.22C158.335 91.0067 158.561 91.92 158.561 92.96C158.561 94 158.335 94.92 157.881 95.72C157.441 96.5067 156.835 97.1267 156.061 97.58C155.288 98.02 154.415 98.24 153.441 98.24ZM153.441 95.9C153.895 95.9 154.295 95.7933 154.641 95.58C155.001 95.3667 155.281 95.04 155.481 94.6C155.695 94.16 155.801 93.6133 155.801 92.96C155.801 92.3067 155.695 91.7667 155.481 91.34C155.281 90.9 155.001 90.5733 154.641 90.36C154.295 90.1333 153.901 90.02 153.461 90.02C153.035 90.02 152.641 90.1333 152.281 90.36C151.921 90.5733 151.635 90.9 151.421 91.34C151.221 91.7667 151.121 92.3067 151.121 92.96C151.121 93.6133 151.221 94.16 151.421 94.6C151.635 95.04 151.915 95.3667 152.261 95.58C152.621 95.7933 153.015 95.9 153.441 95.9ZM99.9 122L94.8 108H97.68L101.56 119.24L105.46 108H108.32L103.22 122H99.9ZM113.57 122.24C112.557 122.24 111.657 122.027 110.87 121.6C110.097 121.16 109.49 120.553 109.05 119.78C108.623 118.993 108.41 118.087 108.41 117.06C108.41 116.007 108.623 115.08 109.05 114.28C109.49 113.467 110.097 112.833 110.87 112.38C111.643 111.913 112.543 111.68 113.57 111.68C114.57 111.68 115.443 111.9 116.19 112.34C116.937 112.78 117.517 113.373 117.93 114.12C118.343 114.867 118.55 115.713 118.55 116.66C118.55 116.793 118.55 116.947 118.55 117.12C118.55 117.28 118.537 117.447 118.51 117.62H110.33V115.98H115.83C115.79 115.327 115.557 114.813 115.13 114.44C114.717 114.067 114.197 113.88 113.57 113.88C113.117 113.88 112.697 113.987 112.31 114.2C111.923 114.4 111.617 114.713 111.39 115.14C111.177 115.567 111.07 116.107 111.07 116.76V117.34C111.07 117.887 111.17 118.367 111.37 118.78C111.583 119.18 111.877 119.493 112.25 119.72C112.623 119.933 113.057 120.04 113.55 120.04C114.043 120.04 114.45 119.933 114.77 119.72C115.103 119.507 115.35 119.233 115.51 118.9H118.27C118.083 119.527 117.77 120.093 117.33 120.6C116.89 121.107 116.35 121.507 115.71 121.8C115.07 122.093 114.357 122.24 113.57 122.24ZM125.165 122C124.458 122 123.838 121.893 123.305 121.68C122.785 121.453 122.378 121.087 122.085 120.58C121.791 120.06 121.645 119.353 121.645 118.46V114.18H119.925V111.92H121.645L121.945 109.18H124.345V111.92H127.005V114.18H124.345V118.5C124.345 118.953 124.445 119.267 124.645 119.44C124.845 119.613 125.185 119.7 125.665 119.7H126.985V122H125.165ZM129.337 122V111.92H132.037V122H129.337ZM130.697 110.54C130.217 110.54 129.817 110.4 129.497 110.12C129.19 109.827 129.037 109.46 129.037 109.02C129.037 108.58 129.19 108.22 129.497 107.94C129.817 107.647 130.217 107.5 130.697 107.5C131.19 107.5 131.59 107.647 131.897 107.94C132.217 108.22 132.377 108.58 132.377 109.02C132.377 109.46 132.217 109.827 131.897 110.12C131.59 110.4 131.19 110.54 130.697 110.54ZM137.465 122L133.765 111.92H136.605L139.105 119.46L141.605 111.92H144.425L140.745 122H137.465ZM150.445 122.24C149.432 122.24 148.532 122.027 147.745 121.6C146.972 121.16 146.365 120.553 145.925 119.78C145.498 118.993 145.285 118.087 145.285 117.06C145.285 116.007 145.498 115.08 145.925 114.28C146.365 113.467 146.972 112.833 147.745 112.38C148.518 111.913 149.418 111.68 150.445 111.68C151.445 111.68 152.318 111.9 153.065 112.34C153.812 112.78 154.392 113.373 154.805 114.12C155.218 114.867 155.425 115.713 155.425 116.66C155.425 116.793 155.425 116.947 155.425 117.12C155.425 117.28 155.412 117.447 155.385 117.62H147.205V115.98H152.705C152.665 115.327 152.432 114.813 152.005 114.44C151.592 114.067 151.072 113.88 150.445 113.88C149.992 113.88 149.572 113.987 149.185 114.2C148.798 114.4 148.492 114.713 148.265 115.14C148.052 115.567 147.945 116.107 147.945 116.76V117.34C147.945 117.887 148.045 118.367 148.245 118.78C148.458 119.18 148.752 119.493 149.125 119.72C149.498 119.933 149.932 120.04 150.425 120.04C150.918 120.04 151.325 119.933 151.645 119.72C151.978 119.507 152.225 119.233 152.385 118.9H155.145C154.958 119.527 154.645 120.093 154.205 120.6C153.765 121.107 153.225 121.507 152.585 121.8C151.945 122.093 151.232 122.24 150.445 122.24ZM157.636 122V111.92H160.036L160.296 113.78C160.536 113.34 160.836 112.967 161.196 112.66C161.57 112.353 161.99 112.113 162.456 111.94C162.936 111.767 163.463 111.68 164.036 111.68V114.54H163.116C162.716 114.54 162.343 114.587 161.996 114.68C161.663 114.773 161.37 114.927 161.116 115.14C160.863 115.34 160.67 115.62 160.536 115.98C160.403 116.34 160.336 116.793 160.336 117.34V122H157.636ZM56.7801 146V132H59.4801V146H56.7801ZM47.9601 146V132H50.6601V146H47.9601ZM50.2801 139.94V137.76H57.2401V139.94H50.2801ZM66.9374 146.24C65.9774 146.24 65.1108 146.02 64.3374 145.58C63.5774 145.127 62.9708 144.507 62.5174 143.72C62.0774 142.92 61.8574 142.007 61.8574 140.98C61.8574 139.927 62.0774 139.007 62.5174 138.22C62.9708 137.42 63.5841 136.8 64.3574 136.36C65.1308 135.907 65.9974 135.68 66.9574 135.68C67.9308 135.68 68.7974 135.907 69.5574 136.36C70.3308 136.8 70.9374 137.42 71.3774 138.22C71.8308 139.007 72.0574 139.92 72.0574 140.96C72.0574 142 71.8308 142.92 71.3774 143.72C70.9374 144.507 70.3308 145.127 69.5574 145.58C68.7841 146.02 67.9108 146.24 66.9374 146.24ZM66.9374 143.9C67.3908 143.9 67.7908 143.793 68.1374 143.58C68.4974 143.367 68.7774 143.04 68.9774 142.6C69.1908 142.16 69.2974 141.613 69.2974 140.96C69.2974 140.307 69.1908 139.767 68.9774 139.34C68.7774 138.9 68.4974 138.573 68.1374 138.36C67.7908 138.133 67.3974 138.02 66.9574 138.02C66.5308 138.02 66.1374 138.133 65.7774 138.36C65.4174 138.573 65.1308 138.9 64.9174 139.34C64.7174 139.767 64.6174 140.307 64.6174 140.96C64.6174 141.613 64.7174 142.16 64.9174 142.6C65.1308 143.04 65.4108 143.367 65.7574 143.58C66.1174 143.793 66.5108 143.9 66.9374 143.9ZM74.3845 146V135.92H76.7845L77.0445 137.78C77.2845 137.34 77.5845 136.967 77.9445 136.66C78.3178 136.353 78.7378 136.113 79.2045 135.94C79.6845 135.767 80.2111 135.68 80.7845 135.68V138.54H79.8645C79.4645 138.54 79.0911 138.587 78.7445 138.68C78.4111 138.773 78.1178 138.927 77.8645 139.14C77.6111 139.34 77.4178 139.62 77.2845 139.98C77.1511 140.34 77.0845 140.793 77.0845 141.34V146H74.3845ZM87.108 146C86.4014 146 85.7814 145.893 85.248 145.68C84.728 145.453 84.3214 145.087 84.028 144.58C83.7347 144.06 83.588 143.353 83.588 142.46V138.18H81.868V135.92H83.588L83.888 133.18H86.288V135.92H88.948V138.18H86.288V142.5C86.288 142.953 86.388 143.267 86.588 143.44C86.788 143.613 87.128 143.7 87.608 143.7H88.928V146H87.108ZM95.8065 146.24C94.7932 146.24 93.8932 146.027 93.1065 145.6C92.3332 145.16 91.7265 144.553 91.2865 143.78C90.8598 142.993 90.6465 142.087 90.6465 141.06C90.6465 140.007 90.8598 139.08 91.2865 138.28C91.7265 137.467 92.3332 136.833 93.1065 136.38C93.8798 135.913 94.7798 135.68 95.8065 135.68C96.8065 135.68 97.6798 135.9 98.4265 136.34C99.1732 136.78 99.7532 137.373 100.166 138.12C100.58 138.867 100.786 139.713 100.786 140.66C100.786 140.793 100.786 140.947 100.786 141.12C100.786 141.28 100.773 141.447 100.746 141.62H92.5665V139.98H98.0665C98.0265 139.327 97.7932 138.813 97.3665 138.44C96.9532 138.067 96.4332 137.88 95.8065 137.88C95.3532 137.88 94.9332 137.987 94.5465 138.2C94.1598 138.4 93.8532 138.713 93.6265 139.14C93.4132 139.567 93.3065 140.107 93.3065 140.76V141.34C93.3065 141.887 93.4065 142.367 93.6065 142.78C93.8198 143.18 94.1132 143.493 94.4865 143.72C94.8598 143.933 95.2932 144.04 95.7865 144.04C96.2798 144.04 96.6865 143.933 97.0065 143.72C97.3398 143.507 97.5865 143.233 97.7465 142.9H100.506C100.32 143.527 100.006 144.093 99.5665 144.6C99.1265 145.107 98.5865 145.507 97.9465 145.8C97.3065 146.093 96.5932 146.24 95.8065 146.24ZM102.998 146V131.6H105.698V146H102.998ZM111.73 146.24C110.89 146.24 110.196 146.107 109.65 145.84C109.103 145.56 108.696 145.193 108.43 144.74C108.176 144.273 108.05 143.76 108.05 143.2C108.05 142.587 108.203 142.047 108.51 141.58C108.83 141.113 109.303 140.747 109.93 140.48C110.57 140.213 111.37 140.08 112.33 140.08H114.83C114.83 139.587 114.763 139.18 114.63 138.86C114.496 138.527 114.29 138.28 114.01 138.12C113.73 137.96 113.356 137.88 112.89 137.88C112.383 137.88 111.95 137.993 111.59 138.22C111.243 138.433 111.03 138.767 110.95 139.22H108.33C108.396 138.5 108.63 137.88 109.03 137.36C109.443 136.827 109.983 136.413 110.65 136.12C111.33 135.827 112.083 135.68 112.91 135.68C113.856 135.68 114.676 135.84 115.37 136.16C116.063 136.48 116.596 136.94 116.97 137.54C117.343 138.14 117.53 138.88 117.53 139.76V146H115.25L114.95 144.46C114.803 144.727 114.63 144.967 114.43 145.18C114.23 145.393 113.996 145.58 113.73 145.74C113.463 145.9 113.163 146.02 112.83 146.1C112.496 146.193 112.13 146.24 111.73 146.24ZM112.37 144.16C112.716 144.16 113.023 144.1 113.29 143.98C113.57 143.847 113.81 143.673 114.01 143.46C114.21 143.233 114.363 142.98 114.47 142.7C114.59 142.407 114.67 142.093 114.71 141.76V141.74H112.65C112.236 141.74 111.896 141.793 111.63 141.9C111.376 141.993 111.19 142.133 111.07 142.32C110.95 142.507 110.89 142.72 110.89 142.96C110.89 143.227 110.95 143.447 111.07 143.62C111.19 143.793 111.363 143.927 111.59 144.02C111.816 144.113 112.076 144.16 112.37 144.16ZM113.97 134.6C113.583 134.6 113.25 134.527 112.97 134.38C112.703 134.233 112.456 134.087 112.23 133.94C112.003 133.78 111.75 133.7 111.47 133.7C111.256 133.7 111.07 133.773 110.91 133.92C110.763 134.067 110.663 134.293 110.61 134.6H109.19C109.336 133.707 109.616 133.053 110.03 132.64C110.456 132.227 110.976 132.02 111.59 132.02C111.976 132.02 112.303 132.1 112.57 132.26C112.836 132.407 113.083 132.56 113.31 132.72C113.55 132.867 113.81 132.94 114.09 132.94C114.316 132.94 114.503 132.867 114.65 132.72C114.81 132.573 114.91 132.347 114.95 132.04H116.37C116.236 132.933 115.956 133.587 115.53 134C115.116 134.4 114.596 134.6 113.97 134.6ZM120.269 141.24V138.98H128.709V141.24H120.269ZM131.572 150.4V135.92H133.972L134.272 137.32C134.485 137.027 134.739 136.76 135.032 136.52C135.325 136.267 135.672 136.067 136.072 135.92C136.485 135.76 136.965 135.68 137.512 135.68C138.459 135.68 139.292 135.913 140.012 136.38C140.732 136.847 141.299 137.48 141.712 138.28C142.139 139.067 142.352 139.967 142.352 140.98C142.352 141.993 142.139 142.9 141.712 143.7C141.285 144.487 140.712 145.107 139.992 145.56C139.272 146.013 138.452 146.24 137.532 146.24C136.785 146.24 136.139 146.107 135.592 145.84C135.059 145.56 134.619 145.18 134.272 144.7V150.4H131.572ZM136.892 143.88C137.425 143.88 137.892 143.76 138.292 143.52C138.705 143.28 139.025 142.94 139.252 142.5C139.479 142.06 139.592 141.553 139.592 140.98C139.592 140.407 139.479 139.9 139.252 139.46C139.025 139.007 138.705 138.66 138.292 138.42C137.892 138.167 137.425 138.04 136.892 138.04C136.372 138.04 135.905 138.167 135.492 138.42C135.092 138.66 134.772 139 134.532 139.44C134.305 139.88 134.192 140.387 134.192 140.96C134.192 141.533 134.305 142.047 134.532 142.5C134.772 142.94 135.092 143.28 135.492 143.52C135.905 143.76 136.372 143.88 136.892 143.88ZM144.737 146V135.92H147.437V146H144.737ZM146.097 134.54C145.617 134.54 145.217 134.4 144.897 134.12C144.591 133.827 144.437 133.46 144.437 133.02C144.437 132.58 144.591 132.22 144.897 131.94C145.217 131.647 145.617 131.5 146.097 131.5C146.591 131.5 146.991 131.647 147.297 131.94C147.617 132.22 147.777 132.58 147.777 133.02C147.777 133.46 147.617 133.827 147.297 134.12C146.991 134.4 146.591 134.54 146.097 134.54ZM150.166 146V135.92H152.546L152.766 137.26C153.086 136.78 153.506 136.4 154.026 136.12C154.559 135.827 155.166 135.68 155.846 135.68C156.352 135.68 156.806 135.747 157.206 135.88C157.606 136.013 157.959 136.207 158.266 136.46C158.586 136.713 158.846 137.033 159.046 137.42C159.419 136.873 159.906 136.447 160.506 136.14C161.106 135.833 161.759 135.68 162.466 135.68C163.346 135.68 164.079 135.86 164.666 136.22C165.252 136.567 165.692 137.073 165.986 137.74C166.292 138.407 166.446 139.227 166.446 140.2V146H163.766V140.44C163.766 139.64 163.606 139.027 163.286 138.6C162.979 138.173 162.499 137.96 161.846 137.96C161.419 137.96 161.039 138.067 160.706 138.28C160.372 138.493 160.112 138.8 159.926 139.2C159.752 139.6 159.666 140.08 159.666 140.64V146H156.966V140.44C156.966 139.64 156.806 139.027 156.486 138.6C156.166 138.173 155.672 137.96 155.006 137.96C154.592 137.96 154.219 138.067 153.886 138.28C153.566 138.493 153.312 138.8 153.126 139.2C152.952 139.6 152.866 140.08 152.866 140.64V146H150.166ZM173.834 146.24C172.82 146.24 171.92 146.027 171.134 145.6C170.36 145.16 169.754 144.553 169.314 143.78C168.887 142.993 168.674 142.087 168.674 141.06C168.674 140.007 168.887 139.08 169.314 138.28C169.754 137.467 170.36 136.833 171.134 136.38C171.907 135.913 172.807 135.68 173.834 135.68C174.834 135.68 175.707 135.9 176.454 136.34C177.2 136.78 177.78 137.373 178.194 138.12C178.607 138.867 178.814 139.713 178.814 140.66C178.814 140.793 178.814 140.947 178.814 141.12C178.814 141.28 178.8 141.447 178.774 141.62H170.594V139.98H176.094C176.054 139.327 175.82 138.813 175.394 138.44C174.98 138.067 174.46 137.88 173.834 137.88C173.38 137.88 172.96 137.987 172.574 138.2C172.187 138.4 171.88 138.713 171.654 139.14C171.44 139.567 171.334 140.107 171.334 140.76V141.34C171.334 141.887 171.434 142.367 171.634 142.78C171.847 143.18 172.14 143.493 172.514 143.72C172.887 143.933 173.32 144.04 173.814 144.04C174.307 144.04 174.714 143.933 175.034 143.72C175.367 143.507 175.614 143.233 175.774 142.9H178.534C178.347 143.527 178.034 144.093 177.594 144.6C177.154 145.107 176.614 145.507 175.974 145.8C175.334 146.093 174.62 146.24 173.834 146.24ZM181.025 146V135.92H183.405L183.605 137.56C183.912 137 184.345 136.547 184.905 136.2C185.478 135.853 186.158 135.68 186.945 135.68C187.785 135.68 188.492 135.853 189.065 136.2C189.638 136.547 190.072 137.053 190.365 137.72C190.672 138.387 190.825 139.207 190.825 140.18V146H188.145V140.44C188.145 139.64 187.972 139.027 187.625 138.6C187.292 138.173 186.772 137.96 186.065 137.96C185.612 137.96 185.205 138.067 184.845 138.28C184.498 138.493 184.225 138.8 184.025 139.2C183.825 139.587 183.725 140.06 183.725 140.62V146H181.025ZM197.909 146C197.202 146 196.582 145.893 196.049 145.68C195.529 145.453 195.122 145.087 194.829 144.58C194.535 144.06 194.389 143.353 194.389 142.46V138.18H192.669V135.92H194.389L194.689 133.18H197.089V135.92H199.749V138.18H197.089V142.5C197.089 142.953 197.189 143.267 197.389 143.44C197.589 143.613 197.929 143.7 198.409 143.7H199.729V146H197.909ZM205.421 146.24C204.581 146.24 203.888 146.107 203.341 145.84C202.795 145.56 202.388 145.193 202.121 144.74C201.868 144.273 201.741 143.76 201.741 143.2C201.741 142.587 201.895 142.047 202.201 141.58C202.521 141.113 202.995 140.747 203.621 140.48C204.261 140.213 205.061 140.08 206.021 140.08H208.521C208.521 139.587 208.455 139.18 208.321 138.86C208.188 138.527 207.981 138.28 207.701 138.12C207.421 137.96 207.048 137.88 206.581 137.88C206.075 137.88 205.641 137.993 205.281 138.22C204.935 138.433 204.721 138.767 204.641 139.22H202.021C202.088 138.5 202.321 137.88 202.721 137.36C203.135 136.827 203.675 136.413 204.341 136.12C205.021 135.827 205.775 135.68 206.601 135.68C207.548 135.68 208.368 135.84 209.061 136.16C209.755 136.48 210.288 136.94 210.661 137.54C211.035 138.14 211.221 138.88 211.221 139.76V146H208.941L208.641 144.46C208.495 144.727 208.321 144.967 208.121 145.18C207.921 145.393 207.688 145.58 207.421 145.74C207.155 145.9 206.855 146.02 206.521 146.1C206.188 146.193 205.821 146.24 205.421 146.24ZM206.061 144.16C206.408 144.16 206.715 144.1 206.981 143.98C207.261 143.847 207.501 143.673 207.701 143.46C207.901 143.233 208.055 142.98 208.161 142.7C208.281 142.407 208.361 142.093 208.401 141.76V141.74H206.341C205.928 141.74 205.588 141.793 205.321 141.9C205.068 141.993 204.881 142.133 204.761 142.32C204.641 142.507 204.581 142.72 204.581 142.96C204.581 143.227 204.641 143.447 204.761 143.62C204.881 143.793 205.055 143.927 205.281 144.02C205.508 144.113 205.768 144.16 206.061 144.16Z" fill="#6A5ACD"/>
<defs>
<filter id="filter0_f_329_511" x="163.755" y="10.1162" width="78.6514" height="177.14" filterUnits="userSpaceOnUse" color-interpolation-filters="sRGB">
<feFlood flood-opacity="0" result="BackgroundImageFix"/>
<feBlend mode="normal" in="SourceGraphic" in2="BackgroundImageFix" result="shape"/>
<feGaussianBlur stdDeviation="15" result="effect1_foregroundBlur_329_511"/>
</filter>
<filter id="filter1_f_329_511" x="0.760254" y="20.605" width="219.681" height="218.744" filterUnits="userSpaceOnUse" color-interpolation-filters="sRGB">
<feFlood flood-opacity="0" result="BackgroundImageFix"/>
<feBlend mode="normal" in="SourceGraphic" in2="BackgroundImageFix" result="shape"/>
<feGaussianBlur stdDeviation="25" result="effect1_foregroundBlur_329_511"/>
</filter>
<linearGradient id="paint0_linear_329_511" x1="188.694" y1="207" x2="21.2126" y2="-75.993" gradientUnits="userSpaceOnUse">
<stop stop-color="#A1A4F3"/>
<stop offset="0.992945" stop-color="white" stop-opacity="0.86"/>
</linearGradient>
</defs>
</svg>
