<svg width="243" height="240" viewBox="0 0 243 240" fill="none" xmlns="http://www.w3.org/2000/svg">
<g filter="url(#filter0_f_329_512)">
<ellipse cx="203.081" cy="98.686" rx="9.32577" ry="58.5698" fill="#050259" fill-opacity="0.5" style="mix-blend-mode:overlay"/>
</g>
<ellipse cx="129.252" cy="103.5" rx="100.252" ry="103.5" fill="url(#paint0_linear_329_512)"/>
<g filter="url(#filter1_f_329_512)">
<ellipse cx="110.601" cy="129.977" rx="59.8404" ry="59.3721" fill="#A1A4F3" fill-opacity="0.2"/>
</g>
<path d="M85.1378 74V60H90.3778C91.5111 60 92.4511 60.1933 93.1978 60.58C93.9445 60.9667 94.4978 61.4867 94.8578 62.14C95.2178 62.7933 95.3978 63.54 95.3978 64.38C95.3978 65.1533 95.2245 65.8667 94.8778 66.52C94.5311 67.1733 93.9845 67.7067 93.2378 68.12C92.4911 68.52 91.5378 68.72 90.3778 68.72H87.8378V74H85.1378ZM87.8378 66.54H90.2178C91.0845 66.54 91.7045 66.3467 92.0778 65.96C92.4645 65.56 92.6578 65.0333 92.6578 64.38C92.6578 63.6867 92.4645 63.1533 92.0778 62.78C91.7045 62.3933 91.0845 62.2 90.2178 62.2H87.8378V66.54ZM100.099 74.24C99.2589 74.24 98.5656 74.1067 98.0189 73.84C97.4722 73.56 97.0656 73.1933 96.7989 72.74C96.5456 72.2733 96.4189 71.76 96.4189 71.2C96.4189 70.5867 96.5722 70.0467 96.8789 69.58C97.1989 69.1133 97.6722 68.7467 98.2989 68.48C98.9389 68.2133 99.7389 68.08 100.699 68.08H103.199C103.199 67.5867 103.132 67.18 102.999 66.86C102.866 66.5267 102.659 66.28 102.379 66.12C102.099 65.96 101.726 65.88 101.259 65.88C100.752 65.88 100.319 65.9933 99.9589 66.22C99.6122 66.4333 99.3989 66.7667 99.3189 67.22H96.6989C96.7656 66.5 96.9989 65.88 97.3989 65.36C97.8122 64.8267 98.3522 64.4133 99.0189 64.12C99.6989 63.8267 100.452 63.68 101.279 63.68C102.226 63.68 103.046 63.84 103.739 64.16C104.432 64.48 104.966 64.94 105.339 65.54C105.712 66.14 105.899 66.88 105.899 67.76V74H103.619L103.319 72.46C103.172 72.7267 102.999 72.9667 102.799 73.18C102.599 73.3933 102.366 73.58 102.099 73.74C101.832 73.9 101.532 74.02 101.199 74.1C100.866 74.1933 100.499 74.24 100.099 74.24ZM100.739 72.16C101.086 72.16 101.392 72.1 101.659 71.98C101.939 71.8467 102.179 71.6733 102.379 71.46C102.579 71.2333 102.732 70.98 102.839 70.7C102.959 70.4067 103.039 70.0933 103.079 69.76V69.74H101.019C100.606 69.74 100.266 69.7933 99.9989 69.9C99.7456 69.9933 99.5589 70.1333 99.4389 70.32C99.3189 70.5067 99.2589 70.72 99.2589 70.96C99.2589 71.2267 99.3189 71.4467 99.4389 71.62C99.5589 71.7933 99.7322 71.9267 99.9589 72.02C100.186 72.1133 100.446 72.16 100.739 72.16ZM112.84 74C112.134 74 111.514 73.8933 110.98 73.68C110.46 73.4533 110.054 73.0867 109.76 72.58C109.467 72.06 109.32 71.3533 109.32 70.46V66.18H107.6V63.92H109.32L109.62 61.18H112.02V63.92H114.68V66.18H112.02V70.5C112.02 70.9533 112.12 71.2667 112.32 71.44C112.52 71.6133 112.86 71.7 113.34 71.7H114.66V74H112.84ZM121.579 74.24C120.566 74.24 119.666 74.0133 118.879 73.56C118.092 73.1067 117.479 72.4867 117.039 71.7C116.599 70.9133 116.379 70.0133 116.379 69C116.379 67.96 116.599 67.0467 117.039 66.26C117.479 65.46 118.092 64.8333 118.879 64.38C119.666 63.9133 120.566 63.68 121.579 63.68C122.872 63.68 123.959 64.02 124.839 64.7C125.719 65.38 126.279 66.3133 126.519 67.5H123.659C123.539 67.0333 123.286 66.6667 122.899 66.4C122.526 66.1333 122.079 66 121.559 66C121.092 66 120.672 66.12 120.299 66.36C119.939 66.5867 119.652 66.9267 119.439 67.38C119.239 67.82 119.139 68.3467 119.139 68.96C119.139 69.4267 119.199 69.8467 119.319 70.22C119.439 70.58 119.606 70.8933 119.819 71.16C120.032 71.4133 120.286 71.6067 120.579 71.74C120.886 71.8733 121.212 71.94 121.559 71.94C121.906 71.94 122.219 71.88 122.499 71.76C122.792 71.64 123.039 71.4733 123.239 71.26C123.439 71.0333 123.579 70.76 123.659 70.44H126.519C126.279 71.6 125.712 72.5267 124.819 73.22C123.939 73.9 122.859 74.24 121.579 74.24ZM128.847 74V59.6H131.547V65.42C131.881 64.8867 132.321 64.4667 132.867 64.16C133.427 63.84 134.074 63.68 134.807 63.68C135.647 63.68 136.354 63.86 136.927 64.22C137.501 64.5667 137.934 65.0733 138.227 65.74C138.521 66.4067 138.667 67.2333 138.667 68.22V74H135.987V68.46C135.987 67.66 135.821 67.0467 135.487 66.62C135.154 66.18 134.627 65.96 133.907 65.96C133.467 65.96 133.067 66.0667 132.707 66.28C132.347 66.4933 132.061 66.8067 131.847 67.22C131.647 67.62 131.547 68.1 131.547 68.66V74H128.847ZM145.971 74.24C145.011 74.24 144.144 74.02 143.371 73.58C142.611 73.1267 142.004 72.5067 141.551 71.72C141.111 70.92 140.891 70.0067 140.891 68.98C140.891 67.9267 141.111 67.0067 141.551 66.22C142.004 65.42 142.617 64.8 143.391 64.36C144.164 63.9067 145.031 63.68 145.991 63.68C146.964 63.68 147.831 63.9067 148.591 64.36C149.364 64.8 149.971 65.42 150.411 66.22C150.864 67.0067 151.091 67.92 151.091 68.96C151.091 70 150.864 70.92 150.411 71.72C149.971 72.5067 149.364 73.1267 148.591 73.58C147.817 74.02 146.944 74.24 145.971 74.24ZM145.971 71.9C146.424 71.9 146.824 71.7933 147.171 71.58C147.531 71.3667 147.811 71.04 148.011 70.6C148.224 70.16 148.331 69.6133 148.331 68.96C148.331 68.3067 148.224 67.7667 148.011 67.34C147.811 66.9 147.531 66.5733 147.171 66.36C146.824 66.1333 146.431 66.02 145.991 66.02C145.564 66.02 145.171 66.1333 144.811 66.36C144.451 66.5733 144.164 66.9 143.951 67.34C143.751 67.7667 143.651 68.3067 143.651 68.96C143.651 69.6133 143.751 70.16 143.951 70.6C144.164 71.04 144.444 71.3667 144.791 71.58C145.151 71.7933 145.544 71.9 145.971 71.9ZM157.178 74.24C156.364 74.24 155.664 74.0733 155.078 73.74C154.504 73.3933 154.064 72.8933 153.758 72.24C153.451 71.5733 153.298 70.7533 153.298 69.78V63.92H155.998V69.5C155.998 70.3133 156.164 70.9267 156.498 71.34C156.844 71.7533 157.371 71.96 158.078 71.96C158.531 71.96 158.931 71.86 159.278 71.66C159.624 71.4467 159.898 71.1467 160.098 70.76C160.311 70.36 160.418 69.8733 160.418 69.3V63.92H163.098V74H160.738L160.518 72.36C160.224 72.9333 159.791 73.3933 159.218 73.74C158.644 74.0733 157.964 74.24 157.178 74.24ZM165.742 74V59.6H168.442V74H165.742ZM171.134 74V63.92H173.834V74H171.134ZM172.494 62.54C172.014 62.54 171.614 62.4 171.294 62.12C170.987 61.8267 170.834 61.46 170.834 61.02C170.834 60.58 170.987 60.22 171.294 59.94C171.614 59.6467 172.014 59.5 172.494 59.5C172.987 59.5 173.387 59.6467 173.694 59.94C174.014 60.22 174.174 60.58 174.174 61.02C174.174 61.46 174.014 61.8267 173.694 62.12C173.387 62.4 172.987 62.54 172.494 62.54ZM96.452 98.24C95.4386 98.24 94.532 98.0667 93.732 97.72C92.9453 97.3733 92.3186 96.8667 91.852 96.2C91.3986 95.5333 91.1653 94.7267 91.152 93.78H94.012C94.0253 94.1933 94.132 94.5667 94.332 94.9C94.532 95.2333 94.8053 95.5 95.152 95.7C95.512 95.8867 95.9386 95.98 96.432 95.98C96.8586 95.98 97.2253 95.9133 97.532 95.78C97.852 95.6333 98.0986 95.4333 98.272 95.18C98.4453 94.9267 98.532 94.6267 98.532 94.28C98.532 93.88 98.432 93.5467 98.232 93.28C98.0453 93.0133 97.7786 92.7867 97.432 92.6C97.0986 92.4133 96.7053 92.2467 96.252 92.1C95.812 91.94 95.3453 91.7733 94.852 91.6C93.7453 91.24 92.8986 90.76 92.312 90.16C91.7386 89.56 91.452 88.7667 91.452 87.78C91.452 86.94 91.652 86.22 92.052 85.62C92.4653 85.02 93.032 84.56 93.752 84.24C94.472 83.92 95.292 83.76 96.212 83.76C97.1586 83.76 97.9853 83.9267 98.692 84.26C99.412 84.58 99.9786 85.0467 100.392 85.66C100.819 86.2733 101.039 86.9933 101.052 87.82H98.172C98.1586 87.5133 98.0653 87.2267 97.892 86.96C97.732 86.68 97.5053 86.46 97.212 86.3C96.9186 86.1267 96.572 86.04 96.172 86.04C95.8253 86.0267 95.5053 86.08 95.212 86.2C94.932 86.32 94.7053 86.5 94.532 86.74C94.372 86.9667 94.292 87.2533 94.292 87.6C94.292 87.9333 94.372 88.2133 94.532 88.44C94.7053 88.6667 94.9386 88.8667 95.232 89.04C95.5253 89.2 95.872 89.3533 96.272 89.5C96.672 89.6333 97.1053 89.7733 97.572 89.92C98.2653 90.16 98.9053 90.4467 99.492 90.78C100.079 91.1 100.545 91.52 100.892 92.04C101.239 92.56 101.412 93.2467 101.412 94.1C101.412 94.8333 101.219 95.5133 100.832 96.14C100.445 96.7667 99.8853 97.2733 99.152 97.66C98.432 98.0467 97.532 98.24 96.452 98.24ZM107.042 98.24C106.202 98.24 105.509 98.1067 104.962 97.84C104.416 97.56 104.009 97.1933 103.742 96.74C103.489 96.2733 103.362 95.76 103.362 95.2C103.362 94.5867 103.516 94.0467 103.822 93.58C104.142 93.1133 104.616 92.7467 105.242 92.48C105.882 92.2133 106.682 92.08 107.642 92.08H110.142C110.142 91.5867 110.076 91.18 109.942 90.86C109.809 90.5267 109.602 90.28 109.322 90.12C109.042 89.96 108.669 89.88 108.202 89.88C107.696 89.88 107.262 89.9933 106.902 90.22C106.556 90.4333 106.342 90.7667 106.262 91.22H103.642C103.709 90.5 103.942 89.88 104.342 89.36C104.756 88.8267 105.296 88.4133 105.962 88.12C106.642 87.8267 107.396 87.68 108.222 87.68C109.169 87.68 109.989 87.84 110.682 88.16C111.376 88.48 111.909 88.94 112.282 89.54C112.656 90.14 112.842 90.88 112.842 91.76V98H110.562L110.262 96.46C110.116 96.7267 109.942 96.9667 109.742 97.18C109.542 97.3933 109.309 97.58 109.042 97.74C108.776 97.9 108.476 98.02 108.142 98.1C107.809 98.1933 107.442 98.24 107.042 98.24ZM107.682 96.16C108.029 96.16 108.336 96.1 108.602 95.98C108.882 95.8467 109.122 95.6733 109.322 95.46C109.522 95.2333 109.676 94.98 109.782 94.7C109.902 94.4067 109.982 94.0933 110.022 93.76V93.74H107.962C107.549 93.74 107.209 93.7933 106.942 93.9C106.689 93.9933 106.502 94.1333 106.382 94.32C106.262 94.5067 106.202 94.72 106.202 94.96C106.202 95.2267 106.262 95.4467 106.382 95.62C106.502 95.7933 106.676 95.9267 106.902 96.02C107.129 96.1133 107.389 96.16 107.682 96.16ZM105.162 87V85.08L108.122 83.48L111.062 85.08V87L108.122 85.36L105.162 87ZM115.361 98V87.92H117.741L117.941 89.56C118.248 89 118.681 88.5467 119.241 88.2C119.814 87.8533 120.494 87.68 121.281 87.68C122.121 87.68 122.828 87.8533 123.401 88.2C123.974 88.5467 124.408 89.0533 124.701 89.72C125.008 90.3867 125.161 91.2067 125.161 92.18V98H122.481V92.44C122.481 91.64 122.308 91.0267 121.961 90.6C121.628 90.1733 121.108 89.96 120.401 89.96C119.948 89.96 119.541 90.0667 119.181 90.28C118.834 90.4933 118.561 90.8 118.361 91.2C118.161 91.5867 118.061 92.06 118.061 92.62V98H115.361ZM132.185 98.24C131.265 98.24 130.438 98.0133 129.705 97.56C128.985 97.1067 128.418 96.48 128.005 95.68C127.591 94.88 127.385 93.98 127.385 92.98C127.385 91.9533 127.591 91.0467 128.005 90.26C128.431 89.46 129.011 88.8333 129.745 88.38C130.491 87.9133 131.325 87.68 132.245 87.68C132.965 87.68 133.598 87.8133 134.145 88.08C134.691 88.3467 135.131 88.7267 135.465 89.22V83.6H138.165V98H135.765L135.465 96.62C135.265 96.9 135.011 97.1667 134.705 97.42C134.411 97.6733 134.058 97.8733 133.645 98.02C133.231 98.1667 132.745 98.24 132.185 98.24ZM132.825 95.88C133.358 95.88 133.825 95.76 134.225 95.52C134.638 95.2667 134.958 94.92 135.185 94.48C135.411 94.04 135.525 93.5333 135.525 92.96C135.525 92.3867 135.411 91.88 135.185 91.44C134.958 91 134.638 90.66 134.225 90.42C133.825 90.1667 133.358 90.04 132.825 90.04C132.318 90.04 131.858 90.1667 131.445 90.42C131.031 90.66 130.705 91 130.465 91.44C130.238 91.88 130.125 92.38 130.125 92.94C130.125 93.5267 130.238 94.04 130.465 94.48C130.705 94.92 131.025 95.2667 131.425 95.52C131.838 95.76 132.305 95.88 132.825 95.88ZM144.21 98.24C143.37 98.24 142.677 98.1067 142.13 97.84C141.584 97.56 141.177 97.1933 140.91 96.74C140.657 96.2733 140.53 95.76 140.53 95.2C140.53 94.5867 140.684 94.0467 140.99 93.58C141.31 93.1133 141.784 92.7467 142.41 92.48C143.05 92.2133 143.85 92.08 144.81 92.08H147.31C147.31 91.5867 147.244 91.18 147.11 90.86C146.977 90.5267 146.77 90.28 146.49 90.12C146.21 89.96 145.837 89.88 145.37 89.88C144.864 89.88 144.43 89.9933 144.07 90.22C143.724 90.4333 143.51 90.7667 143.43 91.22H140.81C140.877 90.5 141.11 89.88 141.51 89.36C141.924 88.8267 142.464 88.4133 143.13 88.12C143.81 87.8267 144.564 87.68 145.39 87.68C146.337 87.68 147.157 87.84 147.85 88.16C148.544 88.48 149.077 88.94 149.45 89.54C149.824 90.14 150.01 90.88 150.01 91.76V98H147.73L147.43 96.46C147.284 96.7267 147.11 96.9667 146.91 97.18C146.71 97.3933 146.477 97.58 146.21 97.74C145.944 97.9 145.644 98.02 145.31 98.1C144.977 98.1933 144.61 98.24 144.21 98.24ZM144.85 96.16C145.197 96.16 145.504 96.1 145.77 95.98C146.05 95.8467 146.29 95.6733 146.49 95.46C146.69 95.2333 146.844 94.98 146.95 94.7C147.07 94.4067 147.15 94.0933 147.19 93.76V93.74H145.13C144.717 93.74 144.377 93.7933 144.11 93.9C143.857 93.9933 143.67 94.1333 143.55 94.32C143.43 94.5067 143.37 94.72 143.37 94.96C143.37 95.2267 143.43 95.4467 143.55 95.62C143.67 95.7933 143.844 95.9267 144.07 96.02C144.297 96.1133 144.557 96.16 144.85 96.16ZM152.529 98V83.6H155.229V98H152.529ZM162.621 98.24C161.661 98.24 160.794 98.02 160.021 97.58C159.261 97.1267 158.654 96.5067 158.201 95.72C157.761 94.92 157.541 94.0067 157.541 92.98C157.541 91.9267 157.761 91.0067 158.201 90.22C158.654 89.42 159.268 88.8 160.041 88.36C160.814 87.9067 161.681 87.68 162.641 87.68C163.614 87.68 164.481 87.9067 165.241 88.36C166.014 88.8 166.621 89.42 167.061 90.22C167.514 91.0067 167.741 91.92 167.741 92.96C167.741 94 167.514 94.92 167.061 95.72C166.621 96.5067 166.014 97.1267 165.241 97.58C164.468 98.02 163.594 98.24 162.621 98.24ZM162.621 95.9C163.074 95.9 163.474 95.7933 163.821 95.58C164.181 95.3667 164.461 95.04 164.661 94.6C164.874 94.16 164.981 93.6133 164.981 92.96C164.981 92.3067 164.874 91.7667 164.661 91.34C164.461 90.9 164.181 90.5733 163.821 90.36C163.474 90.1333 163.081 90.02 162.641 90.02C162.214 90.02 161.821 90.1333 161.461 90.36C161.101 90.5733 160.814 90.9 160.601 91.34C160.401 91.7667 160.301 92.3067 160.301 92.96C160.301 93.6133 160.401 94.16 160.601 94.6C160.814 95.04 161.094 95.3667 161.441 95.58C161.801 95.7933 162.194 95.9 162.621 95.9ZM91.8443 122L96.9643 108H100.024L105.124 122H102.264L98.4843 111.08L94.6843 122H91.8443ZM94.1043 118.82L94.8243 116.72H101.944L102.644 118.82H94.1043ZM106.904 122V107.6H109.604V122H106.904ZM117.076 122.24C116.063 122.24 115.163 122.027 114.376 121.6C113.603 121.16 112.996 120.553 112.556 119.78C112.129 118.993 111.916 118.087 111.916 117.06C111.916 116.007 112.129 115.08 112.556 114.28C112.996 113.467 113.603 112.833 114.376 112.38C115.149 111.913 116.049 111.68 117.076 111.68C118.076 111.68 118.949 111.9 119.696 112.34C120.443 112.78 121.023 113.373 121.436 114.12C121.849 114.867 122.056 115.713 122.056 116.66C122.056 116.793 122.056 116.947 122.056 117.12C122.056 117.28 122.043 117.447 122.016 117.62H113.836V115.98H119.336C119.296 115.327 119.063 114.813 118.636 114.44C118.223 114.067 117.703 113.88 117.076 113.88C116.623 113.88 116.203 113.987 115.816 114.2C115.429 114.4 115.123 114.713 114.896 115.14C114.683 115.567 114.576 116.107 114.576 116.76V117.34C114.576 117.887 114.676 118.367 114.876 118.78C115.089 119.18 115.383 119.493 115.756 119.72C116.129 119.933 116.563 120.04 117.056 120.04C117.549 120.04 117.956 119.933 118.276 119.72C118.609 119.507 118.856 119.233 119.016 118.9H121.776C121.589 119.527 121.276 120.093 120.836 120.6C120.396 121.107 119.856 121.507 119.216 121.8C118.576 122.093 117.863 122.24 117.076 122.24ZM129.147 122.24C128.134 122.24 127.234 122.013 126.447 121.56C125.661 121.107 125.047 120.487 124.607 119.7C124.167 118.913 123.947 118.013 123.947 117C123.947 115.96 124.167 115.047 124.607 114.26C125.047 113.46 125.661 112.833 126.447 112.38C127.234 111.913 128.134 111.68 129.147 111.68C130.441 111.68 131.527 112.02 132.407 112.7C133.287 113.38 133.847 114.313 134.087 115.5H131.227C131.107 115.033 130.854 114.667 130.467 114.4C130.094 114.133 129.647 114 129.127 114C128.661 114 128.241 114.12 127.867 114.36C127.507 114.587 127.221 114.927 127.007 115.38C126.807 115.82 126.707 116.347 126.707 116.96C126.707 117.427 126.767 117.847 126.887 118.22C127.007 118.58 127.174 118.893 127.387 119.16C127.601 119.413 127.854 119.607 128.147 119.74C128.454 119.873 128.781 119.94 129.127 119.94C129.474 119.94 129.787 119.88 130.067 119.76C130.361 119.64 130.607 119.473 130.807 119.26C131.007 119.033 131.147 118.76 131.227 118.44H134.087C133.847 119.6 133.281 120.527 132.387 121.22C131.507 121.9 130.427 122.24 129.147 122.24ZM136.416 122V111.92H138.816L139.076 113.78C139.316 113.34 139.616 112.967 139.976 112.66C140.349 112.353 140.769 112.113 141.236 111.94C141.716 111.767 142.242 111.68 142.816 111.68V114.54H141.896C141.496 114.54 141.122 114.587 140.776 114.68C140.442 114.773 140.149 114.927 139.896 115.14C139.642 115.34 139.449 115.62 139.316 115.98C139.182 116.34 139.116 116.793 139.116 117.34V122H136.416ZM144.659 122V111.92H147.359V122H144.659ZM146.019 110.54C145.539 110.54 145.139 110.4 144.819 110.12C144.513 109.827 144.359 109.46 144.359 109.02C144.359 108.58 144.513 108.22 144.819 107.94C145.139 107.647 145.539 107.5 146.019 107.5C146.513 107.5 146.913 107.647 147.219 107.94C147.539 108.22 147.699 108.58 147.699 109.02C147.699 109.46 147.539 109.827 147.219 110.12C146.913 110.4 146.513 110.54 146.019 110.54ZM150.088 122V111.92H152.468L152.688 113.26C153.008 112.78 153.428 112.4 153.948 112.12C154.481 111.827 155.088 111.68 155.768 111.68C156.274 111.68 156.728 111.747 157.128 111.88C157.528 112.013 157.881 112.207 158.188 112.46C158.508 112.713 158.768 113.033 158.968 113.42C159.341 112.873 159.828 112.447 160.428 112.14C161.028 111.833 161.681 111.68 162.388 111.68C163.268 111.68 164.001 111.86 164.588 112.22C165.174 112.567 165.614 113.073 165.908 113.74C166.214 114.407 166.368 115.227 166.368 116.2V122H163.688V116.44C163.688 115.64 163.528 115.027 163.208 114.6C162.901 114.173 162.421 113.96 161.768 113.96C161.341 113.96 160.961 114.067 160.628 114.28C160.294 114.493 160.034 114.8 159.848 115.2C159.674 115.6 159.588 116.08 159.588 116.64V122H156.888V116.44C156.888 115.64 156.728 115.027 156.408 114.6C156.088 114.173 155.594 113.96 154.928 113.96C154.514 113.96 154.141 114.067 153.808 114.28C153.488 114.493 153.234 114.8 153.048 115.2C152.874 115.6 152.788 116.08 152.788 116.64V122H150.088ZM84.8839 146V132H94.0839V134.18H87.5839V137.84H93.4839V139.94H87.5839V143.82H94.0839V146H84.8839ZM100.244 146.24C99.4307 146.24 98.7307 146.073 98.1441 145.74C97.5707 145.393 97.1307 144.893 96.8241 144.24C96.5174 143.573 96.3641 142.753 96.3641 141.78V135.92H99.0641V141.5C99.0641 142.313 99.2307 142.927 99.5641 143.34C99.9107 143.753 100.437 143.96 101.144 143.96C101.597 143.96 101.997 143.86 102.344 143.66C102.691 143.447 102.964 143.147 103.164 142.76C103.377 142.36 103.484 141.873 103.484 141.3V135.92H106.164V146H103.804L103.584 144.36C103.291 144.933 102.857 145.393 102.284 145.74C101.711 146.073 101.031 146.24 100.244 146.24ZM113.688 146.24C112.675 146.24 111.775 146.013 110.988 145.56C110.202 145.107 109.588 144.487 109.148 143.7C108.708 142.913 108.488 142.013 108.488 141C108.488 139.96 108.708 139.047 109.148 138.26C109.588 137.46 110.202 136.833 110.988 136.38C111.775 135.913 112.675 135.68 113.688 135.68C114.982 135.68 116.068 136.02 116.948 136.7C117.828 137.38 118.388 138.313 118.628 139.5H115.768C115.648 139.033 115.395 138.667 115.008 138.4C114.635 138.133 114.188 138 113.668 138C113.202 138 112.782 138.12 112.408 138.36C112.048 138.587 111.762 138.927 111.548 139.38C111.348 139.82 111.248 140.347 111.248 140.96C111.248 141.427 111.308 141.847 111.428 142.22C111.548 142.58 111.715 142.893 111.928 143.16C112.142 143.413 112.395 143.607 112.688 143.74C112.995 143.873 113.322 143.94 113.668 143.94C114.015 143.94 114.328 143.88 114.608 143.76C114.902 143.64 115.148 143.473 115.348 143.26C115.548 143.033 115.688 142.76 115.768 142.44H118.628C118.388 143.6 117.822 144.527 116.928 145.22C116.048 145.9 114.968 146.24 113.688 146.24ZM124.357 146.24C123.517 146.24 122.823 146.107 122.277 145.84C121.73 145.56 121.323 145.193 121.057 144.74C120.803 144.273 120.677 143.76 120.677 143.2C120.677 142.587 120.83 142.047 121.137 141.58C121.457 141.113 121.93 140.747 122.557 140.48C123.197 140.213 123.997 140.08 124.957 140.08H127.457C127.457 139.587 127.39 139.18 127.257 138.86C127.123 138.527 126.917 138.28 126.637 138.12C126.357 137.96 125.983 137.88 125.517 137.88C125.01 137.88 124.577 137.993 124.217 138.22C123.87 138.433 123.657 138.767 123.577 139.22H120.957C121.023 138.5 121.257 137.88 121.657 137.36C122.07 136.827 122.61 136.413 123.277 136.12C123.957 135.827 124.71 135.68 125.537 135.68C126.483 135.68 127.303 135.84 127.997 136.16C128.69 136.48 129.223 136.94 129.597 137.54C129.97 138.14 130.157 138.88 130.157 139.76V146H127.877L127.577 144.46C127.43 144.727 127.257 144.967 127.057 145.18C126.857 145.393 126.623 145.58 126.357 145.74C126.09 145.9 125.79 146.02 125.457 146.1C125.123 146.193 124.757 146.24 124.357 146.24ZM124.997 144.16C125.343 144.16 125.65 144.1 125.917 143.98C126.197 143.847 126.437 143.673 126.637 143.46C126.837 143.233 126.99 142.98 127.097 142.7C127.217 142.407 127.297 142.093 127.337 141.76V141.74H125.277C124.863 141.74 124.523 141.793 124.257 141.9C124.003 141.993 123.817 142.133 123.697 142.32C123.577 142.507 123.517 142.72 123.517 142.96C123.517 143.227 123.577 143.447 123.697 143.62C123.817 143.793 123.99 143.927 124.217 144.02C124.443 144.113 124.703 144.16 124.997 144.16ZM132.675 146V131.6H135.375V146H132.675ZM138.068 146V135.92H140.768V146H138.068ZM139.428 134.54C138.948 134.54 138.548 134.4 138.228 134.12C137.921 133.827 137.768 133.46 137.768 133.02C137.768 132.58 137.921 132.22 138.228 131.94C138.548 131.647 138.948 131.5 139.428 131.5C139.921 131.5 140.321 131.647 140.628 131.94C140.948 132.22 141.108 132.58 141.108 133.02C141.108 133.46 140.948 133.827 140.628 134.12C140.321 134.4 139.921 134.54 139.428 134.54ZM143.496 150.4V135.92H145.896L146.196 137.32C146.409 137.027 146.662 136.76 146.956 136.52C147.249 136.267 147.596 136.067 147.996 135.92C148.409 135.76 148.889 135.68 149.436 135.68C150.382 135.68 151.216 135.913 151.936 136.38C152.656 136.847 153.222 137.48 153.636 138.28C154.062 139.067 154.276 139.967 154.276 140.98C154.276 141.993 154.062 142.9 153.636 143.7C153.209 144.487 152.636 145.107 151.916 145.56C151.196 146.013 150.376 146.24 149.456 146.24C148.709 146.24 148.062 146.107 147.516 145.84C146.982 145.56 146.542 145.18 146.196 144.7V150.4H143.496ZM148.816 143.88C149.349 143.88 149.816 143.76 150.216 143.52C150.629 143.28 150.949 142.94 151.176 142.5C151.402 142.06 151.516 141.553 151.516 140.98C151.516 140.407 151.402 139.9 151.176 139.46C150.949 139.007 150.629 138.66 150.216 138.42C149.816 138.167 149.349 138.04 148.816 138.04C148.296 138.04 147.829 138.167 147.416 138.42C147.016 138.66 146.696 139 146.456 139.44C146.229 139.88 146.116 140.387 146.116 140.96C146.116 141.533 146.229 142.047 146.456 142.5C146.696 142.94 147.016 143.28 147.416 143.52C147.829 143.76 148.296 143.88 148.816 143.88ZM160.751 146C160.044 146 159.424 145.893 158.891 145.68C158.371 145.453 157.964 145.087 157.671 144.58C157.377 144.06 157.231 143.353 157.231 142.46V138.18H155.511V135.92H157.231L157.531 133.18H159.931V135.92H162.591V138.18H159.931V142.5C159.931 142.953 160.031 143.267 160.231 143.44C160.431 143.613 160.771 143.7 161.251 143.7H162.571V146H160.751ZM169.369 146.24C168.409 146.24 167.542 146.02 166.769 145.58C166.009 145.127 165.402 144.507 164.949 143.72C164.509 142.92 164.289 142.007 164.289 140.98C164.289 139.927 164.509 139.007 164.949 138.22C165.402 137.42 166.016 136.8 166.789 136.36C167.562 135.907 168.429 135.68 169.389 135.68C170.362 135.68 171.229 135.907 171.989 136.36C172.762 136.8 173.369 137.42 173.809 138.22C174.262 139.007 174.489 139.92 174.489 140.96C174.489 142 174.262 142.92 173.809 143.72C173.369 144.507 172.762 145.127 171.989 145.58C171.216 146.02 170.342 146.24 169.369 146.24ZM169.369 143.9C169.822 143.9 170.222 143.793 170.569 143.58C170.929 143.367 171.209 143.04 171.409 142.6C171.622 142.16 171.729 141.613 171.729 140.96C171.729 140.307 171.622 139.767 171.409 139.34C171.209 138.9 170.929 138.573 170.569 138.36C170.222 138.133 169.829 138.02 169.389 138.02C168.962 138.02 168.569 138.133 168.209 138.36C167.849 138.573 167.562 138.9 167.349 139.34C167.149 139.767 167.049 140.307 167.049 140.96C167.049 141.613 167.149 142.16 167.349 142.6C167.562 143.04 167.842 143.367 168.189 143.58C168.549 143.793 168.942 143.9 169.369 143.9Z" fill="#6A5ACD"/>
<defs>
<filter id="filter0_f_329_512" x="163.755" y="10.1162" width="78.6514" height="177.14" filterUnits="userSpaceOnUse" color-interpolation-filters="sRGB">
<feFlood flood-opacity="0" result="BackgroundImageFix"/>
<feBlend mode="normal" in="SourceGraphic" in2="BackgroundImageFix" result="shape"/>
<feGaussianBlur stdDeviation="15" result="effect1_foregroundBlur_329_512"/>
</filter>
<filter id="filter1_f_329_512" x="0.760254" y="20.605" width="219.681" height="218.744" filterUnits="userSpaceOnUse" color-interpolation-filters="sRGB">
<feFlood flood-opacity="0" result="BackgroundImageFix"/>
<feBlend mode="normal" in="SourceGraphic" in2="BackgroundImageFix" result="shape"/>
<feGaussianBlur stdDeviation="25" result="effect1_foregroundBlur_329_512"/>
</filter>
<linearGradient id="paint0_linear_329_512" x1="188.694" y1="207" x2="21.2126" y2="-75.993" gradientUnits="userSpaceOnUse">
<stop stop-color="#A1A4F3"/>
<stop offset="0.992945" stop-color="white" stop-opacity="0.86"/>
</linearGradient>
</defs>
</svg>
