<svg width="243" height="240" viewBox="0 0 243 240" fill="none" xmlns="http://www.w3.org/2000/svg">
<g filter="url(#filter0_f_329_514)">
<ellipse cx="203.081" cy="98.6862" rx="9.32577" ry="58.5698" fill="#050259" fill-opacity="0.5" style="mix-blend-mode:overlay"/>
</g>
<ellipse cx="129.252" cy="103.5" rx="100.252" ry="103.5" fill="url(#paint0_linear_329_514)"/>
<g filter="url(#filter1_f_329_514)">
<ellipse cx="110.601" cy="129.977" rx="59.8404" ry="59.3721" fill="#A1A4F3" fill-opacity="0.2"/>
</g>
<path d="M91.8443 74L96.9643 60H100.024L105.124 74H102.264L98.4843 63.08L94.6843 74H91.8443ZM94.1043 70.82L94.8243 68.72H101.944L102.644 70.82H94.1043ZM106.904 74V59.6H109.604V74H106.904ZM117.076 74.24C116.063 74.24 115.163 74.0267 114.376 73.6C113.603 73.16 112.996 72.5533 112.556 71.78C112.129 70.9933 111.916 70.0867 111.916 69.06C111.916 68.0067 112.129 67.08 112.556 66.28C112.996 65.4667 113.603 64.8333 114.376 64.38C115.149 63.9133 116.049 63.68 117.076 63.68C118.076 63.68 118.949 63.9 119.696 64.34C120.443 64.78 121.023 65.3733 121.436 66.12C121.849 66.8667 122.056 67.7133 122.056 68.66C122.056 68.7933 122.056 68.9467 122.056 69.12C122.056 69.28 122.043 69.4467 122.016 69.62H113.836V67.98H119.336C119.296 67.3267 119.063 66.8133 118.636 66.44C118.223 66.0667 117.703 65.88 117.076 65.88C116.623 65.88 116.203 65.9867 115.816 66.2C115.429 66.4 115.123 66.7133 114.896 67.14C114.683 67.5667 114.576 68.1067 114.576 68.76V69.34C114.576 69.8867 114.676 70.3667 114.876 70.78C115.089 71.18 115.383 71.4933 115.756 71.72C116.129 71.9333 116.563 72.04 117.056 72.04C117.549 72.04 117.956 71.9333 118.276 71.72C118.609 71.5067 118.856 71.2333 119.016 70.9H121.776C121.589 71.5267 121.276 72.0933 120.836 72.6C120.396 73.1067 119.856 73.5067 119.216 73.8C118.576 74.0933 117.863 74.24 117.076 74.24ZM129.147 74.24C128.134 74.24 127.234 74.0133 126.447 73.56C125.661 73.1067 125.047 72.4867 124.607 71.7C124.167 70.9133 123.947 70.0133 123.947 69C123.947 67.96 124.167 67.0467 124.607 66.26C125.047 65.46 125.661 64.8333 126.447 64.38C127.234 63.9133 128.134 63.68 129.147 63.68C130.441 63.68 131.527 64.02 132.407 64.7C133.287 65.38 133.847 66.3133 134.087 67.5H131.227C131.107 67.0333 130.854 66.6667 130.467 66.4C130.094 66.1333 129.647 66 129.127 66C128.661 66 128.241 66.12 127.867 66.36C127.507 66.5867 127.221 66.9267 127.007 67.38C126.807 67.82 126.707 68.3467 126.707 68.96C126.707 69.4267 126.767 69.8467 126.887 70.22C127.007 70.58 127.174 70.8933 127.387 71.16C127.601 71.4133 127.854 71.6067 128.147 71.74C128.454 71.8733 128.781 71.94 129.127 71.94C129.474 71.94 129.787 71.88 130.067 71.76C130.361 71.64 130.607 71.4733 130.807 71.26C131.007 71.0333 131.147 70.76 131.227 70.44H134.087C133.847 71.6 133.281 72.5267 132.387 73.22C131.507 73.9 130.427 74.24 129.147 74.24ZM136.416 74V63.92H138.816L139.076 65.78C139.316 65.34 139.616 64.9667 139.976 64.66C140.349 64.3533 140.769 64.1133 141.236 63.94C141.716 63.7667 142.242 63.68 142.816 63.68V66.54H141.896C141.496 66.54 141.122 66.5867 140.776 66.68C140.442 66.7733 140.149 66.9267 139.896 67.14C139.642 67.34 139.449 67.62 139.316 67.98C139.182 68.34 139.116 68.7933 139.116 69.34V74H136.416ZM144.659 74V63.92H147.359V74H144.659ZM146.019 62.54C145.539 62.54 145.139 62.4 144.819 62.12C144.513 61.8267 144.359 61.46 144.359 61.02C144.359 60.58 144.513 60.22 144.819 59.94C145.139 59.6467 145.539 59.5 146.019 59.5C146.513 59.5 146.913 59.6467 147.219 59.94C147.539 60.22 147.699 60.58 147.699 61.02C147.699 61.46 147.539 61.8267 147.219 62.12C146.913 62.4 146.513 62.54 146.019 62.54ZM150.088 74V63.92H152.468L152.688 65.26C153.008 64.78 153.428 64.4 153.948 64.12C154.481 63.8267 155.088 63.68 155.768 63.68C156.274 63.68 156.728 63.7467 157.128 63.88C157.528 64.0133 157.881 64.2067 158.188 64.46C158.508 64.7133 158.768 65.0333 158.968 65.42C159.341 64.8733 159.828 64.4467 160.428 64.14C161.028 63.8333 161.681 63.68 162.388 63.68C163.268 63.68 164.001 63.86 164.588 64.22C165.174 64.5667 165.614 65.0733 165.908 65.74C166.214 66.4067 166.368 67.2267 166.368 68.2V74H163.688V68.44C163.688 67.64 163.528 67.0267 163.208 66.6C162.901 66.1733 162.421 65.96 161.768 65.96C161.341 65.96 160.961 66.0667 160.628 66.28C160.294 66.4933 160.034 66.8 159.848 67.2C159.674 67.6 159.588 68.08 159.588 68.64V74H156.888V68.44C156.888 67.64 156.728 67.0267 156.408 66.6C156.088 66.1733 155.594 65.96 154.928 65.96C154.514 65.96 154.141 66.0667 153.808 66.28C153.488 66.4933 153.234 66.8 153.048 67.2C152.874 67.6 152.788 68.08 152.788 68.64V74H150.088ZM56.7801 98V84H59.4801V98H56.7801ZM47.9601 98V84H50.6601V98H47.9601ZM50.2801 91.94V89.76H57.2401V91.94H50.2801ZM66.9374 98.24C65.9774 98.24 65.1108 98.02 64.3374 97.58C63.5774 97.1267 62.9708 96.5067 62.5174 95.72C62.0774 94.92 61.8574 94.0067 61.8574 92.98C61.8574 91.9267 62.0774 91.0067 62.5174 90.22C62.9708 89.42 63.5841 88.8 64.3574 88.36C65.1308 87.9067 65.9974 87.68 66.9574 87.68C67.9308 87.68 68.7974 87.9067 69.5574 88.36C70.3308 88.8 70.9374 89.42 71.3774 90.22C71.8308 91.0067 72.0574 91.92 72.0574 92.96C72.0574 94 71.8308 94.92 71.3774 95.72C70.9374 96.5067 70.3308 97.1267 69.5574 97.58C68.7841 98.02 67.9108 98.24 66.9374 98.24ZM66.9374 95.9C67.3908 95.9 67.7908 95.7933 68.1374 95.58C68.4974 95.3667 68.7774 95.04 68.9774 94.6C69.1908 94.16 69.2974 93.6133 69.2974 92.96C69.2974 92.3067 69.1908 91.7667 68.9774 91.34C68.7774 90.9 68.4974 90.5733 68.1374 90.36C67.7908 90.1333 67.3974 90.02 66.9574 90.02C66.5308 90.02 66.1374 90.1333 65.7774 90.36C65.4174 90.5733 65.1308 90.9 64.9174 91.34C64.7174 91.7667 64.6174 92.3067 64.6174 92.96C64.6174 93.6133 64.7174 94.16 64.9174 94.6C65.1308 95.04 65.4108 95.3667 65.7574 95.58C66.1174 95.7933 66.5108 95.9 66.9374 95.9ZM74.3845 98V87.92H76.7845L77.0445 89.78C77.2845 89.34 77.5845 88.9667 77.9445 88.66C78.3178 88.3533 78.7378 88.1133 79.2045 87.94C79.6845 87.7667 80.2111 87.68 80.7845 87.68V90.54H79.8645C79.4645 90.54 79.0911 90.5867 78.7445 90.68C78.4111 90.7733 78.1178 90.9267 77.8645 91.14C77.6111 91.34 77.4178 91.62 77.2845 91.98C77.1511 92.34 77.0845 92.7933 77.0845 93.34V98H74.3845ZM87.108 98C86.4014 98 85.7814 97.8933 85.248 97.68C84.728 97.4533 84.3214 97.0867 84.028 96.58C83.7347 96.06 83.588 95.3533 83.588 94.46V90.18H81.868V87.92H83.588L83.888 85.18H86.288V87.92H88.948V90.18H86.288V94.5C86.288 94.9533 86.388 95.2667 86.588 95.44C86.788 95.6133 87.128 95.7 87.608 95.7H88.928V98H87.108ZM95.8065 98.24C94.7932 98.24 93.8932 98.0267 93.1065 97.6C92.3332 97.16 91.7265 96.5533 91.2865 95.78C90.8598 94.9933 90.6465 94.0867 90.6465 93.06C90.6465 92.0067 90.8598 91.08 91.2865 90.28C91.7265 89.4667 92.3332 88.8333 93.1065 88.38C93.8798 87.9133 94.7798 87.68 95.8065 87.68C96.8065 87.68 97.6798 87.9 98.4265 88.34C99.1732 88.78 99.7532 89.3733 100.166 90.12C100.58 90.8667 100.786 91.7133 100.786 92.66C100.786 92.7933 100.786 92.9467 100.786 93.12C100.786 93.28 100.773 93.4467 100.746 93.62H92.5665V91.98H98.0665C98.0265 91.3267 97.7932 90.8133 97.3665 90.44C96.9532 90.0667 96.4332 89.88 95.8065 89.88C95.3532 89.88 94.9332 89.9867 94.5465 90.2C94.1598 90.4 93.8532 90.7133 93.6265 91.14C93.4132 91.5667 93.3065 92.1067 93.3065 92.76V93.34C93.3065 93.8867 93.4065 94.3667 93.6065 94.78C93.8198 95.18 94.1132 95.4933 94.4865 95.72C94.8598 95.9333 95.2932 96.04 95.7865 96.04C96.2798 96.04 96.6865 95.9333 97.0065 95.72C97.3398 95.5067 97.5865 95.2333 97.7465 94.9H100.506C100.32 95.5267 100.006 96.0933 99.5665 96.6C99.1265 97.1067 98.5865 97.5067 97.9465 97.8C97.3065 98.0933 96.5932 98.24 95.8065 98.24ZM102.998 98V83.6H105.698V98H102.998ZM111.73 98.24C110.89 98.24 110.196 98.1067 109.65 97.84C109.103 97.56 108.696 97.1933 108.43 96.74C108.176 96.2733 108.05 95.76 108.05 95.2C108.05 94.5867 108.203 94.0467 108.51 93.58C108.83 93.1133 109.303 92.7467 109.93 92.48C110.57 92.2133 111.37 92.08 112.33 92.08H114.83C114.83 91.5867 114.763 91.18 114.63 90.86C114.496 90.5267 114.29 90.28 114.01 90.12C113.73 89.96 113.356 89.88 112.89 89.88C112.383 89.88 111.95 89.9933 111.59 90.22C111.243 90.4333 111.03 90.7667 110.95 91.22H108.33C108.396 90.5 108.63 89.88 109.03 89.36C109.443 88.8267 109.983 88.4133 110.65 88.12C111.33 87.8267 112.083 87.68 112.91 87.68C113.856 87.68 114.676 87.84 115.37 88.16C116.063 88.48 116.596 88.94 116.97 89.54C117.343 90.14 117.53 90.88 117.53 91.76V98H115.25L114.95 96.46C114.803 96.7267 114.63 96.9667 114.43 97.18C114.23 97.3933 113.996 97.58 113.73 97.74C113.463 97.9 113.163 98.02 112.83 98.1C112.496 98.1933 112.13 98.24 111.73 98.24ZM112.37 96.16C112.716 96.16 113.023 96.1 113.29 95.98C113.57 95.8467 113.81 95.6733 114.01 95.46C114.21 95.2333 114.363 94.98 114.47 94.7C114.59 94.4067 114.67 94.0933 114.71 93.76V93.74H112.65C112.236 93.74 111.896 93.7933 111.63 93.9C111.376 93.9933 111.19 94.1333 111.07 94.32C110.95 94.5067 110.89 94.72 110.89 94.96C110.89 95.2267 110.95 95.4467 111.07 95.62C111.19 95.7933 111.363 95.9267 111.59 96.02C111.816 96.1133 112.076 96.16 112.37 96.16ZM113.97 86.6C113.583 86.6 113.25 86.5267 112.97 86.38C112.703 86.2333 112.456 86.0867 112.23 85.94C112.003 85.78 111.75 85.7 111.47 85.7C111.256 85.7 111.07 85.7733 110.91 85.92C110.763 86.0667 110.663 86.2933 110.61 86.6H109.19C109.336 85.7067 109.616 85.0533 110.03 84.64C110.456 84.2267 110.976 84.02 111.59 84.02C111.976 84.02 112.303 84.1 112.57 84.26C112.836 84.4067 113.083 84.56 113.31 84.72C113.55 84.8667 113.81 84.94 114.09 84.94C114.316 84.94 114.503 84.8667 114.65 84.72C114.81 84.5733 114.91 84.3467 114.95 84.04H116.37C116.236 84.9333 115.956 85.5867 115.53 86C115.116 86.4 114.596 86.6 113.97 86.6ZM120.269 93.24V90.98H128.709V93.24H120.269ZM131.572 102.4V87.92H133.972L134.272 89.32C134.485 89.0267 134.739 88.76 135.032 88.52C135.325 88.2667 135.672 88.0667 136.072 87.92C136.485 87.76 136.965 87.68 137.512 87.68C138.459 87.68 139.292 87.9133 140.012 88.38C140.732 88.8467 141.299 89.48 141.712 90.28C142.139 91.0667 142.352 91.9667 142.352 92.98C142.352 93.9933 142.139 94.9 141.712 95.7C141.285 96.4867 140.712 97.1067 139.992 97.56C139.272 98.0133 138.452 98.24 137.532 98.24C136.785 98.24 136.139 98.1067 135.592 97.84C135.059 97.56 134.619 97.18 134.272 96.7V102.4H131.572ZM136.892 95.88C137.425 95.88 137.892 95.76 138.292 95.52C138.705 95.28 139.025 94.94 139.252 94.5C139.479 94.06 139.592 93.5533 139.592 92.98C139.592 92.4067 139.479 91.9 139.252 91.46C139.025 91.0067 138.705 90.66 138.292 90.42C137.892 90.1667 137.425 90.04 136.892 90.04C136.372 90.04 135.905 90.1667 135.492 90.42C135.092 90.66 134.772 91 134.532 91.44C134.305 91.88 134.192 92.3867 134.192 92.96C134.192 93.5333 134.305 94.0467 134.532 94.5C134.772 94.94 135.092 95.28 135.492 95.52C135.905 95.76 136.372 95.88 136.892 95.88ZM144.737 98V87.92H147.437V98H144.737ZM146.097 86.54C145.617 86.54 145.217 86.4 144.897 86.12C144.591 85.8267 144.437 85.46 144.437 85.02C144.437 84.58 144.591 84.22 144.897 83.94C145.217 83.6467 145.617 83.5 146.097 83.5C146.591 83.5 146.991 83.6467 147.297 83.94C147.617 84.22 147.777 84.58 147.777 85.02C147.777 85.46 147.617 85.8267 147.297 86.12C146.991 86.4 146.591 86.54 146.097 86.54ZM150.166 98V87.92H152.546L152.766 89.26C153.086 88.78 153.506 88.4 154.026 88.12C154.559 87.8267 155.166 87.68 155.846 87.68C156.352 87.68 156.806 87.7467 157.206 87.88C157.606 88.0133 157.959 88.2067 158.266 88.46C158.586 88.7133 158.846 89.0333 159.046 89.42C159.419 88.8733 159.906 88.4467 160.506 88.14C161.106 87.8333 161.759 87.68 162.466 87.68C163.346 87.68 164.079 87.86 164.666 88.22C165.252 88.5667 165.692 89.0733 165.986 89.74C166.292 90.4067 166.446 91.2267 166.446 92.2V98H163.766V92.44C163.766 91.64 163.606 91.0267 163.286 90.6C162.979 90.1733 162.499 89.96 161.846 89.96C161.419 89.96 161.039 90.0667 160.706 90.28C160.372 90.4933 160.112 90.8 159.926 91.2C159.752 91.6 159.666 92.08 159.666 92.64V98H156.966V92.44C156.966 91.64 156.806 91.0267 156.486 90.6C156.166 90.1733 155.672 89.96 155.006 89.96C154.592 89.96 154.219 90.0667 153.886 90.28C153.566 90.4933 153.312 90.8 153.126 91.2C152.952 91.6 152.866 92.08 152.866 92.64V98H150.166ZM173.834 98.24C172.82 98.24 171.92 98.0267 171.134 97.6C170.36 97.16 169.754 96.5533 169.314 95.78C168.887 94.9933 168.674 94.0867 168.674 93.06C168.674 92.0067 168.887 91.08 169.314 90.28C169.754 89.4667 170.36 88.8333 171.134 88.38C171.907 87.9133 172.807 87.68 173.834 87.68C174.834 87.68 175.707 87.9 176.454 88.34C177.2 88.78 177.78 89.3733 178.194 90.12C178.607 90.8667 178.814 91.7133 178.814 92.66C178.814 92.7933 178.814 92.9467 178.814 93.12C178.814 93.28 178.8 93.4467 178.774 93.62H170.594V91.98H176.094C176.054 91.3267 175.82 90.8133 175.394 90.44C174.98 90.0667 174.46 89.88 173.834 89.88C173.38 89.88 172.96 89.9867 172.574 90.2C172.187 90.4 171.88 90.7133 171.654 91.14C171.44 91.5667 171.334 92.1067 171.334 92.76V93.34C171.334 93.8867 171.434 94.3667 171.634 94.78C171.847 95.18 172.14 95.4933 172.514 95.72C172.887 95.9333 173.32 96.04 173.814 96.04C174.307 96.04 174.714 95.9333 175.034 95.72C175.367 95.5067 175.614 95.2333 175.774 94.9H178.534C178.347 95.5267 178.034 96.0933 177.594 96.6C177.154 97.1067 176.614 97.5067 175.974 97.8C175.334 98.0933 174.62 98.24 173.834 98.24ZM181.025 98V87.92H183.405L183.605 89.56C183.912 89 184.345 88.5467 184.905 88.2C185.478 87.8533 186.158 87.68 186.945 87.68C187.785 87.68 188.492 87.8533 189.065 88.2C189.638 88.5467 190.072 89.0533 190.365 89.72C190.672 90.3867 190.825 91.2067 190.825 92.18V98H188.145V92.44C188.145 91.64 187.972 91.0267 187.625 90.6C187.292 90.1733 186.772 89.96 186.065 89.96C185.612 89.96 185.205 90.0667 184.845 90.28C184.498 90.4933 184.225 90.8 184.025 91.2C183.825 91.5867 183.725 92.06 183.725 92.62V98H181.025ZM197.909 98C197.202 98 196.582 97.8933 196.049 97.68C195.529 97.4533 195.122 97.0867 194.829 96.58C194.535 96.06 194.389 95.3533 194.389 94.46V90.18H192.669V87.92H194.389L194.689 85.18H197.089V87.92H199.749V90.18H197.089V94.5C197.089 94.9533 197.189 95.2667 197.389 95.44C197.589 95.6133 197.929 95.7 198.409 95.7H199.729V98H197.909ZM205.421 98.24C204.581 98.24 203.888 98.1067 203.341 97.84C202.795 97.56 202.388 97.1933 202.121 96.74C201.868 96.2733 201.741 95.76 201.741 95.2C201.741 94.5867 201.895 94.0467 202.201 93.58C202.521 93.1133 202.995 92.7467 203.621 92.48C204.261 92.2133 205.061 92.08 206.021 92.08H208.521C208.521 91.5867 208.455 91.18 208.321 90.86C208.188 90.5267 207.981 90.28 207.701 90.12C207.421 89.96 207.048 89.88 206.581 89.88C206.075 89.88 205.641 89.9933 205.281 90.22C204.935 90.4333 204.721 90.7667 204.641 91.22H202.021C202.088 90.5 202.321 89.88 202.721 89.36C203.135 88.8267 203.675 88.4133 204.341 88.12C205.021 87.8267 205.775 87.68 206.601 87.68C207.548 87.68 208.368 87.84 209.061 88.16C209.755 88.48 210.288 88.94 210.661 89.54C211.035 90.14 211.221 90.88 211.221 91.76V98H208.941L208.641 96.46C208.495 96.7267 208.321 96.9667 208.121 97.18C207.921 97.3933 207.688 97.58 207.421 97.74C207.155 97.9 206.855 98.02 206.521 98.1C206.188 98.1933 205.821 98.24 205.421 98.24ZM206.061 96.16C206.408 96.16 206.715 96.1 206.981 95.98C207.261 95.8467 207.501 95.6733 207.701 95.46C207.901 95.2333 208.055 94.98 208.161 94.7C208.281 94.4067 208.361 94.0933 208.401 93.76V93.74H206.341C205.928 93.74 205.588 93.7933 205.321 93.9C205.068 93.9933 204.881 94.1333 204.761 94.32C204.641 94.5067 204.581 94.72 204.581 94.96C204.581 95.2267 204.641 95.4467 204.761 95.62C204.881 95.7933 205.055 95.9267 205.281 96.02C205.508 96.1133 205.768 96.16 206.061 96.16ZM101.183 122V108H103.883V119.9H110.023V122H101.183ZM112.335 122V111.92H115.035V122H112.335ZM113.695 110.54C113.215 110.54 112.815 110.4 112.495 110.12C112.188 109.827 112.035 109.46 112.035 109.02C112.035 108.58 112.188 108.22 112.495 107.94C112.815 107.647 113.215 107.5 113.695 107.5C114.188 107.5 114.588 107.647 114.895 107.94C115.215 108.22 115.375 108.58 115.375 109.02C115.375 109.46 115.215 109.827 114.895 110.12C114.588 110.4 114.188 110.54 113.695 110.54ZM117.763 122V111.92H120.143L120.363 113.26C120.683 112.78 121.103 112.4 121.623 112.12C122.157 111.827 122.763 111.68 123.443 111.68C123.95 111.68 124.403 111.747 124.803 111.88C125.203 112.013 125.557 112.207 125.863 112.46C126.183 112.713 126.443 113.033 126.643 113.42C127.017 112.873 127.503 112.447 128.103 112.14C128.703 111.833 129.357 111.68 130.063 111.68C130.943 111.68 131.677 111.86 132.263 112.22C132.85 112.567 133.29 113.073 133.583 113.74C133.89 114.407 134.043 115.227 134.043 116.2V122H131.363V116.44C131.363 115.64 131.203 115.027 130.883 114.6C130.577 114.173 130.097 113.96 129.443 113.96C129.017 113.96 128.637 114.067 128.303 114.28C127.97 114.493 127.71 114.8 127.523 115.2C127.35 115.6 127.263 116.08 127.263 116.64V122H124.563V116.44C124.563 115.64 124.403 115.027 124.083 114.6C123.763 114.173 123.27 113.96 122.603 113.96C122.19 113.96 121.817 114.067 121.483 114.28C121.163 114.493 120.91 114.8 120.723 115.2C120.55 115.6 120.463 116.08 120.463 116.64V122H117.763ZM139.991 122.24C139.151 122.24 138.458 122.107 137.911 121.84C137.365 121.56 136.958 121.193 136.691 120.74C136.438 120.273 136.311 119.76 136.311 119.2C136.311 118.587 136.465 118.047 136.771 117.58C137.091 117.113 137.565 116.747 138.191 116.48C138.831 116.213 139.631 116.08 140.591 116.08H143.091C143.091 115.587 143.025 115.18 142.891 114.86C142.758 114.527 142.551 114.28 142.271 114.12C141.991 113.96 141.618 113.88 141.151 113.88C140.645 113.88 140.211 113.993 139.851 114.22C139.505 114.433 139.291 114.767 139.211 115.22H136.591C136.658 114.5 136.891 113.88 137.291 113.36C137.705 112.827 138.245 112.413 138.911 112.12C139.591 111.827 140.345 111.68 141.171 111.68C142.118 111.68 142.938 111.84 143.631 112.16C144.325 112.48 144.858 112.94 145.231 113.54C145.605 114.14 145.791 114.88 145.791 115.76V122H143.511L143.211 120.46C143.065 120.727 142.891 120.967 142.691 121.18C142.491 121.393 142.258 121.58 141.991 121.74C141.725 121.9 141.425 122.02 141.091 122.1C140.758 122.193 140.391 122.24 139.991 122.24ZM140.631 120.16C140.978 120.16 141.285 120.1 141.551 119.98C141.831 119.847 142.071 119.673 142.271 119.46C142.471 119.233 142.625 118.98 142.731 118.7C142.851 118.407 142.931 118.093 142.971 117.76V117.74H140.911C140.498 117.74 140.158 117.793 139.891 117.9C139.638 117.993 139.451 118.133 139.331 118.32C139.211 118.507 139.151 118.72 139.151 118.96C139.151 119.227 139.211 119.447 139.331 119.62C139.451 119.793 139.625 119.927 139.851 120.02C140.078 120.113 140.338 120.16 140.631 120.16ZM142.231 110.6C141.845 110.6 141.511 110.527 141.231 110.38C140.965 110.233 140.718 110.087 140.491 109.94C140.265 109.78 140.011 109.7 139.731 109.7C139.518 109.7 139.331 109.773 139.171 109.92C139.025 110.067 138.925 110.293 138.871 110.6H137.451C137.598 109.707 137.878 109.053 138.291 108.64C138.718 108.227 139.238 108.02 139.851 108.02C140.238 108.02 140.565 108.1 140.831 108.26C141.098 108.407 141.345 108.56 141.571 108.72C141.811 108.867 142.071 108.94 142.351 108.94C142.578 108.94 142.765 108.867 142.911 108.72C143.071 108.573 143.171 108.347 143.211 108.04H144.631C144.498 108.933 144.218 109.587 143.791 110C143.378 110.4 142.858 110.6 142.231 110.6ZM153.07 122.24C152.11 122.24 151.244 122.02 150.47 121.58C149.71 121.127 149.104 120.507 148.65 119.72C148.21 118.92 147.99 118.007 147.99 116.98C147.99 115.927 148.21 115.007 148.65 114.22C149.104 113.42 149.717 112.8 150.49 112.36C151.264 111.907 152.13 111.68 153.09 111.68C154.064 111.68 154.93 111.907 155.69 112.36C156.464 112.8 157.07 113.42 157.51 114.22C157.964 115.007 158.19 115.92 158.19 116.96C158.19 118 157.964 118.92 157.51 119.72C157.07 120.507 156.464 121.127 155.69 121.58C154.917 122.02 154.044 122.24 153.07 122.24ZM153.07 119.9C153.524 119.9 153.924 119.793 154.27 119.58C154.63 119.367 154.91 119.04 155.11 118.6C155.324 118.16 155.43 117.613 155.43 116.96C155.43 116.307 155.324 115.767 155.11 115.34C154.91 114.9 154.63 114.573 154.27 114.36C153.924 114.133 153.53 114.02 153.09 114.02C152.664 114.02 152.27 114.133 151.91 114.36C151.55 114.573 151.264 114.9 151.05 115.34C150.85 115.767 150.75 116.307 150.75 116.96C150.75 117.613 150.85 118.16 151.05 118.6C151.264 119.04 151.544 119.367 151.89 119.58C152.25 119.793 152.644 119.9 153.07 119.9ZM103.205 146.24C101.805 146.24 100.598 145.94 99.5849 145.34C98.5849 144.727 97.8116 143.88 97.2649 142.8C96.7316 141.707 96.4649 140.447 96.4649 139.02C96.4649 137.593 96.7316 136.333 97.2649 135.24C97.8116 134.147 98.5849 133.293 99.5849 132.68C100.598 132.067 101.805 131.76 103.205 131.76C104.898 131.76 106.285 132.18 107.365 133.02C108.445 133.86 109.118 135.047 109.385 136.58H106.445C106.272 135.833 105.905 135.253 105.345 134.84C104.798 134.413 104.078 134.2 103.185 134.2C102.358 134.2 101.645 134.4 101.045 134.8C100.458 135.187 100.005 135.74 99.6849 136.46C99.3649 137.167 99.2049 138.02 99.2049 139.02C99.2049 140.007 99.3649 140.86 99.6849 141.58C100.005 142.3 100.458 142.853 101.045 143.24C101.645 143.627 102.358 143.82 103.185 143.82C104.078 143.82 104.798 143.627 105.345 143.24C105.892 142.84 106.252 142.287 106.425 141.58H109.385C109.118 143.033 108.445 144.173 107.365 145C106.285 145.827 104.898 146.24 103.205 146.24ZM115.031 146.24C114.191 146.24 113.497 146.107 112.951 145.84C112.404 145.56 111.997 145.193 111.731 144.74C111.477 144.273 111.351 143.76 111.351 143.2C111.351 142.587 111.504 142.047 111.811 141.58C112.131 141.113 112.604 140.747 113.231 140.48C113.871 140.213 114.671 140.08 115.631 140.08H118.131C118.131 139.587 118.064 139.18 117.931 138.86C117.797 138.527 117.591 138.28 117.311 138.12C117.031 137.96 116.657 137.88 116.191 137.88C115.684 137.88 115.251 137.993 114.891 138.22C114.544 138.433 114.331 138.767 114.251 139.22H111.631C111.697 138.5 111.931 137.88 112.331 137.36C112.744 136.827 113.284 136.413 113.951 136.12C114.631 135.827 115.384 135.68 116.211 135.68C117.157 135.68 117.977 135.84 118.671 136.16C119.364 136.48 119.897 136.94 120.271 137.54C120.644 138.14 120.831 138.88 120.831 139.76V146H118.551L118.251 144.46C118.104 144.727 117.931 144.967 117.731 145.18C117.531 145.393 117.297 145.58 117.031 145.74C116.764 145.9 116.464 146.02 116.131 146.1C115.797 146.193 115.431 146.24 115.031 146.24ZM115.671 144.16C116.017 144.16 116.324 144.1 116.591 143.98C116.871 143.847 117.111 143.673 117.311 143.46C117.511 143.233 117.664 142.98 117.771 142.7C117.891 142.407 117.971 142.093 118.011 141.76V141.74H115.951C115.537 141.74 115.197 141.793 114.931 141.9C114.677 141.993 114.491 142.133 114.371 142.32C114.251 142.507 114.191 142.72 114.191 142.96C114.191 143.227 114.251 143.447 114.371 143.62C114.491 143.793 114.664 143.927 114.891 144.02C115.117 144.113 115.377 144.16 115.671 144.16ZM123.349 146V135.92H125.729L125.929 137.56C126.236 137 126.669 136.547 127.229 136.2C127.803 135.853 128.483 135.68 129.269 135.68C130.109 135.68 130.816 135.853 131.389 136.2C131.963 136.547 132.396 137.053 132.689 137.72C132.996 138.387 133.149 139.207 133.149 140.18V146H130.469V140.44C130.469 139.64 130.296 139.027 129.949 138.6C129.616 138.173 129.096 137.96 128.389 137.96C127.936 137.96 127.529 138.067 127.169 138.28C126.823 138.493 126.549 138.8 126.349 139.2C126.149 139.587 126.049 140.06 126.049 140.62V146H123.349ZM140.533 146.24C139.52 146.24 138.62 146.027 137.833 145.6C137.06 145.16 136.453 144.553 136.013 143.78C135.586 142.993 135.373 142.087 135.373 141.06C135.373 140.007 135.586 139.08 136.013 138.28C136.453 137.467 137.06 136.833 137.833 136.38C138.606 135.913 139.506 135.68 140.533 135.68C141.533 135.68 142.406 135.9 143.153 136.34C143.9 136.78 144.48 137.373 144.893 138.12C145.306 138.867 145.513 139.713 145.513 140.66C145.513 140.793 145.513 140.947 145.513 141.12C145.513 141.28 145.5 141.447 145.473 141.62H137.293V139.98H142.793C142.753 139.327 142.52 138.813 142.093 138.44C141.68 138.067 141.16 137.88 140.533 137.88C140.08 137.88 139.66 137.987 139.273 138.2C138.886 138.4 138.58 138.713 138.353 139.14C138.14 139.567 138.033 140.107 138.033 140.76V141.34C138.033 141.887 138.133 142.367 138.333 142.78C138.546 143.18 138.84 143.493 139.213 143.72C139.586 143.933 140.02 144.04 140.513 144.04C141.006 144.04 141.413 143.933 141.733 143.72C142.066 143.507 142.313 143.233 142.473 142.9H145.233C145.046 143.527 144.733 144.093 144.293 144.6C143.853 145.107 143.313 145.507 142.673 145.8C142.033 146.093 141.32 146.24 140.533 146.24ZM147.724 146V131.6H150.424V146H147.724ZM156.456 146.24C155.616 146.24 154.923 146.107 154.376 145.84C153.83 145.56 153.423 145.193 153.156 144.74C152.903 144.273 152.776 143.76 152.776 143.2C152.776 142.587 152.93 142.047 153.236 141.58C153.556 141.113 154.03 140.747 154.656 140.48C155.296 140.213 156.096 140.08 157.056 140.08H159.556C159.556 139.587 159.49 139.18 159.356 138.86C159.223 138.527 159.016 138.28 158.736 138.12C158.456 137.96 158.083 137.88 157.616 137.88C157.11 137.88 156.676 137.993 156.316 138.22C155.97 138.433 155.756 138.767 155.676 139.22H153.056C153.123 138.5 153.356 137.88 153.756 137.36C154.17 136.827 154.71 136.413 155.376 136.12C156.056 135.827 156.81 135.68 157.636 135.68C158.583 135.68 159.403 135.84 160.096 136.16C160.79 136.48 161.323 136.94 161.696 137.54C162.07 138.14 162.256 138.88 162.256 139.76V146H159.976L159.676 144.46C159.53 144.727 159.356 144.967 159.156 145.18C158.956 145.393 158.723 145.58 158.456 145.74C158.19 145.9 157.89 146.02 157.556 146.1C157.223 146.193 156.856 146.24 156.456 146.24ZM157.096 144.16C157.443 144.16 157.75 144.1 158.016 143.98C158.296 143.847 158.536 143.673 158.736 143.46C158.936 143.233 159.09 142.98 159.196 142.7C159.316 142.407 159.396 142.093 159.436 141.76V141.74H157.376C156.963 141.74 156.623 141.793 156.356 141.9C156.103 141.993 155.916 142.133 155.796 142.32C155.676 142.507 155.616 142.72 155.616 142.96C155.616 143.227 155.676 143.447 155.796 143.62C155.916 143.793 156.09 143.927 156.316 144.02C156.543 144.113 156.803 144.16 157.096 144.16Z" fill="#6A5ACD"/>
<defs>
<filter id="filter0_f_329_514" x="163.755" y="10.1165" width="78.6514" height="177.139" filterUnits="userSpaceOnUse" color-interpolation-filters="sRGB">
<feFlood flood-opacity="0" result="BackgroundImageFix"/>
<feBlend mode="normal" in="SourceGraphic" in2="BackgroundImageFix" result="shape"/>
<feGaussianBlur stdDeviation="15" result="effect1_foregroundBlur_329_514"/>
</filter>
<filter id="filter1_f_329_514" x="0.760254" y="20.605" width="219.681" height="218.744" filterUnits="userSpaceOnUse" color-interpolation-filters="sRGB">
<feFlood flood-opacity="0" result="BackgroundImageFix"/>
<feBlend mode="normal" in="SourceGraphic" in2="BackgroundImageFix" result="shape"/>
<feGaussianBlur stdDeviation="25" result="effect1_foregroundBlur_329_514"/>
</filter>
<linearGradient id="paint0_linear_329_514" x1="188.694" y1="207" x2="21.2126" y2="-75.993" gradientUnits="userSpaceOnUse">
<stop stop-color="#A1A4F3"/>
<stop offset="0.992945" stop-color="white" stop-opacity="0.86"/>
</linearGradient>
</defs>
</svg>
