<svg width="353" height="320" viewBox="0 0 353 320" fill="none" xmlns="http://www.w3.org/2000/svg">
<g filter="url(#filter0_f_329_480)">
<ellipse cx="203.081" cy="98.6862" rx="9.32577" ry="58.5698" fill="#050259" fill-opacity="0.5" style="mix-blend-mode:overlay"/>
</g>
<ellipse cx="129.252" cy="103.5" rx="100.252" ry="103.5" fill="url(#paint0_linear_329_480)"/>
<g filter="url(#filter1_f_329_480)">
<ellipse cx="110.6" cy="129.977" rx="59.8404" ry="59.3721" fill="#A1A4F3" fill-opacity="0.2"/>
</g>
<path d="M89.796 86V72H92.496V83.9H98.636V86H89.796ZM104.288 86.24C103.448 86.24 102.755 86.1067 102.208 85.84C101.662 85.56 101.255 85.1933 100.988 84.74C100.735 84.2733 100.608 83.76 100.608 83.2C100.608 82.5867 100.762 82.0467 101.068 81.58C101.388 81.1133 101.862 80.7467 102.488 80.48C103.128 80.2133 103.928 80.08 104.888 80.08H107.388C107.388 79.5867 107.322 79.18 107.188 78.86C107.055 78.5267 106.848 78.28 106.568 78.12C106.288 77.96 105.915 77.88 105.448 77.88C104.942 77.88 104.508 77.9933 104.148 78.22C103.802 78.4333 103.588 78.7667 103.508 79.22H100.888C100.955 78.5 101.188 77.88 101.588 77.36C102.002 76.8267 102.542 76.4133 103.208 76.12C103.888 75.8267 104.642 75.68 105.468 75.68C106.415 75.68 107.235 75.84 107.928 76.16C108.622 76.48 109.155 76.94 109.528 77.54C109.902 78.14 110.088 78.88 110.088 79.76V86H107.808L107.508 84.46C107.362 84.7267 107.188 84.9667 106.988 85.18C106.788 85.3933 106.555 85.58 106.288 85.74C106.022 85.9 105.722 86.02 105.388 86.1C105.055 86.1933 104.688 86.24 104.288 86.24ZM104.928 84.16C105.275 84.16 105.582 84.1 105.848 83.98C106.128 83.8467 106.368 83.6733 106.568 83.46C106.768 83.2333 106.922 82.98 107.028 82.7C107.148 82.4067 107.228 82.0933 107.268 81.76V81.74H105.208C104.795 81.74 104.455 81.7933 104.188 81.9C103.935 81.9933 103.748 82.1333 103.628 82.32C103.508 82.5067 103.448 82.72 103.448 82.96C103.448 83.2267 103.508 83.4467 103.628 83.62C103.748 83.7933 103.922 83.9267 104.148 84.02C104.375 84.1133 104.635 84.16 104.928 84.16ZM115.014 86L111.314 75.92H114.154L116.654 83.46L119.154 75.92H121.974L118.294 86H115.014ZM126.417 86.24C125.577 86.24 124.884 86.1067 124.337 85.84C123.791 85.56 123.384 85.1933 123.117 84.74C122.864 84.2733 122.737 83.76 122.737 83.2C122.737 82.5867 122.891 82.0467 123.197 81.58C123.517 81.1133 123.991 80.7467 124.617 80.48C125.257 80.2133 126.057 80.08 127.017 80.08H129.517C129.517 79.5867 129.451 79.18 129.317 78.86C129.184 78.5267 128.977 78.28 128.697 78.12C128.417 77.96 128.044 77.88 127.577 77.88C127.071 77.88 126.637 77.9933 126.277 78.22C125.931 78.4333 125.717 78.7667 125.637 79.22H123.017C123.084 78.5 123.317 77.88 123.717 77.36C124.131 76.8267 124.671 76.4133 125.337 76.12C126.017 75.8267 126.771 75.68 127.597 75.68C128.544 75.68 129.364 75.84 130.057 76.16C130.751 76.48 131.284 76.94 131.657 77.54C132.031 78.14 132.217 78.88 132.217 79.76V86H129.937L129.637 84.46C129.491 84.7267 129.317 84.9667 129.117 85.18C128.917 85.3933 128.684 85.58 128.417 85.74C128.151 85.9 127.851 86.02 127.517 86.1C127.184 86.1933 126.817 86.24 126.417 86.24ZM127.057 84.16C127.404 84.16 127.711 84.1 127.977 83.98C128.257 83.8467 128.497 83.6733 128.697 83.46C128.897 83.2333 129.051 82.98 129.157 82.7C129.277 82.4067 129.357 82.0933 129.397 81.76V81.74H127.337C126.924 81.74 126.584 81.7933 126.317 81.9C126.064 81.9933 125.877 82.1333 125.757 82.32C125.637 82.5067 125.577 82.72 125.577 82.96C125.577 83.2267 125.637 83.4467 125.757 83.62C125.877 83.7933 126.051 83.9267 126.277 84.02C126.504 84.1133 126.764 84.16 127.057 84.16ZM134.736 86V75.92H137.116L137.316 77.56C137.623 77 138.056 76.5467 138.616 76.2C139.189 75.8533 139.869 75.68 140.656 75.68C141.496 75.68 142.203 75.8533 142.776 76.2C143.349 76.5467 143.783 77.0533 144.076 77.72C144.383 78.3867 144.536 79.2067 144.536 80.18V86H141.856V80.44C141.856 79.64 141.683 79.0267 141.336 78.6C141.003 78.1733 140.483 77.96 139.776 77.96C139.323 77.96 138.916 78.0667 138.556 78.28C138.209 78.4933 137.936 78.8 137.736 79.2C137.536 79.5867 137.436 80.06 137.436 80.62V86H134.736ZM151.56 86.24C150.64 86.24 149.813 86.0133 149.08 85.56C148.36 85.1067 147.793 84.48 147.38 83.68C146.966 82.88 146.76 81.98 146.76 80.98C146.76 79.9533 146.966 79.0467 147.38 78.26C147.806 77.46 148.386 76.8333 149.12 76.38C149.866 75.9133 150.7 75.68 151.62 75.68C152.34 75.68 152.973 75.8133 153.52 76.08C154.066 76.3467 154.506 76.7267 154.84 77.22V71.6H157.54V86H155.14L154.84 84.62C154.64 84.9 154.386 85.1667 154.08 85.42C153.786 85.6733 153.433 85.8733 153.02 86.02C152.606 86.1667 152.12 86.24 151.56 86.24ZM152.2 83.88C152.733 83.88 153.2 83.76 153.6 83.52C154.013 83.2667 154.333 82.92 154.56 82.48C154.786 82.04 154.9 81.5333 154.9 80.96C154.9 80.3867 154.786 79.88 154.56 79.44C154.333 79 154.013 78.66 153.6 78.42C153.2 78.1667 152.733 78.04 152.2 78.04C151.693 78.04 151.233 78.1667 150.82 78.42C150.406 78.66 150.08 79 149.84 79.44C149.613 79.88 149.5 80.38 149.5 80.94C149.5 81.5267 149.613 82.04 149.84 82.48C150.08 82.92 150.4 83.2667 150.8 83.52C151.213 83.76 151.68 83.88 152.2 83.88ZM163.585 86.24C162.745 86.24 162.052 86.1067 161.505 85.84C160.959 85.56 160.552 85.1933 160.285 84.74C160.032 84.2733 159.905 83.76 159.905 83.2C159.905 82.5867 160.059 82.0467 160.365 81.58C160.685 81.1133 161.159 80.7467 161.785 80.48C162.425 80.2133 163.225 80.08 164.185 80.08H166.685C166.685 79.5867 166.619 79.18 166.485 78.86C166.352 78.5267 166.145 78.28 165.865 78.12C165.585 77.96 165.212 77.88 164.745 77.88C164.239 77.88 163.805 77.9933 163.445 78.22C163.099 78.4333 162.885 78.7667 162.805 79.22H160.185C160.252 78.5 160.485 77.88 160.885 77.36C161.299 76.8267 161.839 76.4133 162.505 76.12C163.185 75.8267 163.939 75.68 164.765 75.68C165.712 75.68 166.532 75.84 167.225 76.16C167.919 76.48 168.452 76.94 168.825 77.54C169.199 78.14 169.385 78.88 169.385 79.76V86H167.105L166.805 84.46C166.659 84.7267 166.485 84.9667 166.285 85.18C166.085 85.3933 165.852 85.58 165.585 85.74C165.319 85.9 165.019 86.02 164.685 86.1C164.352 86.1933 163.985 86.24 163.585 86.24ZM164.225 84.16C164.572 84.16 164.879 84.1 165.145 83.98C165.425 83.8467 165.665 83.6733 165.865 83.46C166.065 83.2333 166.219 82.98 166.325 82.7C166.445 82.4067 166.525 82.0933 166.565 81.76V81.74H164.505C164.092 81.74 163.752 81.7933 163.485 81.9C163.232 81.9933 163.045 82.1333 162.925 82.32C162.805 82.5067 162.745 82.72 162.745 82.96C162.745 83.2267 162.805 83.4467 162.925 83.62C163.045 83.7933 163.219 83.9267 163.445 84.02C163.672 84.1133 163.932 84.16 164.225 84.16ZM76.3585 110V96H79.5785L83.8585 104.74L88.0985 96H91.3185V110H88.6185V100.6L84.9185 108.04H82.7785L79.0585 100.6V110H76.3585ZM97.4134 110.24C96.5734 110.24 95.88 110.107 95.3334 109.84C94.7867 109.56 94.38 109.193 94.1134 108.74C93.86 108.273 93.7334 107.76 93.7334 107.2C93.7334 106.587 93.8867 106.047 94.1934 105.58C94.5134 105.113 94.9867 104.747 95.6134 104.48C96.2534 104.213 97.0534 104.08 98.0134 104.08H100.513C100.513 103.587 100.447 103.18 100.313 102.86C100.18 102.527 99.9734 102.28 99.6934 102.12C99.4134 101.96 99.04 101.88 98.5734 101.88C98.0667 101.88 97.6334 101.993 97.2734 102.22C96.9267 102.433 96.7134 102.767 96.6334 103.22H94.0134C94.08 102.5 94.3134 101.88 94.7134 101.36C95.1267 100.827 95.6667 100.413 96.3334 100.12C97.0134 99.8267 97.7667 99.68 98.5934 99.68C99.54 99.68 100.36 99.84 101.053 100.16C101.747 100.48 102.28 100.94 102.653 101.54C103.027 102.14 103.213 102.88 103.213 103.76V110H100.933L100.633 108.46C100.487 108.727 100.313 108.967 100.113 109.18C99.9134 109.393 99.68 109.58 99.4134 109.74C99.1467 109.9 98.8467 110.02 98.5134 110.1C98.18 110.193 97.8134 110.24 97.4134 110.24ZM98.0534 108.16C98.4 108.16 98.7067 108.1 98.9734 107.98C99.2534 107.847 99.4934 107.673 99.6934 107.46C99.8934 107.233 100.047 106.98 100.153 106.7C100.273 106.407 100.353 106.093 100.393 105.76V105.74H98.3334C97.92 105.74 97.58 105.793 97.3134 105.9C97.06 105.993 96.8734 106.133 96.7534 106.32C96.6334 106.507 96.5734 106.72 96.5734 106.96C96.5734 107.227 96.6334 107.447 96.7534 107.62C96.8734 107.793 97.0467 107.927 97.2734 108.02C97.5 108.113 97.76 108.16 98.0534 108.16ZM105.732 110V99.92H108.112L108.312 101.56C108.619 101 109.052 100.547 109.612 100.2C110.185 99.8533 110.865 99.68 111.652 99.68C112.492 99.68 113.199 99.8533 113.772 100.2C114.345 100.547 114.779 101.053 115.072 101.72C115.379 102.387 115.532 103.207 115.532 104.18V110H112.852V104.44C112.852 103.64 112.679 103.027 112.332 102.6C111.999 102.173 111.479 101.96 110.772 101.96C110.319 101.96 109.912 102.067 109.552 102.28C109.205 102.493 108.932 102.8 108.732 103.2C108.532 103.587 108.432 104.06 108.432 104.62V110H105.732ZM116.176 114.4V112.1H116.996C117.423 112.1 117.723 112.013 117.896 111.84C118.083 111.667 118.176 111.387 118.176 111V99.92H120.876V110.98C120.876 111.807 120.729 112.467 120.436 112.96C120.156 113.467 119.756 113.833 119.236 114.06C118.716 114.287 118.103 114.4 117.396 114.4H116.176ZM119.536 98.54C119.043 98.54 118.643 98.4 118.336 98.12C118.029 97.8267 117.876 97.46 117.876 97.02C117.876 96.58 118.029 96.22 118.336 95.94C118.643 95.6467 119.043 95.5 119.536 95.5C120.029 95.5 120.429 95.6467 120.736 95.94C121.043 96.22 121.196 96.58 121.196 97.02C121.196 97.46 121.043 97.8267 120.736 98.12C120.429 98.4 120.029 98.54 119.536 98.54ZM128.404 110.24C127.391 110.24 126.491 110.027 125.704 109.6C124.931 109.16 124.324 108.553 123.884 107.78C123.457 106.993 123.244 106.087 123.244 105.06C123.244 104.007 123.457 103.08 123.884 102.28C124.324 101.467 124.931 100.833 125.704 100.38C126.477 99.9133 127.377 99.68 128.404 99.68C129.404 99.68 130.277 99.9 131.024 100.34C131.771 100.78 132.351 101.373 132.764 102.12C133.177 102.867 133.384 103.713 133.384 104.66C133.384 104.793 133.384 104.947 133.384 105.12C133.384 105.28 133.371 105.447 133.344 105.62H125.164V103.98H130.664C130.624 103.327 130.391 102.813 129.964 102.44C129.551 102.067 129.031 101.88 128.404 101.88C127.951 101.88 127.531 101.987 127.144 102.2C126.757 102.4 126.451 102.713 126.224 103.14C126.011 103.567 125.904 104.107 125.904 104.76V105.34C125.904 105.887 126.004 106.367 126.204 106.78C126.417 107.18 126.711 107.493 127.084 107.72C127.457 107.933 127.891 108.04 128.384 108.04C128.877 108.04 129.284 107.933 129.604 107.72C129.937 107.507 130.184 107.233 130.344 106.9H133.104C132.917 107.527 132.604 108.093 132.164 108.6C131.724 109.107 131.184 109.507 130.544 109.8C129.904 110.093 129.191 110.24 128.404 110.24ZM135.595 110V99.92H137.995L138.255 101.78C138.495 101.34 138.795 100.967 139.155 100.66C139.529 100.353 139.949 100.113 140.415 99.94C140.895 99.7667 141.422 99.68 141.995 99.68V102.54H141.075C140.675 102.54 140.302 102.587 139.955 102.68C139.622 102.773 139.329 102.927 139.075 103.14C138.822 103.34 138.629 103.62 138.495 103.98C138.362 104.34 138.295 104.793 138.295 105.34V110H135.595ZM143.839 110V99.92H146.539V110H143.839ZM145.199 98.54C144.719 98.54 144.319 98.4 143.999 98.12C143.692 97.8267 143.539 97.46 143.539 97.02C143.539 96.58 143.692 96.22 143.999 95.94C144.319 95.6467 144.719 95.5 145.199 95.5C145.692 95.5 146.092 95.6467 146.399 95.94C146.719 96.22 146.879 96.58 146.879 97.02C146.879 97.46 146.719 97.8267 146.399 98.12C146.092 98.4 145.692 98.54 145.199 98.54ZM154.147 110.24C153.134 110.24 152.234 110.013 151.447 109.56C150.661 109.107 150.047 108.487 149.607 107.7C149.167 106.913 148.947 106.013 148.947 105C148.947 103.96 149.167 103.047 149.607 102.26C150.047 101.46 150.661 100.833 151.447 100.38C152.234 99.9133 153.134 99.68 154.147 99.68C155.441 99.68 156.527 100.02 157.407 100.7C158.287 101.38 158.847 102.313 159.087 103.5H156.227C156.107 103.033 155.854 102.667 155.467 102.4C155.094 102.133 154.647 102 154.127 102C153.661 102 153.241 102.12 152.867 102.36C152.507 102.587 152.221 102.927 152.007 103.38C151.807 103.82 151.707 104.347 151.707 104.96C151.707 105.427 151.767 105.847 151.887 106.22C152.007 106.58 152.174 106.893 152.387 107.16C152.601 107.413 152.854 107.607 153.147 107.74C153.454 107.873 153.781 107.94 154.127 107.94C154.474 107.94 154.787 107.88 155.067 107.76C155.361 107.64 155.607 107.473 155.807 107.26C156.007 107.033 156.147 106.76 156.227 106.44H159.087C158.847 107.6 158.281 108.527 157.387 109.22C156.507 109.9 155.427 110.24 154.147 110.24ZM164.816 110.24C163.976 110.24 163.282 110.107 162.736 109.84C162.189 109.56 161.782 109.193 161.516 108.74C161.262 108.273 161.136 107.76 161.136 107.2C161.136 106.587 161.289 106.047 161.596 105.58C161.916 105.113 162.389 104.747 163.016 104.48C163.656 104.213 164.456 104.08 165.416 104.08H167.916C167.916 103.587 167.849 103.18 167.716 102.86C167.582 102.527 167.376 102.28 167.096 102.12C166.816 101.96 166.442 101.88 165.976 101.88C165.469 101.88 165.036 101.993 164.676 102.22C164.329 102.433 164.116 102.767 164.036 103.22H161.416C161.482 102.5 161.716 101.88 162.116 101.36C162.529 100.827 163.069 100.413 163.736 100.12C164.416 99.8267 165.169 99.68 165.996 99.68C166.942 99.68 167.762 99.84 168.456 100.16C169.149 100.48 169.682 100.94 170.056 101.54C170.429 102.14 170.616 102.88 170.616 103.76V110H168.336L168.036 108.46C167.889 108.727 167.716 108.967 167.516 109.18C167.316 109.393 167.082 109.58 166.816 109.74C166.549 109.9 166.249 110.02 165.916 110.1C165.582 110.193 165.216 110.24 164.816 110.24ZM165.456 108.16C165.802 108.16 166.109 108.1 166.376 107.98C166.656 107.847 166.896 107.673 167.096 107.46C167.296 107.233 167.449 106.98 167.556 106.7C167.676 106.407 167.756 106.093 167.796 105.76V105.74H165.736C165.322 105.74 164.982 105.793 164.716 105.9C164.462 105.993 164.276 106.133 164.156 106.32C164.036 106.507 163.976 106.72 163.976 106.96C163.976 107.227 164.036 107.447 164.156 107.62C164.276 107.793 164.449 107.927 164.676 108.02C164.902 108.113 165.162 108.16 165.456 108.16ZM167.056 98.6C166.669 98.6 166.336 98.5267 166.056 98.38C165.789 98.2333 165.542 98.0867 165.316 97.94C165.089 97.78 164.836 97.7 164.556 97.7C164.342 97.7 164.156 97.7733 163.996 97.92C163.849 98.0667 163.749 98.2933 163.696 98.6H162.276C162.422 97.7067 162.702 97.0533 163.116 96.64C163.542 96.2267 164.062 96.02 164.676 96.02C165.062 96.02 165.389 96.1 165.656 96.26C165.922 96.4067 166.169 96.56 166.396 96.72C166.636 96.8667 166.896 96.94 167.176 96.94C167.402 96.94 167.589 96.8667 167.736 96.72C167.896 96.5733 167.996 96.3467 168.036 96.04H169.456C169.322 96.9333 169.042 97.5867 168.616 98C168.202 98.4 167.682 98.6 167.056 98.6ZM177.894 110.24C176.934 110.24 176.068 110.02 175.294 109.58C174.534 109.127 173.928 108.507 173.474 107.72C173.034 106.92 172.814 106.007 172.814 104.98C172.814 103.927 173.034 103.007 173.474 102.22C173.928 101.42 174.541 100.8 175.314 100.36C176.088 99.9067 176.954 99.68 177.914 99.68C178.888 99.68 179.754 99.9067 180.514 100.36C181.288 100.8 181.894 101.42 182.334 102.22C182.788 103.007 183.014 103.92 183.014 104.96C183.014 106 182.788 106.92 182.334 107.72C181.894 108.507 181.288 109.127 180.514 109.58C179.741 110.02 178.868 110.24 177.894 110.24ZM177.894 107.9C178.348 107.9 178.748 107.793 179.094 107.58C179.454 107.367 179.734 107.04 179.934 106.6C180.148 106.16 180.254 105.613 180.254 104.96C180.254 104.307 180.148 103.767 179.934 103.34C179.734 102.9 179.454 102.573 179.094 102.36C178.748 102.133 178.354 102.02 177.914 102.02C177.488 102.02 177.094 102.133 176.734 102.36C176.374 102.573 176.088 102.9 175.874 103.34C175.674 103.767 175.574 104.307 175.574 104.96C175.574 105.613 175.674 106.16 175.874 106.6C176.088 107.04 176.368 107.367 176.714 107.58C177.074 107.793 177.468 107.9 177.894 107.9ZM91.8443 134L96.9643 120H100.024L105.124 134H102.264L98.4843 123.08L94.6843 134H91.8443ZM94.1043 130.82L94.8243 128.72H101.944L102.644 130.82H94.1043ZM106.904 134V119.6H109.604V134H106.904ZM117.076 134.24C116.063 134.24 115.163 134.027 114.376 133.6C113.603 133.16 112.996 132.553 112.556 131.78C112.129 130.993 111.916 130.087 111.916 129.06C111.916 128.007 112.129 127.08 112.556 126.28C112.996 125.467 113.603 124.833 114.376 124.38C115.149 123.913 116.049 123.68 117.076 123.68C118.076 123.68 118.949 123.9 119.696 124.34C120.443 124.78 121.023 125.373 121.436 126.12C121.849 126.867 122.056 127.713 122.056 128.66C122.056 128.793 122.056 128.947 122.056 129.12C122.056 129.28 122.043 129.447 122.016 129.62H113.836V127.98H119.336C119.296 127.327 119.063 126.813 118.636 126.44C118.223 126.067 117.703 125.88 117.076 125.88C116.623 125.88 116.203 125.987 115.816 126.2C115.429 126.4 115.123 126.713 114.896 127.14C114.683 127.567 114.576 128.107 114.576 128.76V129.34C114.576 129.887 114.676 130.367 114.876 130.78C115.089 131.18 115.383 131.493 115.756 131.72C116.129 131.933 116.563 132.04 117.056 132.04C117.549 132.04 117.956 131.933 118.276 131.72C118.609 131.507 118.856 131.233 119.016 130.9H121.776C121.589 131.527 121.276 132.093 120.836 132.6C120.396 133.107 119.856 133.507 119.216 133.8C118.576 134.093 117.863 134.24 117.076 134.24ZM129.147 134.24C128.134 134.24 127.234 134.013 126.447 133.56C125.661 133.107 125.047 132.487 124.607 131.7C124.167 130.913 123.947 130.013 123.947 129C123.947 127.96 124.167 127.047 124.607 126.26C125.047 125.46 125.661 124.833 126.447 124.38C127.234 123.913 128.134 123.68 129.147 123.68C130.441 123.68 131.527 124.02 132.407 124.7C133.287 125.38 133.847 126.313 134.087 127.5H131.227C131.107 127.033 130.854 126.667 130.467 126.4C130.094 126.133 129.647 126 129.127 126C128.661 126 128.241 126.12 127.867 126.36C127.507 126.587 127.221 126.927 127.007 127.38C126.807 127.82 126.707 128.347 126.707 128.96C126.707 129.427 126.767 129.847 126.887 130.22C127.007 130.58 127.174 130.893 127.387 131.16C127.601 131.413 127.854 131.607 128.147 131.74C128.454 131.873 128.781 131.94 129.127 131.94C129.474 131.94 129.787 131.88 130.067 131.76C130.361 131.64 130.607 131.473 130.807 131.26C131.007 131.033 131.147 130.76 131.227 130.44H134.087C133.847 131.6 133.281 132.527 132.387 133.22C131.507 133.9 130.427 134.24 129.147 134.24ZM136.416 134V123.92H138.816L139.076 125.78C139.316 125.34 139.616 124.967 139.976 124.66C140.349 124.353 140.769 124.113 141.236 123.94C141.716 123.767 142.242 123.68 142.816 123.68V126.54H141.896C141.496 126.54 141.122 126.587 140.776 126.68C140.442 126.773 140.149 126.927 139.896 127.14C139.642 127.34 139.449 127.62 139.316 127.98C139.182 128.34 139.116 128.793 139.116 129.34V134H136.416ZM144.659 134V123.92H147.359V134H144.659ZM146.019 122.54C145.539 122.54 145.139 122.4 144.819 122.12C144.513 121.827 144.359 121.46 144.359 121.02C144.359 120.58 144.513 120.22 144.819 119.94C145.139 119.647 145.539 119.5 146.019 119.5C146.513 119.5 146.913 119.647 147.219 119.94C147.539 120.22 147.699 120.58 147.699 121.02C147.699 121.46 147.539 121.827 147.219 122.12C146.913 122.4 146.513 122.54 146.019 122.54ZM150.088 134V123.92H152.468L152.688 125.26C153.008 124.78 153.428 124.4 153.948 124.12C154.481 123.827 155.088 123.68 155.768 123.68C156.274 123.68 156.728 123.747 157.128 123.88C157.528 124.013 157.881 124.207 158.188 124.46C158.508 124.713 158.768 125.033 158.968 125.42C159.341 124.873 159.828 124.447 160.428 124.14C161.028 123.833 161.681 123.68 162.388 123.68C163.268 123.68 164.001 123.86 164.588 124.22C165.174 124.567 165.614 125.073 165.908 125.74C166.214 126.407 166.368 127.227 166.368 128.2V134H163.688V128.44C163.688 127.64 163.528 127.027 163.208 126.6C162.901 126.173 162.421 125.96 161.768 125.96C161.341 125.96 160.961 126.067 160.628 126.28C160.294 126.493 160.034 126.8 159.848 127.2C159.674 127.6 159.588 128.08 159.588 128.64V134H156.888V128.44C156.888 127.64 156.728 127.027 156.408 126.6C156.088 126.173 155.594 125.96 154.928 125.96C154.514 125.96 154.141 126.067 153.808 126.28C153.488 126.493 153.234 126.8 153.048 127.2C152.874 127.6 152.788 128.08 152.788 128.64V134H150.088Z" fill="#6A5ACD"/>
<g filter="url(#filter2_f_329_480)">
<ellipse cx="255" cy="178.601" rx="41.0435" ry="14.3638" fill="#A1A4F3" fill-opacity="0.5" style="mix-blend-mode:overlay"/>
</g>
<ellipse cx="255" cy="229.592" rx="80" ry="82.5918" fill="url(#paint1_linear_329_480)"/>
<g filter="url(#filter3_f_329_480)">
<ellipse cx="250.13" cy="234.619" rx="52.8696" ry="34.4731" fill="#A1A4F3" fill-opacity="0.15" style="mix-blend-mode:overlay"/>
</g>
<path d="M233.092 212.24C231.692 212.24 230.485 211.94 229.472 211.34C228.472 210.727 227.698 209.88 227.152 208.8C226.618 207.707 226.352 206.447 226.352 205.02C226.352 203.593 226.618 202.333 227.152 201.24C227.698 200.147 228.472 199.293 229.472 198.68C230.485 198.067 231.692 197.76 233.092 197.76C234.785 197.76 236.172 198.18 237.252 199.02C238.332 199.86 239.005 201.047 239.272 202.58H236.332C236.158 201.833 235.792 201.253 235.232 200.84C234.685 200.413 233.965 200.2 233.072 200.2C232.245 200.2 231.532 200.4 230.932 200.8C230.345 201.187 229.892 201.74 229.572 202.46C229.252 203.167 229.092 204.02 229.092 205.02C229.092 206.007 229.252 206.86 229.572 207.58C229.892 208.3 230.345 208.853 230.932 209.24C231.532 209.627 232.245 209.82 233.072 209.82C233.965 209.82 234.685 209.627 235.232 209.24C235.778 208.84 236.138 208.287 236.312 207.58H239.272C239.005 209.033 238.332 210.173 237.252 211C236.172 211.827 234.785 212.24 233.092 212.24ZM246.357 212.24C245.344 212.24 244.444 212.027 243.657 211.6C242.884 211.16 242.277 210.553 241.837 209.78C241.411 208.993 241.197 208.087 241.197 207.06C241.197 206.007 241.411 205.08 241.837 204.28C242.277 203.467 242.884 202.833 243.657 202.38C244.431 201.913 245.331 201.68 246.357 201.68C247.357 201.68 248.231 201.9 248.977 202.34C249.724 202.78 250.304 203.373 250.717 204.12C251.131 204.867 251.337 205.713 251.337 206.66C251.337 206.793 251.337 206.947 251.337 207.12C251.337 207.28 251.324 207.447 251.297 207.62H243.117V205.98H248.617C248.577 205.327 248.344 204.813 247.917 204.44C247.504 204.067 246.984 203.88 246.357 203.88C245.904 203.88 245.484 203.987 245.097 204.2C244.711 204.4 244.404 204.713 244.177 205.14C243.964 205.567 243.857 206.107 243.857 206.76V207.34C243.857 207.887 243.957 208.367 244.157 208.78C244.371 209.18 244.664 209.493 245.037 209.72C245.411 209.933 245.844 210.04 246.337 210.04C246.831 210.04 247.237 209.933 247.557 209.72C247.891 209.507 248.137 209.233 248.297 208.9H251.057C250.871 209.527 250.557 210.093 250.117 210.6C249.677 211.107 249.137 211.507 248.497 211.8C247.857 212.093 247.144 212.24 246.357 212.24ZM258.029 212.24C257.109 212.24 256.282 212.013 255.549 211.56C254.829 211.107 254.262 210.48 253.849 209.68C253.435 208.88 253.229 207.98 253.229 206.98C253.229 205.953 253.435 205.047 253.849 204.26C254.275 203.46 254.855 202.833 255.589 202.38C256.335 201.913 257.169 201.68 258.089 201.68C258.809 201.68 259.442 201.813 259.989 202.08C260.535 202.347 260.975 202.727 261.309 203.22V197.6H264.009V212H261.609L261.309 210.62C261.109 210.9 260.855 211.167 260.549 211.42C260.255 211.673 259.902 211.873 259.489 212.02C259.075 212.167 258.589 212.24 258.029 212.24ZM258.669 209.88C259.202 209.88 259.669 209.76 260.069 209.52C260.482 209.267 260.802 208.92 261.029 208.48C261.255 208.04 261.369 207.533 261.369 206.96C261.369 206.387 261.255 205.88 261.029 205.44C260.802 205 260.482 204.66 260.069 204.42C259.669 204.167 259.202 204.04 258.669 204.04C258.162 204.04 257.702 204.167 257.289 204.42C256.875 204.66 256.549 205 256.309 205.44C256.082 205.88 255.969 206.38 255.969 206.94C255.969 207.527 256.082 208.04 256.309 208.48C256.549 208.92 256.869 209.267 257.269 209.52C257.682 209.76 258.149 209.88 258.669 209.88ZM266.654 212V201.92H269.054L269.314 203.78C269.554 203.34 269.854 202.967 270.214 202.66C270.587 202.353 271.007 202.113 271.474 201.94C271.954 201.767 272.481 201.68 273.054 201.68V204.54H272.134C271.734 204.54 271.361 204.587 271.014 204.68C270.681 204.773 270.387 204.927 270.134 205.14C269.881 205.34 269.687 205.62 269.554 205.98C269.421 206.34 269.354 206.793 269.354 207.34V212H266.654ZM279.441 212.24C278.481 212.24 277.615 212.02 276.841 211.58C276.081 211.127 275.475 210.507 275.021 209.72C274.581 208.92 274.361 208.007 274.361 206.98C274.361 205.927 274.581 205.007 275.021 204.22C275.475 203.42 276.088 202.8 276.861 202.36C277.635 201.907 278.501 201.68 279.461 201.68C280.435 201.68 281.301 201.907 282.061 202.36C282.835 202.8 283.441 203.42 283.881 204.22C284.335 205.007 284.561 205.92 284.561 206.96C284.561 208 284.335 208.92 283.881 209.72C283.441 210.507 282.835 211.127 282.061 211.58C281.288 212.02 280.415 212.24 279.441 212.24ZM279.441 209.9C279.895 209.9 280.295 209.793 280.641 209.58C281.001 209.367 281.281 209.04 281.481 208.6C281.695 208.16 281.801 207.613 281.801 206.96C281.801 206.307 281.695 205.767 281.481 205.34C281.281 204.9 281.001 204.573 280.641 204.36C280.295 204.133 279.901 204.02 279.461 204.02C279.035 204.02 278.641 204.133 278.281 204.36C277.921 204.573 277.635 204.9 277.421 205.34C277.221 205.767 277.121 206.307 277.121 206.96C277.121 207.613 277.221 208.16 277.421 208.6C277.635 209.04 277.915 209.367 278.261 209.58C278.621 209.793 279.015 209.9 279.441 209.9ZM222.452 236.24C221.439 236.24 220.532 236.067 219.732 235.72C218.945 235.373 218.319 234.867 217.852 234.2C217.399 233.533 217.165 232.727 217.152 231.78H220.012C220.025 232.193 220.132 232.567 220.332 232.9C220.532 233.233 220.805 233.5 221.152 233.7C221.512 233.887 221.939 233.98 222.432 233.98C222.859 233.98 223.225 233.913 223.532 233.78C223.852 233.633 224.099 233.433 224.272 233.18C224.445 232.927 224.532 232.627 224.532 232.28C224.532 231.88 224.432 231.547 224.232 231.28C224.045 231.013 223.779 230.787 223.432 230.6C223.099 230.413 222.705 230.247 222.252 230.1C221.812 229.94 221.345 229.773 220.852 229.6C219.745 229.24 218.899 228.76 218.312 228.16C217.739 227.56 217.452 226.767 217.452 225.78C217.452 224.94 217.652 224.22 218.052 223.62C218.465 223.02 219.032 222.56 219.752 222.24C220.472 221.92 221.292 221.76 222.212 221.76C223.159 221.76 223.985 221.927 224.692 222.26C225.412 222.58 225.979 223.047 226.392 223.66C226.819 224.273 227.039 224.993 227.052 225.82H224.172C224.159 225.513 224.065 225.227 223.892 224.96C223.732 224.68 223.505 224.46 223.212 224.3C222.919 224.127 222.572 224.04 222.172 224.04C221.825 224.027 221.505 224.08 221.212 224.2C220.932 224.32 220.705 224.5 220.532 224.74C220.372 224.967 220.292 225.253 220.292 225.6C220.292 225.933 220.372 226.213 220.532 226.44C220.705 226.667 220.939 226.867 221.232 227.04C221.525 227.2 221.872 227.353 222.272 227.5C222.672 227.633 223.105 227.773 223.572 227.92C224.265 228.16 224.905 228.447 225.492 228.78C226.079 229.1 226.545 229.52 226.892 230.04C227.239 230.56 227.412 231.247 227.412 232.1C227.412 232.833 227.219 233.513 226.832 234.14C226.445 234.767 225.885 235.273 225.152 235.66C224.432 236.047 223.532 236.24 222.452 236.24ZM233.042 236.24C232.202 236.24 231.509 236.107 230.962 235.84C230.416 235.56 230.009 235.193 229.742 234.74C229.489 234.273 229.362 233.76 229.362 233.2C229.362 232.587 229.516 232.047 229.822 231.58C230.142 231.113 230.616 230.747 231.242 230.48C231.882 230.213 232.682 230.08 233.642 230.08H236.142C236.142 229.587 236.076 229.18 235.942 228.86C235.809 228.527 235.602 228.28 235.322 228.12C235.042 227.96 234.669 227.88 234.202 227.88C233.696 227.88 233.262 227.993 232.902 228.22C232.556 228.433 232.342 228.767 232.262 229.22H229.642C229.709 228.5 229.942 227.88 230.342 227.36C230.756 226.827 231.296 226.413 231.962 226.12C232.642 225.827 233.396 225.68 234.222 225.68C235.169 225.68 235.989 225.84 236.682 226.16C237.376 226.48 237.909 226.94 238.282 227.54C238.656 228.14 238.842 228.88 238.842 229.76V236H236.562L236.262 234.46C236.116 234.727 235.942 234.967 235.742 235.18C235.542 235.393 235.309 235.58 235.042 235.74C234.776 235.9 234.476 236.02 234.142 236.1C233.809 236.193 233.442 236.24 233.042 236.24ZM233.682 234.16C234.029 234.16 234.336 234.1 234.602 233.98C234.882 233.847 235.122 233.673 235.322 233.46C235.522 233.233 235.676 232.98 235.782 232.7C235.902 232.407 235.982 232.093 236.022 231.76V231.74H233.962C233.549 231.74 233.209 231.793 232.942 231.9C232.689 231.993 232.502 232.133 232.382 232.32C232.262 232.507 232.202 232.72 232.202 232.96C232.202 233.227 232.262 233.447 232.382 233.62C232.502 233.793 232.676 233.927 232.902 234.02C233.129 234.113 233.389 234.16 233.682 234.16ZM231.162 225V223.08L234.122 221.48L237.062 223.08V225L234.122 223.36L231.162 225ZM241.361 236V225.92H243.741L243.941 227.56C244.248 227 244.681 226.547 245.241 226.2C245.814 225.853 246.494 225.68 247.281 225.68C248.121 225.68 248.828 225.853 249.401 226.2C249.974 226.547 250.408 227.053 250.701 227.72C251.008 228.387 251.161 229.207 251.161 230.18V236H248.481V230.44C248.481 229.64 248.308 229.027 247.961 228.6C247.628 228.173 247.108 227.96 246.401 227.96C245.948 227.96 245.541 228.067 245.181 228.28C244.834 228.493 244.561 228.8 244.361 229.2C244.161 229.587 244.061 230.06 244.061 230.62V236H241.361ZM258.185 236.24C257.265 236.24 256.438 236.013 255.705 235.56C254.985 235.107 254.418 234.48 254.005 233.68C253.591 232.88 253.385 231.98 253.385 230.98C253.385 229.953 253.591 229.047 254.005 228.26C254.431 227.46 255.011 226.833 255.745 226.38C256.491 225.913 257.325 225.68 258.245 225.68C258.965 225.68 259.598 225.813 260.145 226.08C260.691 226.347 261.131 226.727 261.465 227.22V221.6H264.165V236H261.765L261.465 234.62C261.265 234.9 261.011 235.167 260.705 235.42C260.411 235.673 260.058 235.873 259.645 236.02C259.231 236.167 258.745 236.24 258.185 236.24ZM258.825 233.88C259.358 233.88 259.825 233.76 260.225 233.52C260.638 233.267 260.958 232.92 261.185 232.48C261.411 232.04 261.525 231.533 261.525 230.96C261.525 230.387 261.411 229.88 261.185 229.44C260.958 229 260.638 228.66 260.225 228.42C259.825 228.167 259.358 228.04 258.825 228.04C258.318 228.04 257.858 228.167 257.445 228.42C257.031 228.66 256.705 229 256.465 229.44C256.238 229.88 256.125 230.38 256.125 230.94C256.125 231.527 256.238 232.04 256.465 232.48C256.705 232.92 257.025 233.267 257.425 233.52C257.838 233.76 258.305 233.88 258.825 233.88ZM270.21 236.24C269.37 236.24 268.677 236.107 268.13 235.84C267.584 235.56 267.177 235.193 266.91 234.74C266.657 234.273 266.53 233.76 266.53 233.2C266.53 232.587 266.684 232.047 266.99 231.58C267.31 231.113 267.784 230.747 268.41 230.48C269.05 230.213 269.85 230.08 270.81 230.08H273.31C273.31 229.587 273.244 229.18 273.11 228.86C272.977 228.527 272.77 228.28 272.49 228.12C272.21 227.96 271.837 227.88 271.37 227.88C270.864 227.88 270.43 227.993 270.07 228.22C269.724 228.433 269.51 228.767 269.43 229.22H266.81C266.877 228.5 267.11 227.88 267.51 227.36C267.924 226.827 268.464 226.413 269.13 226.12C269.81 225.827 270.564 225.68 271.39 225.68C272.337 225.68 273.157 225.84 273.85 226.16C274.544 226.48 275.077 226.94 275.45 227.54C275.824 228.14 276.01 228.88 276.01 229.76V236H273.73L273.43 234.46C273.284 234.727 273.11 234.967 272.91 235.18C272.71 235.393 272.477 235.58 272.21 235.74C271.944 235.9 271.644 236.02 271.31 236.1C270.977 236.193 270.61 236.24 270.21 236.24ZM270.85 234.16C271.197 234.16 271.504 234.1 271.77 233.98C272.05 233.847 272.29 233.673 272.49 233.46C272.69 233.233 272.844 232.98 272.95 232.7C273.07 232.407 273.15 232.093 273.19 231.76V231.74H271.13C270.717 231.74 270.377 231.793 270.11 231.9C269.857 231.993 269.67 232.133 269.55 232.32C269.43 232.507 269.37 232.72 269.37 232.96C269.37 233.227 269.43 233.447 269.55 233.62C269.67 233.793 269.844 233.927 270.07 234.02C270.297 234.113 270.557 234.16 270.85 234.16ZM278.529 236V221.6H281.229V236H278.529ZM288.621 236.24C287.661 236.24 286.794 236.02 286.021 235.58C285.261 235.127 284.654 234.507 284.201 233.72C283.761 232.92 283.541 232.007 283.541 230.98C283.541 229.927 283.761 229.007 284.201 228.22C284.654 227.42 285.268 226.8 286.041 226.36C286.814 225.907 287.681 225.68 288.641 225.68C289.614 225.68 290.481 225.907 291.241 226.36C292.014 226.8 292.621 227.42 293.061 228.22C293.514 229.007 293.741 229.92 293.741 230.96C293.741 232 293.514 232.92 293.061 233.72C292.621 234.507 292.014 235.127 291.241 235.58C290.468 236.02 289.594 236.24 288.621 236.24ZM288.621 233.9C289.074 233.9 289.474 233.793 289.821 233.58C290.181 233.367 290.461 233.04 290.661 232.6C290.874 232.16 290.981 231.613 290.981 230.96C290.981 230.307 290.874 229.767 290.661 229.34C290.461 228.9 290.181 228.573 289.821 228.36C289.474 228.133 289.081 228.02 288.641 228.02C288.214 228.02 287.821 228.133 287.461 228.36C287.101 228.573 286.814 228.9 286.601 229.34C286.401 229.767 286.301 230.307 286.301 230.96C286.301 231.613 286.401 232.16 286.601 232.6C286.814 233.04 287.094 233.367 287.441 233.58C287.801 233.793 288.194 233.9 288.621 233.9ZM225.9 260L220.8 246H223.68L227.56 257.24L231.46 246H234.32L229.22 260H225.9ZM239.57 260.24C238.557 260.24 237.657 260.027 236.87 259.6C236.097 259.16 235.49 258.553 235.05 257.78C234.623 256.993 234.41 256.087 234.41 255.06C234.41 254.007 234.623 253.08 235.05 252.28C235.49 251.467 236.097 250.833 236.87 250.38C237.643 249.913 238.543 249.68 239.57 249.68C240.57 249.68 241.443 249.9 242.19 250.34C242.937 250.78 243.517 251.373 243.93 252.12C244.343 252.867 244.55 253.713 244.55 254.66C244.55 254.793 244.55 254.947 244.55 255.12C244.55 255.28 244.537 255.447 244.51 255.62H236.33V253.98H241.83C241.79 253.327 241.557 252.813 241.13 252.44C240.717 252.067 240.197 251.88 239.57 251.88C239.117 251.88 238.697 251.987 238.31 252.2C237.923 252.4 237.617 252.713 237.39 253.14C237.177 253.567 237.07 254.107 237.07 254.76V255.34C237.07 255.887 237.17 256.367 237.37 256.78C237.583 257.18 237.877 257.493 238.25 257.72C238.623 257.933 239.057 258.04 239.55 258.04C240.043 258.04 240.45 257.933 240.77 257.72C241.103 257.507 241.35 257.233 241.51 256.9H244.27C244.083 257.527 243.77 258.093 243.33 258.6C242.89 259.107 242.35 259.507 241.71 259.8C241.07 260.093 240.357 260.24 239.57 260.24ZM251.165 260C250.458 260 249.838 259.893 249.305 259.68C248.785 259.453 248.378 259.087 248.085 258.58C247.791 258.06 247.645 257.353 247.645 256.46V252.18H245.925V249.92H247.645L247.945 247.18H250.345V249.92H253.005V252.18H250.345V256.5C250.345 256.953 250.445 257.267 250.645 257.44C250.845 257.613 251.185 257.7 251.665 257.7H252.985V260H251.165ZM255.337 260V249.92H258.037V260H255.337ZM256.697 248.54C256.217 248.54 255.817 248.4 255.497 248.12C255.19 247.827 255.037 247.46 255.037 247.02C255.037 246.58 255.19 246.22 255.497 245.94C255.817 245.647 256.217 245.5 256.697 245.5C257.19 245.5 257.59 245.647 257.897 245.94C258.217 246.22 258.377 246.58 258.377 247.02C258.377 247.46 258.217 247.827 257.897 248.12C257.59 248.4 257.19 248.54 256.697 248.54ZM263.465 260L259.765 249.92H262.605L265.105 257.46L267.605 249.92H270.425L266.745 260H263.465ZM276.445 260.24C275.432 260.24 274.532 260.027 273.745 259.6C272.972 259.16 272.365 258.553 271.925 257.78C271.498 256.993 271.285 256.087 271.285 255.06C271.285 254.007 271.498 253.08 271.925 252.28C272.365 251.467 272.972 250.833 273.745 250.38C274.518 249.913 275.418 249.68 276.445 249.68C277.445 249.68 278.318 249.9 279.065 250.34C279.812 250.78 280.392 251.373 280.805 252.12C281.218 252.867 281.425 253.713 281.425 254.66C281.425 254.793 281.425 254.947 281.425 255.12C281.425 255.28 281.412 255.447 281.385 255.62H273.205V253.98H278.705C278.665 253.327 278.432 252.813 278.005 252.44C277.592 252.067 277.072 251.88 276.445 251.88C275.992 251.88 275.572 251.987 275.185 252.2C274.798 252.4 274.492 252.713 274.265 253.14C274.052 253.567 273.945 254.107 273.945 254.76V255.34C273.945 255.887 274.045 256.367 274.245 256.78C274.458 257.18 274.752 257.493 275.125 257.72C275.498 257.933 275.932 258.04 276.425 258.04C276.918 258.04 277.325 257.933 277.645 257.72C277.978 257.507 278.225 257.233 278.385 256.9H281.145C280.958 257.527 280.645 258.093 280.205 258.6C279.765 259.107 279.225 259.507 278.585 259.8C277.945 260.093 277.232 260.24 276.445 260.24ZM283.636 260V249.92H286.036L286.296 251.78C286.536 251.34 286.836 250.967 287.196 250.66C287.57 250.353 287.99 250.113 288.456 249.94C288.936 249.767 289.463 249.68 290.036 249.68V252.54H289.116C288.716 252.54 288.343 252.587 287.996 252.68C287.663 252.773 287.37 252.927 287.116 253.14C286.863 253.34 286.67 253.62 286.536 253.98C286.403 254.34 286.336 254.793 286.336 255.34V260H283.636Z" fill="#6A5ACD"/>
<ellipse cx="197" cy="174" rx="18" ry="19" fill="url(#paint2_linear_329_480)"/>
<path d="M190.08 180.24C189.12 180.24 188.253 180.02 187.48 179.58C186.72 179.127 186.113 178.507 185.66 177.72C185.22 176.92 185 176.007 185 174.98C185 173.927 185.22 173.007 185.66 172.22C186.113 171.42 186.727 170.8 187.5 170.36C188.273 169.907 189.14 169.68 190.1 169.68C191.073 169.68 191.94 169.907 192.7 170.36C193.473 170.8 194.08 171.42 194.52 172.22C194.973 173.007 195.2 173.92 195.2 174.96C195.2 176 194.973 176.92 194.52 177.72C194.08 178.507 193.473 179.127 192.7 179.58C191.927 180.02 191.053 180.24 190.08 180.24ZM190.08 177.9C190.533 177.9 190.933 177.793 191.28 177.58C191.64 177.367 191.92 177.04 192.12 176.6C192.333 176.16 192.44 175.613 192.44 174.96C192.44 174.307 192.333 173.767 192.12 173.34C191.92 172.9 191.64 172.573 191.28 172.36C190.933 172.133 190.54 172.02 190.1 172.02C189.673 172.02 189.28 172.133 188.92 172.36C188.56 172.573 188.273 172.9 188.06 173.34C187.86 173.767 187.76 174.307 187.76 174.96C187.76 175.613 187.86 176.16 188.06 176.6C188.273 177.04 188.553 177.367 188.9 177.58C189.26 177.793 189.653 177.9 190.08 177.9ZM201.287 180.24C200.474 180.24 199.774 180.073 199.187 179.74C198.614 179.393 198.174 178.893 197.867 178.24C197.56 177.573 197.407 176.753 197.407 175.78V169.92H200.107V175.5C200.107 176.313 200.274 176.927 200.607 177.34C200.954 177.753 201.48 177.96 202.187 177.96C202.64 177.96 203.04 177.86 203.387 177.66C203.734 177.447 204.007 177.147 204.207 176.76C204.42 176.36 204.527 175.873 204.527 175.3V169.92H207.207V180H204.847L204.627 178.36C204.334 178.933 203.9 179.393 203.327 179.74C202.754 180.073 202.074 180.24 201.287 180.24Z" fill="#6A5ACD"/>
<defs>
<filter id="filter0_f_329_480" x="163.755" y="10.1165" width="78.6516" height="177.139" filterUnits="userSpaceOnUse" color-interpolation-filters="sRGB">
<feFlood flood-opacity="0" result="BackgroundImageFix"/>
<feBlend mode="normal" in="SourceGraphic" in2="BackgroundImageFix" result="shape"/>
<feGaussianBlur stdDeviation="15" result="effect1_foregroundBlur_329_480"/>
</filter>
<filter id="filter1_f_329_480" x="0.76001" y="20.605" width="219.681" height="218.744" filterUnits="userSpaceOnUse" color-interpolation-filters="sRGB">
<feFlood flood-opacity="0" result="BackgroundImageFix"/>
<feBlend mode="normal" in="SourceGraphic" in2="BackgroundImageFix" result="shape"/>
<feGaussianBlur stdDeviation="25" result="effect1_foregroundBlur_329_480"/>
</filter>
<filter id="filter2_f_329_480" x="183.957" y="134.237" width="142.087" height="88.7275" filterUnits="userSpaceOnUse" color-interpolation-filters="sRGB">
<feFlood flood-opacity="0" result="BackgroundImageFix"/>
<feBlend mode="normal" in="SourceGraphic" in2="BackgroundImageFix" result="shape"/>
<feGaussianBlur stdDeviation="15" result="effect1_foregroundBlur_329_480"/>
</filter>
<filter id="filter3_f_329_480" x="147.261" y="150.146" width="205.739" height="168.946" filterUnits="userSpaceOnUse" color-interpolation-filters="sRGB">
<feFlood flood-opacity="0" result="BackgroundImageFix"/>
<feBlend mode="normal" in="SourceGraphic" in2="BackgroundImageFix" result="shape"/>
<feGaussianBlur stdDeviation="25" result="effect1_foregroundBlur_329_480"/>
</filter>
<linearGradient id="paint0_linear_329_480" x1="188.694" y1="207" x2="21.2126" y2="-75.993" gradientUnits="userSpaceOnUse">
<stop stop-color="#A1A4F3"/>
<stop offset="0.992945" stop-color="white" stop-opacity="0.86"/>
</linearGradient>
<linearGradient id="paint1_linear_329_480" x1="302.434" y1="312.184" x2="168.786" y2="86.3585" gradientUnits="userSpaceOnUse">
<stop stop-color="#BBBCF2"/>
<stop offset="0.992945" stop-color="white" stop-opacity="0.86"/>
</linearGradient>
<linearGradient id="paint2_linear_329_480" x1="207.673" y1="193" x2="176.603" y2="141.654" gradientUnits="userSpaceOnUse">
<stop stop-color="#BBBCF2"/>
<stop offset="0.992945" stop-color="white" stop-opacity="0.86"/>
</linearGradient>
</defs>
</svg>
