<svg width="243" height="240" viewBox="0 0 243 240" fill="none" xmlns="http://www.w3.org/2000/svg">
<g filter="url(#filter0_f_329_260)">
<ellipse cx="203.081" cy="98.6862" rx="9.32577" ry="58.5698" fill="#050259" fill-opacity="0.5" style="mix-blend-mode:overlay"/>
</g>
<ellipse cx="129.252" cy="103.5" rx="100.252" ry="103.5" fill="url(#paint0_linear_329_260)"/>
<g filter="url(#filter1_f_329_260)">
<ellipse cx="110.601" cy="129.977" rx="59.8404" ry="59.3721" fill="#A1A4F3" fill-opacity="0.2"/>
</g>
<path d="M89.796 74V60H92.496V71.9H98.636V74H89.796ZM104.288 74.24C103.448 74.24 102.755 74.1067 102.208 73.84C101.662 73.56 101.255 73.1933 100.988 72.74C100.735 72.2733 100.608 71.76 100.608 71.2C100.608 70.5867 100.762 70.0467 101.068 69.58C101.388 69.1133 101.862 68.7467 102.488 68.48C103.128 68.2133 103.928 68.08 104.888 68.08H107.388C107.388 67.5867 107.322 67.18 107.188 66.86C107.055 66.5267 106.848 66.28 106.568 66.12C106.288 65.96 105.915 65.88 105.448 65.88C104.942 65.88 104.508 65.9933 104.148 66.22C103.802 66.4333 103.588 66.7667 103.508 67.22H100.888C100.955 66.5 101.188 65.88 101.588 65.36C102.002 64.8267 102.542 64.4133 103.208 64.12C103.888 63.8267 104.642 63.68 105.468 63.68C106.415 63.68 107.235 63.84 107.928 64.16C108.622 64.48 109.155 64.94 109.528 65.54C109.902 66.14 110.088 66.88 110.088 67.76V74H107.808L107.508 72.46C107.362 72.7267 107.188 72.9667 106.988 73.18C106.788 73.3933 106.555 73.58 106.288 73.74C106.022 73.9 105.722 74.02 105.388 74.1C105.055 74.1933 104.688 74.24 104.288 74.24ZM104.928 72.16C105.275 72.16 105.582 72.1 105.848 71.98C106.128 71.8467 106.368 71.6733 106.568 71.46C106.768 71.2333 106.922 70.98 107.028 70.7C107.148 70.4067 107.228 70.0933 107.268 69.76V69.74H105.208C104.795 69.74 104.455 69.7933 104.188 69.9C103.935 69.9933 103.748 70.1333 103.628 70.32C103.508 70.5067 103.448 70.72 103.448 70.96C103.448 71.2267 103.508 71.4467 103.628 71.62C103.748 71.7933 103.922 71.9267 104.148 72.02C104.375 72.1133 104.635 72.16 104.928 72.16ZM115.014 74L111.314 63.92H114.154L116.654 71.46L119.154 63.92H121.974L118.294 74H115.014ZM126.417 74.24C125.577 74.24 124.884 74.1067 124.337 73.84C123.791 73.56 123.384 73.1933 123.117 72.74C122.864 72.2733 122.737 71.76 122.737 71.2C122.737 70.5867 122.891 70.0467 123.197 69.58C123.517 69.1133 123.991 68.7467 124.617 68.48C125.257 68.2133 126.057 68.08 127.017 68.08H129.517C129.517 67.5867 129.451 67.18 129.317 66.86C129.184 66.5267 128.977 66.28 128.697 66.12C128.417 65.96 128.044 65.88 127.577 65.88C127.071 65.88 126.637 65.9933 126.277 66.22C125.931 66.4333 125.717 66.7667 125.637 67.22H123.017C123.084 66.5 123.317 65.88 123.717 65.36C124.131 64.8267 124.671 64.4133 125.337 64.12C126.017 63.8267 126.771 63.68 127.597 63.68C128.544 63.68 129.364 63.84 130.057 64.16C130.751 64.48 131.284 64.94 131.657 65.54C132.031 66.14 132.217 66.88 132.217 67.76V74H129.937L129.637 72.46C129.491 72.7267 129.317 72.9667 129.117 73.18C128.917 73.3933 128.684 73.58 128.417 73.74C128.151 73.9 127.851 74.02 127.517 74.1C127.184 74.1933 126.817 74.24 126.417 74.24ZM127.057 72.16C127.404 72.16 127.711 72.1 127.977 71.98C128.257 71.8467 128.497 71.6733 128.697 71.46C128.897 71.2333 129.051 70.98 129.157 70.7C129.277 70.4067 129.357 70.0933 129.397 69.76V69.74H127.337C126.924 69.74 126.584 69.7933 126.317 69.9C126.064 69.9933 125.877 70.1333 125.757 70.32C125.637 70.5067 125.577 70.72 125.577 70.96C125.577 71.2267 125.637 71.4467 125.757 71.62C125.877 71.7933 126.051 71.9267 126.277 72.02C126.504 72.1133 126.764 72.16 127.057 72.16ZM134.736 74V63.92H137.116L137.316 65.56C137.623 65 138.056 64.5467 138.616 64.2C139.189 63.8533 139.869 63.68 140.656 63.68C141.496 63.68 142.203 63.8533 142.776 64.2C143.349 64.5467 143.783 65.0533 144.076 65.72C144.383 66.3867 144.536 67.2067 144.536 68.18V74H141.856V68.44C141.856 67.64 141.683 67.0267 141.336 66.6C141.003 66.1733 140.483 65.96 139.776 65.96C139.323 65.96 138.916 66.0667 138.556 66.28C138.209 66.4933 137.936 66.8 137.736 67.2C137.536 67.5867 137.436 68.06 137.436 68.62V74H134.736ZM151.56 74.24C150.64 74.24 149.813 74.0133 149.08 73.56C148.36 73.1067 147.793 72.48 147.38 71.68C146.966 70.88 146.76 69.98 146.76 68.98C146.76 67.9533 146.966 67.0467 147.38 66.26C147.806 65.46 148.386 64.8333 149.12 64.38C149.866 63.9133 150.7 63.68 151.62 63.68C152.34 63.68 152.973 63.8133 153.52 64.08C154.066 64.3467 154.506 64.7267 154.84 65.22V59.6H157.54V74H155.14L154.84 72.62C154.64 72.9 154.386 73.1667 154.08 73.42C153.786 73.6733 153.433 73.8733 153.02 74.02C152.606 74.1667 152.12 74.24 151.56 74.24ZM152.2 71.88C152.733 71.88 153.2 71.76 153.6 71.52C154.013 71.2667 154.333 70.92 154.56 70.48C154.786 70.04 154.9 69.5333 154.9 68.96C154.9 68.3867 154.786 67.88 154.56 67.44C154.333 67 154.013 66.66 153.6 66.42C153.2 66.1667 152.733 66.04 152.2 66.04C151.693 66.04 151.233 66.1667 150.82 66.42C150.406 66.66 150.08 67 149.84 67.44C149.613 67.88 149.5 68.38 149.5 68.94C149.5 69.5267 149.613 70.04 149.84 70.48C150.08 70.92 150.4 71.2667 150.8 71.52C151.213 71.76 151.68 71.88 152.2 71.88ZM163.585 74.24C162.745 74.24 162.052 74.1067 161.505 73.84C160.959 73.56 160.552 73.1933 160.285 72.74C160.032 72.2733 159.905 71.76 159.905 71.2C159.905 70.5867 160.059 70.0467 160.365 69.58C160.685 69.1133 161.159 68.7467 161.785 68.48C162.425 68.2133 163.225 68.08 164.185 68.08H166.685C166.685 67.5867 166.619 67.18 166.485 66.86C166.352 66.5267 166.145 66.28 165.865 66.12C165.585 65.96 165.212 65.88 164.745 65.88C164.239 65.88 163.805 65.9933 163.445 66.22C163.099 66.4333 162.885 66.7667 162.805 67.22H160.185C160.252 66.5 160.485 65.88 160.885 65.36C161.299 64.8267 161.839 64.4133 162.505 64.12C163.185 63.8267 163.939 63.68 164.765 63.68C165.712 63.68 166.532 63.84 167.225 64.16C167.919 64.48 168.452 64.94 168.825 65.54C169.199 66.14 169.385 66.88 169.385 67.76V74H167.105L166.805 72.46C166.659 72.7267 166.485 72.9667 166.285 73.18C166.085 73.3933 165.852 73.58 165.585 73.74C165.319 73.9 165.019 74.02 164.685 74.1C164.352 74.1933 163.985 74.24 163.585 74.24ZM164.225 72.16C164.572 72.16 164.879 72.1 165.145 71.98C165.425 71.8467 165.665 71.6733 165.865 71.46C166.065 71.2333 166.219 70.98 166.325 70.7C166.445 70.4067 166.525 70.0933 166.565 69.76V69.74H164.505C164.092 69.74 163.752 69.7933 163.485 69.9C163.232 69.9933 163.045 70.1333 162.925 70.32C162.805 70.5067 162.745 70.72 162.745 70.96C162.745 71.2267 162.805 71.4467 162.925 71.62C163.045 71.7933 163.219 71.9267 163.445 72.02C163.672 72.1133 163.932 72.16 164.225 72.16ZM67.6183 98V84H70.3183V95.9H76.4583V98H67.6183ZM82.1106 98.24C81.2706 98.24 80.5773 98.1067 80.0306 97.84C79.484 97.56 79.0773 97.1933 78.8106 96.74C78.5573 96.2733 78.4306 95.76 78.4306 95.2C78.4306 94.5867 78.584 94.0467 78.8906 93.58C79.2106 93.1133 79.684 92.7467 80.3106 92.48C80.9506 92.2133 81.7506 92.08 82.7106 92.08H85.2106C85.2106 91.5867 85.144 91.18 85.0106 90.86C84.8773 90.5267 84.6706 90.28 84.3906 90.12C84.1106 89.96 83.7373 89.88 83.2706 89.88C82.764 89.88 82.3306 89.9933 81.9706 90.22C81.624 90.4333 81.4106 90.7667 81.3306 91.22H78.7106C78.7773 90.5 79.0106 89.88 79.4106 89.36C79.824 88.8267 80.364 88.4133 81.0306 88.12C81.7106 87.8267 82.464 87.68 83.2906 87.68C84.2373 87.68 85.0573 87.84 85.7506 88.16C86.444 88.48 86.9773 88.94 87.3506 89.54C87.724 90.14 87.9106 90.88 87.9106 91.76V98H85.6306L85.3306 96.46C85.184 96.7267 85.0106 96.9667 84.8106 97.18C84.6106 97.3933 84.3773 97.58 84.1106 97.74C83.844 97.9 83.544 98.02 83.2106 98.1C82.8773 98.1933 82.5106 98.24 82.1106 98.24ZM82.7506 96.16C83.0973 96.16 83.404 96.1 83.6706 95.98C83.9506 95.8467 84.1906 95.6733 84.3906 95.46C84.5906 95.2333 84.744 94.98 84.8506 94.7C84.9706 94.4067 85.0506 94.0933 85.0906 93.76V93.74H83.0306C82.6173 93.74 82.2773 93.7933 82.0106 93.9C81.7573 93.9933 81.5706 94.1333 81.4506 94.32C81.3306 94.5067 81.2706 94.72 81.2706 94.96C81.2706 95.2267 81.3306 95.4467 81.4506 95.62C81.5706 95.7933 81.744 95.9267 81.9706 96.02C82.1973 96.1133 82.4573 96.16 82.7506 96.16ZM90.4294 98V87.92H92.8294L93.0894 89.78C93.3294 89.34 93.6294 88.9667 93.9894 88.66C94.3627 88.3533 94.7827 88.1133 95.2494 87.94C95.7294 87.7667 96.256 87.68 96.8294 87.68V90.54H95.9094C95.5094 90.54 95.136 90.5867 94.7894 90.68C94.456 90.7733 94.1627 90.9267 93.9094 91.14C93.656 91.34 93.4627 91.62 93.3294 91.98C93.196 92.34 93.1294 92.7933 93.1294 93.34V98H90.4294ZM102.013 98.24C101.173 98.24 100.48 98.1067 99.933 97.84C99.3863 97.56 98.9796 97.1933 98.713 96.74C98.4596 96.2733 98.333 95.76 98.333 95.2C98.333 94.5867 98.4863 94.0467 98.793 93.58C99.113 93.1133 99.5863 92.7467 100.213 92.48C100.853 92.2133 101.653 92.08 102.613 92.08H105.113C105.113 91.5867 105.046 91.18 104.913 90.86C104.78 90.5267 104.573 90.28 104.293 90.12C104.013 89.96 103.64 89.88 103.173 89.88C102.666 89.88 102.233 89.9933 101.873 90.22C101.526 90.4333 101.313 90.7667 101.233 91.22H98.613C98.6796 90.5 98.913 89.88 99.313 89.36C99.7263 88.8267 100.266 88.4133 100.933 88.12C101.613 87.8267 102.366 87.68 103.193 87.68C104.14 87.68 104.96 87.84 105.653 88.16C106.346 88.48 106.88 88.94 107.253 89.54C107.626 90.14 107.813 90.88 107.813 91.76V98H105.533L105.233 96.46C105.086 96.7267 104.913 96.9667 104.713 97.18C104.513 97.3933 104.28 97.58 104.013 97.74C103.746 97.9 103.446 98.02 103.113 98.1C102.78 98.1933 102.413 98.24 102.013 98.24ZM102.653 96.16C103 96.16 103.306 96.1 103.573 95.98C103.853 95.8467 104.093 95.6733 104.293 95.46C104.493 95.2333 104.646 94.98 104.753 94.7C104.873 94.4067 104.953 94.0933 104.993 93.76V93.74H102.933C102.52 93.74 102.18 93.7933 101.913 93.9C101.66 93.9933 101.473 94.1333 101.353 94.32C101.233 94.5067 101.173 94.72 101.173 94.96C101.173 95.2267 101.233 95.4467 101.353 95.62C101.473 95.7933 101.646 95.9267 101.873 96.02C102.1 96.1133 102.36 96.16 102.653 96.16ZM110.332 98V87.92H112.712L112.912 89.56C113.218 89 113.652 88.5467 114.212 88.2C114.785 87.8533 115.465 87.68 116.252 87.68C117.092 87.68 117.798 87.8533 118.372 88.2C118.945 88.5467 119.378 89.0533 119.672 89.72C119.978 90.3867 120.132 91.2067 120.132 92.18V98H117.452V92.44C117.452 91.64 117.278 91.0267 116.932 90.6C116.598 90.1733 116.078 89.96 115.372 89.96C114.918 89.96 114.512 90.0667 114.152 90.28C113.805 90.4933 113.532 90.8 113.332 91.2C113.132 91.5867 113.032 92.06 113.032 92.62V98H110.332ZM120.775 102.4V100.1H121.595C122.022 100.1 122.322 100.013 122.495 99.84C122.682 99.6667 122.775 99.3867 122.775 99V87.92H125.475V98.98C125.475 99.8067 125.329 100.467 125.035 100.96C124.755 101.467 124.355 101.833 123.835 102.06C123.315 102.287 122.702 102.4 121.995 102.4H120.775ZM124.135 86.54C123.642 86.54 123.242 86.4 122.935 86.12C122.629 85.8267 122.475 85.46 122.475 85.02C122.475 84.58 122.629 84.22 122.935 83.94C123.242 83.6467 123.642 83.5 124.135 83.5C124.629 83.5 125.029 83.6467 125.335 83.94C125.642 84.22 125.795 84.58 125.795 85.02C125.795 85.46 125.642 85.8267 125.335 86.12C125.029 86.4 124.629 86.54 124.135 86.54ZM131.564 98.24C130.724 98.24 130.03 98.1067 129.484 97.84C128.937 97.56 128.53 97.1933 128.264 96.74C128.01 96.2733 127.884 95.76 127.884 95.2C127.884 94.5867 128.037 94.0467 128.344 93.58C128.664 93.1133 129.137 92.7467 129.764 92.48C130.404 92.2133 131.204 92.08 132.164 92.08H134.664C134.664 91.5867 134.597 91.18 134.464 90.86C134.33 90.5267 134.124 90.28 133.844 90.12C133.564 89.96 133.19 89.88 132.724 89.88C132.217 89.88 131.784 89.9933 131.424 90.22C131.077 90.4333 130.864 90.7667 130.784 91.22H128.164C128.23 90.5 128.464 89.88 128.864 89.36C129.277 88.8267 129.817 88.4133 130.484 88.12C131.164 87.8267 131.917 87.68 132.744 87.68C133.69 87.68 134.51 87.84 135.204 88.16C135.897 88.48 136.43 88.94 136.804 89.54C137.177 90.14 137.364 90.88 137.364 91.76V98H135.084L134.784 96.46C134.637 96.7267 134.464 96.9667 134.264 97.18C134.064 97.3933 133.83 97.58 133.564 97.74C133.297 97.9 132.997 98.02 132.664 98.1C132.33 98.1933 131.964 98.24 131.564 98.24ZM132.204 96.16C132.55 96.16 132.857 96.1 133.124 95.98C133.404 95.8467 133.644 95.6733 133.844 95.46C134.044 95.2333 134.197 94.98 134.304 94.7C134.424 94.4067 134.504 94.0933 134.544 93.76V93.74H132.484C132.07 93.74 131.73 93.7933 131.464 93.9C131.21 93.9933 131.024 94.1333 130.904 94.32C130.784 94.5067 130.724 94.72 130.724 94.96C130.724 95.2267 130.784 95.4467 130.904 95.62C131.024 95.7933 131.197 95.9267 131.424 96.02C131.65 96.1133 131.91 96.16 132.204 96.16ZM149.07 98.24C148.15 98.24 147.323 98.0133 146.59 97.56C145.87 97.1067 145.303 96.48 144.89 95.68C144.476 94.88 144.27 93.98 144.27 92.98C144.27 91.9533 144.476 91.0467 144.89 90.26C145.316 89.46 145.896 88.8333 146.63 88.38C147.376 87.9133 148.21 87.68 149.13 87.68C149.85 87.68 150.483 87.8133 151.03 88.08C151.576 88.3467 152.016 88.7267 152.35 89.22V83.6H155.05V98H152.65L152.35 96.62C152.15 96.9 151.896 97.1667 151.59 97.42C151.296 97.6733 150.943 97.8733 150.53 98.02C150.116 98.1667 149.63 98.24 149.07 98.24ZM149.71 95.88C150.243 95.88 150.71 95.76 151.11 95.52C151.523 95.2667 151.843 94.92 152.07 94.48C152.296 94.04 152.41 93.5333 152.41 92.96C152.41 92.3867 152.296 91.88 152.07 91.44C151.843 91 151.523 90.66 151.11 90.42C150.71 90.1667 150.243 90.04 149.71 90.04C149.203 90.04 148.743 90.1667 148.33 90.42C147.916 90.66 147.59 91 147.35 91.44C147.123 91.88 147.01 92.38 147.01 92.94C147.01 93.5267 147.123 94.04 147.35 94.48C147.59 94.92 147.91 95.2667 148.31 95.52C148.723 95.76 149.19 95.88 149.71 95.88ZM162.455 98.24C161.495 98.24 160.628 98.02 159.855 97.58C159.095 97.1267 158.488 96.5067 158.035 95.72C157.595 94.92 157.375 94.0067 157.375 92.98C157.375 91.9267 157.595 91.0067 158.035 90.22C158.488 89.42 159.102 88.8 159.875 88.36C160.648 87.9067 161.515 87.68 162.475 87.68C163.448 87.68 164.315 87.9067 165.075 88.36C165.848 88.8 166.455 89.42 166.895 90.22C167.348 91.0067 167.575 91.92 167.575 92.96C167.575 94 167.348 94.92 166.895 95.72C166.455 96.5067 165.848 97.1267 165.075 97.58C164.302 98.02 163.428 98.24 162.455 98.24ZM162.455 95.9C162.908 95.9 163.308 95.7933 163.655 95.58C164.015 95.3667 164.295 95.04 164.495 94.6C164.708 94.16 164.815 93.6133 164.815 92.96C164.815 92.3067 164.708 91.7667 164.495 91.34C164.295 90.9 164.015 90.5733 163.655 90.36C163.308 90.1333 162.915 90.02 162.475 90.02C162.048 90.02 161.655 90.1333 161.295 90.36C160.935 90.5733 160.648 90.9 160.435 91.34C160.235 91.7667 160.135 92.3067 160.135 92.96C160.135 93.6133 160.235 94.16 160.435 94.6C160.648 95.04 160.928 95.3667 161.275 95.58C161.635 95.7933 162.028 95.9 162.455 95.9ZM174.782 98.24C173.769 98.24 172.869 98.0133 172.082 97.56C171.295 97.1067 170.682 96.4867 170.242 95.7C169.802 94.9133 169.582 94.0133 169.582 93C169.582 91.96 169.802 91.0467 170.242 90.26C170.682 89.46 171.295 88.8333 172.082 88.38C172.869 87.9133 173.769 87.68 174.782 87.68C176.075 87.68 177.162 88.02 178.042 88.7C178.922 89.38 179.482 90.3133 179.722 91.5H176.862C176.742 91.0333 176.489 90.6667 176.102 90.4C175.729 90.1333 175.282 90 174.762 90C174.295 90 173.875 90.12 173.502 90.36C173.142 90.5867 172.855 90.9267 172.642 91.38C172.442 91.82 172.342 92.3467 172.342 92.96C172.342 93.4267 172.402 93.8467 172.522 94.22C172.642 94.58 172.809 94.8933 173.022 95.16C173.235 95.4133 173.489 95.6067 173.782 95.74C174.089 95.8733 174.415 95.94 174.762 95.94C175.109 95.94 175.422 95.88 175.702 95.76C175.995 95.64 176.242 95.4733 176.442 95.26C176.642 95.0333 176.782 94.76 176.862 94.44H179.722C179.482 95.6 178.915 96.5267 178.022 97.22C177.142 97.9 176.062 98.24 174.782 98.24ZM186.89 98.24C185.877 98.24 184.977 98.0267 184.19 97.6C183.417 97.16 182.81 96.5533 182.37 95.78C181.944 94.9933 181.73 94.0867 181.73 93.06C181.73 92.0067 181.944 91.08 182.37 90.28C182.81 89.4667 183.417 88.8333 184.19 88.38C184.964 87.9133 185.864 87.68 186.89 87.68C187.89 87.68 188.764 87.9 189.51 88.34C190.257 88.78 190.837 89.3733 191.25 90.12C191.664 90.8667 191.87 91.7133 191.87 92.66C191.87 92.7933 191.87 92.9467 191.87 93.12C191.87 93.28 191.857 93.4467 191.83 93.62H183.65V91.98H189.15C189.11 91.3267 188.877 90.8133 188.45 90.44C188.037 90.0667 187.517 89.88 186.89 89.88C186.437 89.88 186.017 89.9867 185.63 90.2C185.244 90.4 184.937 90.7133 184.71 91.14C184.497 91.5667 184.39 92.1067 184.39 92.76V93.34C184.39 93.8867 184.49 94.3667 184.69 94.78C184.904 95.18 185.197 95.4933 185.57 95.72C185.944 95.9333 186.377 96.04 186.87 96.04C187.364 96.04 187.77 95.9333 188.09 95.72C188.424 95.5067 188.67 95.2333 188.83 94.9H191.59C191.404 95.5267 191.09 96.0933 190.65 96.6C190.21 97.1067 189.67 97.5067 189.03 97.8C188.39 98.0933 187.677 98.24 186.89 98.24ZM96.4559 122.24C95.5493 122.24 94.7493 122.067 94.0559 121.72C93.3759 121.373 92.8493 120.867 92.4759 120.2C92.1026 119.52 91.9159 118.7 91.9159 117.74H94.6159C94.6159 118.167 94.6759 118.54 94.7959 118.86C94.9293 119.167 95.1226 119.407 95.3759 119.58C95.6426 119.74 95.9826 119.82 96.3959 119.82C96.7959 119.82 97.1159 119.747 97.3559 119.6C97.6093 119.44 97.7893 119.22 97.8959 118.94C98.0159 118.647 98.0759 118.3 98.0759 117.9V108H100.776V117.9C100.776 119.3 100.383 120.373 99.5959 121.12C98.8226 121.867 97.7759 122.24 96.4559 122.24ZM106.876 122.24C106.036 122.24 105.343 122.107 104.796 121.84C104.25 121.56 103.843 121.193 103.576 120.74C103.323 120.273 103.196 119.76 103.196 119.2C103.196 118.587 103.35 118.047 103.656 117.58C103.976 117.113 104.45 116.747 105.076 116.48C105.716 116.213 106.516 116.08 107.476 116.08H109.976C109.976 115.587 109.91 115.18 109.776 114.86C109.643 114.527 109.436 114.28 109.156 114.12C108.876 113.96 108.503 113.88 108.036 113.88C107.53 113.88 107.096 113.993 106.736 114.22C106.39 114.433 106.176 114.767 106.096 115.22H103.476C103.543 114.5 103.776 113.88 104.176 113.36C104.59 112.827 105.13 112.413 105.796 112.12C106.476 111.827 107.23 111.68 108.056 111.68C109.003 111.68 109.823 111.84 110.516 112.16C111.21 112.48 111.743 112.94 112.116 113.54C112.49 114.14 112.676 114.88 112.676 115.76V122H110.396L110.096 120.46C109.95 120.727 109.776 120.967 109.576 121.18C109.376 121.393 109.143 121.58 108.876 121.74C108.61 121.9 108.31 122.02 107.976 122.1C107.643 122.193 107.276 122.24 106.876 122.24ZM107.516 120.16C107.863 120.16 108.17 120.1 108.436 119.98C108.716 119.847 108.956 119.673 109.156 119.46C109.356 119.233 109.51 118.98 109.616 118.7C109.736 118.407 109.816 118.093 109.856 117.76V117.74H107.796C107.383 117.74 107.043 117.793 106.776 117.9C106.523 117.993 106.336 118.133 106.216 118.32C106.096 118.507 106.036 118.72 106.036 118.96C106.036 119.227 106.096 119.447 106.216 119.62C106.336 119.793 106.51 119.927 106.736 120.02C106.963 120.113 107.223 120.16 107.516 120.16ZM119.315 122.24C118.395 122.24 117.595 122.093 116.915 121.8C116.235 121.507 115.702 121.1 115.315 120.58C114.928 120.06 114.708 119.473 114.655 118.82H117.335C117.402 119.073 117.515 119.307 117.675 119.52C117.835 119.72 118.048 119.88 118.315 120C118.582 120.12 118.902 120.18 119.275 120.18C119.635 120.18 119.928 120.133 120.155 120.04C120.382 119.933 120.548 119.793 120.655 119.62C120.775 119.447 120.835 119.267 120.835 119.08C120.835 118.8 120.755 118.587 120.595 118.44C120.435 118.28 120.202 118.153 119.895 118.06C119.588 117.967 119.215 117.873 118.775 117.78C118.295 117.687 117.822 117.573 117.355 117.44C116.902 117.293 116.495 117.113 116.135 116.9C115.775 116.687 115.488 116.413 115.275 116.08C115.062 115.747 114.955 115.333 114.955 114.84C114.955 114.24 115.115 113.707 115.435 113.24C115.755 112.76 116.222 112.38 116.835 112.1C117.448 111.82 118.188 111.68 119.055 111.68C120.268 111.68 121.228 111.953 121.935 112.5C122.642 113.047 123.062 113.8 123.195 114.76H120.655C120.575 114.453 120.395 114.213 120.115 114.04C119.848 113.853 119.488 113.76 119.035 113.76C118.555 113.76 118.188 113.847 117.935 114.02C117.682 114.193 117.555 114.42 117.555 114.7C117.555 114.887 117.635 115.053 117.795 115.2C117.968 115.347 118.208 115.473 118.515 115.58C118.822 115.673 119.195 115.767 119.635 115.86C120.408 116.02 121.088 116.207 121.675 116.42C122.262 116.62 122.722 116.913 123.055 117.3C123.388 117.673 123.555 118.22 123.555 118.94C123.555 119.58 123.382 120.153 123.035 120.66C122.688 121.153 122.195 121.54 121.555 121.82C120.928 122.1 120.182 122.24 119.315 122.24ZM125.84 122V111.92H128.22L128.44 113.26C128.76 112.78 129.18 112.4 129.7 112.12C130.233 111.827 130.84 111.68 131.52 111.68C132.026 111.68 132.48 111.747 132.88 111.88C133.28 112.013 133.633 112.207 133.94 112.46C134.26 112.713 134.52 113.033 134.72 113.42C135.093 112.873 135.58 112.447 136.18 112.14C136.78 111.833 137.433 111.68 138.14 111.68C139.02 111.68 139.753 111.86 140.34 112.22C140.926 112.567 141.366 113.073 141.66 113.74C141.966 114.407 142.12 115.227 142.12 116.2V122H139.44V116.44C139.44 115.64 139.28 115.027 138.96 114.6C138.653 114.173 138.173 113.96 137.52 113.96C137.093 113.96 136.713 114.067 136.38 114.28C136.046 114.493 135.786 114.8 135.6 115.2C135.426 115.6 135.34 116.08 135.34 116.64V122H132.64V116.44C132.64 115.64 132.48 115.027 132.16 114.6C131.84 114.173 131.346 113.96 130.68 113.96C130.266 113.96 129.893 114.067 129.56 114.28C129.24 114.493 128.986 114.8 128.8 115.2C128.626 115.6 128.54 116.08 128.54 116.64V122H125.84ZM144.728 122V111.92H147.428V122H144.728ZM146.088 110.54C145.608 110.54 145.208 110.4 144.888 110.12C144.581 109.827 144.428 109.46 144.428 109.02C144.428 108.58 144.581 108.22 144.888 107.94C145.208 107.647 145.608 107.5 146.088 107.5C146.581 107.5 146.981 107.647 147.288 107.94C147.608 108.22 147.768 108.58 147.768 109.02C147.768 109.46 147.608 109.827 147.288 110.12C146.981 110.4 146.581 110.54 146.088 110.54ZM150.156 122V111.92H152.536L152.756 113.26C153.076 112.78 153.496 112.4 154.016 112.12C154.549 111.827 155.156 111.68 155.836 111.68C156.343 111.68 156.796 111.747 157.196 111.88C157.596 112.013 157.949 112.207 158.256 112.46C158.576 112.713 158.836 113.033 159.036 113.42C159.409 112.873 159.896 112.447 160.496 112.14C161.096 111.833 161.749 111.68 162.456 111.68C163.336 111.68 164.069 111.86 164.656 112.22C165.243 112.567 165.683 113.073 165.976 113.74C166.283 114.407 166.436 115.227 166.436 116.2V122H163.756V116.44C163.756 115.64 163.596 115.027 163.276 114.6C162.969 114.173 162.489 113.96 161.836 113.96C161.409 113.96 161.029 114.067 160.696 114.28C160.363 114.493 160.103 114.8 159.916 115.2C159.743 115.6 159.656 116.08 159.656 116.64V122H156.956V116.44C156.956 115.64 156.796 115.027 156.476 114.6C156.156 114.173 155.663 113.96 154.996 113.96C154.583 113.96 154.209 114.067 153.876 114.28C153.556 114.493 153.303 114.8 153.116 115.2C152.943 115.6 152.856 116.08 152.856 116.64V122H150.156ZM107.589 146V132H112.809C113.942 132 114.876 132.193 115.609 132.58C116.342 132.967 116.889 133.487 117.249 134.14C117.609 134.78 117.789 135.493 117.789 136.28C117.789 137.027 117.616 137.727 117.269 138.38C116.922 139.02 116.376 139.54 115.629 139.94C114.896 140.327 113.949 140.52 112.789 140.52H110.289V146H107.589ZM114.849 146L111.969 139.84H114.889L117.929 146H114.849ZM110.289 138.56H112.649C113.462 138.56 114.062 138.36 114.449 137.96C114.836 137.56 115.029 137.033 115.029 136.38C115.029 135.727 114.836 135.213 114.449 134.84C114.076 134.453 113.476 134.26 112.649 134.26H110.289V138.56ZM124.301 146.24C123.341 146.24 122.474 146.02 121.701 145.58C120.941 145.127 120.334 144.507 119.881 143.72C119.441 142.92 119.221 142.007 119.221 140.98C119.221 139.927 119.441 139.007 119.881 138.22C120.334 137.42 120.947 136.8 121.721 136.36C122.494 135.907 123.361 135.68 124.321 135.68C125.294 135.68 126.161 135.907 126.921 136.36C127.694 136.8 128.301 137.42 128.741 138.22C129.194 139.007 129.421 139.92 129.421 140.96C129.421 142 129.194 142.92 128.741 143.72C128.301 144.507 127.694 145.127 126.921 145.58C126.147 146.02 125.274 146.24 124.301 146.24ZM124.301 143.9C124.754 143.9 125.154 143.793 125.501 143.58C125.861 143.367 126.141 143.04 126.341 142.6C126.554 142.16 126.661 141.613 126.661 140.96C126.661 140.307 126.554 139.767 126.341 139.34C126.141 138.9 125.861 138.573 125.501 138.36C125.154 138.133 124.761 138.02 124.321 138.02C123.894 138.02 123.501 138.133 123.141 138.36C122.781 138.573 122.494 138.9 122.281 139.34C122.081 139.767 121.981 140.307 121.981 140.96C121.981 141.613 122.081 142.16 122.281 142.6C122.494 143.04 122.774 143.367 123.121 143.58C123.481 143.793 123.874 143.9 124.301 143.9ZM135.868 146.24C134.948 146.24 134.148 146.093 133.468 145.8C132.788 145.507 132.254 145.1 131.868 144.58C131.481 144.06 131.261 143.473 131.208 142.82H133.888C133.954 143.073 134.068 143.307 134.228 143.52C134.388 143.72 134.601 143.88 134.868 144C135.134 144.12 135.454 144.18 135.828 144.18C136.188 144.18 136.481 144.133 136.708 144.04C136.934 143.933 137.101 143.793 137.208 143.62C137.328 143.447 137.388 143.267 137.388 143.08C137.388 142.8 137.308 142.587 137.148 142.44C136.988 142.28 136.754 142.153 136.448 142.06C136.141 141.967 135.768 141.873 135.328 141.78C134.848 141.687 134.374 141.573 133.908 141.44C133.454 141.293 133.048 141.113 132.688 140.9C132.328 140.687 132.041 140.413 131.828 140.08C131.614 139.747 131.508 139.333 131.508 138.84C131.508 138.24 131.668 137.707 131.988 137.24C132.308 136.76 132.774 136.38 133.388 136.1C134.001 135.82 134.741 135.68 135.608 135.68C136.821 135.68 137.781 135.953 138.488 136.5C139.194 137.047 139.614 137.8 139.748 138.76H137.208C137.128 138.453 136.948 138.213 136.668 138.04C136.401 137.853 136.041 137.76 135.588 137.76C135.108 137.76 134.741 137.847 134.488 138.02C134.234 138.193 134.108 138.42 134.108 138.7C134.108 138.887 134.188 139.053 134.348 139.2C134.521 139.347 134.761 139.473 135.068 139.58C135.374 139.673 135.748 139.767 136.188 139.86C136.961 140.02 137.641 140.207 138.228 140.42C138.814 140.62 139.274 140.913 139.608 141.3C139.941 141.673 140.108 142.22 140.108 142.94C140.108 143.58 139.934 144.153 139.588 144.66C139.241 145.153 138.748 145.54 138.108 145.82C137.481 146.1 136.734 146.24 135.868 146.24ZM145.792 146.24C144.952 146.24 144.259 146.107 143.712 145.84C143.166 145.56 142.759 145.193 142.492 144.74C142.239 144.273 142.112 143.76 142.112 143.2C142.112 142.587 142.266 142.047 142.572 141.58C142.892 141.113 143.366 140.747 143.992 140.48C144.632 140.213 145.432 140.08 146.392 140.08H148.892C148.892 139.587 148.826 139.18 148.692 138.86C148.559 138.527 148.352 138.28 148.072 138.12C147.792 137.96 147.419 137.88 146.952 137.88C146.446 137.88 146.012 137.993 145.652 138.22C145.306 138.433 145.092 138.767 145.012 139.22H142.392C142.459 138.5 142.692 137.88 143.092 137.36C143.506 136.827 144.046 136.413 144.712 136.12C145.392 135.827 146.146 135.68 146.972 135.68C147.919 135.68 148.739 135.84 149.432 136.16C150.126 136.48 150.659 136.94 151.032 137.54C151.406 138.14 151.592 138.88 151.592 139.76V146H149.312L149.012 144.46C148.866 144.727 148.692 144.967 148.492 145.18C148.292 145.393 148.059 145.58 147.792 145.74C147.526 145.9 147.226 146.02 146.892 146.1C146.559 146.193 146.192 146.24 145.792 146.24ZM146.432 144.16C146.779 144.16 147.086 144.1 147.352 143.98C147.632 143.847 147.872 143.673 148.072 143.46C148.272 143.233 148.426 142.98 148.532 142.7C148.652 142.407 148.732 142.093 148.772 141.76V141.74H146.712C146.299 141.74 145.959 141.793 145.692 141.9C145.439 141.993 145.252 142.133 145.132 142.32C145.012 142.507 144.952 142.72 144.952 142.96C144.952 143.227 145.012 143.447 145.132 143.62C145.252 143.793 145.426 143.927 145.652 144.02C145.879 144.113 146.139 144.16 146.432 144.16Z" fill="#6A5ACD"/>
<defs>
<filter id="filter0_f_329_260" x="163.755" y="10.1165" width="78.6514" height="177.14" filterUnits="userSpaceOnUse" color-interpolation-filters="sRGB">
<feFlood flood-opacity="0" result="BackgroundImageFix"/>
<feBlend mode="normal" in="SourceGraphic" in2="BackgroundImageFix" result="shape"/>
<feGaussianBlur stdDeviation="15" result="effect1_foregroundBlur_329_260"/>
</filter>
<filter id="filter1_f_329_260" x="0.760254" y="20.6049" width="219.681" height="218.744" filterUnits="userSpaceOnUse" color-interpolation-filters="sRGB">
<feFlood flood-opacity="0" result="BackgroundImageFix"/>
<feBlend mode="normal" in="SourceGraphic" in2="BackgroundImageFix" result="shape"/>
<feGaussianBlur stdDeviation="25" result="effect1_foregroundBlur_329_260"/>
</filter>
<linearGradient id="paint0_linear_329_260" x1="188.694" y1="207" x2="21.2126" y2="-75.993" gradientUnits="userSpaceOnUse">
<stop stop-color="#A1A4F3"/>
<stop offset="0.992945" stop-color="white" stop-opacity="0.86"/>
</linearGradient>
</defs>
</svg>
