<svg width="243" height="240" viewBox="0 0 243 240" fill="none" xmlns="http://www.w3.org/2000/svg">
<g filter="url(#filter0_f_329_509)">
<ellipse cx="203.081" cy="98.686" rx="9.32577" ry="58.5698" fill="#050259" fill-opacity="0.5" style="mix-blend-mode:overlay"/>
</g>
<ellipse cx="129.252" cy="103.5" rx="100.252" ry="103.5" fill="url(#paint0_linear_329_509)"/>
<g filter="url(#filter1_f_329_509)">
<ellipse cx="110.601" cy="129.977" rx="59.8404" ry="59.3721" fill="#A1A4F3" fill-opacity="0.2"/>
</g>
<path d="M91.8443 74L96.9643 60H100.024L105.124 74H102.264L98.4843 63.08L94.6843 74H91.8443ZM94.1043 70.82L94.8243 68.72H101.944L102.644 70.82H94.1043ZM106.904 74V59.6H109.604V74H106.904ZM117.076 74.24C116.063 74.24 115.163 74.0267 114.376 73.6C113.603 73.16 112.996 72.5533 112.556 71.78C112.129 70.9933 111.916 70.0867 111.916 69.06C111.916 68.0067 112.129 67.08 112.556 66.28C112.996 65.4667 113.603 64.8333 114.376 64.38C115.149 63.9133 116.049 63.68 117.076 63.68C118.076 63.68 118.949 63.9 119.696 64.34C120.443 64.78 121.023 65.3733 121.436 66.12C121.849 66.8667 122.056 67.7133 122.056 68.66C122.056 68.7933 122.056 68.9467 122.056 69.12C122.056 69.28 122.043 69.4467 122.016 69.62H113.836V67.98H119.336C119.296 67.3267 119.063 66.8133 118.636 66.44C118.223 66.0667 117.703 65.88 117.076 65.88C116.623 65.88 116.203 65.9867 115.816 66.2C115.429 66.4 115.123 66.7133 114.896 67.14C114.683 67.5667 114.576 68.1067 114.576 68.76V69.34C114.576 69.8867 114.676 70.3667 114.876 70.78C115.089 71.18 115.383 71.4933 115.756 71.72C116.129 71.9333 116.563 72.04 117.056 72.04C117.549 72.04 117.956 71.9333 118.276 71.72C118.609 71.5067 118.856 71.2333 119.016 70.9H121.776C121.589 71.5267 121.276 72.0933 120.836 72.6C120.396 73.1067 119.856 73.5067 119.216 73.8C118.576 74.0933 117.863 74.24 117.076 74.24ZM129.147 74.24C128.134 74.24 127.234 74.0133 126.447 73.56C125.661 73.1067 125.047 72.4867 124.607 71.7C124.167 70.9133 123.947 70.0133 123.947 69C123.947 67.96 124.167 67.0467 124.607 66.26C125.047 65.46 125.661 64.8333 126.447 64.38C127.234 63.9133 128.134 63.68 129.147 63.68C130.441 63.68 131.527 64.02 132.407 64.7C133.287 65.38 133.847 66.3133 134.087 67.5H131.227C131.107 67.0333 130.854 66.6667 130.467 66.4C130.094 66.1333 129.647 66 129.127 66C128.661 66 128.241 66.12 127.867 66.36C127.507 66.5867 127.221 66.9267 127.007 67.38C126.807 67.82 126.707 68.3467 126.707 68.96C126.707 69.4267 126.767 69.8467 126.887 70.22C127.007 70.58 127.174 70.8933 127.387 71.16C127.601 71.4133 127.854 71.6067 128.147 71.74C128.454 71.8733 128.781 71.94 129.127 71.94C129.474 71.94 129.787 71.88 130.067 71.76C130.361 71.64 130.607 71.4733 130.807 71.26C131.007 71.0333 131.147 70.76 131.227 70.44H134.087C133.847 71.6 133.281 72.5267 132.387 73.22C131.507 73.9 130.427 74.24 129.147 74.24ZM136.416 74V63.92H138.816L139.076 65.78C139.316 65.34 139.616 64.9667 139.976 64.66C140.349 64.3533 140.769 64.1133 141.236 63.94C141.716 63.7667 142.242 63.68 142.816 63.68V66.54H141.896C141.496 66.54 141.122 66.5867 140.776 66.68C140.442 66.7733 140.149 66.9267 139.896 67.14C139.642 67.34 139.449 67.62 139.316 67.98C139.182 68.34 139.116 68.7933 139.116 69.34V74H136.416ZM144.659 74V63.92H147.359V74H144.659ZM146.019 62.54C145.539 62.54 145.139 62.4 144.819 62.12C144.513 61.8267 144.359 61.46 144.359 61.02C144.359 60.58 144.513 60.22 144.819 59.94C145.139 59.6467 145.539 59.5 146.019 59.5C146.513 59.5 146.913 59.6467 147.219 59.94C147.539 60.22 147.699 60.58 147.699 61.02C147.699 61.46 147.539 61.8267 147.219 62.12C146.913 62.4 146.513 62.54 146.019 62.54ZM150.088 74V63.92H152.468L152.688 65.26C153.008 64.78 153.428 64.4 153.948 64.12C154.481 63.8267 155.088 63.68 155.768 63.68C156.274 63.68 156.728 63.7467 157.128 63.88C157.528 64.0133 157.881 64.2067 158.188 64.46C158.508 64.7133 158.768 65.0333 158.968 65.42C159.341 64.8733 159.828 64.4467 160.428 64.14C161.028 63.8333 161.681 63.68 162.388 63.68C163.268 63.68 164.001 63.86 164.588 64.22C165.174 64.5667 165.614 65.0733 165.908 65.74C166.214 66.4067 166.368 67.2267 166.368 68.2V74H163.688V68.44C163.688 67.64 163.528 67.0267 163.208 66.6C162.901 66.1733 162.421 65.96 161.768 65.96C161.341 65.96 160.961 66.0667 160.628 66.28C160.294 66.4933 160.034 66.8 159.848 67.2C159.674 67.6 159.588 68.08 159.588 68.64V74H156.888V68.44C156.888 67.64 156.728 67.0267 156.408 66.6C156.088 66.1733 155.594 65.96 154.928 65.96C154.514 65.96 154.141 66.0667 153.808 66.28C153.488 66.4933 153.234 66.8 153.048 67.2C152.874 67.6 152.788 68.08 152.788 68.64V74H150.088ZM84.8839 98V84H94.0839V86.18H87.5839V89.84H93.4839V91.94H87.5839V95.82H94.0839V98H84.8839ZM100.244 98.24C99.4307 98.24 98.7307 98.0733 98.1441 97.74C97.5707 97.3933 97.1307 96.8933 96.8241 96.24C96.5174 95.5733 96.3641 94.7533 96.3641 93.78V87.92H99.0641V93.5C99.0641 94.3133 99.2307 94.9267 99.5641 95.34C99.9107 95.7533 100.437 95.96 101.144 95.96C101.597 95.96 101.997 95.86 102.344 95.66C102.691 95.4467 102.964 95.1467 103.164 94.76C103.377 94.36 103.484 93.8733 103.484 93.3V87.92H106.164V98H103.804L103.584 96.36C103.291 96.9333 102.857 97.3933 102.284 97.74C101.711 98.0733 101.031 98.24 100.244 98.24ZM113.688 98.24C112.675 98.24 111.775 98.0133 110.988 97.56C110.202 97.1067 109.588 96.4867 109.148 95.7C108.708 94.9133 108.488 94.0133 108.488 93C108.488 91.96 108.708 91.0467 109.148 90.26C109.588 89.46 110.202 88.8333 110.988 88.38C111.775 87.9133 112.675 87.68 113.688 87.68C114.982 87.68 116.068 88.02 116.948 88.7C117.828 89.38 118.388 90.3133 118.628 91.5H115.768C115.648 91.0333 115.395 90.6667 115.008 90.4C114.635 90.1333 114.188 90 113.668 90C113.202 90 112.782 90.12 112.408 90.36C112.048 90.5867 111.762 90.9267 111.548 91.38C111.348 91.82 111.248 92.3467 111.248 92.96C111.248 93.4267 111.308 93.8467 111.428 94.22C111.548 94.58 111.715 94.8933 111.928 95.16C112.142 95.4133 112.395 95.6067 112.688 95.74C112.995 95.8733 113.322 95.94 113.668 95.94C114.015 95.94 114.328 95.88 114.608 95.76C114.902 95.64 115.148 95.4733 115.348 95.26C115.548 95.0333 115.688 94.76 115.768 94.44H118.628C118.388 95.6 117.822 96.5267 116.928 97.22C116.048 97.9 114.968 98.24 113.688 98.24ZM124.357 98.24C123.517 98.24 122.823 98.1067 122.277 97.84C121.73 97.56 121.323 97.1933 121.057 96.74C120.803 96.2733 120.677 95.76 120.677 95.2C120.677 94.5867 120.83 94.0467 121.137 93.58C121.457 93.1133 121.93 92.7467 122.557 92.48C123.197 92.2133 123.997 92.08 124.957 92.08H127.457C127.457 91.5867 127.39 91.18 127.257 90.86C127.123 90.5267 126.917 90.28 126.637 90.12C126.357 89.96 125.983 89.88 125.517 89.88C125.01 89.88 124.577 89.9933 124.217 90.22C123.87 90.4333 123.657 90.7667 123.577 91.22H120.957C121.023 90.5 121.257 89.88 121.657 89.36C122.07 88.8267 122.61 88.4133 123.277 88.12C123.957 87.8267 124.71 87.68 125.537 87.68C126.483 87.68 127.303 87.84 127.997 88.16C128.69 88.48 129.223 88.94 129.597 89.54C129.97 90.14 130.157 90.88 130.157 91.76V98H127.877L127.577 96.46C127.43 96.7267 127.257 96.9667 127.057 97.18C126.857 97.3933 126.623 97.58 126.357 97.74C126.09 97.9 125.79 98.02 125.457 98.1C125.123 98.1933 124.757 98.24 124.357 98.24ZM124.997 96.16C125.343 96.16 125.65 96.1 125.917 95.98C126.197 95.8467 126.437 95.6733 126.637 95.46C126.837 95.2333 126.99 94.98 127.097 94.7C127.217 94.4067 127.297 94.0933 127.337 93.76V93.74H125.277C124.863 93.74 124.523 93.7933 124.257 93.9C124.003 93.9933 123.817 94.1333 123.697 94.32C123.577 94.5067 123.517 94.72 123.517 94.96C123.517 95.2267 123.577 95.4467 123.697 95.62C123.817 95.7933 123.99 95.9267 124.217 96.02C124.443 96.1133 124.703 96.16 124.997 96.16ZM132.675 98V83.6H135.375V98H132.675ZM138.068 98V87.92H140.768V98H138.068ZM139.428 86.54C138.948 86.54 138.548 86.4 138.228 86.12C137.921 85.8267 137.768 85.46 137.768 85.02C137.768 84.58 137.921 84.22 138.228 83.94C138.548 83.6467 138.948 83.5 139.428 83.5C139.921 83.5 140.321 83.6467 140.628 83.94C140.948 84.22 141.108 84.58 141.108 85.02C141.108 85.46 140.948 85.8267 140.628 86.12C140.321 86.4 139.921 86.54 139.428 86.54ZM143.496 102.4V87.92H145.896L146.196 89.32C146.409 89.0267 146.662 88.76 146.956 88.52C147.249 88.2667 147.596 88.0667 147.996 87.92C148.409 87.76 148.889 87.68 149.436 87.68C150.382 87.68 151.216 87.9133 151.936 88.38C152.656 88.8467 153.222 89.48 153.636 90.28C154.062 91.0667 154.276 91.9667 154.276 92.98C154.276 93.9933 154.062 94.9 153.636 95.7C153.209 96.4867 152.636 97.1067 151.916 97.56C151.196 98.0133 150.376 98.24 149.456 98.24C148.709 98.24 148.062 98.1067 147.516 97.84C146.982 97.56 146.542 97.18 146.196 96.7V102.4H143.496ZM148.816 95.88C149.349 95.88 149.816 95.76 150.216 95.52C150.629 95.28 150.949 94.94 151.176 94.5C151.402 94.06 151.516 93.5533 151.516 92.98C151.516 92.4067 151.402 91.9 151.176 91.46C150.949 91.0067 150.629 90.66 150.216 90.42C149.816 90.1667 149.349 90.04 148.816 90.04C148.296 90.04 147.829 90.1667 147.416 90.42C147.016 90.66 146.696 91 146.456 91.44C146.229 91.88 146.116 92.3867 146.116 92.96C146.116 93.5333 146.229 94.0467 146.456 94.5C146.696 94.94 147.016 95.28 147.416 95.52C147.829 95.76 148.296 95.88 148.816 95.88ZM160.751 98C160.044 98 159.424 97.8933 158.891 97.68C158.371 97.4533 157.964 97.0867 157.671 96.58C157.377 96.06 157.231 95.3533 157.231 94.46V90.18H155.511V87.92H157.231L157.531 85.18H159.931V87.92H162.591V90.18H159.931V94.5C159.931 94.9533 160.031 95.2667 160.231 95.44C160.431 95.6133 160.771 95.7 161.251 95.7H162.571V98H160.751ZM169.369 98.24C168.409 98.24 167.542 98.02 166.769 97.58C166.009 97.1267 165.402 96.5067 164.949 95.72C164.509 94.92 164.289 94.0067 164.289 92.98C164.289 91.9267 164.509 91.0067 164.949 90.22C165.402 89.42 166.016 88.8 166.789 88.36C167.562 87.9067 168.429 87.68 169.389 87.68C170.362 87.68 171.229 87.9067 171.989 88.36C172.762 88.8 173.369 89.42 173.809 90.22C174.262 91.0067 174.489 91.92 174.489 92.96C174.489 94 174.262 94.92 173.809 95.72C173.369 96.5067 172.762 97.1267 171.989 97.58C171.216 98.02 170.342 98.24 169.369 98.24ZM169.369 95.9C169.822 95.9 170.222 95.7933 170.569 95.58C170.929 95.3667 171.209 95.04 171.409 94.6C171.622 94.16 171.729 93.6133 171.729 92.96C171.729 92.3067 171.622 91.7667 171.409 91.34C171.209 90.9 170.929 90.5733 170.569 90.36C170.222 90.1333 169.829 90.02 169.389 90.02C168.962 90.02 168.569 90.1333 168.209 90.36C167.849 90.5733 167.562 90.9 167.349 91.34C167.149 91.7667 167.049 92.3067 167.049 92.96C167.049 93.6133 167.149 94.16 167.349 94.6C167.562 95.04 167.842 95.3667 168.189 95.58C168.549 95.7933 168.942 95.9 169.369 95.9ZM89.796 122V108H92.496V119.9H98.636V122H89.796ZM104.288 122.24C103.448 122.24 102.755 122.107 102.208 121.84C101.662 121.56 101.255 121.193 100.988 120.74C100.735 120.273 100.608 119.76 100.608 119.2C100.608 118.587 100.762 118.047 101.068 117.58C101.388 117.113 101.862 116.747 102.488 116.48C103.128 116.213 103.928 116.08 104.888 116.08H107.388C107.388 115.587 107.322 115.18 107.188 114.86C107.055 114.527 106.848 114.28 106.568 114.12C106.288 113.96 105.915 113.88 105.448 113.88C104.942 113.88 104.508 113.993 104.148 114.22C103.802 114.433 103.588 114.767 103.508 115.22H100.888C100.955 114.5 101.188 113.88 101.588 113.36C102.002 112.827 102.542 112.413 103.208 112.12C103.888 111.827 104.642 111.68 105.468 111.68C106.415 111.68 107.235 111.84 107.928 112.16C108.622 112.48 109.155 112.94 109.528 113.54C109.902 114.14 110.088 114.88 110.088 115.76V122H107.808L107.508 120.46C107.362 120.727 107.188 120.967 106.988 121.18C106.788 121.393 106.555 121.58 106.288 121.74C106.022 121.9 105.722 122.02 105.388 122.1C105.055 122.193 104.688 122.24 104.288 122.24ZM104.928 120.16C105.275 120.16 105.582 120.1 105.848 119.98C106.128 119.847 106.368 119.673 106.568 119.46C106.768 119.233 106.922 118.98 107.028 118.7C107.148 118.407 107.228 118.093 107.268 117.76V117.74H105.208C104.795 117.74 104.455 117.793 104.188 117.9C103.935 117.993 103.748 118.133 103.628 118.32C103.508 118.507 103.448 118.72 103.448 118.96C103.448 119.227 103.508 119.447 103.628 119.62C103.748 119.793 103.922 119.927 104.148 120.02C104.375 120.113 104.635 120.16 104.928 120.16ZM115.014 122L111.314 111.92H114.154L116.654 119.46L119.154 111.92H121.974L118.294 122H115.014ZM126.417 122.24C125.577 122.24 124.884 122.107 124.337 121.84C123.791 121.56 123.384 121.193 123.117 120.74C122.864 120.273 122.737 119.76 122.737 119.2C122.737 118.587 122.891 118.047 123.197 117.58C123.517 117.113 123.991 116.747 124.617 116.48C125.257 116.213 126.057 116.08 127.017 116.08H129.517C129.517 115.587 129.451 115.18 129.317 114.86C129.184 114.527 128.977 114.28 128.697 114.12C128.417 113.96 128.044 113.88 127.577 113.88C127.071 113.88 126.637 113.993 126.277 114.22C125.931 114.433 125.717 114.767 125.637 115.22H123.017C123.084 114.5 123.317 113.88 123.717 113.36C124.131 112.827 124.671 112.413 125.337 112.12C126.017 111.827 126.771 111.68 127.597 111.68C128.544 111.68 129.364 111.84 130.057 112.16C130.751 112.48 131.284 112.94 131.657 113.54C132.031 114.14 132.217 114.88 132.217 115.76V122H129.937L129.637 120.46C129.491 120.727 129.317 120.967 129.117 121.18C128.917 121.393 128.684 121.58 128.417 121.74C128.151 121.9 127.851 122.02 127.517 122.1C127.184 122.193 126.817 122.24 126.417 122.24ZM127.057 120.16C127.404 120.16 127.711 120.1 127.977 119.98C128.257 119.847 128.497 119.673 128.697 119.46C128.897 119.233 129.051 118.98 129.157 118.7C129.277 118.407 129.357 118.093 129.397 117.76V117.74H127.337C126.924 117.74 126.584 117.793 126.317 117.9C126.064 117.993 125.877 118.133 125.757 118.32C125.637 118.507 125.577 118.72 125.577 118.96C125.577 119.227 125.637 119.447 125.757 119.62C125.877 119.793 126.051 119.927 126.277 120.02C126.504 120.113 126.764 120.16 127.057 120.16ZM134.736 122V111.92H137.116L137.316 113.56C137.623 113 138.056 112.547 138.616 112.2C139.189 111.853 139.869 111.68 140.656 111.68C141.496 111.68 142.203 111.853 142.776 112.2C143.349 112.547 143.783 113.053 144.076 113.72C144.383 114.387 144.536 115.207 144.536 116.18V122H141.856V116.44C141.856 115.64 141.683 115.027 141.336 114.6C141.003 114.173 140.483 113.96 139.776 113.96C139.323 113.96 138.916 114.067 138.556 114.28C138.209 114.493 137.936 114.8 137.736 115.2C137.536 115.587 137.436 116.06 137.436 116.62V122H134.736ZM151.56 122.24C150.64 122.24 149.813 122.013 149.08 121.56C148.36 121.107 147.793 120.48 147.38 119.68C146.966 118.88 146.76 117.98 146.76 116.98C146.76 115.953 146.966 115.047 147.38 114.26C147.806 113.46 148.386 112.833 149.12 112.38C149.866 111.913 150.7 111.68 151.62 111.68C152.34 111.68 152.973 111.813 153.52 112.08C154.066 112.347 154.506 112.727 154.84 113.22V107.6H157.54V122H155.14L154.84 120.62C154.64 120.9 154.386 121.167 154.08 121.42C153.786 121.673 153.433 121.873 153.02 122.02C152.606 122.167 152.12 122.24 151.56 122.24ZM152.2 119.88C152.733 119.88 153.2 119.76 153.6 119.52C154.013 119.267 154.333 118.92 154.56 118.48C154.786 118.04 154.9 117.533 154.9 116.96C154.9 116.387 154.786 115.88 154.56 115.44C154.333 115 154.013 114.66 153.6 114.42C153.2 114.167 152.733 114.04 152.2 114.04C151.693 114.04 151.233 114.167 150.82 114.42C150.406 114.66 150.08 115 149.84 115.44C149.613 115.88 149.5 116.38 149.5 116.94C149.5 117.527 149.613 118.04 149.84 118.48C150.08 118.92 150.4 119.267 150.8 119.52C151.213 119.76 151.68 119.88 152.2 119.88ZM163.585 122.24C162.745 122.24 162.052 122.107 161.505 121.84C160.959 121.56 160.552 121.193 160.285 120.74C160.032 120.273 159.905 119.76 159.905 119.2C159.905 118.587 160.059 118.047 160.365 117.58C160.685 117.113 161.159 116.747 161.785 116.48C162.425 116.213 163.225 116.08 164.185 116.08H166.685C166.685 115.587 166.619 115.18 166.485 114.86C166.352 114.527 166.145 114.28 165.865 114.12C165.585 113.96 165.212 113.88 164.745 113.88C164.239 113.88 163.805 113.993 163.445 114.22C163.099 114.433 162.885 114.767 162.805 115.22H160.185C160.252 114.5 160.485 113.88 160.885 113.36C161.299 112.827 161.839 112.413 162.505 112.12C163.185 111.827 163.939 111.68 164.765 111.68C165.712 111.68 166.532 111.84 167.225 112.16C167.919 112.48 168.452 112.94 168.825 113.54C169.199 114.14 169.385 114.88 169.385 115.76V122H167.105L166.805 120.46C166.659 120.727 166.485 120.967 166.285 121.18C166.085 121.393 165.852 121.58 165.585 121.74C165.319 121.9 165.019 122.02 164.685 122.1C164.352 122.193 163.985 122.24 163.585 122.24ZM164.225 120.16C164.572 120.16 164.879 120.1 165.145 119.98C165.425 119.847 165.665 119.673 165.865 119.46C166.065 119.233 166.219 118.98 166.325 118.7C166.445 118.407 166.525 118.093 166.565 117.76V117.74H164.505C164.092 117.74 163.752 117.793 163.485 117.9C163.232 117.993 163.045 118.133 162.925 118.32C162.805 118.507 162.745 118.72 162.745 118.96C162.745 119.227 162.805 119.447 162.925 119.62C163.045 119.793 163.219 119.927 163.445 120.02C163.672 120.113 163.932 120.16 164.225 120.16ZM96.452 146.24C95.4386 146.24 94.532 146.067 93.732 145.72C92.9453 145.373 92.3186 144.867 91.852 144.2C91.3986 143.533 91.1653 142.727 91.152 141.78H94.012C94.0253 142.193 94.132 142.567 94.332 142.9C94.532 143.233 94.8053 143.5 95.152 143.7C95.512 143.887 95.9386 143.98 96.432 143.98C96.8586 143.98 97.2253 143.913 97.532 143.78C97.852 143.633 98.0986 143.433 98.272 143.18C98.4453 142.927 98.532 142.627 98.532 142.28C98.532 141.88 98.432 141.547 98.232 141.28C98.0453 141.013 97.7786 140.787 97.432 140.6C97.0986 140.413 96.7053 140.247 96.252 140.1C95.812 139.94 95.3453 139.773 94.852 139.6C93.7453 139.24 92.8986 138.76 92.312 138.16C91.7386 137.56 91.452 136.767 91.452 135.78C91.452 134.94 91.652 134.22 92.052 133.62C92.4653 133.02 93.032 132.56 93.752 132.24C94.472 131.92 95.292 131.76 96.212 131.76C97.1586 131.76 97.9853 131.927 98.692 132.26C99.412 132.58 99.9786 133.047 100.392 133.66C100.819 134.273 101.039 134.993 101.052 135.82H98.172C98.1586 135.513 98.0653 135.227 97.892 134.96C97.732 134.68 97.5053 134.46 97.212 134.3C96.9186 134.127 96.572 134.04 96.172 134.04C95.8253 134.027 95.5053 134.08 95.212 134.2C94.932 134.32 94.7053 134.5 94.532 134.74C94.372 134.967 94.292 135.253 94.292 135.6C94.292 135.933 94.372 136.213 94.532 136.44C94.7053 136.667 94.9386 136.867 95.232 137.04C95.5253 137.2 95.872 137.353 96.272 137.5C96.672 137.633 97.1053 137.773 97.572 137.92C98.2653 138.16 98.9053 138.447 99.492 138.78C100.079 139.1 100.545 139.52 100.892 140.04C101.239 140.56 101.412 141.247 101.412 142.1C101.412 142.833 101.219 143.513 100.832 144.14C100.445 144.767 99.8853 145.273 99.152 145.66C98.432 146.047 97.532 146.24 96.452 146.24ZM107.042 146.24C106.202 146.24 105.509 146.107 104.962 145.84C104.416 145.56 104.009 145.193 103.742 144.74C103.489 144.273 103.362 143.76 103.362 143.2C103.362 142.587 103.516 142.047 103.822 141.58C104.142 141.113 104.616 140.747 105.242 140.48C105.882 140.213 106.682 140.08 107.642 140.08H110.142C110.142 139.587 110.076 139.18 109.942 138.86C109.809 138.527 109.602 138.28 109.322 138.12C109.042 137.96 108.669 137.88 108.202 137.88C107.696 137.88 107.262 137.993 106.902 138.22C106.556 138.433 106.342 138.767 106.262 139.22H103.642C103.709 138.5 103.942 137.88 104.342 137.36C104.756 136.827 105.296 136.413 105.962 136.12C106.642 135.827 107.396 135.68 108.222 135.68C109.169 135.68 109.989 135.84 110.682 136.16C111.376 136.48 111.909 136.94 112.282 137.54C112.656 138.14 112.842 138.88 112.842 139.76V146H110.562L110.262 144.46C110.116 144.727 109.942 144.967 109.742 145.18C109.542 145.393 109.309 145.58 109.042 145.74C108.776 145.9 108.476 146.02 108.142 146.1C107.809 146.193 107.442 146.24 107.042 146.24ZM107.682 144.16C108.029 144.16 108.336 144.1 108.602 143.98C108.882 143.847 109.122 143.673 109.322 143.46C109.522 143.233 109.676 142.98 109.782 142.7C109.902 142.407 109.982 142.093 110.022 141.76V141.74H107.962C107.549 141.74 107.209 141.793 106.942 141.9C106.689 141.993 106.502 142.133 106.382 142.32C106.262 142.507 106.202 142.72 106.202 142.96C106.202 143.227 106.262 143.447 106.382 143.62C106.502 143.793 106.676 143.927 106.902 144.02C107.129 144.113 107.389 144.16 107.682 144.16ZM105.162 135V133.08L108.122 131.48L111.062 133.08V135L108.122 133.36L105.162 135ZM115.361 146V135.92H117.741L117.941 137.56C118.248 137 118.681 136.547 119.241 136.2C119.814 135.853 120.494 135.68 121.281 135.68C122.121 135.68 122.828 135.853 123.401 136.2C123.974 136.547 124.408 137.053 124.701 137.72C125.008 138.387 125.161 139.207 125.161 140.18V146H122.481V140.44C122.481 139.64 122.308 139.027 121.961 138.6C121.628 138.173 121.108 137.96 120.401 137.96C119.948 137.96 119.541 138.067 119.181 138.28C118.834 138.493 118.561 138.8 118.361 139.2C118.161 139.587 118.061 140.06 118.061 140.62V146H115.361ZM132.185 146.24C131.265 146.24 130.438 146.013 129.705 145.56C128.985 145.107 128.418 144.48 128.005 143.68C127.591 142.88 127.385 141.98 127.385 140.98C127.385 139.953 127.591 139.047 128.005 138.26C128.431 137.46 129.011 136.833 129.745 136.38C130.491 135.913 131.325 135.68 132.245 135.68C132.965 135.68 133.598 135.813 134.145 136.08C134.691 136.347 135.131 136.727 135.465 137.22V131.6H138.165V146H135.765L135.465 144.62C135.265 144.9 135.011 145.167 134.705 145.42C134.411 145.673 134.058 145.873 133.645 146.02C133.231 146.167 132.745 146.24 132.185 146.24ZM132.825 143.88C133.358 143.88 133.825 143.76 134.225 143.52C134.638 143.267 134.958 142.92 135.185 142.48C135.411 142.04 135.525 141.533 135.525 140.96C135.525 140.387 135.411 139.88 135.185 139.44C134.958 139 134.638 138.66 134.225 138.42C133.825 138.167 133.358 138.04 132.825 138.04C132.318 138.04 131.858 138.167 131.445 138.42C131.031 138.66 130.705 139 130.465 139.44C130.238 139.88 130.125 140.38 130.125 140.94C130.125 141.527 130.238 142.04 130.465 142.48C130.705 142.92 131.025 143.267 131.425 143.52C131.838 143.76 132.305 143.88 132.825 143.88ZM144.21 146.24C143.37 146.24 142.677 146.107 142.13 145.84C141.584 145.56 141.177 145.193 140.91 144.74C140.657 144.273 140.53 143.76 140.53 143.2C140.53 142.587 140.684 142.047 140.99 141.58C141.31 141.113 141.784 140.747 142.41 140.48C143.05 140.213 143.85 140.08 144.81 140.08H147.31C147.31 139.587 147.244 139.18 147.11 138.86C146.977 138.527 146.77 138.28 146.49 138.12C146.21 137.96 145.837 137.88 145.37 137.88C144.864 137.88 144.43 137.993 144.07 138.22C143.724 138.433 143.51 138.767 143.43 139.22H140.81C140.877 138.5 141.11 137.88 141.51 137.36C141.924 136.827 142.464 136.413 143.13 136.12C143.81 135.827 144.564 135.68 145.39 135.68C146.337 135.68 147.157 135.84 147.85 136.16C148.544 136.48 149.077 136.94 149.45 137.54C149.824 138.14 150.01 138.88 150.01 139.76V146H147.73L147.43 144.46C147.284 144.727 147.11 144.967 146.91 145.18C146.71 145.393 146.477 145.58 146.21 145.74C145.944 145.9 145.644 146.02 145.31 146.1C144.977 146.193 144.61 146.24 144.21 146.24ZM144.85 144.16C145.197 144.16 145.504 144.1 145.77 143.98C146.05 143.847 146.29 143.673 146.49 143.46C146.69 143.233 146.844 142.98 146.95 142.7C147.07 142.407 147.15 142.093 147.19 141.76V141.74H145.13C144.717 141.74 144.377 141.793 144.11 141.9C143.857 141.993 143.67 142.133 143.55 142.32C143.43 142.507 143.37 142.72 143.37 142.96C143.37 143.227 143.43 143.447 143.55 143.62C143.67 143.793 143.844 143.927 144.07 144.02C144.297 144.113 144.557 144.16 144.85 144.16ZM152.529 146V131.6H155.229V146H152.529ZM162.621 146.24C161.661 146.24 160.794 146.02 160.021 145.58C159.261 145.127 158.654 144.507 158.201 143.72C157.761 142.92 157.541 142.007 157.541 140.98C157.541 139.927 157.761 139.007 158.201 138.22C158.654 137.42 159.268 136.8 160.041 136.36C160.814 135.907 161.681 135.68 162.641 135.68C163.614 135.68 164.481 135.907 165.241 136.36C166.014 136.8 166.621 137.42 167.061 138.22C167.514 139.007 167.741 139.92 167.741 140.96C167.741 142 167.514 142.92 167.061 143.72C166.621 144.507 166.014 145.127 165.241 145.58C164.468 146.02 163.594 146.24 162.621 146.24ZM162.621 143.9C163.074 143.9 163.474 143.793 163.821 143.58C164.181 143.367 164.461 143.04 164.661 142.6C164.874 142.16 164.981 141.613 164.981 140.96C164.981 140.307 164.874 139.767 164.661 139.34C164.461 138.9 164.181 138.573 163.821 138.36C163.474 138.133 163.081 138.02 162.641 138.02C162.214 138.02 161.821 138.133 161.461 138.36C161.101 138.573 160.814 138.9 160.601 139.34C160.401 139.767 160.301 140.307 160.301 140.96C160.301 141.613 160.401 142.16 160.601 142.6C160.814 143.04 161.094 143.367 161.441 143.58C161.801 143.793 162.194 143.9 162.621 143.9Z" fill="#6A5ACD"/>
<defs>
<filter id="filter0_f_329_509" x="163.755" y="10.1162" width="78.6514" height="177.14" filterUnits="userSpaceOnUse" color-interpolation-filters="sRGB">
<feFlood flood-opacity="0" result="BackgroundImageFix"/>
<feBlend mode="normal" in="SourceGraphic" in2="BackgroundImageFix" result="shape"/>
<feGaussianBlur stdDeviation="15" result="effect1_foregroundBlur_329_509"/>
</filter>
<filter id="filter1_f_329_509" x="0.760254" y="20.605" width="219.681" height="218.744" filterUnits="userSpaceOnUse" color-interpolation-filters="sRGB">
<feFlood flood-opacity="0" result="BackgroundImageFix"/>
<feBlend mode="normal" in="SourceGraphic" in2="BackgroundImageFix" result="shape"/>
<feGaussianBlur stdDeviation="25" result="effect1_foregroundBlur_329_509"/>
</filter>
<linearGradient id="paint0_linear_329_509" x1="188.694" y1="207" x2="21.2126" y2="-75.993" gradientUnits="userSpaceOnUse">
<stop stop-color="#A1A4F3"/>
<stop offset="0.992945" stop-color="white" stop-opacity="0.86"/>
</linearGradient>
</defs>
</svg>
