<svg width="243" height="240" viewBox="0 0 243 240" fill="none" xmlns="http://www.w3.org/2000/svg">
<g filter="url(#filter0_f_329_274)">
<ellipse cx="203.081" cy="98.6862" rx="9.32577" ry="58.5698" fill="#050259" fill-opacity="0.5" style="mix-blend-mode:overlay"/>
</g>
<ellipse cx="129.252" cy="103.5" rx="100.252" ry="103.5" fill="url(#paint0_linear_329_274)"/>
<g filter="url(#filter1_f_329_274)">
<ellipse cx="110.601" cy="129.977" rx="59.8404" ry="59.3721" fill="#A1A4F3" fill-opacity="0.2"/>
</g>
<path d="M96.452 74.24C95.4386 74.24 94.532 74.0667 93.732 73.72C92.9453 73.3733 92.3186 72.8667 91.852 72.2C91.3986 71.5333 91.1653 70.7267 91.152 69.78H94.012C94.0253 70.1933 94.132 70.5667 94.332 70.9C94.532 71.2333 94.8053 71.5 95.152 71.7C95.512 71.8867 95.9386 71.98 96.432 71.98C96.8586 71.98 97.2253 71.9133 97.532 71.78C97.852 71.6333 98.0986 71.4333 98.272 71.18C98.4453 70.9267 98.532 70.6267 98.532 70.28C98.532 69.88 98.432 69.5467 98.232 69.28C98.0453 69.0133 97.7786 68.7867 97.432 68.6C97.0986 68.4133 96.7053 68.2467 96.252 68.1C95.812 67.94 95.3453 67.7733 94.852 67.6C93.7453 67.24 92.8986 66.76 92.312 66.16C91.7386 65.56 91.452 64.7667 91.452 63.78C91.452 62.94 91.652 62.22 92.052 61.62C92.4653 61.02 93.032 60.56 93.752 60.24C94.472 59.92 95.292 59.76 96.212 59.76C97.1586 59.76 97.9853 59.9267 98.692 60.26C99.412 60.58 99.9786 61.0467 100.392 61.66C100.819 62.2733 101.039 62.9933 101.052 63.82H98.172C98.1586 63.5133 98.0653 63.2267 97.892 62.96C97.732 62.68 97.5053 62.46 97.212 62.3C96.9186 62.1267 96.572 62.04 96.172 62.04C95.8253 62.0267 95.5053 62.08 95.212 62.2C94.932 62.32 94.7053 62.5 94.532 62.74C94.372 62.9667 94.292 63.2533 94.292 63.6C94.292 63.9333 94.372 64.2133 94.532 64.44C94.7053 64.6667 94.9386 64.8667 95.232 65.04C95.5253 65.2 95.872 65.3533 96.272 65.5C96.672 65.6333 97.1053 65.7733 97.572 65.92C98.2653 66.16 98.9053 66.4467 99.492 66.78C100.079 67.1 100.545 67.52 100.892 68.04C101.239 68.56 101.412 69.2467 101.412 70.1C101.412 70.8333 101.219 71.5133 100.832 72.14C100.445 72.7667 99.8853 73.2733 99.152 73.66C98.432 74.0467 97.532 74.24 96.452 74.24ZM107.042 74.24C106.202 74.24 105.509 74.1067 104.962 73.84C104.416 73.56 104.009 73.1933 103.742 72.74C103.489 72.2733 103.362 71.76 103.362 71.2C103.362 70.5867 103.516 70.0467 103.822 69.58C104.142 69.1133 104.616 68.7467 105.242 68.48C105.882 68.2133 106.682 68.08 107.642 68.08H110.142C110.142 67.5867 110.076 67.18 109.942 66.86C109.809 66.5267 109.602 66.28 109.322 66.12C109.042 65.96 108.669 65.88 108.202 65.88C107.696 65.88 107.262 65.9933 106.902 66.22C106.556 66.4333 106.342 66.7667 106.262 67.22H103.642C103.709 66.5 103.942 65.88 104.342 65.36C104.756 64.8267 105.296 64.4133 105.962 64.12C106.642 63.8267 107.396 63.68 108.222 63.68C109.169 63.68 109.989 63.84 110.682 64.16C111.376 64.48 111.909 64.94 112.282 65.54C112.656 66.14 112.842 66.88 112.842 67.76V74H110.562L110.262 72.46C110.116 72.7267 109.942 72.9667 109.742 73.18C109.542 73.3933 109.309 73.58 109.042 73.74C108.776 73.9 108.476 74.02 108.142 74.1C107.809 74.1933 107.442 74.24 107.042 74.24ZM107.682 72.16C108.029 72.16 108.336 72.1 108.602 71.98C108.882 71.8467 109.122 71.6733 109.322 71.46C109.522 71.2333 109.676 70.98 109.782 70.7C109.902 70.4067 109.982 70.0933 110.022 69.76V69.74H107.962C107.549 69.74 107.209 69.7933 106.942 69.9C106.689 69.9933 106.502 70.1333 106.382 70.32C106.262 70.5067 106.202 70.72 106.202 70.96C106.202 71.2267 106.262 71.4467 106.382 71.62C106.502 71.7933 106.676 71.9267 106.902 72.02C107.129 72.1133 107.389 72.16 107.682 72.16ZM105.162 63V61.08L108.122 59.48L111.062 61.08V63L108.122 61.36L105.162 63ZM115.361 74V63.92H117.741L117.941 65.56C118.248 65 118.681 64.5467 119.241 64.2C119.814 63.8533 120.494 63.68 121.281 63.68C122.121 63.68 122.828 63.8533 123.401 64.2C123.974 64.5467 124.408 65.0533 124.701 65.72C125.008 66.3867 125.161 67.2067 125.161 68.18V74H122.481V68.44C122.481 67.64 122.308 67.0267 121.961 66.6C121.628 66.1733 121.108 65.96 120.401 65.96C119.948 65.96 119.541 66.0667 119.181 66.28C118.834 66.4933 118.561 66.8 118.361 67.2C118.161 67.5867 118.061 68.06 118.061 68.62V74H115.361ZM132.185 74.24C131.265 74.24 130.438 74.0133 129.705 73.56C128.985 73.1067 128.418 72.48 128.005 71.68C127.591 70.88 127.385 69.98 127.385 68.98C127.385 67.9533 127.591 67.0467 128.005 66.26C128.431 65.46 129.011 64.8333 129.745 64.38C130.491 63.9133 131.325 63.68 132.245 63.68C132.965 63.68 133.598 63.8133 134.145 64.08C134.691 64.3467 135.131 64.7267 135.465 65.22V59.6H138.165V74H135.765L135.465 72.62C135.265 72.9 135.011 73.1667 134.705 73.42C134.411 73.6733 134.058 73.8733 133.645 74.02C133.231 74.1667 132.745 74.24 132.185 74.24ZM132.825 71.88C133.358 71.88 133.825 71.76 134.225 71.52C134.638 71.2667 134.958 70.92 135.185 70.48C135.411 70.04 135.525 69.5333 135.525 68.96C135.525 68.3867 135.411 67.88 135.185 67.44C134.958 67 134.638 66.66 134.225 66.42C133.825 66.1667 133.358 66.04 132.825 66.04C132.318 66.04 131.858 66.1667 131.445 66.42C131.031 66.66 130.705 67 130.465 67.44C130.238 67.88 130.125 68.38 130.125 68.94C130.125 69.5267 130.238 70.04 130.465 70.48C130.705 70.92 131.025 71.2667 131.425 71.52C131.838 71.76 132.305 71.88 132.825 71.88ZM144.21 74.24C143.37 74.24 142.677 74.1067 142.13 73.84C141.584 73.56 141.177 73.1933 140.91 72.74C140.657 72.2733 140.53 71.76 140.53 71.2C140.53 70.5867 140.684 70.0467 140.99 69.58C141.31 69.1133 141.784 68.7467 142.41 68.48C143.05 68.2133 143.85 68.08 144.81 68.08H147.31C147.31 67.5867 147.244 67.18 147.11 66.86C146.977 66.5267 146.77 66.28 146.49 66.12C146.21 65.96 145.837 65.88 145.37 65.88C144.864 65.88 144.43 65.9933 144.07 66.22C143.724 66.4333 143.51 66.7667 143.43 67.22H140.81C140.877 66.5 141.11 65.88 141.51 65.36C141.924 64.8267 142.464 64.4133 143.13 64.12C143.81 63.8267 144.564 63.68 145.39 63.68C146.337 63.68 147.157 63.84 147.85 64.16C148.544 64.48 149.077 64.94 149.45 65.54C149.824 66.14 150.01 66.88 150.01 67.76V74H147.73L147.43 72.46C147.284 72.7267 147.11 72.9667 146.91 73.18C146.71 73.3933 146.477 73.58 146.21 73.74C145.944 73.9 145.644 74.02 145.31 74.1C144.977 74.1933 144.61 74.24 144.21 74.24ZM144.85 72.16C145.197 72.16 145.504 72.1 145.77 71.98C146.05 71.8467 146.29 71.6733 146.49 71.46C146.69 71.2333 146.844 70.98 146.95 70.7C147.07 70.4067 147.15 70.0933 147.19 69.76V69.74H145.13C144.717 69.74 144.377 69.7933 144.11 69.9C143.857 69.9933 143.67 70.1333 143.55 70.32C143.43 70.5067 143.37 70.72 143.37 70.96C143.37 71.2267 143.43 71.4467 143.55 71.62C143.67 71.7933 143.844 71.9267 144.07 72.02C144.297 72.1133 144.557 72.16 144.85 72.16ZM152.529 74V59.6H155.229V74H152.529ZM162.621 74.24C161.661 74.24 160.794 74.02 160.021 73.58C159.261 73.1267 158.654 72.5067 158.201 71.72C157.761 70.92 157.541 70.0067 157.541 68.98C157.541 67.9267 157.761 67.0067 158.201 66.22C158.654 65.42 159.268 64.8 160.041 64.36C160.814 63.9067 161.681 63.68 162.641 63.68C163.614 63.68 164.481 63.9067 165.241 64.36C166.014 64.8 166.621 65.42 167.061 66.22C167.514 67.0067 167.741 67.92 167.741 68.96C167.741 70 167.514 70.92 167.061 71.72C166.621 72.5067 166.014 73.1267 165.241 73.58C164.468 74.02 163.594 74.24 162.621 74.24ZM162.621 71.9C163.074 71.9 163.474 71.7933 163.821 71.58C164.181 71.3667 164.461 71.04 164.661 70.6C164.874 70.16 164.981 69.6133 164.981 68.96C164.981 68.3067 164.874 67.7667 164.661 67.34C164.461 66.9 164.181 66.5733 163.821 66.36C163.474 66.1333 163.081 66.02 162.641 66.02C162.214 66.02 161.821 66.1333 161.461 66.36C161.101 66.5733 160.814 66.9 160.601 67.34C160.401 67.7667 160.301 68.3067 160.301 68.96C160.301 69.6133 160.401 70.16 160.601 70.6C160.814 71.04 161.094 71.3667 161.441 71.58C161.801 71.7933 162.194 71.9 162.621 71.9ZM107.092 98.24C105.692 98.24 104.485 97.94 103.472 97.34C102.472 96.7267 101.698 95.88 101.152 94.8C100.618 93.7067 100.352 92.4467 100.352 91.02C100.352 89.5933 100.618 88.3333 101.152 87.24C101.698 86.1467 102.472 85.2933 103.472 84.68C104.485 84.0667 105.692 83.76 107.092 83.76C108.785 83.76 110.172 84.18 111.252 85.02C112.332 85.86 113.005 87.0467 113.272 88.58H110.332C110.158 87.8333 109.792 87.2533 109.232 86.84C108.685 86.4133 107.965 86.2 107.072 86.2C106.245 86.2 105.532 86.4 104.932 86.8C104.345 87.1867 103.892 87.74 103.572 88.46C103.252 89.1667 103.092 90.02 103.092 91.02C103.092 92.0067 103.252 92.86 103.572 93.58C103.892 94.3 104.345 94.8533 104.932 95.24C105.532 95.6267 106.245 95.82 107.072 95.82C107.965 95.82 108.685 95.6267 109.232 95.24C109.778 94.84 110.138 94.2867 110.312 93.58H113.272C113.005 95.0333 112.332 96.1733 111.252 97C110.172 97.8267 108.785 98.24 107.092 98.24ZM120.357 98.24C119.344 98.24 118.444 98.0267 117.657 97.6C116.884 97.16 116.277 96.5533 115.837 95.78C115.411 94.9933 115.197 94.0867 115.197 93.06C115.197 92.0067 115.411 91.08 115.837 90.28C116.277 89.4667 116.884 88.8333 117.657 88.38C118.431 87.9133 119.331 87.68 120.357 87.68C121.357 87.68 122.231 87.9 122.977 88.34C123.724 88.78 124.304 89.3733 124.717 90.12C125.131 90.8667 125.337 91.7133 125.337 92.66C125.337 92.7933 125.337 92.9467 125.337 93.12C125.337 93.28 125.324 93.4467 125.297 93.62H117.117V91.98H122.617C122.577 91.3267 122.344 90.8133 121.917 90.44C121.504 90.0667 120.984 89.88 120.357 89.88C119.904 89.88 119.484 89.9867 119.097 90.2C118.711 90.4 118.404 90.7133 118.177 91.14C117.964 91.5667 117.857 92.1067 117.857 92.76V93.34C117.857 93.8867 117.957 94.3667 118.157 94.78C118.371 95.18 118.664 95.4933 119.037 95.72C119.411 95.9333 119.844 96.04 120.337 96.04C120.831 96.04 121.237 95.9333 121.557 95.72C121.891 95.5067 122.137 95.2333 122.297 94.9H125.057C124.871 95.5267 124.557 96.0933 124.117 96.6C123.677 97.1067 123.137 97.5067 122.497 97.8C121.857 98.0933 121.144 98.24 120.357 98.24ZM132.029 98.24C131.109 98.24 130.282 98.0133 129.549 97.56C128.829 97.1067 128.262 96.48 127.849 95.68C127.435 94.88 127.229 93.98 127.229 92.98C127.229 91.9533 127.435 91.0467 127.849 90.26C128.275 89.46 128.855 88.8333 129.589 88.38C130.335 87.9133 131.169 87.68 132.089 87.68C132.809 87.68 133.442 87.8133 133.989 88.08C134.535 88.3467 134.975 88.7267 135.309 89.22V83.6H138.009V98H135.609L135.309 96.62C135.109 96.9 134.855 97.1667 134.549 97.42C134.255 97.6733 133.902 97.8733 133.489 98.02C133.075 98.1667 132.589 98.24 132.029 98.24ZM132.669 95.88C133.202 95.88 133.669 95.76 134.069 95.52C134.482 95.2667 134.802 94.92 135.029 94.48C135.255 94.04 135.369 93.5333 135.369 92.96C135.369 92.3867 135.255 91.88 135.029 91.44C134.802 91 134.482 90.66 134.069 90.42C133.669 90.1667 133.202 90.04 132.669 90.04C132.162 90.04 131.702 90.1667 131.289 90.42C130.875 90.66 130.549 91 130.309 91.44C130.082 91.88 129.969 92.38 129.969 92.94C129.969 93.5267 130.082 94.04 130.309 94.48C130.549 94.92 130.869 95.2667 131.269 95.52C131.682 95.76 132.149 95.88 132.669 95.88ZM140.654 98V87.92H143.054L143.314 89.78C143.554 89.34 143.854 88.9667 144.214 88.66C144.587 88.3533 145.007 88.1133 145.474 87.94C145.954 87.7667 146.481 87.68 147.054 87.68V90.54H146.134C145.734 90.54 145.361 90.5867 145.014 90.68C144.681 90.7733 144.387 90.9267 144.134 91.14C143.881 91.34 143.687 91.62 143.554 91.98C143.421 92.34 143.354 92.7933 143.354 93.34V98H140.654ZM153.441 98.24C152.481 98.24 151.615 98.02 150.841 97.58C150.081 97.1267 149.475 96.5067 149.021 95.72C148.581 94.92 148.361 94.0067 148.361 92.98C148.361 91.9267 148.581 91.0067 149.021 90.22C149.475 89.42 150.088 88.8 150.861 88.36C151.635 87.9067 152.501 87.68 153.461 87.68C154.435 87.68 155.301 87.9067 156.061 88.36C156.835 88.8 157.441 89.42 157.881 90.22C158.335 91.0067 158.561 91.92 158.561 92.96C158.561 94 158.335 94.92 157.881 95.72C157.441 96.5067 156.835 97.1267 156.061 97.58C155.288 98.02 154.415 98.24 153.441 98.24ZM153.441 95.9C153.895 95.9 154.295 95.7933 154.641 95.58C155.001 95.3667 155.281 95.04 155.481 94.6C155.695 94.16 155.801 93.6133 155.801 92.96C155.801 92.3067 155.695 91.7667 155.481 91.34C155.281 90.9 155.001 90.5733 154.641 90.36C154.295 90.1333 153.901 90.02 153.461 90.02C153.035 90.02 152.641 90.1333 152.281 90.36C151.921 90.5733 151.635 90.9 151.421 91.34C151.221 91.7667 151.121 92.3067 151.121 92.96C151.121 93.6133 151.221 94.16 151.421 94.6C151.635 95.04 151.915 95.3667 152.261 95.58C152.621 95.7933 153.015 95.9 153.441 95.9ZM89.796 122V108H92.496V119.9H98.636V122H89.796ZM104.288 122.24C103.448 122.24 102.755 122.107 102.208 121.84C101.662 121.56 101.255 121.193 100.988 120.74C100.735 120.273 100.608 119.76 100.608 119.2C100.608 118.587 100.762 118.047 101.068 117.58C101.388 117.113 101.862 116.747 102.488 116.48C103.128 116.213 103.928 116.08 104.888 116.08H107.388C107.388 115.587 107.322 115.18 107.188 114.86C107.055 114.527 106.848 114.28 106.568 114.12C106.288 113.96 105.915 113.88 105.448 113.88C104.942 113.88 104.508 113.993 104.148 114.22C103.802 114.433 103.588 114.767 103.508 115.22H100.888C100.955 114.5 101.188 113.88 101.588 113.36C102.002 112.827 102.542 112.413 103.208 112.12C103.888 111.827 104.642 111.68 105.468 111.68C106.415 111.68 107.235 111.84 107.928 112.16C108.622 112.48 109.155 112.94 109.528 113.54C109.902 114.14 110.088 114.88 110.088 115.76V122H107.808L107.508 120.46C107.362 120.727 107.188 120.967 106.988 121.18C106.788 121.393 106.555 121.58 106.288 121.74C106.022 121.9 105.722 122.02 105.388 122.1C105.055 122.193 104.688 122.24 104.288 122.24ZM104.928 120.16C105.275 120.16 105.582 120.1 105.848 119.98C106.128 119.847 106.368 119.673 106.568 119.46C106.768 119.233 106.922 118.98 107.028 118.7C107.148 118.407 107.228 118.093 107.268 117.76V117.74H105.208C104.795 117.74 104.455 117.793 104.188 117.9C103.935 117.993 103.748 118.133 103.628 118.32C103.508 118.507 103.448 118.72 103.448 118.96C103.448 119.227 103.508 119.447 103.628 119.62C103.748 119.793 103.922 119.927 104.148 120.02C104.375 120.113 104.635 120.16 104.928 120.16ZM115.014 122L111.314 111.92H114.154L116.654 119.46L119.154 111.92H121.974L118.294 122H115.014ZM126.417 122.24C125.577 122.24 124.884 122.107 124.337 121.84C123.791 121.56 123.384 121.193 123.117 120.74C122.864 120.273 122.737 119.76 122.737 119.2C122.737 118.587 122.891 118.047 123.197 117.58C123.517 117.113 123.991 116.747 124.617 116.48C125.257 116.213 126.057 116.08 127.017 116.08H129.517C129.517 115.587 129.451 115.18 129.317 114.86C129.184 114.527 128.977 114.28 128.697 114.12C128.417 113.96 128.044 113.88 127.577 113.88C127.071 113.88 126.637 113.993 126.277 114.22C125.931 114.433 125.717 114.767 125.637 115.22H123.017C123.084 114.5 123.317 113.88 123.717 113.36C124.131 112.827 124.671 112.413 125.337 112.12C126.017 111.827 126.771 111.68 127.597 111.68C128.544 111.68 129.364 111.84 130.057 112.16C130.751 112.48 131.284 112.94 131.657 113.54C132.031 114.14 132.217 114.88 132.217 115.76V122H129.937L129.637 120.46C129.491 120.727 129.317 120.967 129.117 121.18C128.917 121.393 128.684 121.58 128.417 121.74C128.151 121.9 127.851 122.02 127.517 122.1C127.184 122.193 126.817 122.24 126.417 122.24ZM127.057 120.16C127.404 120.16 127.711 120.1 127.977 119.98C128.257 119.847 128.497 119.673 128.697 119.46C128.897 119.233 129.051 118.98 129.157 118.7C129.277 118.407 129.357 118.093 129.397 117.76V117.74H127.337C126.924 117.74 126.584 117.793 126.317 117.9C126.064 117.993 125.877 118.133 125.757 118.32C125.637 118.507 125.577 118.72 125.577 118.96C125.577 119.227 125.637 119.447 125.757 119.62C125.877 119.793 126.051 119.927 126.277 120.02C126.504 120.113 126.764 120.16 127.057 120.16ZM134.736 122V111.92H137.116L137.316 113.56C137.623 113 138.056 112.547 138.616 112.2C139.189 111.853 139.869 111.68 140.656 111.68C141.496 111.68 142.203 111.853 142.776 112.2C143.349 112.547 143.783 113.053 144.076 113.72C144.383 114.387 144.536 115.207 144.536 116.18V122H141.856V116.44C141.856 115.64 141.683 115.027 141.336 114.6C141.003 114.173 140.483 113.96 139.776 113.96C139.323 113.96 138.916 114.067 138.556 114.28C138.209 114.493 137.936 114.8 137.736 115.2C137.536 115.587 137.436 116.06 137.436 116.62V122H134.736ZM151.56 122.24C150.64 122.24 149.813 122.013 149.08 121.56C148.36 121.107 147.793 120.48 147.38 119.68C146.966 118.88 146.76 117.98 146.76 116.98C146.76 115.953 146.966 115.047 147.38 114.26C147.806 113.46 148.386 112.833 149.12 112.38C149.866 111.913 150.7 111.68 151.62 111.68C152.34 111.68 152.973 111.813 153.52 112.08C154.066 112.347 154.506 112.727 154.84 113.22V107.6H157.54V122H155.14L154.84 120.62C154.64 120.9 154.386 121.167 154.08 121.42C153.786 121.673 153.433 121.873 153.02 122.02C152.606 122.167 152.12 122.24 151.56 122.24ZM152.2 119.88C152.733 119.88 153.2 119.76 153.6 119.52C154.013 119.267 154.333 118.92 154.56 118.48C154.786 118.04 154.9 117.533 154.9 116.96C154.9 116.387 154.786 115.88 154.56 115.44C154.333 115 154.013 114.66 153.6 114.42C153.2 114.167 152.733 114.04 152.2 114.04C151.693 114.04 151.233 114.167 150.82 114.42C150.406 114.66 150.08 115 149.84 115.44C149.613 115.88 149.5 116.38 149.5 116.94C149.5 117.527 149.613 118.04 149.84 118.48C150.08 118.92 150.4 119.267 150.8 119.52C151.213 119.76 151.68 119.88 152.2 119.88ZM163.585 122.24C162.745 122.24 162.052 122.107 161.505 121.84C160.959 121.56 160.552 121.193 160.285 120.74C160.032 120.273 159.905 119.76 159.905 119.2C159.905 118.587 160.059 118.047 160.365 117.58C160.685 117.113 161.159 116.747 161.785 116.48C162.425 116.213 163.225 116.08 164.185 116.08H166.685C166.685 115.587 166.619 115.18 166.485 114.86C166.352 114.527 166.145 114.28 165.865 114.12C165.585 113.96 165.212 113.88 164.745 113.88C164.239 113.88 163.805 113.993 163.445 114.22C163.099 114.433 162.885 114.767 162.805 115.22H160.185C160.252 114.5 160.485 113.88 160.885 113.36C161.299 112.827 161.839 112.413 162.505 112.12C163.185 111.827 163.939 111.68 164.765 111.68C165.712 111.68 166.532 111.84 167.225 112.16C167.919 112.48 168.452 112.94 168.825 113.54C169.199 114.14 169.385 114.88 169.385 115.76V122H167.105L166.805 120.46C166.659 120.727 166.485 120.967 166.285 121.18C166.085 121.393 165.852 121.58 165.585 121.74C165.319 121.9 165.019 122.02 164.685 122.1C164.352 122.193 163.985 122.24 163.585 122.24ZM164.225 120.16C164.572 120.16 164.879 120.1 165.145 119.98C165.425 119.847 165.665 119.673 165.865 119.46C166.065 119.233 166.219 118.98 166.325 118.7C166.445 118.407 166.525 118.093 166.565 117.76V117.74H164.505C164.092 117.74 163.752 117.793 163.485 117.9C163.232 117.993 163.045 118.133 162.925 118.32C162.805 118.507 162.745 118.72 162.745 118.96C162.745 119.227 162.805 119.447 162.925 119.62C163.045 119.793 163.219 119.927 163.445 120.02C163.672 120.113 163.932 120.16 164.225 120.16ZM56.7801 146V132H59.4801V146H56.7801ZM47.9601 146V132H50.6601V146H47.9601ZM50.2801 139.94V137.76H57.2401V139.94H50.2801ZM66.9374 146.24C65.9774 146.24 65.1108 146.02 64.3374 145.58C63.5774 145.127 62.9708 144.507 62.5174 143.72C62.0774 142.92 61.8574 142.007 61.8574 140.98C61.8574 139.927 62.0774 139.007 62.5174 138.22C62.9708 137.42 63.5841 136.8 64.3574 136.36C65.1308 135.907 65.9974 135.68 66.9574 135.68C67.9308 135.68 68.7974 135.907 69.5574 136.36C70.3308 136.8 70.9374 137.42 71.3774 138.22C71.8308 139.007 72.0574 139.92 72.0574 140.96C72.0574 142 71.8308 142.92 71.3774 143.72C70.9374 144.507 70.3308 145.127 69.5574 145.58C68.7841 146.02 67.9108 146.24 66.9374 146.24ZM66.9374 143.9C67.3908 143.9 67.7908 143.793 68.1374 143.58C68.4974 143.367 68.7774 143.04 68.9774 142.6C69.1908 142.16 69.2974 141.613 69.2974 140.96C69.2974 140.307 69.1908 139.767 68.9774 139.34C68.7774 138.9 68.4974 138.573 68.1374 138.36C67.7908 138.133 67.3974 138.02 66.9574 138.02C66.5308 138.02 66.1374 138.133 65.7774 138.36C65.4174 138.573 65.1308 138.9 64.9174 139.34C64.7174 139.767 64.6174 140.307 64.6174 140.96C64.6174 141.613 64.7174 142.16 64.9174 142.6C65.1308 143.04 65.4108 143.367 65.7574 143.58C66.1174 143.793 66.5108 143.9 66.9374 143.9ZM74.3845 146V135.92H76.7845L77.0445 137.78C77.2845 137.34 77.5845 136.967 77.9445 136.66C78.3178 136.353 78.7378 136.113 79.2045 135.94C79.6845 135.767 80.2111 135.68 80.7845 135.68V138.54H79.8645C79.4645 138.54 79.0911 138.587 78.7445 138.68C78.4111 138.773 78.1178 138.927 77.8645 139.14C77.6111 139.34 77.4178 139.62 77.2845 139.98C77.1511 140.34 77.0845 140.793 77.0845 141.34V146H74.3845ZM87.108 146C86.4014 146 85.7814 145.893 85.248 145.68C84.728 145.453 84.3214 145.087 84.028 144.58C83.7347 144.06 83.588 143.353 83.588 142.46V138.18H81.868V135.92H83.588L83.888 133.18H86.288V135.92H88.948V138.18H86.288V142.5C86.288 142.953 86.388 143.267 86.588 143.44C86.788 143.613 87.128 143.7 87.608 143.7H88.928V146H87.108ZM95.8065 146.24C94.7932 146.24 93.8932 146.027 93.1065 145.6C92.3332 145.16 91.7265 144.553 91.2865 143.78C90.8598 142.993 90.6465 142.087 90.6465 141.06C90.6465 140.007 90.8598 139.08 91.2865 138.28C91.7265 137.467 92.3332 136.833 93.1065 136.38C93.8798 135.913 94.7798 135.68 95.8065 135.68C96.8065 135.68 97.6798 135.9 98.4265 136.34C99.1732 136.78 99.7532 137.373 100.166 138.12C100.58 138.867 100.786 139.713 100.786 140.66C100.786 140.793 100.786 140.947 100.786 141.12C100.786 141.28 100.773 141.447 100.746 141.62H92.5665V139.98H98.0665C98.0265 139.327 97.7932 138.813 97.3665 138.44C96.9532 138.067 96.4332 137.88 95.8065 137.88C95.3532 137.88 94.9332 137.987 94.5465 138.2C94.1598 138.4 93.8532 138.713 93.6265 139.14C93.4132 139.567 93.3065 140.107 93.3065 140.76V141.34C93.3065 141.887 93.4065 142.367 93.6065 142.78C93.8198 143.18 94.1132 143.493 94.4865 143.72C94.8598 143.933 95.2932 144.04 95.7865 144.04C96.2798 144.04 96.6865 143.933 97.0065 143.72C97.3398 143.507 97.5865 143.233 97.7465 142.9H100.506C100.32 143.527 100.006 144.093 99.5665 144.6C99.1265 145.107 98.5865 145.507 97.9465 145.8C97.3065 146.093 96.5932 146.24 95.8065 146.24ZM102.998 146V131.6H105.698V146H102.998ZM111.73 146.24C110.89 146.24 110.196 146.107 109.65 145.84C109.103 145.56 108.696 145.193 108.43 144.74C108.176 144.273 108.05 143.76 108.05 143.2C108.05 142.587 108.203 142.047 108.51 141.58C108.83 141.113 109.303 140.747 109.93 140.48C110.57 140.213 111.37 140.08 112.33 140.08H114.83C114.83 139.587 114.763 139.18 114.63 138.86C114.496 138.527 114.29 138.28 114.01 138.12C113.73 137.96 113.356 137.88 112.89 137.88C112.383 137.88 111.95 137.993 111.59 138.22C111.243 138.433 111.03 138.767 110.95 139.22H108.33C108.396 138.5 108.63 137.88 109.03 137.36C109.443 136.827 109.983 136.413 110.65 136.12C111.33 135.827 112.083 135.68 112.91 135.68C113.856 135.68 114.676 135.84 115.37 136.16C116.063 136.48 116.596 136.94 116.97 137.54C117.343 138.14 117.53 138.88 117.53 139.76V146H115.25L114.95 144.46C114.803 144.727 114.63 144.967 114.43 145.18C114.23 145.393 113.996 145.58 113.73 145.74C113.463 145.9 113.163 146.02 112.83 146.1C112.496 146.193 112.13 146.24 111.73 146.24ZM112.37 144.16C112.716 144.16 113.023 144.1 113.29 143.98C113.57 143.847 113.81 143.673 114.01 143.46C114.21 143.233 114.363 142.98 114.47 142.7C114.59 142.407 114.67 142.093 114.71 141.76V141.74H112.65C112.236 141.74 111.896 141.793 111.63 141.9C111.376 141.993 111.19 142.133 111.07 142.32C110.95 142.507 110.89 142.72 110.89 142.96C110.89 143.227 110.95 143.447 111.07 143.62C111.19 143.793 111.363 143.927 111.59 144.02C111.816 144.113 112.076 144.16 112.37 144.16ZM113.97 134.6C113.583 134.6 113.25 134.527 112.97 134.38C112.703 134.233 112.456 134.087 112.23 133.94C112.003 133.78 111.75 133.7 111.47 133.7C111.256 133.7 111.07 133.773 110.91 133.92C110.763 134.067 110.663 134.293 110.61 134.6H109.19C109.336 133.707 109.616 133.053 110.03 132.64C110.456 132.227 110.976 132.02 111.59 132.02C111.976 132.02 112.303 132.1 112.57 132.26C112.836 132.407 113.083 132.56 113.31 132.72C113.55 132.867 113.81 132.94 114.09 132.94C114.316 132.94 114.503 132.867 114.65 132.72C114.81 132.573 114.91 132.347 114.95 132.04H116.37C116.236 132.933 115.956 133.587 115.53 134C115.116 134.4 114.596 134.6 113.97 134.6ZM120.269 141.24V138.98H128.709V141.24H120.269ZM131.572 150.4V135.92H133.972L134.272 137.32C134.485 137.027 134.739 136.76 135.032 136.52C135.325 136.267 135.672 136.067 136.072 135.92C136.485 135.76 136.965 135.68 137.512 135.68C138.459 135.68 139.292 135.913 140.012 136.38C140.732 136.847 141.299 137.48 141.712 138.28C142.139 139.067 142.352 139.967 142.352 140.98C142.352 141.993 142.139 142.9 141.712 143.7C141.285 144.487 140.712 145.107 139.992 145.56C139.272 146.013 138.452 146.24 137.532 146.24C136.785 146.24 136.139 146.107 135.592 145.84C135.059 145.56 134.619 145.18 134.272 144.7V150.4H131.572ZM136.892 143.88C137.425 143.88 137.892 143.76 138.292 143.52C138.705 143.28 139.025 142.94 139.252 142.5C139.479 142.06 139.592 141.553 139.592 140.98C139.592 140.407 139.479 139.9 139.252 139.46C139.025 139.007 138.705 138.66 138.292 138.42C137.892 138.167 137.425 138.04 136.892 138.04C136.372 138.04 135.905 138.167 135.492 138.42C135.092 138.66 134.772 139 134.532 139.44C134.305 139.88 134.192 140.387 134.192 140.96C134.192 141.533 134.305 142.047 134.532 142.5C134.772 142.94 135.092 143.28 135.492 143.52C135.905 143.76 136.372 143.88 136.892 143.88ZM144.737 146V135.92H147.437V146H144.737ZM146.097 134.54C145.617 134.54 145.217 134.4 144.897 134.12C144.591 133.827 144.437 133.46 144.437 133.02C144.437 132.58 144.591 132.22 144.897 131.94C145.217 131.647 145.617 131.5 146.097 131.5C146.591 131.5 146.991 131.647 147.297 131.94C147.617 132.22 147.777 132.58 147.777 133.02C147.777 133.46 147.617 133.827 147.297 134.12C146.991 134.4 146.591 134.54 146.097 134.54ZM150.166 146V135.92H152.546L152.766 137.26C153.086 136.78 153.506 136.4 154.026 136.12C154.559 135.827 155.166 135.68 155.846 135.68C156.352 135.68 156.806 135.747 157.206 135.88C157.606 136.013 157.959 136.207 158.266 136.46C158.586 136.713 158.846 137.033 159.046 137.42C159.419 136.873 159.906 136.447 160.506 136.14C161.106 135.833 161.759 135.68 162.466 135.68C163.346 135.68 164.079 135.86 164.666 136.22C165.252 136.567 165.692 137.073 165.986 137.74C166.292 138.407 166.446 139.227 166.446 140.2V146H163.766V140.44C163.766 139.64 163.606 139.027 163.286 138.6C162.979 138.173 162.499 137.96 161.846 137.96C161.419 137.96 161.039 138.067 160.706 138.28C160.372 138.493 160.112 138.8 159.926 139.2C159.752 139.6 159.666 140.08 159.666 140.64V146H156.966V140.44C156.966 139.64 156.806 139.027 156.486 138.6C156.166 138.173 155.672 137.96 155.006 137.96C154.592 137.96 154.219 138.067 153.886 138.28C153.566 138.493 153.312 138.8 153.126 139.2C152.952 139.6 152.866 140.08 152.866 140.64V146H150.166ZM173.834 146.24C172.82 146.24 171.92 146.027 171.134 145.6C170.36 145.16 169.754 144.553 169.314 143.78C168.887 142.993 168.674 142.087 168.674 141.06C168.674 140.007 168.887 139.08 169.314 138.28C169.754 137.467 170.36 136.833 171.134 136.38C171.907 135.913 172.807 135.68 173.834 135.68C174.834 135.68 175.707 135.9 176.454 136.34C177.2 136.78 177.78 137.373 178.194 138.12C178.607 138.867 178.814 139.713 178.814 140.66C178.814 140.793 178.814 140.947 178.814 141.12C178.814 141.28 178.8 141.447 178.774 141.62H170.594V139.98H176.094C176.054 139.327 175.82 138.813 175.394 138.44C174.98 138.067 174.46 137.88 173.834 137.88C173.38 137.88 172.96 137.987 172.574 138.2C172.187 138.4 171.88 138.713 171.654 139.14C171.44 139.567 171.334 140.107 171.334 140.76V141.34C171.334 141.887 171.434 142.367 171.634 142.78C171.847 143.18 172.14 143.493 172.514 143.72C172.887 143.933 173.32 144.04 173.814 144.04C174.307 144.04 174.714 143.933 175.034 143.72C175.367 143.507 175.614 143.233 175.774 142.9H178.534C178.347 143.527 178.034 144.093 177.594 144.6C177.154 145.107 176.614 145.507 175.974 145.8C175.334 146.093 174.62 146.24 173.834 146.24ZM181.025 146V135.92H183.405L183.605 137.56C183.912 137 184.345 136.547 184.905 136.2C185.478 135.853 186.158 135.68 186.945 135.68C187.785 135.68 188.492 135.853 189.065 136.2C189.638 136.547 190.072 137.053 190.365 137.72C190.672 138.387 190.825 139.207 190.825 140.18V146H188.145V140.44C188.145 139.64 187.972 139.027 187.625 138.6C187.292 138.173 186.772 137.96 186.065 137.96C185.612 137.96 185.205 138.067 184.845 138.28C184.498 138.493 184.225 138.8 184.025 139.2C183.825 139.587 183.725 140.06 183.725 140.62V146H181.025ZM197.909 146C197.202 146 196.582 145.893 196.049 145.68C195.529 145.453 195.122 145.087 194.829 144.58C194.535 144.06 194.389 143.353 194.389 142.46V138.18H192.669V135.92H194.389L194.689 133.18H197.089V135.92H199.749V138.18H197.089V142.5C197.089 142.953 197.189 143.267 197.389 143.44C197.589 143.613 197.929 143.7 198.409 143.7H199.729V146H197.909ZM205.421 146.24C204.581 146.24 203.888 146.107 203.341 145.84C202.795 145.56 202.388 145.193 202.121 144.74C201.868 144.273 201.741 143.76 201.741 143.2C201.741 142.587 201.895 142.047 202.201 141.58C202.521 141.113 202.995 140.747 203.621 140.48C204.261 140.213 205.061 140.08 206.021 140.08H208.521C208.521 139.587 208.455 139.18 208.321 138.86C208.188 138.527 207.981 138.28 207.701 138.12C207.421 137.96 207.048 137.88 206.581 137.88C206.075 137.88 205.641 137.993 205.281 138.22C204.935 138.433 204.721 138.767 204.641 139.22H202.021C202.088 138.5 202.321 137.88 202.721 137.36C203.135 136.827 203.675 136.413 204.341 136.12C205.021 135.827 205.775 135.68 206.601 135.68C207.548 135.68 208.368 135.84 209.061 136.16C209.755 136.48 210.288 136.94 210.661 137.54C211.035 138.14 211.221 138.88 211.221 139.76V146H208.941L208.641 144.46C208.495 144.727 208.321 144.967 208.121 145.18C207.921 145.393 207.688 145.58 207.421 145.74C207.155 145.9 206.855 146.02 206.521 146.1C206.188 146.193 205.821 146.24 205.421 146.24ZM206.061 144.16C206.408 144.16 206.715 144.1 206.981 143.98C207.261 143.847 207.501 143.673 207.701 143.46C207.901 143.233 208.055 142.98 208.161 142.7C208.281 142.407 208.361 142.093 208.401 141.76V141.74H206.341C205.928 141.74 205.588 141.793 205.321 141.9C205.068 141.993 204.881 142.133 204.761 142.32C204.641 142.507 204.581 142.72 204.581 142.96C204.581 143.227 204.641 143.447 204.761 143.62C204.881 143.793 205.055 143.927 205.281 144.02C205.508 144.113 205.768 144.16 206.061 144.16Z" fill="#6A5ACD"/>
<defs>
<filter id="filter0_f_329_274" x="163.755" y="10.1165" width="78.6514" height="177.139" filterUnits="userSpaceOnUse" color-interpolation-filters="sRGB">
<feFlood flood-opacity="0" result="BackgroundImageFix"/>
<feBlend mode="normal" in="SourceGraphic" in2="BackgroundImageFix" result="shape"/>
<feGaussianBlur stdDeviation="15" result="effect1_foregroundBlur_329_274"/>
</filter>
<filter id="filter1_f_329_274" x="0.760254" y="20.605" width="219.681" height="218.744" filterUnits="userSpaceOnUse" color-interpolation-filters="sRGB">
<feFlood flood-opacity="0" result="BackgroundImageFix"/>
<feBlend mode="normal" in="SourceGraphic" in2="BackgroundImageFix" result="shape"/>
<feGaussianBlur stdDeviation="25" result="effect1_foregroundBlur_329_274"/>
</filter>
<linearGradient id="paint0_linear_329_274" x1="188.694" y1="207" x2="21.2126" y2="-75.993" gradientUnits="userSpaceOnUse">
<stop stop-color="#A1A4F3"/>
<stop offset="0.992945" stop-color="white" stop-opacity="0.86"/>
</linearGradient>
</defs>
</svg>
