<svg width="243" height="240" viewBox="0 0 243 240" fill="none" xmlns="http://www.w3.org/2000/svg">
<g filter="url(#filter0_f_329_287)">
<ellipse cx="203.081" cy="98.6862" rx="9.32577" ry="58.5698" fill="#050259" fill-opacity="0.5" style="mix-blend-mode:overlay"/>
</g>
<ellipse cx="129.252" cy="103.5" rx="100.252" ry="103.5" fill="url(#paint0_linear_329_287)"/>
<g filter="url(#filter1_f_329_287)">
<ellipse cx="110.601" cy="129.977" rx="59.8404" ry="59.3721" fill="#A1A4F3" fill-opacity="0.2"/>
</g>
<path d="M89.796 74V60H92.496V71.9H98.636V74H89.796ZM104.288 74.24C103.448 74.24 102.755 74.1067 102.208 73.84C101.662 73.56 101.255 73.1933 100.988 72.74C100.735 72.2733 100.608 71.76 100.608 71.2C100.608 70.5867 100.762 70.0467 101.068 69.58C101.388 69.1133 101.862 68.7467 102.488 68.48C103.128 68.2133 103.928 68.08 104.888 68.08H107.388C107.388 67.5867 107.322 67.18 107.188 66.86C107.055 66.5267 106.848 66.28 106.568 66.12C106.288 65.96 105.915 65.88 105.448 65.88C104.942 65.88 104.508 65.9933 104.148 66.22C103.802 66.4333 103.588 66.7667 103.508 67.22H100.888C100.955 66.5 101.188 65.88 101.588 65.36C102.002 64.8267 102.542 64.4133 103.208 64.12C103.888 63.8267 104.642 63.68 105.468 63.68C106.415 63.68 107.235 63.84 107.928 64.16C108.622 64.48 109.155 64.94 109.528 65.54C109.902 66.14 110.088 66.88 110.088 67.76V74H107.808L107.508 72.46C107.362 72.7267 107.188 72.9667 106.988 73.18C106.788 73.3933 106.555 73.58 106.288 73.74C106.022 73.9 105.722 74.02 105.388 74.1C105.055 74.1933 104.688 74.24 104.288 74.24ZM104.928 72.16C105.275 72.16 105.582 72.1 105.848 71.98C106.128 71.8467 106.368 71.6733 106.568 71.46C106.768 71.2333 106.922 70.98 107.028 70.7C107.148 70.4067 107.228 70.0933 107.268 69.76V69.74H105.208C104.795 69.74 104.455 69.7933 104.188 69.9C103.935 69.9933 103.748 70.1333 103.628 70.32C103.508 70.5067 103.448 70.72 103.448 70.96C103.448 71.2267 103.508 71.4467 103.628 71.62C103.748 71.7933 103.922 71.9267 104.148 72.02C104.375 72.1133 104.635 72.16 104.928 72.16ZM115.014 74L111.314 63.92H114.154L116.654 71.46L119.154 63.92H121.974L118.294 74H115.014ZM126.417 74.24C125.577 74.24 124.884 74.1067 124.337 73.84C123.791 73.56 123.384 73.1933 123.117 72.74C122.864 72.2733 122.737 71.76 122.737 71.2C122.737 70.5867 122.891 70.0467 123.197 69.58C123.517 69.1133 123.991 68.7467 124.617 68.48C125.257 68.2133 126.057 68.08 127.017 68.08H129.517C129.517 67.5867 129.451 67.18 129.317 66.86C129.184 66.5267 128.977 66.28 128.697 66.12C128.417 65.96 128.044 65.88 127.577 65.88C127.071 65.88 126.637 65.9933 126.277 66.22C125.931 66.4333 125.717 66.7667 125.637 67.22H123.017C123.084 66.5 123.317 65.88 123.717 65.36C124.131 64.8267 124.671 64.4133 125.337 64.12C126.017 63.8267 126.771 63.68 127.597 63.68C128.544 63.68 129.364 63.84 130.057 64.16C130.751 64.48 131.284 64.94 131.657 65.54C132.031 66.14 132.217 66.88 132.217 67.76V74H129.937L129.637 72.46C129.491 72.7267 129.317 72.9667 129.117 73.18C128.917 73.3933 128.684 73.58 128.417 73.74C128.151 73.9 127.851 74.02 127.517 74.1C127.184 74.1933 126.817 74.24 126.417 74.24ZM127.057 72.16C127.404 72.16 127.711 72.1 127.977 71.98C128.257 71.8467 128.497 71.6733 128.697 71.46C128.897 71.2333 129.051 70.98 129.157 70.7C129.277 70.4067 129.357 70.0933 129.397 69.76V69.74H127.337C126.924 69.74 126.584 69.7933 126.317 69.9C126.064 69.9933 125.877 70.1333 125.757 70.32C125.637 70.5067 125.577 70.72 125.577 70.96C125.577 71.2267 125.637 71.4467 125.757 71.62C125.877 71.7933 126.051 71.9267 126.277 72.02C126.504 72.1133 126.764 72.16 127.057 72.16ZM134.736 74V63.92H137.116L137.316 65.56C137.623 65 138.056 64.5467 138.616 64.2C139.189 63.8533 139.869 63.68 140.656 63.68C141.496 63.68 142.203 63.8533 142.776 64.2C143.349 64.5467 143.783 65.0533 144.076 65.72C144.383 66.3867 144.536 67.2067 144.536 68.18V74H141.856V68.44C141.856 67.64 141.683 67.0267 141.336 66.6C141.003 66.1733 140.483 65.96 139.776 65.96C139.323 65.96 138.916 66.0667 138.556 66.28C138.209 66.4933 137.936 66.8 137.736 67.2C137.536 67.5867 137.436 68.06 137.436 68.62V74H134.736ZM151.56 74.24C150.64 74.24 149.813 74.0133 149.08 73.56C148.36 73.1067 147.793 72.48 147.38 71.68C146.966 70.88 146.76 69.98 146.76 68.98C146.76 67.9533 146.966 67.0467 147.38 66.26C147.806 65.46 148.386 64.8333 149.12 64.38C149.866 63.9133 150.7 63.68 151.62 63.68C152.34 63.68 152.973 63.8133 153.52 64.08C154.066 64.3467 154.506 64.7267 154.84 65.22V59.6H157.54V74H155.14L154.84 72.62C154.64 72.9 154.386 73.1667 154.08 73.42C153.786 73.6733 153.433 73.8733 153.02 74.02C152.606 74.1667 152.12 74.24 151.56 74.24ZM152.2 71.88C152.733 71.88 153.2 71.76 153.6 71.52C154.013 71.2667 154.333 70.92 154.56 70.48C154.786 70.04 154.9 69.5333 154.9 68.96C154.9 68.3867 154.786 67.88 154.56 67.44C154.333 67 154.013 66.66 153.6 66.42C153.2 66.1667 152.733 66.04 152.2 66.04C151.693 66.04 151.233 66.1667 150.82 66.42C150.406 66.66 150.08 67 149.84 67.44C149.613 67.88 149.5 68.38 149.5 68.94C149.5 69.5267 149.613 70.04 149.84 70.48C150.08 70.92 150.4 71.2667 150.8 71.52C151.213 71.76 151.68 71.88 152.2 71.88ZM163.585 74.24C162.745 74.24 162.052 74.1067 161.505 73.84C160.959 73.56 160.552 73.1933 160.285 72.74C160.032 72.2733 159.905 71.76 159.905 71.2C159.905 70.5867 160.059 70.0467 160.365 69.58C160.685 69.1133 161.159 68.7467 161.785 68.48C162.425 68.2133 163.225 68.08 164.185 68.08H166.685C166.685 67.5867 166.619 67.18 166.485 66.86C166.352 66.5267 166.145 66.28 165.865 66.12C165.585 65.96 165.212 65.88 164.745 65.88C164.239 65.88 163.805 65.9933 163.445 66.22C163.099 66.4333 162.885 66.7667 162.805 67.22H160.185C160.252 66.5 160.485 65.88 160.885 65.36C161.299 64.8267 161.839 64.4133 162.505 64.12C163.185 63.8267 163.939 63.68 164.765 63.68C165.712 63.68 166.532 63.84 167.225 64.16C167.919 64.48 168.452 64.94 168.825 65.54C169.199 66.14 169.385 66.88 169.385 67.76V74H167.105L166.805 72.46C166.659 72.7267 166.485 72.9667 166.285 73.18C166.085 73.3933 165.852 73.58 165.585 73.74C165.319 73.9 165.019 74.02 164.685 74.1C164.352 74.1933 163.985 74.24 163.585 74.24ZM164.225 72.16C164.572 72.16 164.879 72.1 165.145 71.98C165.425 71.8467 165.665 71.6733 165.865 71.46C166.065 71.2333 166.219 70.98 166.325 70.7C166.445 70.4067 166.525 70.0933 166.565 69.76V69.74H164.505C164.092 69.74 163.752 69.7933 163.485 69.9C163.232 69.9933 163.045 70.1333 162.925 70.32C162.805 70.5067 162.745 70.72 162.745 70.96C162.745 71.2267 162.805 71.4467 162.925 71.62C163.045 71.7933 163.219 71.9267 163.445 72.02C163.672 72.1133 163.932 72.16 164.225 72.16ZM107.589 98V84H112.809C113.942 84 114.876 84.1933 115.609 84.58C116.342 84.9667 116.889 85.4867 117.249 86.14C117.609 86.78 117.789 87.4933 117.789 88.28C117.789 89.0267 117.616 89.7267 117.269 90.38C116.922 91.02 116.376 91.54 115.629 91.94C114.896 92.3267 113.949 92.52 112.789 92.52H110.289V98H107.589ZM114.849 98L111.969 91.84H114.889L117.929 98H114.849ZM110.289 90.56H112.649C113.462 90.56 114.062 90.36 114.449 89.96C114.836 89.56 115.029 89.0333 115.029 88.38C115.029 87.7267 114.836 87.2133 114.449 86.84C114.076 86.4533 113.476 86.26 112.649 86.26H110.289V90.56ZM124.301 98.24C123.341 98.24 122.474 98.02 121.701 97.58C120.941 97.1267 120.334 96.5067 119.881 95.72C119.441 94.92 119.221 94.0067 119.221 92.98C119.221 91.9267 119.441 91.0067 119.881 90.22C120.334 89.42 120.947 88.8 121.721 88.36C122.494 87.9067 123.361 87.68 124.321 87.68C125.294 87.68 126.161 87.9067 126.921 88.36C127.694 88.8 128.301 89.42 128.741 90.22C129.194 91.0067 129.421 91.92 129.421 92.96C129.421 94 129.194 94.92 128.741 95.72C128.301 96.5067 127.694 97.1267 126.921 97.58C126.147 98.02 125.274 98.24 124.301 98.24ZM124.301 95.9C124.754 95.9 125.154 95.7933 125.501 95.58C125.861 95.3667 126.141 95.04 126.341 94.6C126.554 94.16 126.661 93.6133 126.661 92.96C126.661 92.3067 126.554 91.7667 126.341 91.34C126.141 90.9 125.861 90.5733 125.501 90.36C125.154 90.1333 124.761 90.02 124.321 90.02C123.894 90.02 123.501 90.1333 123.141 90.36C122.781 90.5733 122.494 90.9 122.281 91.34C122.081 91.7667 121.981 92.3067 121.981 92.96C121.981 93.6133 122.081 94.16 122.281 94.6C122.494 95.04 122.774 95.3667 123.121 95.58C123.481 95.7933 123.874 95.9 124.301 95.9ZM135.868 98.24C134.948 98.24 134.148 98.0933 133.468 97.8C132.788 97.5067 132.254 97.1 131.868 96.58C131.481 96.06 131.261 95.4733 131.208 94.82H133.888C133.954 95.0733 134.068 95.3067 134.228 95.52C134.388 95.72 134.601 95.88 134.868 96C135.134 96.12 135.454 96.18 135.828 96.18C136.188 96.18 136.481 96.1333 136.708 96.04C136.934 95.9333 137.101 95.7933 137.208 95.62C137.328 95.4467 137.388 95.2667 137.388 95.08C137.388 94.8 137.308 94.5867 137.148 94.44C136.988 94.28 136.754 94.1533 136.448 94.06C136.141 93.9667 135.768 93.8733 135.328 93.78C134.848 93.6867 134.374 93.5733 133.908 93.44C133.454 93.2933 133.048 93.1133 132.688 92.9C132.328 92.6867 132.041 92.4133 131.828 92.08C131.614 91.7467 131.508 91.3333 131.508 90.84C131.508 90.24 131.668 89.7067 131.988 89.24C132.308 88.76 132.774 88.38 133.388 88.1C134.001 87.82 134.741 87.68 135.608 87.68C136.821 87.68 137.781 87.9533 138.488 88.5C139.194 89.0467 139.614 89.8 139.748 90.76H137.208C137.128 90.4533 136.948 90.2133 136.668 90.04C136.401 89.8533 136.041 89.76 135.588 89.76C135.108 89.76 134.741 89.8467 134.488 90.02C134.234 90.1933 134.108 90.42 134.108 90.7C134.108 90.8867 134.188 91.0533 134.348 91.2C134.521 91.3467 134.761 91.4733 135.068 91.58C135.374 91.6733 135.748 91.7667 136.188 91.86C136.961 92.02 137.641 92.2067 138.228 92.42C138.814 92.62 139.274 92.9133 139.608 93.3C139.941 93.6733 140.108 94.22 140.108 94.94C140.108 95.58 139.934 96.1533 139.588 96.66C139.241 97.1533 138.748 97.54 138.108 97.82C137.481 98.1 136.734 98.24 135.868 98.24ZM145.792 98.24C144.952 98.24 144.259 98.1067 143.712 97.84C143.166 97.56 142.759 97.1933 142.492 96.74C142.239 96.2733 142.112 95.76 142.112 95.2C142.112 94.5867 142.266 94.0467 142.572 93.58C142.892 93.1133 143.366 92.7467 143.992 92.48C144.632 92.2133 145.432 92.08 146.392 92.08H148.892C148.892 91.5867 148.826 91.18 148.692 90.86C148.559 90.5267 148.352 90.28 148.072 90.12C147.792 89.96 147.419 89.88 146.952 89.88C146.446 89.88 146.012 89.9933 145.652 90.22C145.306 90.4333 145.092 90.7667 145.012 91.22H142.392C142.459 90.5 142.692 89.88 143.092 89.36C143.506 88.8267 144.046 88.4133 144.712 88.12C145.392 87.8267 146.146 87.68 146.972 87.68C147.919 87.68 148.739 87.84 149.432 88.16C150.126 88.48 150.659 88.94 151.032 89.54C151.406 90.14 151.592 90.88 151.592 91.76V98H149.312L149.012 96.46C148.866 96.7267 148.692 96.9667 148.492 97.18C148.292 97.3933 148.059 97.58 147.792 97.74C147.526 97.9 147.226 98.02 146.892 98.1C146.559 98.1933 146.192 98.24 145.792 98.24ZM146.432 96.16C146.779 96.16 147.086 96.1 147.352 95.98C147.632 95.8467 147.872 95.6733 148.072 95.46C148.272 95.2333 148.426 94.98 148.532 94.7C148.652 94.4067 148.732 94.0933 148.772 93.76V93.74H146.712C146.299 93.74 145.959 93.7933 145.692 93.9C145.439 93.9933 145.252 94.1333 145.132 94.32C145.012 94.5067 144.952 94.72 144.952 94.96C144.952 95.2267 145.012 95.4467 145.132 95.62C145.252 95.7933 145.426 95.9267 145.652 96.02C145.879 96.1133 146.139 96.16 146.432 96.16ZM67.6183 122V108H70.3183V119.9H76.4583V122H67.6183ZM82.1106 122.24C81.2706 122.24 80.5773 122.107 80.0306 121.84C79.484 121.56 79.0773 121.193 78.8106 120.74C78.5573 120.273 78.4306 119.76 78.4306 119.2C78.4306 118.587 78.584 118.047 78.8906 117.58C79.2106 117.113 79.684 116.747 80.3106 116.48C80.9506 116.213 81.7506 116.08 82.7106 116.08H85.2106C85.2106 115.587 85.144 115.18 85.0106 114.86C84.8773 114.527 84.6706 114.28 84.3906 114.12C84.1106 113.96 83.7373 113.88 83.2706 113.88C82.764 113.88 82.3306 113.993 81.9706 114.22C81.624 114.433 81.4106 114.767 81.3306 115.22H78.7106C78.7773 114.5 79.0106 113.88 79.4106 113.36C79.824 112.827 80.364 112.413 81.0306 112.12C81.7106 111.827 82.464 111.68 83.2906 111.68C84.2373 111.68 85.0573 111.84 85.7506 112.16C86.444 112.48 86.9773 112.94 87.3506 113.54C87.724 114.14 87.9106 114.88 87.9106 115.76V122H85.6306L85.3306 120.46C85.184 120.727 85.0106 120.967 84.8106 121.18C84.6106 121.393 84.3773 121.58 84.1106 121.74C83.844 121.9 83.544 122.02 83.2106 122.1C82.8773 122.193 82.5106 122.24 82.1106 122.24ZM82.7506 120.16C83.0973 120.16 83.404 120.1 83.6706 119.98C83.9506 119.847 84.1906 119.673 84.3906 119.46C84.5906 119.233 84.744 118.98 84.8506 118.7C84.9706 118.407 85.0506 118.093 85.0906 117.76V117.74H83.0306C82.6173 117.74 82.2773 117.793 82.0106 117.9C81.7573 117.993 81.5706 118.133 81.4506 118.32C81.3306 118.507 81.2706 118.72 81.2706 118.96C81.2706 119.227 81.3306 119.447 81.4506 119.62C81.5706 119.793 81.744 119.927 81.9706 120.02C82.1973 120.113 82.4573 120.16 82.7506 120.16ZM90.4294 122V111.92H92.8294L93.0894 113.78C93.3294 113.34 93.6294 112.967 93.9894 112.66C94.3627 112.353 94.7827 112.113 95.2494 111.94C95.7294 111.767 96.256 111.68 96.8294 111.68V114.54H95.9094C95.5094 114.54 95.136 114.587 94.7894 114.68C94.456 114.773 94.1627 114.927 93.9094 115.14C93.656 115.34 93.4627 115.62 93.3294 115.98C93.196 116.34 93.1294 116.793 93.1294 117.34V122H90.4294ZM102.013 122.24C101.173 122.24 100.48 122.107 99.933 121.84C99.3863 121.56 98.9796 121.193 98.713 120.74C98.4596 120.273 98.333 119.76 98.333 119.2C98.333 118.587 98.4863 118.047 98.793 117.58C99.113 117.113 99.5863 116.747 100.213 116.48C100.853 116.213 101.653 116.08 102.613 116.08H105.113C105.113 115.587 105.046 115.18 104.913 114.86C104.78 114.527 104.573 114.28 104.293 114.12C104.013 113.96 103.64 113.88 103.173 113.88C102.666 113.88 102.233 113.993 101.873 114.22C101.526 114.433 101.313 114.767 101.233 115.22H98.613C98.6796 114.5 98.913 113.88 99.313 113.36C99.7263 112.827 100.266 112.413 100.933 112.12C101.613 111.827 102.366 111.68 103.193 111.68C104.14 111.68 104.96 111.84 105.653 112.16C106.346 112.48 106.88 112.94 107.253 113.54C107.626 114.14 107.813 114.88 107.813 115.76V122H105.533L105.233 120.46C105.086 120.727 104.913 120.967 104.713 121.18C104.513 121.393 104.28 121.58 104.013 121.74C103.746 121.9 103.446 122.02 103.113 122.1C102.78 122.193 102.413 122.24 102.013 122.24ZM102.653 120.16C103 120.16 103.306 120.1 103.573 119.98C103.853 119.847 104.093 119.673 104.293 119.46C104.493 119.233 104.646 118.98 104.753 118.7C104.873 118.407 104.953 118.093 104.993 117.76V117.74H102.933C102.52 117.74 102.18 117.793 101.913 117.9C101.66 117.993 101.473 118.133 101.353 118.32C101.233 118.507 101.173 118.72 101.173 118.96C101.173 119.227 101.233 119.447 101.353 119.62C101.473 119.793 101.646 119.927 101.873 120.02C102.1 120.113 102.36 120.16 102.653 120.16ZM110.332 122V111.92H112.712L112.912 113.56C113.218 113 113.652 112.547 114.212 112.2C114.785 111.853 115.465 111.68 116.252 111.68C117.092 111.68 117.798 111.853 118.372 112.2C118.945 112.547 119.378 113.053 119.672 113.72C119.978 114.387 120.132 115.207 120.132 116.18V122H117.452V116.44C117.452 115.64 117.278 115.027 116.932 114.6C116.598 114.173 116.078 113.96 115.372 113.96C114.918 113.96 114.512 114.067 114.152 114.28C113.805 114.493 113.532 114.8 113.332 115.2C113.132 115.587 113.032 116.06 113.032 116.62V122H110.332ZM120.775 126.4V124.1H121.595C122.022 124.1 122.322 124.013 122.495 123.84C122.682 123.667 122.775 123.387 122.775 123V111.92H125.475V122.98C125.475 123.807 125.329 124.467 125.035 124.96C124.755 125.467 124.355 125.833 123.835 126.06C123.315 126.287 122.702 126.4 121.995 126.4H120.775ZM124.135 110.54C123.642 110.54 123.242 110.4 122.935 110.12C122.629 109.827 122.475 109.46 122.475 109.02C122.475 108.58 122.629 108.22 122.935 107.94C123.242 107.647 123.642 107.5 124.135 107.5C124.629 107.5 125.029 107.647 125.335 107.94C125.642 108.22 125.795 108.58 125.795 109.02C125.795 109.46 125.642 109.827 125.335 110.12C125.029 110.4 124.629 110.54 124.135 110.54ZM131.564 122.24C130.724 122.24 130.03 122.107 129.484 121.84C128.937 121.56 128.53 121.193 128.264 120.74C128.01 120.273 127.884 119.76 127.884 119.2C127.884 118.587 128.037 118.047 128.344 117.58C128.664 117.113 129.137 116.747 129.764 116.48C130.404 116.213 131.204 116.08 132.164 116.08H134.664C134.664 115.587 134.597 115.18 134.464 114.86C134.33 114.527 134.124 114.28 133.844 114.12C133.564 113.96 133.19 113.88 132.724 113.88C132.217 113.88 131.784 113.993 131.424 114.22C131.077 114.433 130.864 114.767 130.784 115.22H128.164C128.23 114.5 128.464 113.88 128.864 113.36C129.277 112.827 129.817 112.413 130.484 112.12C131.164 111.827 131.917 111.68 132.744 111.68C133.69 111.68 134.51 111.84 135.204 112.16C135.897 112.48 136.43 112.94 136.804 113.54C137.177 114.14 137.364 114.88 137.364 115.76V122H135.084L134.784 120.46C134.637 120.727 134.464 120.967 134.264 121.18C134.064 121.393 133.83 121.58 133.564 121.74C133.297 121.9 132.997 122.02 132.664 122.1C132.33 122.193 131.964 122.24 131.564 122.24ZM132.204 120.16C132.55 120.16 132.857 120.1 133.124 119.98C133.404 119.847 133.644 119.673 133.844 119.46C134.044 119.233 134.197 118.98 134.304 118.7C134.424 118.407 134.504 118.093 134.544 117.76V117.74H132.484C132.07 117.74 131.73 117.793 131.464 117.9C131.21 117.993 131.024 118.133 130.904 118.32C130.784 118.507 130.724 118.72 130.724 118.96C130.724 119.227 130.784 119.447 130.904 119.62C131.024 119.793 131.197 119.927 131.424 120.02C131.65 120.113 131.91 120.16 132.204 120.16ZM149.07 122.24C148.15 122.24 147.323 122.013 146.59 121.56C145.87 121.107 145.303 120.48 144.89 119.68C144.476 118.88 144.27 117.98 144.27 116.98C144.27 115.953 144.476 115.047 144.89 114.26C145.316 113.46 145.896 112.833 146.63 112.38C147.376 111.913 148.21 111.68 149.13 111.68C149.85 111.68 150.483 111.813 151.03 112.08C151.576 112.347 152.016 112.727 152.35 113.22V107.6H155.05V122H152.65L152.35 120.62C152.15 120.9 151.896 121.167 151.59 121.42C151.296 121.673 150.943 121.873 150.53 122.02C150.116 122.167 149.63 122.24 149.07 122.24ZM149.71 119.88C150.243 119.88 150.71 119.76 151.11 119.52C151.523 119.267 151.843 118.92 152.07 118.48C152.296 118.04 152.41 117.533 152.41 116.96C152.41 116.387 152.296 115.88 152.07 115.44C151.843 115 151.523 114.66 151.11 114.42C150.71 114.167 150.243 114.04 149.71 114.04C149.203 114.04 148.743 114.167 148.33 114.42C147.916 114.66 147.59 115 147.35 115.44C147.123 115.88 147.01 116.38 147.01 116.94C147.01 117.527 147.123 118.04 147.35 118.48C147.59 118.92 147.91 119.267 148.31 119.52C148.723 119.76 149.19 119.88 149.71 119.88ZM162.455 122.24C161.495 122.24 160.628 122.02 159.855 121.58C159.095 121.127 158.488 120.507 158.035 119.72C157.595 118.92 157.375 118.007 157.375 116.98C157.375 115.927 157.595 115.007 158.035 114.22C158.488 113.42 159.102 112.8 159.875 112.36C160.648 111.907 161.515 111.68 162.475 111.68C163.448 111.68 164.315 111.907 165.075 112.36C165.848 112.8 166.455 113.42 166.895 114.22C167.348 115.007 167.575 115.92 167.575 116.96C167.575 118 167.348 118.92 166.895 119.72C166.455 120.507 165.848 121.127 165.075 121.58C164.302 122.02 163.428 122.24 162.455 122.24ZM162.455 119.9C162.908 119.9 163.308 119.793 163.655 119.58C164.015 119.367 164.295 119.04 164.495 118.6C164.708 118.16 164.815 117.613 164.815 116.96C164.815 116.307 164.708 115.767 164.495 115.34C164.295 114.9 164.015 114.573 163.655 114.36C163.308 114.133 162.915 114.02 162.475 114.02C162.048 114.02 161.655 114.133 161.295 114.36C160.935 114.573 160.648 114.9 160.435 115.34C160.235 115.767 160.135 116.307 160.135 116.96C160.135 117.613 160.235 118.16 160.435 118.6C160.648 119.04 160.928 119.367 161.275 119.58C161.635 119.793 162.028 119.9 162.455 119.9ZM174.782 122.24C173.769 122.24 172.869 122.013 172.082 121.56C171.295 121.107 170.682 120.487 170.242 119.7C169.802 118.913 169.582 118.013 169.582 117C169.582 115.96 169.802 115.047 170.242 114.26C170.682 113.46 171.295 112.833 172.082 112.38C172.869 111.913 173.769 111.68 174.782 111.68C176.075 111.68 177.162 112.02 178.042 112.7C178.922 113.38 179.482 114.313 179.722 115.5H176.862C176.742 115.033 176.489 114.667 176.102 114.4C175.729 114.133 175.282 114 174.762 114C174.295 114 173.875 114.12 173.502 114.36C173.142 114.587 172.855 114.927 172.642 115.38C172.442 115.82 172.342 116.347 172.342 116.96C172.342 117.427 172.402 117.847 172.522 118.22C172.642 118.58 172.809 118.893 173.022 119.16C173.235 119.413 173.489 119.607 173.782 119.74C174.089 119.873 174.415 119.94 174.762 119.94C175.109 119.94 175.422 119.88 175.702 119.76C175.995 119.64 176.242 119.473 176.442 119.26C176.642 119.033 176.782 118.76 176.862 118.44H179.722C179.482 119.6 178.915 120.527 178.022 121.22C177.142 121.9 176.062 122.24 174.782 122.24ZM186.89 122.24C185.877 122.24 184.977 122.027 184.19 121.6C183.417 121.16 182.81 120.553 182.37 119.78C181.944 118.993 181.73 118.087 181.73 117.06C181.73 116.007 181.944 115.08 182.37 114.28C182.81 113.467 183.417 112.833 184.19 112.38C184.964 111.913 185.864 111.68 186.89 111.68C187.89 111.68 188.764 111.9 189.51 112.34C190.257 112.78 190.837 113.373 191.25 114.12C191.664 114.867 191.87 115.713 191.87 116.66C191.87 116.793 191.87 116.947 191.87 117.12C191.87 117.28 191.857 117.447 191.83 117.62H183.65V115.98H189.15C189.11 115.327 188.877 114.813 188.45 114.44C188.037 114.067 187.517 113.88 186.89 113.88C186.437 113.88 186.017 113.987 185.63 114.2C185.244 114.4 184.937 114.713 184.71 115.14C184.497 115.567 184.39 116.107 184.39 116.76V117.34C184.39 117.887 184.49 118.367 184.69 118.78C184.904 119.18 185.197 119.493 185.57 119.72C185.944 119.933 186.377 120.04 186.87 120.04C187.364 120.04 187.77 119.933 188.09 119.72C188.424 119.507 188.67 119.233 188.83 118.9H191.59C191.404 119.527 191.09 120.093 190.65 120.6C190.21 121.107 189.67 121.507 189.03 121.8C188.39 122.093 187.677 122.24 186.89 122.24ZM87.7166 146.24C86.3166 146.24 85.11 145.94 84.0966 145.34C83.0966 144.727 82.3233 143.88 81.7766 142.8C81.2433 141.707 80.9766 140.447 80.9766 139.02C80.9766 137.593 81.2433 136.333 81.7766 135.24C82.3233 134.147 83.0966 133.293 84.0966 132.68C85.11 132.067 86.3166 131.76 87.7166 131.76C89.41 131.76 90.7966 132.18 91.8766 133.02C92.9566 133.86 93.63 135.047 93.8966 136.58H90.9566C90.7833 135.833 90.4166 135.253 89.8566 134.84C89.31 134.413 88.59 134.2 87.6966 134.2C86.87 134.2 86.1566 134.4 85.5566 134.8C84.97 135.187 84.5166 135.74 84.1966 136.46C83.8766 137.167 83.7166 138.02 83.7166 139.02C83.7166 140.007 83.8766 140.86 84.1966 141.58C84.5166 142.3 84.97 142.853 85.5566 143.24C86.1566 143.627 86.87 143.82 87.6966 143.82C88.59 143.82 89.31 143.627 89.8566 143.24C90.4033 142.84 90.7633 142.287 90.9366 141.58H93.8966C93.63 143.033 92.9566 144.173 91.8766 145C90.7966 145.827 89.41 146.24 87.7166 146.24ZM99.5423 146.24C98.7023 146.24 98.0089 146.107 97.4623 145.84C96.9156 145.56 96.5089 145.193 96.2423 144.74C95.9889 144.273 95.8623 143.76 95.8623 143.2C95.8623 142.587 96.0156 142.047 96.3223 141.58C96.6423 141.113 97.1156 140.747 97.7423 140.48C98.3823 140.213 99.1823 140.08 100.142 140.08H102.642C102.642 139.587 102.576 139.18 102.442 138.86C102.309 138.527 102.102 138.28 101.822 138.12C101.542 137.96 101.169 137.88 100.702 137.88C100.196 137.88 99.7623 137.993 99.4023 138.22C99.0556 138.433 98.8423 138.767 98.7623 139.22H96.1423C96.2089 138.5 96.4423 137.88 96.8423 137.36C97.2556 136.827 97.7956 136.413 98.4623 136.12C99.1423 135.827 99.8956 135.68 100.722 135.68C101.669 135.68 102.489 135.84 103.182 136.16C103.876 136.48 104.409 136.94 104.782 137.54C105.156 138.14 105.342 138.88 105.342 139.76V146H103.062L102.762 144.46C102.616 144.727 102.442 144.967 102.242 145.18C102.042 145.393 101.809 145.58 101.542 145.74C101.276 145.9 100.976 146.02 100.642 146.1C100.309 146.193 99.9423 146.24 99.5423 146.24ZM100.182 144.16C100.529 144.16 100.836 144.1 101.102 143.98C101.382 143.847 101.622 143.673 101.822 143.46C102.022 143.233 102.176 142.98 102.282 142.7C102.402 142.407 102.482 142.093 102.522 141.76V141.74H100.462C100.049 141.74 99.7089 141.793 99.4423 141.9C99.1889 141.993 99.0023 142.133 98.8823 142.32C98.7623 142.507 98.7023 142.72 98.7023 142.96C98.7023 143.227 98.7623 143.447 98.8823 143.62C99.0023 143.793 99.1756 143.927 99.4023 144.02C99.6289 144.113 99.8889 144.16 100.182 144.16ZM107.861 146V135.92H110.241L110.461 137.26C110.781 136.78 111.201 136.4 111.721 136.12C112.254 135.827 112.861 135.68 113.541 135.68C114.048 135.68 114.501 135.747 114.901 135.88C115.301 136.013 115.654 136.207 115.961 136.46C116.281 136.713 116.541 137.033 116.741 137.42C117.114 136.873 117.601 136.447 118.201 136.14C118.801 135.833 119.454 135.68 120.161 135.68C121.041 135.68 121.774 135.86 122.361 136.22C122.948 136.567 123.388 137.073 123.681 137.74C123.988 138.407 124.141 139.227 124.141 140.2V146H121.461V140.44C121.461 139.64 121.301 139.027 120.981 138.6C120.674 138.173 120.194 137.96 119.541 137.96C119.114 137.96 118.734 138.067 118.401 138.28C118.068 138.493 117.808 138.8 117.621 139.2C117.448 139.6 117.361 140.08 117.361 140.64V146H114.661V140.44C114.661 139.64 114.501 139.027 114.181 138.6C113.861 138.173 113.368 137.96 112.701 137.96C112.288 137.96 111.914 138.067 111.581 138.28C111.261 138.493 111.008 138.8 110.821 139.2C110.648 139.6 110.561 140.08 110.561 140.64V146H107.861ZM131.449 146.24C130.489 146.24 129.622 146.02 128.849 145.58C128.089 145.127 127.482 144.507 127.029 143.72C126.589 142.92 126.369 142.007 126.369 140.98C126.369 139.927 126.589 139.007 127.029 138.22C127.482 137.42 128.096 136.8 128.869 136.36C129.642 135.907 130.509 135.68 131.469 135.68C132.442 135.68 133.309 135.907 134.069 136.36C134.842 136.8 135.449 137.42 135.889 138.22C136.342 139.007 136.569 139.92 136.569 140.96C136.569 142 136.342 142.92 135.889 143.72C135.449 144.507 134.842 145.127 134.069 145.58C133.296 146.02 132.422 146.24 131.449 146.24ZM131.449 143.9C131.902 143.9 132.302 143.793 132.649 143.58C133.009 143.367 133.289 143.04 133.489 142.6C133.702 142.16 133.809 141.613 133.809 140.96C133.809 140.307 133.702 139.767 133.489 139.34C133.289 138.9 133.009 138.573 132.649 138.36C132.302 138.133 131.909 138.02 131.469 138.02C131.042 138.02 130.649 138.133 130.289 138.36C129.929 138.573 129.642 138.9 129.429 139.34C129.229 139.767 129.129 140.307 129.129 140.96C129.129 141.613 129.229 142.16 129.429 142.6C129.642 143.04 129.922 143.367 130.269 143.58C130.629 143.793 131.022 143.9 131.449 143.9ZM138.896 146V135.92H141.276L141.496 137.26C141.816 136.78 142.236 136.4 142.756 136.12C143.29 135.827 143.896 135.68 144.576 135.68C145.083 135.68 145.536 135.747 145.936 135.88C146.336 136.013 146.69 136.207 146.996 136.46C147.316 136.713 147.576 137.033 147.776 137.42C148.15 136.873 148.636 136.447 149.236 136.14C149.836 135.833 150.49 135.68 151.196 135.68C152.076 135.68 152.81 135.86 153.396 136.22C153.983 136.567 154.423 137.073 154.716 137.74C155.023 138.407 155.176 139.227 155.176 140.2V146H152.496V140.44C152.496 139.64 152.336 139.027 152.016 138.6C151.71 138.173 151.23 137.96 150.576 137.96C150.15 137.96 149.77 138.067 149.436 138.28C149.103 138.493 148.843 138.8 148.656 139.2C148.483 139.6 148.396 140.08 148.396 140.64V146H145.696V140.44C145.696 139.64 145.536 139.027 145.216 138.6C144.896 138.173 144.403 137.96 143.736 137.96C143.323 137.96 142.95 138.067 142.616 138.28C142.296 138.493 142.043 138.8 141.856 139.2C141.683 139.6 141.596 140.08 141.596 140.64V146H138.896ZM157.784 146V135.92H160.484V146H157.784ZM159.144 134.54C158.664 134.54 158.264 134.4 157.944 134.12C157.638 133.827 157.484 133.46 157.484 133.02C157.484 132.58 157.638 132.22 157.944 131.94C158.264 131.647 158.664 131.5 159.144 131.5C159.638 131.5 160.038 131.647 160.344 131.94C160.664 132.22 160.824 132.58 160.824 133.02C160.824 133.46 160.664 133.827 160.344 134.12C160.038 134.4 159.638 134.54 159.144 134.54ZM163.213 146V131.6H165.913V146H163.213ZM171.945 146.24C171.105 146.24 170.411 146.107 169.865 145.84C169.318 145.56 168.911 145.193 168.645 144.74C168.391 144.273 168.265 143.76 168.265 143.2C168.265 142.587 168.418 142.047 168.725 141.58C169.045 141.113 169.518 140.747 170.145 140.48C170.785 140.213 171.585 140.08 172.545 140.08H175.045C175.045 139.587 174.978 139.18 174.845 138.86C174.711 138.527 174.505 138.28 174.225 138.12C173.945 137.96 173.571 137.88 173.105 137.88C172.598 137.88 172.165 137.993 171.805 138.22C171.458 138.433 171.245 138.767 171.165 139.22H168.545C168.611 138.5 168.845 137.88 169.245 137.36C169.658 136.827 170.198 136.413 170.865 136.12C171.545 135.827 172.298 135.68 173.125 135.68C174.071 135.68 174.891 135.84 175.585 136.16C176.278 136.48 176.811 136.94 177.185 137.54C177.558 138.14 177.745 138.88 177.745 139.76V146H175.465L175.165 144.46C175.018 144.727 174.845 144.967 174.645 145.18C174.445 145.393 174.211 145.58 173.945 145.74C173.678 145.9 173.378 146.02 173.045 146.1C172.711 146.193 172.345 146.24 171.945 146.24ZM172.585 144.16C172.931 144.16 173.238 144.1 173.505 143.98C173.785 143.847 174.025 143.673 174.225 143.46C174.425 143.233 174.578 142.98 174.685 142.7C174.805 142.407 174.885 142.093 174.925 141.76V141.74H172.865C172.451 141.74 172.111 141.793 171.845 141.9C171.591 141.993 171.405 142.133 171.285 142.32C171.165 142.507 171.105 142.72 171.105 142.96C171.105 143.227 171.165 143.447 171.285 143.62C171.405 143.793 171.578 143.927 171.805 144.02C172.031 144.113 172.291 144.16 172.585 144.16Z" fill="#6A5ACD"/>
<defs>
<filter id="filter0_f_329_287" x="163.755" y="10.1165" width="78.6514" height="177.139" filterUnits="userSpaceOnUse" color-interpolation-filters="sRGB">
<feFlood flood-opacity="0" result="BackgroundImageFix"/>
<feBlend mode="normal" in="SourceGraphic" in2="BackgroundImageFix" result="shape"/>
<feGaussianBlur stdDeviation="15" result="effect1_foregroundBlur_329_287"/>
</filter>
<filter id="filter1_f_329_287" x="0.760254" y="20.605" width="219.681" height="218.744" filterUnits="userSpaceOnUse" color-interpolation-filters="sRGB">
<feFlood flood-opacity="0" result="BackgroundImageFix"/>
<feBlend mode="normal" in="SourceGraphic" in2="BackgroundImageFix" result="shape"/>
<feGaussianBlur stdDeviation="25" result="effect1_foregroundBlur_329_287"/>
</filter>
<linearGradient id="paint0_linear_329_287" x1="188.694" y1="207" x2="21.2126" y2="-75.993" gradientUnits="userSpaceOnUse">
<stop stop-color="#A1A4F3"/>
<stop offset="0.992945" stop-color="white" stop-opacity="0.86"/>
</linearGradient>
</defs>
</svg>
