<svg width="353" height="320" viewBox="0 0 353 320" fill="none" xmlns="http://www.w3.org/2000/svg">
<g filter="url(#filter0_f_329_515)">
<ellipse cx="203.081" cy="98.6862" rx="9.32577" ry="58.5698" fill="#050259" fill-opacity="0.5" style="mix-blend-mode:overlay"/>
</g>
<ellipse cx="129.252" cy="103.5" rx="100.252" ry="103.5" fill="url(#paint0_linear_329_515)"/>
<g filter="url(#filter1_f_329_515)">
<ellipse cx="110.6" cy="129.977" rx="59.8404" ry="59.3721" fill="#A1A4F3" fill-opacity="0.2"/>
</g>
<path d="M98.2416 86V74.18H94.1416V72H105.002V74.18H100.922V86H98.2416ZM109.818 86.24C108.858 86.24 107.992 86.02 107.218 85.58C106.458 85.1267 105.852 84.5067 105.398 83.72C104.958 82.92 104.738 82.0067 104.738 80.98C104.738 79.9267 104.958 79.0067 105.398 78.22C105.852 77.42 106.465 76.8 107.238 76.36C108.012 75.9067 108.878 75.68 109.838 75.68C110.812 75.68 111.678 75.9067 112.438 76.36C113.212 76.8 113.818 77.42 114.258 78.22C114.712 79.0067 114.938 79.92 114.938 80.96C114.938 82 114.712 82.92 114.258 83.72C113.818 84.5067 113.212 85.1267 112.438 85.58C111.665 86.02 110.792 86.24 109.818 86.24ZM109.818 83.9C110.272 83.9 110.672 83.7933 111.018 83.58C111.378 83.3667 111.658 83.04 111.858 82.6C112.072 82.16 112.178 81.6133 112.178 80.96C112.178 80.3067 112.072 79.7667 111.858 79.34C111.658 78.9 111.378 78.5733 111.018 78.36C110.672 78.1333 110.278 78.02 109.838 78.02C109.412 78.02 109.018 78.1333 108.658 78.36C108.298 78.5733 108.012 78.9 107.798 79.34C107.598 79.7667 107.498 80.3067 107.498 80.96C107.498 81.6133 107.598 82.16 107.798 82.6C108.012 83.04 108.292 83.3667 108.638 83.58C108.998 83.7933 109.392 83.9 109.818 83.9ZM117.265 86V75.92H119.665L119.925 77.78C120.165 77.34 120.465 76.9667 120.825 76.66C121.199 76.3533 121.619 76.1133 122.085 75.94C122.565 75.7667 123.092 75.68 123.665 75.68V78.54H122.745C122.345 78.54 121.972 78.5867 121.625 78.68C121.292 78.7733 120.999 78.9267 120.745 79.14C120.492 79.34 120.299 79.62 120.165 79.98C120.032 80.34 119.965 80.7933 119.965 81.34V86H117.265ZM128.849 86.24C128.009 86.24 127.316 86.1067 126.769 85.84C126.222 85.56 125.816 85.1933 125.549 84.74C125.296 84.2733 125.169 83.76 125.169 83.2C125.169 82.5867 125.322 82.0467 125.629 81.58C125.949 81.1133 126.422 80.7467 127.049 80.48C127.689 80.2133 128.489 80.08 129.449 80.08H131.949C131.949 79.5867 131.882 79.18 131.749 78.86C131.616 78.5267 131.409 78.28 131.129 78.12C130.849 77.96 130.476 77.88 130.009 77.88C129.502 77.88 129.069 77.9933 128.709 78.22C128.362 78.4333 128.149 78.7667 128.069 79.22H125.449C125.516 78.5 125.749 77.88 126.149 77.36C126.562 76.8267 127.102 76.4133 127.769 76.12C128.449 75.8267 129.202 75.68 130.029 75.68C130.976 75.68 131.796 75.84 132.489 76.16C133.182 76.48 133.716 76.94 134.089 77.54C134.462 78.14 134.649 78.88 134.649 79.76V86H132.369L132.069 84.46C131.922 84.7267 131.749 84.9667 131.549 85.18C131.349 85.3933 131.116 85.58 130.849 85.74C130.582 85.9 130.282 86.02 129.949 86.1C129.616 86.1933 129.249 86.24 128.849 86.24ZM129.489 84.16C129.836 84.16 130.142 84.1 130.409 83.98C130.689 83.8467 130.929 83.6733 131.129 83.46C131.329 83.2333 131.482 82.98 131.589 82.7C131.709 82.4067 131.789 82.0933 131.829 81.76V81.74H129.769C129.356 81.74 129.016 81.7933 128.749 81.9C128.496 81.9933 128.309 82.1333 128.189 82.32C128.069 82.5067 128.009 82.72 128.009 82.96C128.009 83.2267 128.069 83.4467 128.189 83.62C128.309 83.7933 128.482 83.9267 128.709 84.02C128.936 84.1133 129.196 84.16 129.489 84.16ZM137.168 86V75.92H139.548L139.748 77.56C140.054 77 140.488 76.5467 141.048 76.2C141.621 75.8533 142.301 75.68 143.088 75.68C143.928 75.68 144.634 75.8533 145.208 76.2C145.781 76.5467 146.214 77.0533 146.508 77.72C146.814 78.3867 146.968 79.2067 146.968 80.18V86H144.288V80.44C144.288 79.64 144.114 79.0267 143.768 78.6C143.434 78.1733 142.914 77.96 142.208 77.96C141.754 77.96 141.348 78.0667 140.988 78.28C140.641 78.4933 140.368 78.8 140.168 79.2C139.968 79.5867 139.868 80.06 139.868 80.62V86H137.168ZM147.611 90.4V88.1H148.431C148.858 88.1 149.158 88.0133 149.331 87.84C149.518 87.6667 149.611 87.3867 149.611 87V75.92H152.311V86.98C152.311 87.8067 152.165 88.4667 151.871 88.96C151.591 89.4667 151.191 89.8333 150.671 90.06C150.151 90.2867 149.538 90.4 148.831 90.4H147.611ZM150.971 74.54C150.478 74.54 150.078 74.4 149.771 74.12C149.465 73.8267 149.311 73.46 149.311 73.02C149.311 72.58 149.465 72.22 149.771 71.94C150.078 71.6467 150.478 71.5 150.971 71.5C151.465 71.5 151.865 71.6467 152.171 71.94C152.478 72.22 152.631 72.58 152.631 73.02C152.631 73.46 152.478 73.8267 152.171 74.12C151.865 74.4 151.465 74.54 150.971 74.54ZM158.4 86.24C157.56 86.24 156.866 86.1067 156.32 85.84C155.773 85.56 155.366 85.1933 155.1 84.74C154.846 84.2733 154.72 83.76 154.72 83.2C154.72 82.5867 154.873 82.0467 155.18 81.58C155.5 81.1133 155.973 80.7467 156.6 80.48C157.24 80.2133 158.04 80.08 159 80.08H161.5C161.5 79.5867 161.433 79.18 161.3 78.86C161.166 78.5267 160.96 78.28 160.68 78.12C160.4 77.96 160.026 77.88 159.56 77.88C159.053 77.88 158.62 77.9933 158.26 78.22C157.913 78.4333 157.7 78.7667 157.62 79.22H155C155.066 78.5 155.3 77.88 155.7 77.36C156.113 76.8267 156.653 76.4133 157.32 76.12C158 75.8267 158.753 75.68 159.58 75.68C160.526 75.68 161.346 75.84 162.04 76.16C162.733 76.48 163.266 76.94 163.64 77.54C164.013 78.14 164.2 78.88 164.2 79.76V86H161.92L161.62 84.46C161.473 84.7267 161.3 84.9667 161.1 85.18C160.9 85.3933 160.666 85.58 160.4 85.74C160.133 85.9 159.833 86.02 159.5 86.1C159.166 86.1933 158.8 86.24 158.4 86.24ZM159.04 84.16C159.386 84.16 159.693 84.1 159.96 83.98C160.24 83.8467 160.48 83.6733 160.68 83.46C160.88 83.2333 161.033 82.98 161.14 82.7C161.26 82.4067 161.34 82.0933 161.38 81.76V81.74H159.32C158.906 81.74 158.566 81.7933 158.3 81.9C158.046 81.9933 157.86 82.1333 157.74 82.32C157.62 82.5067 157.56 82.72 157.56 82.96C157.56 83.2267 157.62 83.4467 157.74 83.62C157.86 83.7933 158.033 83.9267 158.26 84.02C158.486 84.1133 158.746 84.16 159.04 84.16ZM57.6866 110V96H60.3866V107.9H66.5266V110H57.6866ZM68.839 110V99.92H71.539V110H68.839ZM70.199 98.54C69.719 98.54 69.319 98.4 68.999 98.12C68.6923 97.8267 68.539 97.46 68.539 97.02C68.539 96.58 68.6923 96.22 68.999 95.94C69.319 95.6467 69.719 95.5 70.199 95.5C70.6923 95.5 71.0923 95.6467 71.399 95.94C71.719 96.22 71.879 96.58 71.879 97.02C71.879 97.46 71.719 97.8267 71.399 98.12C71.0923 98.4 70.6923 98.54 70.199 98.54ZM74.2673 110V99.92H76.6473L76.8673 101.26C77.1873 100.78 77.6073 100.4 78.1273 100.12C78.6606 99.8267 79.2673 99.68 79.9473 99.68C80.4539 99.68 80.9073 99.7467 81.3073 99.88C81.7073 100.013 82.0606 100.207 82.3673 100.46C82.6873 100.713 82.9473 101.033 83.1473 101.42C83.5206 100.873 84.0073 100.447 84.6073 100.14C85.2073 99.8333 85.8606 99.68 86.5673 99.68C87.4473 99.68 88.1806 99.86 88.7673 100.22C89.3539 100.567 89.7939 101.073 90.0873 101.74C90.3939 102.407 90.5473 103.227 90.5473 104.2V110H87.8673V104.44C87.8673 103.64 87.7073 103.027 87.3873 102.6C87.0806 102.173 86.6006 101.96 85.9473 101.96C85.5206 101.96 85.1406 102.067 84.8073 102.28C84.4739 102.493 84.2139 102.8 84.0273 103.2C83.8539 103.6 83.7673 104.08 83.7673 104.64V110H81.0673V104.44C81.0673 103.64 80.9073 103.027 80.5873 102.6C80.2673 102.173 79.7739 101.96 79.1073 101.96C78.6939 101.96 78.3206 102.067 77.9873 102.28C77.6673 102.493 77.4139 102.8 77.2273 103.2C77.0539 103.6 76.9673 104.08 76.9673 104.64V110H74.2673ZM96.4954 110.24C95.6554 110.24 94.9621 110.107 94.4154 109.84C93.8687 109.56 93.4621 109.193 93.1954 108.74C92.9421 108.273 92.8154 107.76 92.8154 107.2C92.8154 106.587 92.9687 106.047 93.2754 105.58C93.5954 105.113 94.0687 104.747 94.6954 104.48C95.3354 104.213 96.1354 104.08 97.0954 104.08H99.5954C99.5954 103.587 99.5287 103.18 99.3954 102.86C99.2621 102.527 99.0554 102.28 98.7754 102.12C98.4954 101.96 98.1221 101.88 97.6554 101.88C97.1487 101.88 96.7154 101.993 96.3554 102.22C96.0087 102.433 95.7954 102.767 95.7154 103.22H93.0954C93.1621 102.5 93.3954 101.88 93.7954 101.36C94.2087 100.827 94.7487 100.413 95.4154 100.12C96.0954 99.8267 96.8487 99.68 97.6754 99.68C98.6221 99.68 99.4421 99.84 100.135 100.16C100.829 100.48 101.362 100.94 101.735 101.54C102.109 102.14 102.295 102.88 102.295 103.76V110H100.015L99.7154 108.46C99.5687 108.727 99.3954 108.967 99.1954 109.18C98.9954 109.393 98.7621 109.58 98.4954 109.74C98.2287 109.9 97.9287 110.02 97.5954 110.1C97.2621 110.193 96.8954 110.24 96.4954 110.24ZM97.1354 108.16C97.4821 108.16 97.7887 108.1 98.0554 107.98C98.3354 107.847 98.5754 107.673 98.7754 107.46C98.9754 107.233 99.1287 106.98 99.2354 106.7C99.3554 106.407 99.4354 106.093 99.4754 105.76V105.74H97.4154C97.0021 105.74 96.6621 105.793 96.3954 105.9C96.1421 105.993 95.9554 106.133 95.8354 106.32C95.7154 106.507 95.6554 106.72 95.6554 106.96C95.6554 107.227 95.7154 107.447 95.8354 107.62C95.9554 107.793 96.1287 107.927 96.3554 108.02C96.5821 108.113 96.8421 108.16 97.1354 108.16ZM98.7354 98.6C98.3487 98.6 98.0154 98.5267 97.7354 98.38C97.4687 98.2333 97.2221 98.0867 96.9954 97.94C96.7687 97.78 96.5154 97.7 96.2354 97.7C96.0221 97.7 95.8354 97.7733 95.6754 97.92C95.5287 98.0667 95.4287 98.2933 95.3754 98.6H93.9554C94.1021 97.7067 94.3821 97.0533 94.7954 96.64C95.2221 96.2267 95.7421 96.02 96.3554 96.02C96.7421 96.02 97.0687 96.1 97.3354 96.26C97.6021 96.4067 97.8487 96.56 98.0754 96.72C98.3154 96.8667 98.5754 96.94 98.8554 96.94C99.0821 96.94 99.2687 96.8667 99.4154 96.72C99.5754 96.5733 99.6754 96.3467 99.7154 96.04H101.135C101.002 96.9333 100.722 97.5867 100.295 98C99.8821 98.4 99.3621 98.6 98.7354 98.6ZM109.574 110.24C108.614 110.24 107.747 110.02 106.974 109.58C106.214 109.127 105.607 108.507 105.154 107.72C104.714 106.92 104.494 106.007 104.494 104.98C104.494 103.927 104.714 103.007 105.154 102.22C105.607 101.42 106.221 100.8 106.994 100.36C107.767 99.9067 108.634 99.68 109.594 99.68C110.567 99.68 111.434 99.9067 112.194 100.36C112.967 100.8 113.574 101.42 114.014 102.22C114.467 103.007 114.694 103.92 114.694 104.96C114.694 106 114.467 106.92 114.014 107.72C113.574 108.507 112.967 109.127 112.194 109.58C111.421 110.02 110.547 110.24 109.574 110.24ZM109.574 107.9C110.027 107.9 110.427 107.793 110.774 107.58C111.134 107.367 111.414 107.04 111.614 106.6C111.827 106.16 111.934 105.613 111.934 104.96C111.934 104.307 111.827 103.767 111.614 103.34C111.414 102.9 111.134 102.573 110.774 102.36C110.427 102.133 110.034 102.02 109.594 102.02C109.167 102.02 108.774 102.133 108.414 102.36C108.054 102.573 107.767 102.9 107.554 103.34C107.354 103.767 107.254 104.307 107.254 104.96C107.254 105.613 107.354 106.16 107.554 106.6C107.767 107.04 108.047 107.367 108.394 107.58C108.754 107.793 109.147 107.9 109.574 107.9ZM126.608 110.24C125.595 110.24 124.688 110.067 123.888 109.72C123.102 109.373 122.475 108.867 122.008 108.2C121.555 107.533 121.322 106.727 121.308 105.78H124.168C124.182 106.193 124.288 106.567 124.488 106.9C124.688 107.233 124.962 107.5 125.308 107.7C125.668 107.887 126.095 107.98 126.588 107.98C127.015 107.98 127.382 107.913 127.688 107.78C128.008 107.633 128.255 107.433 128.428 107.18C128.602 106.927 128.688 106.627 128.688 106.28C128.688 105.88 128.588 105.547 128.388 105.28C128.202 105.013 127.935 104.787 127.588 104.6C127.255 104.413 126.862 104.247 126.408 104.1C125.968 103.94 125.502 103.773 125.008 103.6C123.902 103.24 123.055 102.76 122.468 102.16C121.895 101.56 121.608 100.767 121.608 99.78C121.608 98.94 121.808 98.22 122.208 97.62C122.622 97.02 123.188 96.56 123.908 96.24C124.628 95.92 125.448 95.76 126.368 95.76C127.315 95.76 128.142 95.9267 128.848 96.26C129.568 96.58 130.135 97.0467 130.548 97.66C130.975 98.2733 131.195 98.9933 131.208 99.82H128.328C128.315 99.5133 128.222 99.2267 128.048 98.96C127.888 98.68 127.662 98.46 127.368 98.3C127.075 98.1267 126.728 98.04 126.328 98.04C125.982 98.0267 125.662 98.08 125.368 98.2C125.088 98.32 124.862 98.5 124.688 98.74C124.528 98.9667 124.448 99.2533 124.448 99.6C124.448 99.9333 124.528 100.213 124.688 100.44C124.862 100.667 125.095 100.867 125.388 101.04C125.682 101.2 126.028 101.353 126.428 101.5C126.828 101.633 127.262 101.773 127.728 101.92C128.422 102.16 129.062 102.447 129.648 102.78C130.235 103.1 130.702 103.52 131.048 104.04C131.395 104.56 131.568 105.247 131.568 106.1C131.568 106.833 131.375 107.513 130.988 108.14C130.602 108.767 130.042 109.273 129.308 109.66C128.588 110.047 127.688 110.24 126.608 110.24ZM133.859 110V99.92H136.559V110H133.859ZM135.219 98.54C134.739 98.54 134.339 98.4 134.019 98.12C133.712 97.8267 133.559 97.46 133.559 97.02C133.559 96.58 133.712 96.22 134.019 95.94C134.339 95.6467 134.739 95.5 135.219 95.5C135.712 95.5 136.112 95.6467 136.419 95.94C136.739 96.22 136.899 96.58 136.899 97.02C136.899 97.46 136.739 97.8267 136.419 98.12C136.112 98.4 135.712 98.54 135.219 98.54ZM144.167 110.24C143.153 110.24 142.253 110.013 141.467 109.56C140.68 109.107 140.067 108.487 139.627 107.7C139.187 106.913 138.967 106.013 138.967 105C138.967 103.96 139.187 103.047 139.627 102.26C140.067 101.46 140.68 100.833 141.467 100.38C142.253 99.9133 143.153 99.68 144.167 99.68C145.46 99.68 146.547 100.02 147.427 100.7C148.307 101.38 148.867 102.313 149.107 103.5H146.247C146.127 103.033 145.873 102.667 145.487 102.4C145.113 102.133 144.667 102 144.147 102C143.68 102 143.26 102.12 142.887 102.36C142.527 102.587 142.24 102.927 142.027 103.38C141.827 103.82 141.727 104.347 141.727 104.96C141.727 105.427 141.787 105.847 141.907 106.22C142.027 106.58 142.193 106.893 142.407 107.16C142.62 107.413 142.873 107.607 143.167 107.74C143.473 107.873 143.8 107.94 144.147 107.94C144.493 107.94 144.807 107.88 145.087 107.76C145.38 107.64 145.627 107.473 145.827 107.26C146.027 107.033 146.167 106.76 146.247 106.44H149.107C148.867 107.6 148.3 108.527 147.407 109.22C146.527 109.9 145.447 110.24 144.167 110.24ZM151.495 110V99.92H154.195V110H151.495ZM152.855 98.54C152.375 98.54 151.975 98.4 151.655 98.12C151.349 97.8267 151.195 97.46 151.195 97.02C151.195 96.58 151.349 96.22 151.655 95.94C151.975 95.6467 152.375 95.5 152.855 95.5C153.349 95.5 153.749 95.6467 154.055 95.94C154.375 96.22 154.535 96.58 154.535 97.02C154.535 97.46 154.375 97.8267 154.055 98.12C153.749 98.4 153.349 98.54 152.855 98.54ZM156.924 110V95.6H159.624V110H156.924ZM162.316 110V99.92H165.016V110H162.316ZM163.676 98.54C163.196 98.54 162.796 98.4 162.476 98.12C162.169 97.8267 162.016 97.46 162.016 97.02C162.016 96.58 162.169 96.22 162.476 95.94C162.796 95.6467 163.196 95.5 163.676 95.5C164.169 95.5 164.569 95.6467 164.876 95.94C165.196 96.22 165.356 96.58 165.356 97.02C165.356 97.46 165.196 97.8267 164.876 98.12C164.569 98.4 164.169 98.54 163.676 98.54ZM171.144 110.24C170.304 110.24 169.61 110.107 169.064 109.84C168.517 109.56 168.11 109.193 167.844 108.74C167.59 108.273 167.464 107.76 167.464 107.2C167.464 106.587 167.617 106.047 167.924 105.58C168.244 105.113 168.717 104.747 169.344 104.48C169.984 104.213 170.784 104.08 171.744 104.08H174.244C174.244 103.587 174.177 103.18 174.044 102.86C173.91 102.527 173.704 102.28 173.424 102.12C173.144 101.96 172.77 101.88 172.304 101.88C171.797 101.88 171.364 101.993 171.004 102.22C170.657 102.433 170.444 102.767 170.364 103.22H167.744C167.81 102.5 168.044 101.88 168.444 101.36C168.857 100.827 169.397 100.413 170.064 100.12C170.744 99.8267 171.497 99.68 172.324 99.68C173.27 99.68 174.09 99.84 174.784 100.16C175.477 100.48 176.01 100.94 176.384 101.54C176.757 102.14 176.944 102.88 176.944 103.76V110H174.664L174.364 108.46C174.217 108.727 174.044 108.967 173.844 109.18C173.644 109.393 173.41 109.58 173.144 109.74C172.877 109.9 172.577 110.02 172.244 110.1C171.91 110.193 171.544 110.24 171.144 110.24ZM171.784 108.16C172.13 108.16 172.437 108.1 172.704 107.98C172.984 107.847 173.224 107.673 173.424 107.46C173.624 107.233 173.777 106.98 173.884 106.7C174.004 106.407 174.084 106.093 174.124 105.76V105.74H172.064C171.65 105.74 171.31 105.793 171.044 105.9C170.79 105.993 170.604 106.133 170.484 106.32C170.364 106.507 170.304 106.72 170.304 106.96C170.304 107.227 170.364 107.447 170.484 107.62C170.604 107.793 170.777 107.927 171.004 108.02C171.23 108.113 171.49 108.16 171.784 108.16ZM179.463 110V99.92H181.843L182.043 101.56C182.349 101 182.783 100.547 183.343 100.2C183.916 99.8533 184.596 99.68 185.383 99.68C186.223 99.68 186.929 99.8533 187.503 100.2C188.076 100.547 188.509 101.053 188.803 101.72C189.109 102.387 189.263 103.207 189.263 104.18V110H186.583V104.44C186.583 103.64 186.409 103.027 186.063 102.6C185.729 102.173 185.209 101.96 184.503 101.96C184.049 101.96 183.643 102.067 183.283 102.28C182.936 102.493 182.663 102.8 182.463 103.2C182.263 103.587 182.163 104.06 182.163 104.62V110H179.463ZM196.566 110.24C195.606 110.24 194.74 110.02 193.966 109.58C193.206 109.127 192.6 108.507 192.146 107.72C191.706 106.92 191.486 106.007 191.486 104.98C191.486 103.927 191.706 103.007 192.146 102.22C192.6 101.42 193.213 100.8 193.986 100.36C194.76 99.9067 195.626 99.68 196.586 99.68C197.56 99.68 198.426 99.9067 199.186 100.36C199.96 100.8 200.566 101.42 201.006 102.22C201.46 103.007 201.686 103.92 201.686 104.96C201.686 106 201.46 106.92 201.006 107.72C200.566 108.507 199.96 109.127 199.186 109.58C198.413 110.02 197.54 110.24 196.566 110.24ZM196.566 107.9C197.02 107.9 197.42 107.793 197.766 107.58C198.126 107.367 198.406 107.04 198.606 106.6C198.82 106.16 198.926 105.613 198.926 104.96C198.926 104.307 198.82 103.767 198.606 103.34C198.406 102.9 198.126 102.573 197.766 102.36C197.42 102.133 197.026 102.02 196.586 102.02C196.16 102.02 195.766 102.133 195.406 102.36C195.046 102.573 194.76 102.9 194.546 103.34C194.346 103.767 194.246 104.307 194.246 104.96C194.246 105.613 194.346 106.16 194.546 106.6C194.76 107.04 195.04 107.367 195.386 107.58C195.746 107.793 196.14 107.9 196.566 107.9ZM86.3666 134V122.18H82.2666V120H93.1266V122.18H89.0466V134H86.3666ZM96.6419 134.24C95.8019 134.24 95.1085 134.107 94.5619 133.84C94.0152 133.56 93.6085 133.193 93.3419 132.74C93.0885 132.273 92.9619 131.76 92.9619 131.2C92.9619 130.587 93.1152 130.047 93.4219 129.58C93.7419 129.113 94.2152 128.747 94.8419 128.48C95.4819 128.213 96.2819 128.08 97.2419 128.08H99.7419C99.7419 127.587 99.6752 127.18 99.5419 126.86C99.4085 126.527 99.2019 126.28 98.9219 126.12C98.6419 125.96 98.2685 125.88 97.8019 125.88C97.2952 125.88 96.8619 125.993 96.5019 126.22C96.1552 126.433 95.9419 126.767 95.8619 127.22H93.2419C93.3085 126.5 93.5419 125.88 93.9419 125.36C94.3552 124.827 94.8952 124.413 95.5619 124.12C96.2419 123.827 96.9952 123.68 97.8219 123.68C98.7685 123.68 99.5885 123.84 100.282 124.16C100.975 124.48 101.509 124.94 101.882 125.54C102.255 126.14 102.442 126.88 102.442 127.76V134H100.162L99.8619 132.46C99.7152 132.727 99.5419 132.967 99.3419 133.18C99.1419 133.393 98.9085 133.58 98.6419 133.74C98.3752 133.9 98.0752 134.02 97.7419 134.1C97.4085 134.193 97.0419 134.24 96.6419 134.24ZM97.2819 132.16C97.6285 132.16 97.9352 132.1 98.2019 131.98C98.4819 131.847 98.7219 131.673 98.9219 131.46C99.1219 131.233 99.2752 130.98 99.3819 130.7C99.5019 130.407 99.5819 130.093 99.6219 129.76V129.74H97.5619C97.1485 129.74 96.8085 129.793 96.5419 129.9C96.2885 129.993 96.1019 130.133 95.9819 130.32C95.8619 130.507 95.8019 130.72 95.8019 130.96C95.8019 131.227 95.8619 131.447 95.9819 131.62C96.1019 131.793 96.2752 131.927 96.5019 132.02C96.7285 132.113 96.9885 132.16 97.2819 132.16ZM104.961 134V123.92H107.341L107.541 125.56C107.847 125 108.281 124.547 108.841 124.2C109.414 123.853 110.094 123.68 110.881 123.68C111.721 123.68 112.427 123.853 113.001 124.2C113.574 124.547 114.007 125.053 114.301 125.72C114.607 126.387 114.761 127.207 114.761 128.18V134H112.081V128.44C112.081 127.64 111.907 127.027 111.561 126.6C111.227 126.173 110.707 125.96 110.001 125.96C109.547 125.96 109.141 126.067 108.781 126.28C108.434 126.493 108.161 126.8 107.961 127.2C107.761 127.587 107.661 128.06 107.661 128.62V134H104.961ZM121.644 138.64C120.684 138.64 119.844 138.52 119.124 138.28C118.404 138.053 117.844 137.7 117.444 137.22C117.058 136.753 116.864 136.173 116.864 135.48C116.864 135.013 116.984 134.573 117.224 134.16C117.464 133.747 117.811 133.373 118.264 133.04C118.731 132.693 119.311 132.4 120.004 132.16L121.024 133.48C120.411 133.68 119.964 133.927 119.684 134.22C119.418 134.527 119.284 134.853 119.284 135.2C119.284 135.507 119.384 135.767 119.584 135.98C119.798 136.193 120.078 136.347 120.424 136.44C120.784 136.547 121.184 136.6 121.624 136.6C122.051 136.6 122.418 136.547 122.724 136.44C123.044 136.333 123.291 136.173 123.464 135.96C123.651 135.76 123.744 135.52 123.744 135.24C123.744 134.88 123.618 134.587 123.364 134.36C123.111 134.133 122.604 133.993 121.844 133.94C121.164 133.887 120.558 133.813 120.024 133.72C119.504 133.613 119.044 133.493 118.644 133.36C118.244 133.213 117.904 133.053 117.624 132.88C117.358 132.707 117.138 132.533 116.964 132.36V131.9L119.104 129.6L121.044 130.22L118.524 132.7L119.284 131.38C119.431 131.46 119.571 131.54 119.704 131.62C119.851 131.687 120.031 131.753 120.244 131.82C120.458 131.873 120.738 131.927 121.084 131.98C121.431 132.033 121.871 132.08 122.404 132.12C123.284 132.2 124.004 132.367 124.564 132.62C125.138 132.873 125.558 133.213 125.824 133.64C126.091 134.053 126.224 134.567 126.224 135.18C126.224 135.78 126.058 136.34 125.724 136.86C125.404 137.393 124.904 137.82 124.224 138.14C123.544 138.473 122.684 138.64 121.644 138.64ZM121.644 131.02C120.804 131.02 120.078 130.86 119.464 130.54C118.864 130.207 118.398 129.767 118.064 129.22C117.744 128.66 117.584 128.04 117.584 127.36C117.584 126.68 117.744 126.067 118.064 125.52C118.398 124.96 118.864 124.513 119.464 124.18C120.078 123.847 120.804 123.68 121.644 123.68C122.498 123.68 123.224 123.847 123.824 124.18C124.438 124.513 124.904 124.96 125.224 125.52C125.544 126.067 125.704 126.68 125.704 127.36C125.704 128.04 125.544 128.66 125.224 129.22C124.904 129.767 124.438 130.207 123.824 130.54C123.224 130.86 122.498 131.02 121.644 131.02ZM121.644 128.96C122.164 128.96 122.584 128.827 122.904 128.56C123.224 128.293 123.384 127.9 123.384 127.38C123.384 126.86 123.224 126.467 122.904 126.2C122.584 125.92 122.164 125.78 121.644 125.78C121.138 125.78 120.718 125.92 120.384 126.2C120.064 126.467 119.904 126.86 119.904 127.38C119.904 127.9 120.064 128.293 120.384 128.56C120.718 128.827 121.138 128.96 121.644 128.96ZM123.324 125.84L122.884 123.92H127.024V125.52L123.324 125.84ZM133.668 134.24C132.654 134.24 131.754 134.027 130.968 133.6C130.194 133.16 129.588 132.553 129.148 131.78C128.721 130.993 128.508 130.087 128.508 129.06C128.508 128.007 128.721 127.08 129.148 126.28C129.588 125.467 130.194 124.833 130.968 124.38C131.741 123.913 132.641 123.68 133.668 123.68C134.668 123.68 135.541 123.9 136.288 124.34C137.034 124.78 137.614 125.373 138.028 126.12C138.441 126.867 138.648 127.713 138.648 128.66C138.648 128.793 138.648 128.947 138.648 129.12C138.648 129.28 138.634 129.447 138.608 129.62H130.428V127.98H135.928C135.888 127.327 135.654 126.813 135.228 126.44C134.814 126.067 134.294 125.88 133.668 125.88C133.214 125.88 132.794 125.987 132.408 126.2C132.021 126.4 131.714 126.713 131.488 127.14C131.274 127.567 131.168 128.107 131.168 128.76V129.34C131.168 129.887 131.268 130.367 131.468 130.78C131.681 131.18 131.974 131.493 132.348 131.72C132.721 131.933 133.154 132.04 133.648 132.04C134.141 132.04 134.548 131.933 134.868 131.72C135.201 131.507 135.448 131.233 135.608 130.9H138.368C138.181 131.527 137.868 132.093 137.428 132.6C136.988 133.107 136.448 133.507 135.808 133.8C135.168 134.093 134.454 134.24 133.668 134.24ZM140.859 134V123.92H143.259L143.519 125.78C143.759 125.34 144.059 124.967 144.419 124.66C144.792 124.353 145.212 124.113 145.679 123.94C146.159 123.767 146.686 123.68 147.259 123.68V126.54H146.339C145.939 126.54 145.566 126.587 145.219 126.68C144.886 126.773 144.592 126.927 144.339 127.14C144.086 127.34 143.892 127.62 143.759 127.98C143.626 128.34 143.559 128.793 143.559 129.34V134H140.859ZM149.103 134V123.92H151.803V134H149.103ZM150.463 122.54C149.983 122.54 149.583 122.4 149.263 122.12C148.956 121.827 148.803 121.46 148.803 121.02C148.803 120.58 148.956 120.22 149.263 119.94C149.583 119.647 149.983 119.5 150.463 119.5C150.956 119.5 151.356 119.647 151.663 119.94C151.983 120.22 152.143 120.58 152.143 121.02C152.143 121.46 151.983 121.827 151.663 122.12C151.356 122.4 150.956 122.54 150.463 122.54ZM154.531 134V123.92H156.911L157.111 125.56C157.418 125 157.851 124.547 158.411 124.2C158.984 123.853 159.664 123.68 160.451 123.68C161.291 123.68 161.998 123.853 162.571 124.2C163.144 124.547 163.578 125.053 163.871 125.72C164.178 126.387 164.331 127.207 164.331 128.18V134H161.651V128.44C161.651 127.64 161.478 127.027 161.131 126.6C160.798 126.173 160.278 125.96 159.571 125.96C159.118 125.96 158.711 126.067 158.351 126.28C158.004 126.493 157.731 126.8 157.531 127.2C157.331 127.587 157.231 128.06 157.231 128.62V134H154.531ZM170.275 134.24C169.435 134.24 168.741 134.107 168.195 133.84C167.648 133.56 167.241 133.193 166.975 132.74C166.721 132.273 166.595 131.76 166.595 131.2C166.595 130.587 166.748 130.047 167.055 129.58C167.375 129.113 167.848 128.747 168.475 128.48C169.115 128.213 169.915 128.08 170.875 128.08H173.375C173.375 127.587 173.308 127.18 173.175 126.86C173.041 126.527 172.835 126.28 172.555 126.12C172.275 125.96 171.901 125.88 171.435 125.88C170.928 125.88 170.495 125.993 170.135 126.22C169.788 126.433 169.575 126.767 169.495 127.22H166.875C166.941 126.5 167.175 125.88 167.575 125.36C167.988 124.827 168.528 124.413 169.195 124.12C169.875 123.827 170.628 123.68 171.455 123.68C172.401 123.68 173.221 123.84 173.915 124.16C174.608 124.48 175.141 124.94 175.515 125.54C175.888 126.14 176.075 126.88 176.075 127.76V134H173.795L173.495 132.46C173.348 132.727 173.175 132.967 172.975 133.18C172.775 133.393 172.541 133.58 172.275 133.74C172.008 133.9 171.708 134.02 171.375 134.1C171.041 134.193 170.675 134.24 170.275 134.24ZM170.915 132.16C171.261 132.16 171.568 132.1 171.835 131.98C172.115 131.847 172.355 131.673 172.555 131.46C172.755 131.233 172.908 130.98 173.015 130.7C173.135 130.407 173.215 130.093 173.255 129.76V129.74H171.195C170.781 129.74 170.441 129.793 170.175 129.9C169.921 129.993 169.735 130.133 169.615 130.32C169.495 130.507 169.435 130.72 169.435 130.96C169.435 131.227 169.495 131.447 169.615 131.62C169.735 131.793 169.908 131.927 170.135 132.02C170.361 132.113 170.621 132.16 170.915 132.16Z" fill="#6A5ACD"/>
<g filter="url(#filter2_f_329_515)">
<ellipse cx="255" cy="178.601" rx="41.0435" ry="14.3638" fill="#A1A4F3" fill-opacity="0.5" style="mix-blend-mode:overlay"/>
</g>
<ellipse cx="255" cy="229.592" rx="80" ry="82.5918" fill="url(#paint1_linear_329_515)"/>
<g filter="url(#filter3_f_329_515)">
<ellipse cx="250.13" cy="234.619" rx="52.8696" ry="34.4731" fill="#A1A4F3" fill-opacity="0.15" style="mix-blend-mode:overlay"/>
</g>
<path d="M226.218 200V186H228.918V200H226.218ZM217.398 200V186H220.098V200H217.398ZM219.718 193.94V191.76H226.678V193.94H219.718ZM236.375 200.24C235.415 200.24 234.548 200.02 233.775 199.58C233.015 199.127 232.408 198.507 231.955 197.72C231.515 196.92 231.295 196.007 231.295 194.98C231.295 193.927 231.515 193.007 231.955 192.22C232.408 191.42 233.022 190.8 233.795 190.36C234.568 189.907 235.435 189.68 236.395 189.68C237.368 189.68 238.235 189.907 238.995 190.36C239.768 190.8 240.375 191.42 240.815 192.22C241.268 193.007 241.495 193.92 241.495 194.96C241.495 196 241.268 196.92 240.815 197.72C240.375 198.507 239.768 199.127 238.995 199.58C238.222 200.02 237.348 200.24 236.375 200.24ZM236.375 197.9C236.828 197.9 237.228 197.793 237.575 197.58C237.935 197.367 238.215 197.04 238.415 196.6C238.628 196.16 238.735 195.613 238.735 194.96C238.735 194.307 238.628 193.767 238.415 193.34C238.215 192.9 237.935 192.573 237.575 192.36C237.228 192.133 236.835 192.02 236.395 192.02C235.968 192.02 235.575 192.133 235.215 192.36C234.855 192.573 234.568 192.9 234.355 193.34C234.155 193.767 234.055 194.307 234.055 194.96C234.055 195.613 234.155 196.16 234.355 196.6C234.568 197.04 234.848 197.367 235.195 197.58C235.555 197.793 235.948 197.9 236.375 197.9ZM243.822 200V189.92H246.222L246.482 191.78C246.722 191.34 247.022 190.967 247.382 190.66C247.755 190.353 248.175 190.113 248.642 189.94C249.122 189.767 249.649 189.68 250.222 189.68V192.54H249.302C248.902 192.54 248.529 192.587 248.182 192.68C247.849 192.773 247.555 192.927 247.302 193.14C247.049 193.34 246.855 193.62 246.722 193.98C246.589 194.34 246.522 194.793 246.522 195.34V200H243.822ZM256.546 200C255.839 200 255.219 199.893 254.686 199.68C254.166 199.453 253.759 199.087 253.466 198.58C253.172 198.06 253.026 197.353 253.026 196.46V192.18H251.306V189.92H253.026L253.326 187.18H255.726V189.92H258.386V192.18H255.726V196.5C255.726 196.953 255.826 197.267 256.026 197.44C256.226 197.613 256.566 197.7 257.046 197.7H258.366V200H256.546ZM265.244 200.24C264.231 200.24 263.331 200.027 262.544 199.6C261.771 199.16 261.164 198.553 260.724 197.78C260.297 196.993 260.084 196.087 260.084 195.06C260.084 194.007 260.297 193.08 260.724 192.28C261.164 191.467 261.771 190.833 262.544 190.38C263.317 189.913 264.217 189.68 265.244 189.68C266.244 189.68 267.117 189.9 267.864 190.34C268.611 190.78 269.191 191.373 269.604 192.12C270.017 192.867 270.224 193.713 270.224 194.66C270.224 194.793 270.224 194.947 270.224 195.12C270.224 195.28 270.211 195.447 270.184 195.62H262.004V193.98H267.504C267.464 193.327 267.231 192.813 266.804 192.44C266.391 192.067 265.871 191.88 265.244 191.88C264.791 191.88 264.371 191.987 263.984 192.2C263.597 192.4 263.291 192.713 263.064 193.14C262.851 193.567 262.744 194.107 262.744 194.76V195.34C262.744 195.887 262.844 196.367 263.044 196.78C263.257 197.18 263.551 197.493 263.924 197.72C264.297 197.933 264.731 198.04 265.224 198.04C265.717 198.04 266.124 197.933 266.444 197.72C266.777 197.507 267.024 197.233 267.184 196.9H269.944C269.757 197.527 269.444 198.093 269.004 198.6C268.564 199.107 268.024 199.507 267.384 199.8C266.744 200.093 266.031 200.24 265.244 200.24ZM272.435 200V185.6H275.135V200H272.435ZM281.167 200.24C280.327 200.24 279.634 200.107 279.087 199.84C278.541 199.56 278.134 199.193 277.867 198.74C277.614 198.273 277.487 197.76 277.487 197.2C277.487 196.587 277.641 196.047 277.947 195.58C278.267 195.113 278.741 194.747 279.367 194.48C280.007 194.213 280.807 194.08 281.767 194.08H284.267C284.267 193.587 284.201 193.18 284.067 192.86C283.934 192.527 283.727 192.28 283.447 192.12C283.167 191.96 282.794 191.88 282.327 191.88C281.821 191.88 281.387 191.993 281.027 192.22C280.681 192.433 280.467 192.767 280.387 193.22H277.767C277.834 192.5 278.067 191.88 278.467 191.36C278.881 190.827 279.421 190.413 280.087 190.12C280.767 189.827 281.521 189.68 282.347 189.68C283.294 189.68 284.114 189.84 284.807 190.16C285.501 190.48 286.034 190.94 286.407 191.54C286.781 192.14 286.967 192.88 286.967 193.76V200H284.687L284.387 198.46C284.241 198.727 284.067 198.967 283.867 199.18C283.667 199.393 283.434 199.58 283.167 199.74C282.901 199.9 282.601 200.02 282.267 200.1C281.934 200.193 281.567 200.24 281.167 200.24ZM281.807 198.16C282.154 198.16 282.461 198.1 282.727 197.98C283.007 197.847 283.247 197.673 283.447 197.46C283.647 197.233 283.801 196.98 283.907 196.7C284.027 196.407 284.107 196.093 284.147 195.76V195.74H282.087C281.674 195.74 281.334 195.793 281.067 195.9C280.814 195.993 280.627 196.133 280.507 196.32C280.387 196.507 280.327 196.72 280.327 196.96C280.327 197.227 280.387 197.447 280.507 197.62C280.627 197.793 280.801 197.927 281.027 198.02C281.254 198.113 281.514 198.16 281.807 198.16ZM283.407 188.6C283.021 188.6 282.687 188.527 282.407 188.38C282.141 188.233 281.894 188.087 281.667 187.94C281.441 187.78 281.187 187.7 280.907 187.7C280.694 187.7 280.507 187.773 280.347 187.92C280.201 188.067 280.101 188.293 280.047 188.6H278.627C278.774 187.707 279.054 187.053 279.467 186.64C279.894 186.227 280.414 186.02 281.027 186.02C281.414 186.02 281.741 186.1 282.007 186.26C282.274 186.407 282.521 186.56 282.747 186.72C282.987 186.867 283.247 186.94 283.527 186.94C283.754 186.94 283.941 186.867 284.087 186.72C284.247 186.573 284.347 186.347 284.387 186.04H285.807C285.674 186.933 285.394 187.587 284.967 188C284.554 188.4 284.034 188.6 283.407 188.6ZM289.706 195.24V192.98H298.146V195.24H289.706ZM215.736 228.4V213.92H218.136L218.436 215.32C218.649 215.027 218.903 214.76 219.196 214.52C219.489 214.267 219.836 214.067 220.236 213.92C220.649 213.76 221.129 213.68 221.676 213.68C222.623 213.68 223.456 213.913 224.176 214.38C224.896 214.847 225.463 215.48 225.876 216.28C226.303 217.067 226.516 217.967 226.516 218.98C226.516 219.993 226.303 220.9 225.876 221.7C225.449 222.487 224.876 223.107 224.156 223.56C223.436 224.013 222.616 224.24 221.696 224.24C220.949 224.24 220.303 224.107 219.756 223.84C219.223 223.56 218.783 223.18 218.436 222.7V228.4H215.736ZM221.056 221.88C221.589 221.88 222.056 221.76 222.456 221.52C222.869 221.28 223.189 220.94 223.416 220.5C223.643 220.06 223.756 219.553 223.756 218.98C223.756 218.407 223.643 217.9 223.416 217.46C223.189 217.007 222.869 216.66 222.456 216.42C222.056 216.167 221.589 216.04 221.056 216.04C220.536 216.04 220.069 216.167 219.656 216.42C219.256 216.66 218.936 217 218.696 217.44C218.469 217.88 218.356 218.387 218.356 218.96C218.356 219.533 218.469 220.047 218.696 220.5C218.936 220.94 219.256 221.28 219.656 221.52C220.069 221.76 220.536 221.88 221.056 221.88ZM228.901 224V213.92H231.601V224H228.901ZM230.261 212.54C229.781 212.54 229.381 212.4 229.061 212.12C228.755 211.827 228.601 211.46 228.601 211.02C228.601 210.58 228.755 210.22 229.061 209.94C229.381 209.647 229.781 209.5 230.261 209.5C230.755 209.5 231.155 209.647 231.461 209.94C231.781 210.22 231.941 210.58 231.941 211.02C231.941 211.46 231.781 211.827 231.461 212.12C231.155 212.4 230.755 212.54 230.261 212.54ZM234.33 224V213.92H236.71L236.93 215.26C237.25 214.78 237.67 214.4 238.19 214.12C238.723 213.827 239.33 213.68 240.01 213.68C240.516 213.68 240.97 213.747 241.37 213.88C241.77 214.013 242.123 214.207 242.43 214.46C242.75 214.713 243.01 215.033 243.21 215.42C243.583 214.873 244.07 214.447 244.67 214.14C245.27 213.833 245.923 213.68 246.63 213.68C247.51 213.68 248.243 213.86 248.83 214.22C249.416 214.567 249.856 215.073 250.15 215.74C250.456 216.407 250.61 217.227 250.61 218.2V224H247.93V218.44C247.93 217.64 247.77 217.027 247.45 216.6C247.143 216.173 246.663 215.96 246.01 215.96C245.583 215.96 245.203 216.067 244.87 216.28C244.536 216.493 244.276 216.8 244.09 217.2C243.916 217.6 243.83 218.08 243.83 218.64V224H241.13V218.44C241.13 217.64 240.97 217.027 240.65 216.6C240.33 216.173 239.836 215.96 239.17 215.96C238.756 215.96 238.383 216.067 238.05 216.28C237.73 216.493 237.476 216.8 237.29 217.2C237.116 217.6 237.03 218.08 237.03 218.64V224H234.33ZM257.998 224.24C256.985 224.24 256.085 224.027 255.298 223.6C254.525 223.16 253.918 222.553 253.478 221.78C253.051 220.993 252.838 220.087 252.838 219.06C252.838 218.007 253.051 217.08 253.478 216.28C253.918 215.467 254.525 214.833 255.298 214.38C256.071 213.913 256.971 213.68 257.998 213.68C258.998 213.68 259.871 213.9 260.618 214.34C261.365 214.78 261.945 215.373 262.358 216.12C262.771 216.867 262.978 217.713 262.978 218.66C262.978 218.793 262.978 218.947 262.978 219.12C262.978 219.28 262.965 219.447 262.938 219.62H254.758V217.98H260.258C260.218 217.327 259.985 216.813 259.558 216.44C259.145 216.067 258.625 215.88 257.998 215.88C257.545 215.88 257.125 215.987 256.738 216.2C256.351 216.4 256.045 216.713 255.818 217.14C255.605 217.567 255.498 218.107 255.498 218.76V219.34C255.498 219.887 255.598 220.367 255.798 220.78C256.011 221.18 256.305 221.493 256.678 221.72C257.051 221.933 257.485 222.04 257.978 222.04C258.471 222.04 258.878 221.933 259.198 221.72C259.531 221.507 259.778 221.233 259.938 220.9H262.698C262.511 221.527 262.198 222.093 261.758 222.6C261.318 223.107 260.778 223.507 260.138 223.8C259.498 224.093 258.785 224.24 257.998 224.24ZM265.189 224V213.92H267.569L267.769 215.56C268.076 215 268.509 214.547 269.069 214.2C269.642 213.853 270.322 213.68 271.109 213.68C271.949 213.68 272.656 213.853 273.229 214.2C273.802 214.547 274.236 215.053 274.529 215.72C274.836 216.387 274.989 217.207 274.989 218.18V224H272.309V218.44C272.309 217.64 272.136 217.027 271.789 216.6C271.456 216.173 270.936 215.96 270.229 215.96C269.776 215.96 269.369 216.067 269.009 216.28C268.662 216.493 268.389 216.8 268.189 217.2C267.989 217.587 267.889 218.06 267.889 218.62V224H265.189ZM282.073 224C281.366 224 280.746 223.893 280.213 223.68C279.693 223.453 279.286 223.087 278.993 222.58C278.7 222.06 278.553 221.353 278.553 220.46V216.18H276.833V213.92H278.553L278.853 211.18H281.253V213.92H283.913V216.18H281.253V220.5C281.253 220.953 281.353 221.267 281.553 221.44C281.753 221.613 282.093 221.7 282.573 221.7H283.893V224H282.073ZM289.585 224.24C288.745 224.24 288.052 224.107 287.505 223.84C286.959 223.56 286.552 223.193 286.285 222.74C286.032 222.273 285.905 221.76 285.905 221.2C285.905 220.587 286.059 220.047 286.365 219.58C286.685 219.113 287.159 218.747 287.785 218.48C288.425 218.213 289.225 218.08 290.185 218.08H292.685C292.685 217.587 292.619 217.18 292.485 216.86C292.352 216.527 292.145 216.28 291.865 216.12C291.585 215.96 291.212 215.88 290.745 215.88C290.239 215.88 289.805 215.993 289.445 216.22C289.099 216.433 288.885 216.767 288.805 217.22H286.185C286.252 216.5 286.485 215.88 286.885 215.36C287.299 214.827 287.839 214.413 288.505 214.12C289.185 213.827 289.939 213.68 290.765 213.68C291.712 213.68 292.532 213.84 293.225 214.16C293.919 214.48 294.452 214.94 294.825 215.54C295.199 216.14 295.385 216.88 295.385 217.76V224H293.105L292.805 222.46C292.659 222.727 292.485 222.967 292.285 223.18C292.085 223.393 291.852 223.58 291.585 223.74C291.319 223.9 291.019 224.02 290.685 224.1C290.352 224.193 289.985 224.24 289.585 224.24ZM290.225 222.16C290.572 222.16 290.879 222.1 291.145 221.98C291.425 221.847 291.665 221.673 291.865 221.46C292.065 221.233 292.219 220.98 292.325 220.7C292.445 220.407 292.525 220.093 292.565 219.76V219.74H290.505C290.092 219.74 289.752 219.793 289.485 219.9C289.232 219.993 289.045 220.133 288.925 220.32C288.805 220.507 288.745 220.72 288.745 220.96C288.745 221.227 288.805 221.447 288.925 221.62C289.045 221.793 289.219 221.927 289.445 222.02C289.672 222.113 289.932 222.16 290.225 222.16ZM210.884 248V234H220.084V236.18H213.584V239.84H219.484V241.94H213.584V245.82H220.084V248H210.884ZM226.244 248.24C225.431 248.24 224.731 248.073 224.144 247.74C223.571 247.393 223.131 246.893 222.824 246.24C222.517 245.573 222.364 244.753 222.364 243.78V237.92H225.064V243.5C225.064 244.313 225.231 244.927 225.564 245.34C225.911 245.753 226.437 245.96 227.144 245.96C227.597 245.96 227.997 245.86 228.344 245.66C228.691 245.447 228.964 245.147 229.164 244.76C229.377 244.36 229.484 243.873 229.484 243.3V237.92H232.164V248H229.804L229.584 246.36C229.291 246.933 228.857 247.393 228.284 247.74C227.711 248.073 227.031 248.24 226.244 248.24ZM239.688 248.24C238.675 248.24 237.775 248.013 236.988 247.56C236.202 247.107 235.588 246.487 235.148 245.7C234.708 244.913 234.488 244.013 234.488 243C234.488 241.96 234.708 241.047 235.148 240.26C235.588 239.46 236.202 238.833 236.988 238.38C237.775 237.913 238.675 237.68 239.688 237.68C240.982 237.68 242.068 238.02 242.948 238.7C243.828 239.38 244.388 240.313 244.628 241.5H241.768C241.648 241.033 241.395 240.667 241.008 240.4C240.635 240.133 240.188 240 239.668 240C239.202 240 238.782 240.12 238.408 240.36C238.048 240.587 237.762 240.927 237.548 241.38C237.348 241.82 237.248 242.347 237.248 242.96C237.248 243.427 237.308 243.847 237.428 244.22C237.548 244.58 237.715 244.893 237.928 245.16C238.142 245.413 238.395 245.607 238.688 245.74C238.995 245.873 239.322 245.94 239.668 245.94C240.015 245.94 240.328 245.88 240.608 245.76C240.902 245.64 241.148 245.473 241.348 245.26C241.548 245.033 241.688 244.76 241.768 244.44H244.628C244.388 245.6 243.822 246.527 242.928 247.22C242.048 247.9 240.968 248.24 239.688 248.24ZM250.357 248.24C249.517 248.24 248.823 248.107 248.277 247.84C247.73 247.56 247.323 247.193 247.057 246.74C246.803 246.273 246.677 245.76 246.677 245.2C246.677 244.587 246.83 244.047 247.137 243.58C247.457 243.113 247.93 242.747 248.557 242.48C249.197 242.213 249.997 242.08 250.957 242.08H253.457C253.457 241.587 253.39 241.18 253.257 240.86C253.123 240.527 252.917 240.28 252.637 240.12C252.357 239.96 251.983 239.88 251.517 239.88C251.01 239.88 250.577 239.993 250.217 240.22C249.87 240.433 249.657 240.767 249.577 241.22H246.957C247.023 240.5 247.257 239.88 247.657 239.36C248.07 238.827 248.61 238.413 249.277 238.12C249.957 237.827 250.71 237.68 251.537 237.68C252.483 237.68 253.303 237.84 253.997 238.16C254.69 238.48 255.223 238.94 255.597 239.54C255.97 240.14 256.157 240.88 256.157 241.76V248H253.877L253.577 246.46C253.43 246.727 253.257 246.967 253.057 247.18C252.857 247.393 252.623 247.58 252.357 247.74C252.09 247.9 251.79 248.02 251.457 248.1C251.123 248.193 250.757 248.24 250.357 248.24ZM250.997 246.16C251.343 246.16 251.65 246.1 251.917 245.98C252.197 245.847 252.437 245.673 252.637 245.46C252.837 245.233 252.99 244.98 253.097 244.7C253.217 244.407 253.297 244.093 253.337 243.76V243.74H251.277C250.863 243.74 250.523 243.793 250.257 243.9C250.003 243.993 249.817 244.133 249.697 244.32C249.577 244.507 249.517 244.72 249.517 244.96C249.517 245.227 249.577 245.447 249.697 245.62C249.817 245.793 249.99 245.927 250.217 246.02C250.443 246.113 250.703 246.16 250.997 246.16ZM258.675 248V233.6H261.375V248H258.675ZM264.068 248V237.92H266.768V248H264.068ZM265.428 236.54C264.948 236.54 264.548 236.4 264.228 236.12C263.921 235.827 263.768 235.46 263.768 235.02C263.768 234.58 263.921 234.22 264.228 233.94C264.548 233.647 264.948 233.5 265.428 233.5C265.921 233.5 266.321 233.647 266.628 233.94C266.948 234.22 267.108 234.58 267.108 235.02C267.108 235.46 266.948 235.827 266.628 236.12C266.321 236.4 265.921 236.54 265.428 236.54ZM269.496 252.4V237.92H271.896L272.196 239.32C272.409 239.027 272.662 238.76 272.956 238.52C273.249 238.267 273.596 238.067 273.996 237.92C274.409 237.76 274.889 237.68 275.436 237.68C276.382 237.68 277.216 237.913 277.936 238.38C278.656 238.847 279.222 239.48 279.636 240.28C280.062 241.067 280.276 241.967 280.276 242.98C280.276 243.993 280.062 244.9 279.636 245.7C279.209 246.487 278.636 247.107 277.916 247.56C277.196 248.013 276.376 248.24 275.456 248.24C274.709 248.24 274.062 248.107 273.516 247.84C272.982 247.56 272.542 247.18 272.196 246.7V252.4H269.496ZM274.816 245.88C275.349 245.88 275.816 245.76 276.216 245.52C276.629 245.28 276.949 244.94 277.176 244.5C277.402 244.06 277.516 243.553 277.516 242.98C277.516 242.407 277.402 241.9 277.176 241.46C276.949 241.007 276.629 240.66 276.216 240.42C275.816 240.167 275.349 240.04 274.816 240.04C274.296 240.04 273.829 240.167 273.416 240.42C273.016 240.66 272.696 241 272.456 241.44C272.229 241.88 272.116 242.387 272.116 242.96C272.116 243.533 272.229 244.047 272.456 244.5C272.696 244.94 273.016 245.28 273.416 245.52C273.829 245.76 274.296 245.88 274.816 245.88ZM286.751 248C286.044 248 285.424 247.893 284.891 247.68C284.371 247.453 283.964 247.087 283.671 246.58C283.377 246.06 283.231 245.353 283.231 244.46V240.18H281.511V237.92H283.231L283.531 235.18H285.931V237.92H288.591V240.18H285.931V244.5C285.931 244.953 286.031 245.267 286.231 245.44C286.431 245.613 286.771 245.7 287.251 245.7H288.571V248H286.751ZM295.369 248.24C294.409 248.24 293.542 248.02 292.769 247.58C292.009 247.127 291.402 246.507 290.949 245.72C290.509 244.92 290.289 244.007 290.289 242.98C290.289 241.927 290.509 241.007 290.949 240.22C291.402 239.42 292.016 238.8 292.789 238.36C293.562 237.907 294.429 237.68 295.389 237.68C296.362 237.68 297.229 237.907 297.989 238.36C298.762 238.8 299.369 239.42 299.809 240.22C300.262 241.007 300.489 241.92 300.489 242.96C300.489 244 300.262 244.92 299.809 245.72C299.369 246.507 298.762 247.127 297.989 247.58C297.216 248.02 296.342 248.24 295.369 248.24ZM295.369 245.9C295.822 245.9 296.222 245.793 296.569 245.58C296.929 245.367 297.209 245.04 297.409 244.6C297.622 244.16 297.729 243.613 297.729 242.96C297.729 242.307 297.622 241.767 297.409 241.34C297.209 240.9 296.929 240.573 296.569 240.36C296.222 240.133 295.829 240.02 295.389 240.02C294.962 240.02 294.569 240.133 294.209 240.36C293.849 240.573 293.562 240.9 293.349 241.34C293.149 241.767 293.049 242.307 293.049 242.96C293.049 243.613 293.149 244.16 293.349 244.6C293.562 245.04 293.842 245.367 294.189 245.58C294.549 245.793 294.942 245.9 295.369 245.9ZM217.844 272L222.964 258H226.024L231.124 272H228.264L224.484 261.08L220.684 272H217.844ZM220.104 268.82L220.824 266.72H227.944L228.644 268.82H220.104ZM232.904 272V257.6H235.604V272H232.904ZM243.076 272.24C242.063 272.24 241.163 272.027 240.376 271.6C239.603 271.16 238.996 270.553 238.556 269.78C238.129 268.993 237.916 268.087 237.916 267.06C237.916 266.007 238.129 265.08 238.556 264.28C238.996 263.467 239.603 262.833 240.376 262.38C241.149 261.913 242.049 261.68 243.076 261.68C244.076 261.68 244.949 261.9 245.696 262.34C246.443 262.78 247.023 263.373 247.436 264.12C247.849 264.867 248.056 265.713 248.056 266.66C248.056 266.793 248.056 266.947 248.056 267.12C248.056 267.28 248.043 267.447 248.016 267.62H239.836V265.98H245.336C245.296 265.327 245.063 264.813 244.636 264.44C244.223 264.067 243.703 263.88 243.076 263.88C242.623 263.88 242.203 263.987 241.816 264.2C241.429 264.4 241.123 264.713 240.896 265.14C240.683 265.567 240.576 266.107 240.576 266.76V267.34C240.576 267.887 240.676 268.367 240.876 268.78C241.089 269.18 241.383 269.493 241.756 269.72C242.129 269.933 242.563 270.04 243.056 270.04C243.549 270.04 243.956 269.933 244.276 269.72C244.609 269.507 244.856 269.233 245.016 268.9H247.776C247.589 269.527 247.276 270.093 246.836 270.6C246.396 271.107 245.856 271.507 245.216 271.8C244.576 272.093 243.863 272.24 243.076 272.24ZM255.147 272.24C254.134 272.24 253.234 272.013 252.447 271.56C251.661 271.107 251.047 270.487 250.607 269.7C250.167 268.913 249.947 268.013 249.947 267C249.947 265.96 250.167 265.047 250.607 264.26C251.047 263.46 251.661 262.833 252.447 262.38C253.234 261.913 254.134 261.68 255.147 261.68C256.441 261.68 257.527 262.02 258.407 262.7C259.287 263.38 259.847 264.313 260.087 265.5H257.227C257.107 265.033 256.854 264.667 256.467 264.4C256.094 264.133 255.647 264 255.127 264C254.661 264 254.241 264.12 253.867 264.36C253.507 264.587 253.221 264.927 253.007 265.38C252.807 265.82 252.707 266.347 252.707 266.96C252.707 267.427 252.767 267.847 252.887 268.22C253.007 268.58 253.174 268.893 253.387 269.16C253.601 269.413 253.854 269.607 254.147 269.74C254.454 269.873 254.781 269.94 255.127 269.94C255.474 269.94 255.787 269.88 256.067 269.76C256.361 269.64 256.607 269.473 256.807 269.26C257.007 269.033 257.147 268.76 257.227 268.44H260.087C259.847 269.6 259.281 270.527 258.387 271.22C257.507 271.9 256.427 272.24 255.147 272.24ZM262.416 272V261.92H264.816L265.076 263.78C265.316 263.34 265.616 262.967 265.976 262.66C266.349 262.353 266.769 262.113 267.236 261.94C267.716 261.767 268.242 261.68 268.816 261.68V264.54H267.896C267.496 264.54 267.122 264.587 266.776 264.68C266.442 264.773 266.149 264.927 265.896 265.14C265.642 265.34 265.449 265.62 265.316 265.98C265.182 266.34 265.116 266.793 265.116 267.34V272H262.416ZM270.659 272V261.92H273.359V272H270.659ZM272.019 260.54C271.539 260.54 271.139 260.4 270.819 260.12C270.513 259.827 270.359 259.46 270.359 259.02C270.359 258.58 270.513 258.22 270.819 257.94C271.139 257.647 271.539 257.5 272.019 257.5C272.513 257.5 272.913 257.647 273.219 257.94C273.539 258.22 273.699 258.58 273.699 259.02C273.699 259.46 273.539 259.827 273.219 260.12C272.913 260.4 272.513 260.54 272.019 260.54ZM276.088 272V261.92H278.468L278.688 263.26C279.008 262.78 279.428 262.4 279.948 262.12C280.481 261.827 281.088 261.68 281.768 261.68C282.274 261.68 282.728 261.747 283.128 261.88C283.528 262.013 283.881 262.207 284.188 262.46C284.508 262.713 284.768 263.033 284.968 263.42C285.341 262.873 285.828 262.447 286.428 262.14C287.028 261.833 287.681 261.68 288.388 261.68C289.268 261.68 290.001 261.86 290.588 262.22C291.174 262.567 291.614 263.073 291.908 263.74C292.214 264.407 292.368 265.227 292.368 266.2V272H289.688V266.44C289.688 265.64 289.528 265.027 289.208 264.6C288.901 264.173 288.421 263.96 287.768 263.96C287.341 263.96 286.961 264.067 286.628 264.28C286.294 264.493 286.034 264.8 285.848 265.2C285.674 265.6 285.588 266.08 285.588 266.64V272H282.888V266.44C282.888 265.64 282.728 265.027 282.408 264.6C282.088 264.173 281.594 263.96 280.928 263.96C280.514 263.96 280.141 264.067 279.808 264.28C279.488 264.493 279.234 264.8 279.048 265.2C278.874 265.6 278.788 266.08 278.788 266.64V272H276.088Z" fill="#6A5ACD"/>
<ellipse cx="197" cy="170" rx="18" ry="19" fill="url(#paint2_linear_329_515)"/>
<path d="M190.08 176.24C189.12 176.24 188.253 176.02 187.48 175.58C186.72 175.127 186.113 174.507 185.66 173.72C185.22 172.92 185 172.007 185 170.98C185 169.927 185.22 169.007 185.66 168.22C186.113 167.42 186.727 166.8 187.5 166.36C188.273 165.907 189.14 165.68 190.1 165.68C191.073 165.68 191.94 165.907 192.7 166.36C193.473 166.8 194.08 167.42 194.52 168.22C194.973 169.007 195.2 169.92 195.2 170.96C195.2 172 194.973 172.92 194.52 173.72C194.08 174.507 193.473 175.127 192.7 175.58C191.927 176.02 191.053 176.24 190.08 176.24ZM190.08 173.9C190.533 173.9 190.933 173.793 191.28 173.58C191.64 173.367 191.92 173.04 192.12 172.6C192.333 172.16 192.44 171.613 192.44 170.96C192.44 170.307 192.333 169.767 192.12 169.34C191.92 168.9 191.64 168.573 191.28 168.36C190.933 168.133 190.54 168.02 190.1 168.02C189.673 168.02 189.28 168.133 188.92 168.36C188.56 168.573 188.273 168.9 188.06 169.34C187.86 169.767 187.76 170.307 187.76 170.96C187.76 171.613 187.86 172.16 188.06 172.6C188.273 173.04 188.553 173.367 188.9 173.58C189.26 173.793 189.653 173.9 190.08 173.9ZM201.287 176.24C200.474 176.24 199.774 176.073 199.187 175.74C198.614 175.393 198.174 174.893 197.867 174.24C197.56 173.573 197.407 172.753 197.407 171.78V165.92H200.107V171.5C200.107 172.313 200.274 172.927 200.607 173.34C200.954 173.753 201.48 173.96 202.187 173.96C202.64 173.96 203.04 173.86 203.387 173.66C203.734 173.447 204.007 173.147 204.207 172.76C204.42 172.36 204.527 171.873 204.527 171.3V165.92H207.207V176H204.847L204.627 174.36C204.334 174.933 203.9 175.393 203.327 175.74C202.754 176.073 202.074 176.24 201.287 176.24Z" fill="#6A5ACD"/>
<defs>
<filter id="filter0_f_329_515" x="163.755" y="10.1165" width="78.6516" height="177.139" filterUnits="userSpaceOnUse" color-interpolation-filters="sRGB">
<feFlood flood-opacity="0" result="BackgroundImageFix"/>
<feBlend mode="normal" in="SourceGraphic" in2="BackgroundImageFix" result="shape"/>
<feGaussianBlur stdDeviation="15" result="effect1_foregroundBlur_329_515"/>
</filter>
<filter id="filter1_f_329_515" x="0.76001" y="20.605" width="219.681" height="218.744" filterUnits="userSpaceOnUse" color-interpolation-filters="sRGB">
<feFlood flood-opacity="0" result="BackgroundImageFix"/>
<feBlend mode="normal" in="SourceGraphic" in2="BackgroundImageFix" result="shape"/>
<feGaussianBlur stdDeviation="25" result="effect1_foregroundBlur_329_515"/>
</filter>
<filter id="filter2_f_329_515" x="183.957" y="134.237" width="142.087" height="88.7275" filterUnits="userSpaceOnUse" color-interpolation-filters="sRGB">
<feFlood flood-opacity="0" result="BackgroundImageFix"/>
<feBlend mode="normal" in="SourceGraphic" in2="BackgroundImageFix" result="shape"/>
<feGaussianBlur stdDeviation="15" result="effect1_foregroundBlur_329_515"/>
</filter>
<filter id="filter3_f_329_515" x="147.261" y="150.146" width="205.739" height="168.946" filterUnits="userSpaceOnUse" color-interpolation-filters="sRGB">
<feFlood flood-opacity="0" result="BackgroundImageFix"/>
<feBlend mode="normal" in="SourceGraphic" in2="BackgroundImageFix" result="shape"/>
<feGaussianBlur stdDeviation="25" result="effect1_foregroundBlur_329_515"/>
</filter>
<linearGradient id="paint0_linear_329_515" x1="188.694" y1="207" x2="21.2126" y2="-75.993" gradientUnits="userSpaceOnUse">
<stop stop-color="#A1A4F3"/>
<stop offset="0.992945" stop-color="white" stop-opacity="0.86"/>
</linearGradient>
<linearGradient id="paint1_linear_329_515" x1="302.434" y1="312.184" x2="168.786" y2="86.3585" gradientUnits="userSpaceOnUse">
<stop stop-color="#BBBCF2"/>
<stop offset="0.992945" stop-color="white" stop-opacity="0.86"/>
</linearGradient>
<linearGradient id="paint2_linear_329_515" x1="207.673" y1="189" x2="176.603" y2="137.654" gradientUnits="userSpaceOnUse">
<stop stop-color="#BBBCF2"/>
<stop offset="0.992945" stop-color="white" stop-opacity="0.86"/>
</linearGradient>
</defs>
</svg>
