<svg width="243" height="240" viewBox="0 0 243 240" fill="none" xmlns="http://www.w3.org/2000/svg">
<g filter="url(#filter0_f_329_268)">
<ellipse cx="203.081" cy="98.6862" rx="9.32577" ry="58.5698" fill="#050259" fill-opacity="0.5" style="mix-blend-mode:overlay"/>
</g>
<ellipse cx="129.252" cy="103.5" rx="100.252" ry="103.5" fill="url(#paint0_linear_329_268)"/>
<g filter="url(#filter1_f_329_268)">
<ellipse cx="110.601" cy="129.977" rx="59.8404" ry="59.3721" fill="#A1A4F3" fill-opacity="0.2"/>
</g>
<path d="M91.8443 74L96.9643 60H100.024L105.124 74H102.264L98.4843 63.08L94.6843 74H91.8443ZM94.1043 70.82L94.8243 68.72H101.944L102.644 70.82H94.1043ZM106.904 74V59.6H109.604V74H106.904ZM117.076 74.24C116.063 74.24 115.163 74.0267 114.376 73.6C113.603 73.16 112.996 72.5533 112.556 71.78C112.129 70.9933 111.916 70.0867 111.916 69.06C111.916 68.0067 112.129 67.08 112.556 66.28C112.996 65.4667 113.603 64.8333 114.376 64.38C115.149 63.9133 116.049 63.68 117.076 63.68C118.076 63.68 118.949 63.9 119.696 64.34C120.443 64.78 121.023 65.3733 121.436 66.12C121.849 66.8667 122.056 67.7133 122.056 68.66C122.056 68.7933 122.056 68.9467 122.056 69.12C122.056 69.28 122.043 69.4467 122.016 69.62H113.836V67.98H119.336C119.296 67.3267 119.063 66.8133 118.636 66.44C118.223 66.0667 117.703 65.88 117.076 65.88C116.623 65.88 116.203 65.9867 115.816 66.2C115.429 66.4 115.123 66.7133 114.896 67.14C114.683 67.5667 114.576 68.1067 114.576 68.76V69.34C114.576 69.8867 114.676 70.3667 114.876 70.78C115.089 71.18 115.383 71.4933 115.756 71.72C116.129 71.9333 116.563 72.04 117.056 72.04C117.549 72.04 117.956 71.9333 118.276 71.72C118.609 71.5067 118.856 71.2333 119.016 70.9H121.776C121.589 71.5267 121.276 72.0933 120.836 72.6C120.396 73.1067 119.856 73.5067 119.216 73.8C118.576 74.0933 117.863 74.24 117.076 74.24ZM129.147 74.24C128.134 74.24 127.234 74.0133 126.447 73.56C125.661 73.1067 125.047 72.4867 124.607 71.7C124.167 70.9133 123.947 70.0133 123.947 69C123.947 67.96 124.167 67.0467 124.607 66.26C125.047 65.46 125.661 64.8333 126.447 64.38C127.234 63.9133 128.134 63.68 129.147 63.68C130.441 63.68 131.527 64.02 132.407 64.7C133.287 65.38 133.847 66.3133 134.087 67.5H131.227C131.107 67.0333 130.854 66.6667 130.467 66.4C130.094 66.1333 129.647 66 129.127 66C128.661 66 128.241 66.12 127.867 66.36C127.507 66.5867 127.221 66.9267 127.007 67.38C126.807 67.82 126.707 68.3467 126.707 68.96C126.707 69.4267 126.767 69.8467 126.887 70.22C127.007 70.58 127.174 70.8933 127.387 71.16C127.601 71.4133 127.854 71.6067 128.147 71.74C128.454 71.8733 128.781 71.94 129.127 71.94C129.474 71.94 129.787 71.88 130.067 71.76C130.361 71.64 130.607 71.4733 130.807 71.26C131.007 71.0333 131.147 70.76 131.227 70.44H134.087C133.847 71.6 133.281 72.5267 132.387 73.22C131.507 73.9 130.427 74.24 129.147 74.24ZM136.416 74V63.92H138.816L139.076 65.78C139.316 65.34 139.616 64.9667 139.976 64.66C140.349 64.3533 140.769 64.1133 141.236 63.94C141.716 63.7667 142.242 63.68 142.816 63.68V66.54H141.896C141.496 66.54 141.122 66.5867 140.776 66.68C140.442 66.7733 140.149 66.9267 139.896 67.14C139.642 67.34 139.449 67.62 139.316 67.98C139.182 68.34 139.116 68.7933 139.116 69.34V74H136.416ZM144.659 74V63.92H147.359V74H144.659ZM146.019 62.54C145.539 62.54 145.139 62.4 144.819 62.12C144.513 61.8267 144.359 61.46 144.359 61.02C144.359 60.58 144.513 60.22 144.819 59.94C145.139 59.6467 145.539 59.5 146.019 59.5C146.513 59.5 146.913 59.6467 147.219 59.94C147.539 60.22 147.699 60.58 147.699 61.02C147.699 61.46 147.539 61.8267 147.219 62.12C146.913 62.4 146.513 62.54 146.019 62.54ZM150.088 74V63.92H152.468L152.688 65.26C153.008 64.78 153.428 64.4 153.948 64.12C154.481 63.8267 155.088 63.68 155.768 63.68C156.274 63.68 156.728 63.7467 157.128 63.88C157.528 64.0133 157.881 64.2067 158.188 64.46C158.508 64.7133 158.768 65.0333 158.968 65.42C159.341 64.8733 159.828 64.4467 160.428 64.14C161.028 63.8333 161.681 63.68 162.388 63.68C163.268 63.68 164.001 63.86 164.588 64.22C165.174 64.5667 165.614 65.0733 165.908 65.74C166.214 66.4067 166.368 67.2267 166.368 68.2V74H163.688V68.44C163.688 67.64 163.528 67.0267 163.208 66.6C162.901 66.1733 162.421 65.96 161.768 65.96C161.341 65.96 160.961 66.0667 160.628 66.28C160.294 66.4933 160.034 66.8 159.848 67.2C159.674 67.6 159.588 68.08 159.588 68.64V74H156.888V68.44C156.888 67.64 156.728 67.0267 156.408 66.6C156.088 66.1733 155.594 65.96 154.928 65.96C154.514 65.96 154.141 66.0667 153.808 66.28C153.488 66.4933 153.234 66.8 153.048 67.2C152.874 67.6 152.788 68.08 152.788 68.64V74H150.088ZM84.8839 98V84H94.0839V86.18H87.5839V89.84H93.4839V91.94H87.5839V95.82H94.0839V98H84.8839ZM100.244 98.24C99.4307 98.24 98.7307 98.0733 98.1441 97.74C97.5707 97.3933 97.1307 96.8933 96.8241 96.24C96.5174 95.5733 96.3641 94.7533 96.3641 93.78V87.92H99.0641V93.5C99.0641 94.3133 99.2307 94.9267 99.5641 95.34C99.9107 95.7533 100.437 95.96 101.144 95.96C101.597 95.96 101.997 95.86 102.344 95.66C102.691 95.4467 102.964 95.1467 103.164 94.76C103.377 94.36 103.484 93.8733 103.484 93.3V87.92H106.164V98H103.804L103.584 96.36C103.291 96.9333 102.857 97.3933 102.284 97.74C101.711 98.0733 101.031 98.24 100.244 98.24ZM113.688 98.24C112.675 98.24 111.775 98.0133 110.988 97.56C110.202 97.1067 109.588 96.4867 109.148 95.7C108.708 94.9133 108.488 94.0133 108.488 93C108.488 91.96 108.708 91.0467 109.148 90.26C109.588 89.46 110.202 88.8333 110.988 88.38C111.775 87.9133 112.675 87.68 113.688 87.68C114.982 87.68 116.068 88.02 116.948 88.7C117.828 89.38 118.388 90.3133 118.628 91.5H115.768C115.648 91.0333 115.395 90.6667 115.008 90.4C114.635 90.1333 114.188 90 113.668 90C113.202 90 112.782 90.12 112.408 90.36C112.048 90.5867 111.762 90.9267 111.548 91.38C111.348 91.82 111.248 92.3467 111.248 92.96C111.248 93.4267 111.308 93.8467 111.428 94.22C111.548 94.58 111.715 94.8933 111.928 95.16C112.142 95.4133 112.395 95.6067 112.688 95.74C112.995 95.8733 113.322 95.94 113.668 95.94C114.015 95.94 114.328 95.88 114.608 95.76C114.902 95.64 115.148 95.4733 115.348 95.26C115.548 95.0333 115.688 94.76 115.768 94.44H118.628C118.388 95.6 117.822 96.5267 116.928 97.22C116.048 97.9 114.968 98.24 113.688 98.24ZM124.357 98.24C123.517 98.24 122.823 98.1067 122.277 97.84C121.73 97.56 121.323 97.1933 121.057 96.74C120.803 96.2733 120.677 95.76 120.677 95.2C120.677 94.5867 120.83 94.0467 121.137 93.58C121.457 93.1133 121.93 92.7467 122.557 92.48C123.197 92.2133 123.997 92.08 124.957 92.08H127.457C127.457 91.5867 127.39 91.18 127.257 90.86C127.123 90.5267 126.917 90.28 126.637 90.12C126.357 89.96 125.983 89.88 125.517 89.88C125.01 89.88 124.577 89.9933 124.217 90.22C123.87 90.4333 123.657 90.7667 123.577 91.22H120.957C121.023 90.5 121.257 89.88 121.657 89.36C122.07 88.8267 122.61 88.4133 123.277 88.12C123.957 87.8267 124.71 87.68 125.537 87.68C126.483 87.68 127.303 87.84 127.997 88.16C128.69 88.48 129.223 88.94 129.597 89.54C129.97 90.14 130.157 90.88 130.157 91.76V98H127.877L127.577 96.46C127.43 96.7267 127.257 96.9667 127.057 97.18C126.857 97.3933 126.623 97.58 126.357 97.74C126.09 97.9 125.79 98.02 125.457 98.1C125.123 98.1933 124.757 98.24 124.357 98.24ZM124.997 96.16C125.343 96.16 125.65 96.1 125.917 95.98C126.197 95.8467 126.437 95.6733 126.637 95.46C126.837 95.2333 126.99 94.98 127.097 94.7C127.217 94.4067 127.297 94.0933 127.337 93.76V93.74H125.277C124.863 93.74 124.523 93.7933 124.257 93.9C124.003 93.9933 123.817 94.1333 123.697 94.32C123.577 94.5067 123.517 94.72 123.517 94.96C123.517 95.2267 123.577 95.4467 123.697 95.62C123.817 95.7933 123.99 95.9267 124.217 96.02C124.443 96.1133 124.703 96.16 124.997 96.16ZM132.675 98V83.6H135.375V98H132.675ZM138.068 98V87.92H140.768V98H138.068ZM139.428 86.54C138.948 86.54 138.548 86.4 138.228 86.12C137.921 85.8267 137.768 85.46 137.768 85.02C137.768 84.58 137.921 84.22 138.228 83.94C138.548 83.6467 138.948 83.5 139.428 83.5C139.921 83.5 140.321 83.6467 140.628 83.94C140.948 84.22 141.108 84.58 141.108 85.02C141.108 85.46 140.948 85.8267 140.628 86.12C140.321 86.4 139.921 86.54 139.428 86.54ZM143.496 102.4V87.92H145.896L146.196 89.32C146.409 89.0267 146.662 88.76 146.956 88.52C147.249 88.2667 147.596 88.0667 147.996 87.92C148.409 87.76 148.889 87.68 149.436 87.68C150.382 87.68 151.216 87.9133 151.936 88.38C152.656 88.8467 153.222 89.48 153.636 90.28C154.062 91.0667 154.276 91.9667 154.276 92.98C154.276 93.9933 154.062 94.9 153.636 95.7C153.209 96.4867 152.636 97.1067 151.916 97.56C151.196 98.0133 150.376 98.24 149.456 98.24C148.709 98.24 148.062 98.1067 147.516 97.84C146.982 97.56 146.542 97.18 146.196 96.7V102.4H143.496ZM148.816 95.88C149.349 95.88 149.816 95.76 150.216 95.52C150.629 95.28 150.949 94.94 151.176 94.5C151.402 94.06 151.516 93.5533 151.516 92.98C151.516 92.4067 151.402 91.9 151.176 91.46C150.949 91.0067 150.629 90.66 150.216 90.42C149.816 90.1667 149.349 90.04 148.816 90.04C148.296 90.04 147.829 90.1667 147.416 90.42C147.016 90.66 146.696 91 146.456 91.44C146.229 91.88 146.116 92.3867 146.116 92.96C146.116 93.5333 146.229 94.0467 146.456 94.5C146.696 94.94 147.016 95.28 147.416 95.52C147.829 95.76 148.296 95.88 148.816 95.88ZM160.751 98C160.044 98 159.424 97.8933 158.891 97.68C158.371 97.4533 157.964 97.0867 157.671 96.58C157.377 96.06 157.231 95.3533 157.231 94.46V90.18H155.511V87.92H157.231L157.531 85.18H159.931V87.92H162.591V90.18H159.931V94.5C159.931 94.9533 160.031 95.2667 160.231 95.44C160.431 95.6133 160.771 95.7 161.251 95.7H162.571V98H160.751ZM169.369 98.24C168.409 98.24 167.542 98.02 166.769 97.58C166.009 97.1267 165.402 96.5067 164.949 95.72C164.509 94.92 164.289 94.0067 164.289 92.98C164.289 91.9267 164.509 91.0067 164.949 90.22C165.402 89.42 166.016 88.8 166.789 88.36C167.562 87.9067 168.429 87.68 169.389 87.68C170.362 87.68 171.229 87.9067 171.989 88.36C172.762 88.8 173.369 89.42 173.809 90.22C174.262 91.0067 174.489 91.92 174.489 92.96C174.489 94 174.262 94.92 173.809 95.72C173.369 96.5067 172.762 97.1267 171.989 97.58C171.216 98.02 170.342 98.24 169.369 98.24ZM169.369 95.9C169.822 95.9 170.222 95.7933 170.569 95.58C170.929 95.3667 171.209 95.04 171.409 94.6C171.622 94.16 171.729 93.6133 171.729 92.96C171.729 92.3067 171.622 91.7667 171.409 91.34C171.209 90.9 170.929 90.5733 170.569 90.36C170.222 90.1333 169.829 90.02 169.389 90.02C168.962 90.02 168.569 90.1333 168.209 90.36C167.849 90.5733 167.562 90.9 167.349 91.34C167.149 91.7667 167.049 92.3067 167.049 92.96C167.049 93.6133 167.149 94.16 167.349 94.6C167.562 95.04 167.842 95.3667 168.189 95.58C168.549 95.7933 168.942 95.9 169.369 95.9ZM107.092 122.24C105.692 122.24 104.485 121.94 103.472 121.34C102.472 120.727 101.698 119.88 101.152 118.8C100.618 117.707 100.352 116.447 100.352 115.02C100.352 113.593 100.618 112.333 101.152 111.24C101.698 110.147 102.472 109.293 103.472 108.68C104.485 108.067 105.692 107.76 107.092 107.76C108.785 107.76 110.172 108.18 111.252 109.02C112.332 109.86 113.005 111.047 113.272 112.58H110.332C110.158 111.833 109.792 111.253 109.232 110.84C108.685 110.413 107.965 110.2 107.072 110.2C106.245 110.2 105.532 110.4 104.932 110.8C104.345 111.187 103.892 111.74 103.572 112.46C103.252 113.167 103.092 114.02 103.092 115.02C103.092 116.007 103.252 116.86 103.572 117.58C103.892 118.3 104.345 118.853 104.932 119.24C105.532 119.627 106.245 119.82 107.072 119.82C107.965 119.82 108.685 119.627 109.232 119.24C109.778 118.84 110.138 118.287 110.312 117.58H113.272C113.005 119.033 112.332 120.173 111.252 121C110.172 121.827 108.785 122.24 107.092 122.24ZM120.357 122.24C119.344 122.24 118.444 122.027 117.657 121.6C116.884 121.16 116.277 120.553 115.837 119.78C115.411 118.993 115.197 118.087 115.197 117.06C115.197 116.007 115.411 115.08 115.837 114.28C116.277 113.467 116.884 112.833 117.657 112.38C118.431 111.913 119.331 111.68 120.357 111.68C121.357 111.68 122.231 111.9 122.977 112.34C123.724 112.78 124.304 113.373 124.717 114.12C125.131 114.867 125.337 115.713 125.337 116.66C125.337 116.793 125.337 116.947 125.337 117.12C125.337 117.28 125.324 117.447 125.297 117.62H117.117V115.98H122.617C122.577 115.327 122.344 114.813 121.917 114.44C121.504 114.067 120.984 113.88 120.357 113.88C119.904 113.88 119.484 113.987 119.097 114.2C118.711 114.4 118.404 114.713 118.177 115.14C117.964 115.567 117.857 116.107 117.857 116.76V117.34C117.857 117.887 117.957 118.367 118.157 118.78C118.371 119.18 118.664 119.493 119.037 119.72C119.411 119.933 119.844 120.04 120.337 120.04C120.831 120.04 121.237 119.933 121.557 119.72C121.891 119.507 122.137 119.233 122.297 118.9H125.057C124.871 119.527 124.557 120.093 124.117 120.6C123.677 121.107 123.137 121.507 122.497 121.8C121.857 122.093 121.144 122.24 120.357 122.24ZM132.029 122.24C131.109 122.24 130.282 122.013 129.549 121.56C128.829 121.107 128.262 120.48 127.849 119.68C127.435 118.88 127.229 117.98 127.229 116.98C127.229 115.953 127.435 115.047 127.849 114.26C128.275 113.46 128.855 112.833 129.589 112.38C130.335 111.913 131.169 111.68 132.089 111.68C132.809 111.68 133.442 111.813 133.989 112.08C134.535 112.347 134.975 112.727 135.309 113.22V107.6H138.009V122H135.609L135.309 120.62C135.109 120.9 134.855 121.167 134.549 121.42C134.255 121.673 133.902 121.873 133.489 122.02C133.075 122.167 132.589 122.24 132.029 122.24ZM132.669 119.88C133.202 119.88 133.669 119.76 134.069 119.52C134.482 119.267 134.802 118.92 135.029 118.48C135.255 118.04 135.369 117.533 135.369 116.96C135.369 116.387 135.255 115.88 135.029 115.44C134.802 115 134.482 114.66 134.069 114.42C133.669 114.167 133.202 114.04 132.669 114.04C132.162 114.04 131.702 114.167 131.289 114.42C130.875 114.66 130.549 115 130.309 115.44C130.082 115.88 129.969 116.38 129.969 116.94C129.969 117.527 130.082 118.04 130.309 118.48C130.549 118.92 130.869 119.267 131.269 119.52C131.682 119.76 132.149 119.88 132.669 119.88ZM140.654 122V111.92H143.054L143.314 113.78C143.554 113.34 143.854 112.967 144.214 112.66C144.587 112.353 145.007 112.113 145.474 111.94C145.954 111.767 146.481 111.68 147.054 111.68V114.54H146.134C145.734 114.54 145.361 114.587 145.014 114.68C144.681 114.773 144.387 114.927 144.134 115.14C143.881 115.34 143.687 115.62 143.554 115.98C143.421 116.34 143.354 116.793 143.354 117.34V122H140.654ZM153.441 122.24C152.481 122.24 151.615 122.02 150.841 121.58C150.081 121.127 149.475 120.507 149.021 119.72C148.581 118.92 148.361 118.007 148.361 116.98C148.361 115.927 148.581 115.007 149.021 114.22C149.475 113.42 150.088 112.8 150.861 112.36C151.635 111.907 152.501 111.68 153.461 111.68C154.435 111.68 155.301 111.907 156.061 112.36C156.835 112.8 157.441 113.42 157.881 114.22C158.335 115.007 158.561 115.92 158.561 116.96C158.561 118 158.335 118.92 157.881 119.72C157.441 120.507 156.835 121.127 156.061 121.58C155.288 122.02 154.415 122.24 153.441 122.24ZM153.441 119.9C153.895 119.9 154.295 119.793 154.641 119.58C155.001 119.367 155.281 119.04 155.481 118.6C155.695 118.16 155.801 117.613 155.801 116.96C155.801 116.307 155.695 115.767 155.481 115.34C155.281 114.9 155.001 114.573 154.641 114.36C154.295 114.133 153.901 114.02 153.461 114.02C153.035 114.02 152.641 114.133 152.281 114.36C151.921 114.573 151.635 114.9 151.421 115.34C151.221 115.767 151.121 116.307 151.121 116.96C151.121 117.613 151.221 118.16 151.421 118.6C151.635 119.04 151.915 119.367 152.261 119.58C152.621 119.793 153.015 119.9 153.441 119.9ZM79.0831 146V132H82.3031L86.5831 140.74L90.8231 132H94.0431V146H91.3431V136.6L87.6431 144.04H85.5031L81.7831 136.6V146H79.0831ZM100.138 146.24C99.298 146.24 98.6046 146.107 98.058 145.84C97.5113 145.56 97.1046 145.193 96.838 144.74C96.5846 144.273 96.458 143.76 96.458 143.2C96.458 142.587 96.6113 142.047 96.918 141.58C97.238 141.113 97.7113 140.747 98.338 140.48C98.978 140.213 99.778 140.08 100.738 140.08H103.238C103.238 139.587 103.171 139.18 103.038 138.86C102.905 138.527 102.698 138.28 102.418 138.12C102.138 137.96 101.765 137.88 101.298 137.88C100.791 137.88 100.358 137.993 99.998 138.22C99.6513 138.433 99.438 138.767 99.358 139.22H96.738C96.8046 138.5 97.038 137.88 97.438 137.36C97.8513 136.827 98.3913 136.413 99.058 136.12C99.738 135.827 100.491 135.68 101.318 135.68C102.265 135.68 103.085 135.84 103.778 136.16C104.471 136.48 105.005 136.94 105.378 137.54C105.751 138.14 105.938 138.88 105.938 139.76V146H103.658L103.358 144.46C103.211 144.727 103.038 144.967 102.838 145.18C102.638 145.393 102.405 145.58 102.138 145.74C101.871 145.9 101.571 146.02 101.238 146.1C100.905 146.193 100.538 146.24 100.138 146.24ZM100.778 144.16C101.125 144.16 101.431 144.1 101.698 143.98C101.978 143.847 102.218 143.673 102.418 143.46C102.618 143.233 102.771 142.98 102.878 142.7C102.998 142.407 103.078 142.093 103.118 141.76V141.74H101.058C100.645 141.74 100.305 141.793 100.038 141.9C99.7846 141.993 99.598 142.133 99.478 142.32C99.358 142.507 99.298 142.72 99.298 142.96C99.298 143.227 99.358 143.447 99.478 143.62C99.598 143.793 99.7713 143.927 99.998 144.02C100.225 144.113 100.485 144.16 100.778 144.16ZM108.457 146V135.92H110.837L111.037 137.56C111.343 137 111.777 136.547 112.337 136.2C112.91 135.853 113.59 135.68 114.377 135.68C115.217 135.68 115.923 135.853 116.497 136.2C117.07 136.547 117.503 137.053 117.797 137.72C118.103 138.387 118.257 139.207 118.257 140.18V146H115.577V140.44C115.577 139.64 115.403 139.027 115.057 138.6C114.723 138.173 114.203 137.96 113.497 137.96C113.043 137.96 112.637 138.067 112.277 138.28C111.93 138.493 111.657 138.8 111.457 139.2C111.257 139.587 111.157 140.06 111.157 140.62V146H108.457ZM118.9 150.4V148.1H119.72C120.147 148.1 120.447 148.013 120.62 147.84C120.807 147.667 120.9 147.387 120.9 147V135.92H123.6V146.98C123.6 147.807 123.454 148.467 123.16 148.96C122.88 149.467 122.48 149.833 121.96 150.06C121.44 150.287 120.827 150.4 120.12 150.4H118.9ZM122.26 134.54C121.767 134.54 121.367 134.4 121.06 134.12C120.754 133.827 120.6 133.46 120.6 133.02C120.6 132.58 120.754 132.22 121.06 131.94C121.367 131.647 121.767 131.5 122.26 131.5C122.754 131.5 123.154 131.647 123.46 131.94C123.767 132.22 123.92 132.58 123.92 133.02C123.92 133.46 123.767 133.827 123.46 134.12C123.154 134.4 122.754 134.54 122.26 134.54ZM131.129 146.24C130.115 146.24 129.215 146.027 128.429 145.6C127.655 145.16 127.049 144.553 126.609 143.78C126.182 142.993 125.969 142.087 125.969 141.06C125.969 140.007 126.182 139.08 126.609 138.28C127.049 137.467 127.655 136.833 128.429 136.38C129.202 135.913 130.102 135.68 131.129 135.68C132.129 135.68 133.002 135.9 133.749 136.34C134.495 136.78 135.075 137.373 135.489 138.12C135.902 138.867 136.109 139.713 136.109 140.66C136.109 140.793 136.109 140.947 136.109 141.12C136.109 141.28 136.095 141.447 136.069 141.62H127.889V139.98H133.389C133.349 139.327 133.115 138.813 132.689 138.44C132.275 138.067 131.755 137.88 131.129 137.88C130.675 137.88 130.255 137.987 129.869 138.2C129.482 138.4 129.175 138.713 128.949 139.14C128.735 139.567 128.629 140.107 128.629 140.76V141.34C128.629 141.887 128.729 142.367 128.929 142.78C129.142 143.18 129.435 143.493 129.809 143.72C130.182 143.933 130.615 144.04 131.109 144.04C131.602 144.04 132.009 143.933 132.329 143.72C132.662 143.507 132.909 143.233 133.069 142.9H135.829C135.642 143.527 135.329 144.093 134.889 144.6C134.449 145.107 133.909 145.507 133.269 145.8C132.629 146.093 131.915 146.24 131.129 146.24ZM138.32 146V135.92H140.72L140.98 137.78C141.22 137.34 141.52 136.967 141.88 136.66C142.253 136.353 142.673 136.113 143.14 135.94C143.62 135.767 144.147 135.68 144.72 135.68V138.54H143.8C143.4 138.54 143.027 138.587 142.68 138.68C142.347 138.773 142.053 138.927 141.8 139.14C141.547 139.34 141.353 139.62 141.22 139.98C141.087 140.34 141.02 140.793 141.02 141.34V146H138.32ZM151.107 146.24C150.147 146.24 149.281 146.02 148.507 145.58C147.747 145.127 147.141 144.507 146.687 143.72C146.247 142.92 146.027 142.007 146.027 140.98C146.027 139.927 146.247 139.007 146.687 138.22C147.141 137.42 147.754 136.8 148.527 136.36C149.301 135.907 150.167 135.68 151.127 135.68C152.101 135.68 152.967 135.907 153.727 136.36C154.501 136.8 155.107 137.42 155.547 138.22C156.001 139.007 156.227 139.92 156.227 140.96C156.227 142 156.001 142.92 155.547 143.72C155.107 144.507 154.501 145.127 153.727 145.58C152.954 146.02 152.081 146.24 151.107 146.24ZM151.107 143.9C151.561 143.9 151.961 143.793 152.307 143.58C152.667 143.367 152.947 143.04 153.147 142.6C153.361 142.16 153.467 141.613 153.467 140.96C153.467 140.307 153.361 139.767 153.147 139.34C152.947 138.9 152.667 138.573 152.307 138.36C151.961 138.133 151.567 138.02 151.127 138.02C150.701 138.02 150.307 138.133 149.947 138.36C149.587 138.573 149.301 138.9 149.087 139.34C148.887 139.767 148.787 140.307 148.787 140.96C148.787 141.613 148.887 142.16 149.087 142.6C149.301 143.04 149.581 143.367 149.927 143.58C150.287 143.793 150.681 143.9 151.107 143.9ZM158.554 146V135.92H160.934L161.134 137.56C161.441 137 161.874 136.547 162.434 136.2C163.008 135.853 163.688 135.68 164.474 135.68C165.314 135.68 166.021 135.853 166.594 136.2C167.168 136.547 167.601 137.053 167.894 137.72C168.201 138.387 168.354 139.207 168.354 140.18V146H165.674V140.44C165.674 139.64 165.501 139.027 165.154 138.6C164.821 138.173 164.301 137.96 163.594 137.96C163.141 137.96 162.734 138.067 162.374 138.28C162.028 138.493 161.754 138.8 161.554 139.2C161.354 139.587 161.254 140.06 161.254 140.62V146H158.554ZM174.298 146.24C173.458 146.24 172.765 146.107 172.218 145.84C171.671 145.56 171.265 145.193 170.998 144.74C170.745 144.273 170.618 143.76 170.618 143.2C170.618 142.587 170.771 142.047 171.078 141.58C171.398 141.113 171.871 140.747 172.498 140.48C173.138 140.213 173.938 140.08 174.898 140.08H177.398C177.398 139.587 177.331 139.18 177.198 138.86C177.065 138.527 176.858 138.28 176.578 138.12C176.298 137.96 175.925 137.88 175.458 137.88C174.951 137.88 174.518 137.993 174.158 138.22C173.811 138.433 173.598 138.767 173.518 139.22H170.898C170.965 138.5 171.198 137.88 171.598 137.36C172.011 136.827 172.551 136.413 173.218 136.12C173.898 135.827 174.651 135.68 175.478 135.68C176.425 135.68 177.245 135.84 177.938 136.16C178.631 136.48 179.165 136.94 179.538 137.54C179.911 138.14 180.098 138.88 180.098 139.76V146H177.818L177.518 144.46C177.371 144.727 177.198 144.967 176.998 145.18C176.798 145.393 176.565 145.58 176.298 145.74C176.031 145.9 175.731 146.02 175.398 146.1C175.065 146.193 174.698 146.24 174.298 146.24ZM174.938 144.16C175.285 144.16 175.591 144.1 175.858 143.98C176.138 143.847 176.378 143.673 176.578 143.46C176.778 143.233 176.931 142.98 177.038 142.7C177.158 142.407 177.238 142.093 177.278 141.76V141.74H175.218C174.805 141.74 174.465 141.793 174.198 141.9C173.945 141.993 173.758 142.133 173.638 142.32C173.518 142.507 173.458 142.72 173.458 142.96C173.458 143.227 173.518 143.447 173.638 143.62C173.758 143.793 173.931 143.927 174.158 144.02C174.385 144.113 174.645 144.16 174.938 144.16Z" fill="#6A5ACD"/>
<defs>
<filter id="filter0_f_329_268" x="163.755" y="10.1165" width="78.6514" height="177.139" filterUnits="userSpaceOnUse" color-interpolation-filters="sRGB">
<feFlood flood-opacity="0" result="BackgroundImageFix"/>
<feBlend mode="normal" in="SourceGraphic" in2="BackgroundImageFix" result="shape"/>
<feGaussianBlur stdDeviation="15" result="effect1_foregroundBlur_329_268"/>
</filter>
<filter id="filter1_f_329_268" x="0.760254" y="20.6049" width="219.681" height="218.744" filterUnits="userSpaceOnUse" color-interpolation-filters="sRGB">
<feFlood flood-opacity="0" result="BackgroundImageFix"/>
<feBlend mode="normal" in="SourceGraphic" in2="BackgroundImageFix" result="shape"/>
<feGaussianBlur stdDeviation="25" result="effect1_foregroundBlur_329_268"/>
</filter>
<linearGradient id="paint0_linear_329_268" x1="188.694" y1="207" x2="21.2126" y2="-75.993" gradientUnits="userSpaceOnUse">
<stop stop-color="#A1A4F3"/>
<stop offset="0.992945" stop-color="white" stop-opacity="0.86"/>
</linearGradient>
</defs>
</svg>
