<svg width="243" height="240" viewBox="0 0 243 240" fill="none" xmlns="http://www.w3.org/2000/svg">
<g filter="url(#filter0_f_329_516)">
<ellipse cx="203.081" cy="98.6862" rx="9.32577" ry="58.5698" fill="#050259" fill-opacity="0.5" style="mix-blend-mode:overlay"/>
</g>
<ellipse cx="129.252" cy="103.5" rx="100.252" ry="103.5" fill="url(#paint0_linear_329_516)"/>
<g filter="url(#filter1_f_329_516)">
<ellipse cx="110.601" cy="129.977" rx="59.8404" ry="59.3721" fill="#A1A4F3" fill-opacity="0.2"/>
</g>
<path d="M107.092 74.24C105.692 74.24 104.485 73.94 103.472 73.34C102.472 72.7267 101.698 71.88 101.152 70.8C100.618 69.7067 100.352 68.4467 100.352 67.02C100.352 65.5933 100.618 64.3333 101.152 63.24C101.698 62.1467 102.472 61.2933 103.472 60.68C104.485 60.0667 105.692 59.76 107.092 59.76C108.785 59.76 110.172 60.18 111.252 61.02C112.332 61.86 113.005 63.0467 113.272 64.58H110.332C110.158 63.8333 109.792 63.2533 109.232 62.84C108.685 62.4133 107.965 62.2 107.072 62.2C106.245 62.2 105.532 62.4 104.932 62.8C104.345 63.1867 103.892 63.74 103.572 64.46C103.252 65.1667 103.092 66.02 103.092 67.02C103.092 68.0067 103.252 68.86 103.572 69.58C103.892 70.3 104.345 70.8533 104.932 71.24C105.532 71.6267 106.245 71.82 107.072 71.82C107.965 71.82 108.685 71.6267 109.232 71.24C109.778 70.84 110.138 70.2867 110.312 69.58H113.272C113.005 71.0333 112.332 72.1733 111.252 73C110.172 73.8267 108.785 74.24 107.092 74.24ZM120.357 74.24C119.344 74.24 118.444 74.0267 117.657 73.6C116.884 73.16 116.277 72.5533 115.837 71.78C115.411 70.9933 115.197 70.0867 115.197 69.06C115.197 68.0067 115.411 67.08 115.837 66.28C116.277 65.4667 116.884 64.8333 117.657 64.38C118.431 63.9133 119.331 63.68 120.357 63.68C121.357 63.68 122.231 63.9 122.977 64.34C123.724 64.78 124.304 65.3733 124.717 66.12C125.131 66.8667 125.337 67.7133 125.337 68.66C125.337 68.7933 125.337 68.9467 125.337 69.12C125.337 69.28 125.324 69.4467 125.297 69.62H117.117V67.98H122.617C122.577 67.3267 122.344 66.8133 121.917 66.44C121.504 66.0667 120.984 65.88 120.357 65.88C119.904 65.88 119.484 65.9867 119.097 66.2C118.711 66.4 118.404 66.7133 118.177 67.14C117.964 67.5667 117.857 68.1067 117.857 68.76V69.34C117.857 69.8867 117.957 70.3667 118.157 70.78C118.371 71.18 118.664 71.4933 119.037 71.72C119.411 71.9333 119.844 72.04 120.337 72.04C120.831 72.04 121.237 71.9333 121.557 71.72C121.891 71.5067 122.137 71.2333 122.297 70.9H125.057C124.871 71.5267 124.557 72.0933 124.117 72.6C123.677 73.1067 123.137 73.5067 122.497 73.8C121.857 74.0933 121.144 74.24 120.357 74.24ZM132.029 74.24C131.109 74.24 130.282 74.0133 129.549 73.56C128.829 73.1067 128.262 72.48 127.849 71.68C127.435 70.88 127.229 69.98 127.229 68.98C127.229 67.9533 127.435 67.0467 127.849 66.26C128.275 65.46 128.855 64.8333 129.589 64.38C130.335 63.9133 131.169 63.68 132.089 63.68C132.809 63.68 133.442 63.8133 133.989 64.08C134.535 64.3467 134.975 64.7267 135.309 65.22V59.6H138.009V74H135.609L135.309 72.62C135.109 72.9 134.855 73.1667 134.549 73.42C134.255 73.6733 133.902 73.8733 133.489 74.02C133.075 74.1667 132.589 74.24 132.029 74.24ZM132.669 71.88C133.202 71.88 133.669 71.76 134.069 71.52C134.482 71.2667 134.802 70.92 135.029 70.48C135.255 70.04 135.369 69.5333 135.369 68.96C135.369 68.3867 135.255 67.88 135.029 67.44C134.802 67 134.482 66.66 134.069 66.42C133.669 66.1667 133.202 66.04 132.669 66.04C132.162 66.04 131.702 66.1667 131.289 66.42C130.875 66.66 130.549 67 130.309 67.44C130.082 67.88 129.969 68.38 129.969 68.94C129.969 69.5267 130.082 70.04 130.309 70.48C130.549 70.92 130.869 71.2667 131.269 71.52C131.682 71.76 132.149 71.88 132.669 71.88ZM140.654 74V63.92H143.054L143.314 65.78C143.554 65.34 143.854 64.9667 144.214 64.66C144.587 64.3533 145.007 64.1133 145.474 63.94C145.954 63.7667 146.481 63.68 147.054 63.68V66.54H146.134C145.734 66.54 145.361 66.5867 145.014 66.68C144.681 66.7733 144.387 66.9267 144.134 67.14C143.881 67.34 143.687 67.62 143.554 67.98C143.421 68.34 143.354 68.7933 143.354 69.34V74H140.654ZM153.441 74.24C152.481 74.24 151.615 74.02 150.841 73.58C150.081 73.1267 149.475 72.5067 149.021 71.72C148.581 70.92 148.361 70.0067 148.361 68.98C148.361 67.9267 148.581 67.0067 149.021 66.22C149.475 65.42 150.088 64.8 150.861 64.36C151.635 63.9067 152.501 63.68 153.461 63.68C154.435 63.68 155.301 63.9067 156.061 64.36C156.835 64.8 157.441 65.42 157.881 66.22C158.335 67.0067 158.561 67.92 158.561 68.96C158.561 70 158.335 70.92 157.881 71.72C157.441 72.5067 156.835 73.1267 156.061 73.58C155.288 74.02 154.415 74.24 153.441 74.24ZM153.441 71.9C153.895 71.9 154.295 71.7933 154.641 71.58C155.001 71.3667 155.281 71.04 155.481 70.6C155.695 70.16 155.801 69.6133 155.801 68.96C155.801 68.3067 155.695 67.7667 155.481 67.34C155.281 66.9 155.001 66.5733 154.641 66.36C154.295 66.1333 153.901 66.02 153.461 66.02C153.035 66.02 152.641 66.1333 152.281 66.36C151.921 66.5733 151.635 66.9 151.421 67.34C151.221 67.7667 151.121 68.3067 151.121 68.96C151.121 69.6133 151.221 70.16 151.421 70.6C151.635 71.04 151.915 71.3667 152.261 71.58C152.621 71.7933 153.015 71.9 153.441 71.9ZM96.452 98.24C95.4386 98.24 94.532 98.0667 93.732 97.72C92.9453 97.3733 92.3186 96.8667 91.852 96.2C91.3986 95.5333 91.1653 94.7267 91.152 93.78H94.012C94.0253 94.1933 94.132 94.5667 94.332 94.9C94.532 95.2333 94.8053 95.5 95.152 95.7C95.512 95.8867 95.9386 95.98 96.432 95.98C96.8586 95.98 97.2253 95.9133 97.532 95.78C97.852 95.6333 98.0986 95.4333 98.272 95.18C98.4453 94.9267 98.532 94.6267 98.532 94.28C98.532 93.88 98.432 93.5467 98.232 93.28C98.0453 93.0133 97.7786 92.7867 97.432 92.6C97.0986 92.4133 96.7053 92.2467 96.252 92.1C95.812 91.94 95.3453 91.7733 94.852 91.6C93.7453 91.24 92.8986 90.76 92.312 90.16C91.7386 89.56 91.452 88.7667 91.452 87.78C91.452 86.94 91.652 86.22 92.052 85.62C92.4653 85.02 93.032 84.56 93.752 84.24C94.472 83.92 95.292 83.76 96.212 83.76C97.1586 83.76 97.9853 83.9267 98.692 84.26C99.412 84.58 99.9786 85.0467 100.392 85.66C100.819 86.2733 101.039 86.9933 101.052 87.82H98.172C98.1586 87.5133 98.0653 87.2267 97.892 86.96C97.732 86.68 97.5053 86.46 97.212 86.3C96.9186 86.1267 96.572 86.04 96.172 86.04C95.8253 86.0267 95.5053 86.08 95.212 86.2C94.932 86.32 94.7053 86.5 94.532 86.74C94.372 86.9667 94.292 87.2533 94.292 87.6C94.292 87.9333 94.372 88.2133 94.532 88.44C94.7053 88.6667 94.9386 88.8667 95.232 89.04C95.5253 89.2 95.872 89.3533 96.272 89.5C96.672 89.6333 97.1053 89.7733 97.572 89.92C98.2653 90.16 98.9053 90.4467 99.492 90.78C100.079 91.1 100.545 91.52 100.892 92.04C101.239 92.56 101.412 93.2467 101.412 94.1C101.412 94.8333 101.219 95.5133 100.832 96.14C100.445 96.7667 99.8853 97.2733 99.152 97.66C98.432 98.0467 97.532 98.24 96.452 98.24ZM107.042 98.24C106.202 98.24 105.509 98.1067 104.962 97.84C104.416 97.56 104.009 97.1933 103.742 96.74C103.489 96.2733 103.362 95.76 103.362 95.2C103.362 94.5867 103.516 94.0467 103.822 93.58C104.142 93.1133 104.616 92.7467 105.242 92.48C105.882 92.2133 106.682 92.08 107.642 92.08H110.142C110.142 91.5867 110.076 91.18 109.942 90.86C109.809 90.5267 109.602 90.28 109.322 90.12C109.042 89.96 108.669 89.88 108.202 89.88C107.696 89.88 107.262 89.9933 106.902 90.22C106.556 90.4333 106.342 90.7667 106.262 91.22H103.642C103.709 90.5 103.942 89.88 104.342 89.36C104.756 88.8267 105.296 88.4133 105.962 88.12C106.642 87.8267 107.396 87.68 108.222 87.68C109.169 87.68 109.989 87.84 110.682 88.16C111.376 88.48 111.909 88.94 112.282 89.54C112.656 90.14 112.842 90.88 112.842 91.76V98H110.562L110.262 96.46C110.116 96.7267 109.942 96.9667 109.742 97.18C109.542 97.3933 109.309 97.58 109.042 97.74C108.776 97.9 108.476 98.02 108.142 98.1C107.809 98.1933 107.442 98.24 107.042 98.24ZM107.682 96.16C108.029 96.16 108.336 96.1 108.602 95.98C108.882 95.8467 109.122 95.6733 109.322 95.46C109.522 95.2333 109.676 94.98 109.782 94.7C109.902 94.4067 109.982 94.0933 110.022 93.76V93.74H107.962C107.549 93.74 107.209 93.7933 106.942 93.9C106.689 93.9933 106.502 94.1333 106.382 94.32C106.262 94.5067 106.202 94.72 106.202 94.96C106.202 95.2267 106.262 95.4467 106.382 95.62C106.502 95.7933 106.676 95.9267 106.902 96.02C107.129 96.1133 107.389 96.16 107.682 96.16ZM105.162 87V85.08L108.122 83.48L111.062 85.08V87L108.122 85.36L105.162 87ZM115.361 98V87.92H117.741L117.941 89.56C118.248 89 118.681 88.5467 119.241 88.2C119.814 87.8533 120.494 87.68 121.281 87.68C122.121 87.68 122.828 87.8533 123.401 88.2C123.974 88.5467 124.408 89.0533 124.701 89.72C125.008 90.3867 125.161 91.2067 125.161 92.18V98H122.481V92.44C122.481 91.64 122.308 91.0267 121.961 90.6C121.628 90.1733 121.108 89.96 120.401 89.96C119.948 89.96 119.541 90.0667 119.181 90.28C118.834 90.4933 118.561 90.8 118.361 91.2C118.161 91.5867 118.061 92.06 118.061 92.62V98H115.361ZM132.185 98.24C131.265 98.24 130.438 98.0133 129.705 97.56C128.985 97.1067 128.418 96.48 128.005 95.68C127.591 94.88 127.385 93.98 127.385 92.98C127.385 91.9533 127.591 91.0467 128.005 90.26C128.431 89.46 129.011 88.8333 129.745 88.38C130.491 87.9133 131.325 87.68 132.245 87.68C132.965 87.68 133.598 87.8133 134.145 88.08C134.691 88.3467 135.131 88.7267 135.465 89.22V83.6H138.165V98H135.765L135.465 96.62C135.265 96.9 135.011 97.1667 134.705 97.42C134.411 97.6733 134.058 97.8733 133.645 98.02C133.231 98.1667 132.745 98.24 132.185 98.24ZM132.825 95.88C133.358 95.88 133.825 95.76 134.225 95.52C134.638 95.2667 134.958 94.92 135.185 94.48C135.411 94.04 135.525 93.5333 135.525 92.96C135.525 92.3867 135.411 91.88 135.185 91.44C134.958 91 134.638 90.66 134.225 90.42C133.825 90.1667 133.358 90.04 132.825 90.04C132.318 90.04 131.858 90.1667 131.445 90.42C131.031 90.66 130.705 91 130.465 91.44C130.238 91.88 130.125 92.38 130.125 92.94C130.125 93.5267 130.238 94.04 130.465 94.48C130.705 94.92 131.025 95.2667 131.425 95.52C131.838 95.76 132.305 95.88 132.825 95.88ZM144.21 98.24C143.37 98.24 142.677 98.1067 142.13 97.84C141.584 97.56 141.177 97.1933 140.91 96.74C140.657 96.2733 140.53 95.76 140.53 95.2C140.53 94.5867 140.684 94.0467 140.99 93.58C141.31 93.1133 141.784 92.7467 142.41 92.48C143.05 92.2133 143.85 92.08 144.81 92.08H147.31C147.31 91.5867 147.244 91.18 147.11 90.86C146.977 90.5267 146.77 90.28 146.49 90.12C146.21 89.96 145.837 89.88 145.37 89.88C144.864 89.88 144.43 89.9933 144.07 90.22C143.724 90.4333 143.51 90.7667 143.43 91.22H140.81C140.877 90.5 141.11 89.88 141.51 89.36C141.924 88.8267 142.464 88.4133 143.13 88.12C143.81 87.8267 144.564 87.68 145.39 87.68C146.337 87.68 147.157 87.84 147.85 88.16C148.544 88.48 149.077 88.94 149.45 89.54C149.824 90.14 150.01 90.88 150.01 91.76V98H147.73L147.43 96.46C147.284 96.7267 147.11 96.9667 146.91 97.18C146.71 97.3933 146.477 97.58 146.21 97.74C145.944 97.9 145.644 98.02 145.31 98.1C144.977 98.1933 144.61 98.24 144.21 98.24ZM144.85 96.16C145.197 96.16 145.504 96.1 145.77 95.98C146.05 95.8467 146.29 95.6733 146.49 95.46C146.69 95.2333 146.844 94.98 146.95 94.7C147.07 94.4067 147.15 94.0933 147.19 93.76V93.74H145.13C144.717 93.74 144.377 93.7933 144.11 93.9C143.857 93.9933 143.67 94.1333 143.55 94.32C143.43 94.5067 143.37 94.72 143.37 94.96C143.37 95.2267 143.43 95.4467 143.55 95.62C143.67 95.7933 143.844 95.9267 144.07 96.02C144.297 96.1133 144.557 96.16 144.85 96.16ZM152.529 98V83.6H155.229V98H152.529ZM162.621 98.24C161.661 98.24 160.794 98.02 160.021 97.58C159.261 97.1267 158.654 96.5067 158.201 95.72C157.761 94.92 157.541 94.0067 157.541 92.98C157.541 91.9267 157.761 91.0067 158.201 90.22C158.654 89.42 159.268 88.8 160.041 88.36C160.814 87.9067 161.681 87.68 162.641 87.68C163.614 87.68 164.481 87.9067 165.241 88.36C166.014 88.8 166.621 89.42 167.061 90.22C167.514 91.0067 167.741 91.92 167.741 92.96C167.741 94 167.514 94.92 167.061 95.72C166.621 96.5067 166.014 97.1267 165.241 97.58C164.468 98.02 163.594 98.24 162.621 98.24ZM162.621 95.9C163.074 95.9 163.474 95.7933 163.821 95.58C164.181 95.3667 164.461 95.04 164.661 94.6C164.874 94.16 164.981 93.6133 164.981 92.96C164.981 92.3067 164.874 91.7667 164.661 91.34C164.461 90.9 164.181 90.5733 163.821 90.36C163.474 90.1333 163.081 90.02 162.641 90.02C162.214 90.02 161.821 90.1333 161.461 90.36C161.101 90.5733 160.814 90.9 160.601 91.34C160.401 91.7667 160.301 92.3067 160.301 92.96C160.301 93.6133 160.401 94.16 160.601 94.6C160.814 95.04 161.094 95.3667 161.441 95.58C161.801 95.7933 162.194 95.9 162.621 95.9ZM85.1378 122V108H90.3778C91.5111 108 92.4511 108.193 93.1978 108.58C93.9445 108.967 94.4978 109.487 94.8578 110.14C95.2178 110.793 95.3978 111.54 95.3978 112.38C95.3978 113.153 95.2245 113.867 94.8778 114.52C94.5311 115.173 93.9845 115.707 93.2378 116.12C92.4911 116.52 91.5378 116.72 90.3778 116.72H87.8378V122H85.1378ZM87.8378 114.54H90.2178C91.0845 114.54 91.7045 114.347 92.0778 113.96C92.4645 113.56 92.6578 113.033 92.6578 112.38C92.6578 111.687 92.4645 111.153 92.0778 110.78C91.7045 110.393 91.0845 110.2 90.2178 110.2H87.8378V114.54ZM100.099 122.24C99.2589 122.24 98.5656 122.107 98.0189 121.84C97.4722 121.56 97.0656 121.193 96.7989 120.74C96.5456 120.273 96.4189 119.76 96.4189 119.2C96.4189 118.587 96.5722 118.047 96.8789 117.58C97.1989 117.113 97.6722 116.747 98.2989 116.48C98.9389 116.213 99.7389 116.08 100.699 116.08H103.199C103.199 115.587 103.132 115.18 102.999 114.86C102.866 114.527 102.659 114.28 102.379 114.12C102.099 113.96 101.726 113.88 101.259 113.88C100.752 113.88 100.319 113.993 99.9589 114.22C99.6122 114.433 99.3989 114.767 99.3189 115.22H96.6989C96.7656 114.5 96.9989 113.88 97.3989 113.36C97.8122 112.827 98.3522 112.413 99.0189 112.12C99.6989 111.827 100.452 111.68 101.279 111.68C102.226 111.68 103.046 111.84 103.739 112.16C104.432 112.48 104.966 112.94 105.339 113.54C105.712 114.14 105.899 114.88 105.899 115.76V122H103.619L103.319 120.46C103.172 120.727 102.999 120.967 102.799 121.18C102.599 121.393 102.366 121.58 102.099 121.74C101.832 121.9 101.532 122.02 101.199 122.1C100.866 122.193 100.499 122.24 100.099 122.24ZM100.739 120.16C101.086 120.16 101.392 120.1 101.659 119.98C101.939 119.847 102.179 119.673 102.379 119.46C102.579 119.233 102.732 118.98 102.839 118.7C102.959 118.407 103.039 118.093 103.079 117.76V117.74H101.019C100.606 117.74 100.266 117.793 99.9989 117.9C99.7456 117.993 99.5589 118.133 99.4389 118.32C99.3189 118.507 99.2589 118.72 99.2589 118.96C99.2589 119.227 99.3189 119.447 99.4389 119.62C99.5589 119.793 99.7322 119.927 99.9589 120.02C100.186 120.113 100.446 120.16 100.739 120.16ZM112.84 122C112.134 122 111.514 121.893 110.98 121.68C110.46 121.453 110.054 121.087 109.76 120.58C109.467 120.06 109.32 119.353 109.32 118.46V114.18H107.6V111.92H109.32L109.62 109.18H112.02V111.92H114.68V114.18H112.02V118.5C112.02 118.953 112.12 119.267 112.32 119.44C112.52 119.613 112.86 119.7 113.34 119.7H114.66V122H112.84ZM121.579 122.24C120.566 122.24 119.666 122.013 118.879 121.56C118.092 121.107 117.479 120.487 117.039 119.7C116.599 118.913 116.379 118.013 116.379 117C116.379 115.96 116.599 115.047 117.039 114.26C117.479 113.46 118.092 112.833 118.879 112.38C119.666 111.913 120.566 111.68 121.579 111.68C122.872 111.68 123.959 112.02 124.839 112.7C125.719 113.38 126.279 114.313 126.519 115.5H123.659C123.539 115.033 123.286 114.667 122.899 114.4C122.526 114.133 122.079 114 121.559 114C121.092 114 120.672 114.12 120.299 114.36C119.939 114.587 119.652 114.927 119.439 115.38C119.239 115.82 119.139 116.347 119.139 116.96C119.139 117.427 119.199 117.847 119.319 118.22C119.439 118.58 119.606 118.893 119.819 119.16C120.032 119.413 120.286 119.607 120.579 119.74C120.886 119.873 121.212 119.94 121.559 119.94C121.906 119.94 122.219 119.88 122.499 119.76C122.792 119.64 123.039 119.473 123.239 119.26C123.439 119.033 123.579 118.76 123.659 118.44H126.519C126.279 119.6 125.712 120.527 124.819 121.22C123.939 121.9 122.859 122.24 121.579 122.24ZM128.847 122V107.6H131.547V113.42C131.881 112.887 132.321 112.467 132.867 112.16C133.427 111.84 134.074 111.68 134.807 111.68C135.647 111.68 136.354 111.86 136.927 112.22C137.501 112.567 137.934 113.073 138.227 113.74C138.521 114.407 138.667 115.233 138.667 116.22V122H135.987V116.46C135.987 115.66 135.821 115.047 135.487 114.62C135.154 114.18 134.627 113.96 133.907 113.96C133.467 113.96 133.067 114.067 132.707 114.28C132.347 114.493 132.061 114.807 131.847 115.22C131.647 115.62 131.547 116.1 131.547 116.66V122H128.847ZM145.971 122.24C145.011 122.24 144.144 122.02 143.371 121.58C142.611 121.127 142.004 120.507 141.551 119.72C141.111 118.92 140.891 118.007 140.891 116.98C140.891 115.927 141.111 115.007 141.551 114.22C142.004 113.42 142.617 112.8 143.391 112.36C144.164 111.907 145.031 111.68 145.991 111.68C146.964 111.68 147.831 111.907 148.591 112.36C149.364 112.8 149.971 113.42 150.411 114.22C150.864 115.007 151.091 115.92 151.091 116.96C151.091 118 150.864 118.92 150.411 119.72C149.971 120.507 149.364 121.127 148.591 121.58C147.817 122.02 146.944 122.24 145.971 122.24ZM145.971 119.9C146.424 119.9 146.824 119.793 147.171 119.58C147.531 119.367 147.811 119.04 148.011 118.6C148.224 118.16 148.331 117.613 148.331 116.96C148.331 116.307 148.224 115.767 148.011 115.34C147.811 114.9 147.531 114.573 147.171 114.36C146.824 114.133 146.431 114.02 145.991 114.02C145.564 114.02 145.171 114.133 144.811 114.36C144.451 114.573 144.164 114.9 143.951 115.34C143.751 115.767 143.651 116.307 143.651 116.96C143.651 117.613 143.751 118.16 143.951 118.6C144.164 119.04 144.444 119.367 144.791 119.58C145.151 119.793 145.544 119.9 145.971 119.9ZM157.178 122.24C156.364 122.24 155.664 122.073 155.078 121.74C154.504 121.393 154.064 120.893 153.758 120.24C153.451 119.573 153.298 118.753 153.298 117.78V111.92H155.998V117.5C155.998 118.313 156.164 118.927 156.498 119.34C156.844 119.753 157.371 119.96 158.078 119.96C158.531 119.96 158.931 119.86 159.278 119.66C159.624 119.447 159.898 119.147 160.098 118.76C160.311 118.36 160.418 117.873 160.418 117.3V111.92H163.098V122H160.738L160.518 120.36C160.224 120.933 159.791 121.393 159.218 121.74C158.644 122.073 157.964 122.24 157.178 122.24ZM165.742 122V107.6H168.442V122H165.742ZM171.134 122V111.92H173.834V122H171.134ZM172.494 110.54C172.014 110.54 171.614 110.4 171.294 110.12C170.987 109.827 170.834 109.46 170.834 109.02C170.834 108.58 170.987 108.22 171.294 107.94C171.614 107.647 172.014 107.5 172.494 107.5C172.987 107.5 173.387 107.647 173.694 107.94C174.014 108.22 174.174 108.58 174.174 109.02C174.174 109.46 174.014 109.827 173.694 110.12C173.387 110.4 172.987 110.54 172.494 110.54ZM89.796 146V132H92.496V143.9H98.636V146H89.796ZM104.288 146.24C103.448 146.24 102.755 146.107 102.208 145.84C101.662 145.56 101.255 145.193 100.988 144.74C100.735 144.273 100.608 143.76 100.608 143.2C100.608 142.587 100.762 142.047 101.068 141.58C101.388 141.113 101.862 140.747 102.488 140.48C103.128 140.213 103.928 140.08 104.888 140.08H107.388C107.388 139.587 107.322 139.18 107.188 138.86C107.055 138.527 106.848 138.28 106.568 138.12C106.288 137.96 105.915 137.88 105.448 137.88C104.942 137.88 104.508 137.993 104.148 138.22C103.802 138.433 103.588 138.767 103.508 139.22H100.888C100.955 138.5 101.188 137.88 101.588 137.36C102.002 136.827 102.542 136.413 103.208 136.12C103.888 135.827 104.642 135.68 105.468 135.68C106.415 135.68 107.235 135.84 107.928 136.16C108.622 136.48 109.155 136.94 109.528 137.54C109.902 138.14 110.088 138.88 110.088 139.76V146H107.808L107.508 144.46C107.362 144.727 107.188 144.967 106.988 145.18C106.788 145.393 106.555 145.58 106.288 145.74C106.022 145.9 105.722 146.02 105.388 146.1C105.055 146.193 104.688 146.24 104.288 146.24ZM104.928 144.16C105.275 144.16 105.582 144.1 105.848 143.98C106.128 143.847 106.368 143.673 106.568 143.46C106.768 143.233 106.922 142.98 107.028 142.7C107.148 142.407 107.228 142.093 107.268 141.76V141.74H105.208C104.795 141.74 104.455 141.793 104.188 141.9C103.935 141.993 103.748 142.133 103.628 142.32C103.508 142.507 103.448 142.72 103.448 142.96C103.448 143.227 103.508 143.447 103.628 143.62C103.748 143.793 103.922 143.927 104.148 144.02C104.375 144.113 104.635 144.16 104.928 144.16ZM115.014 146L111.314 135.92H114.154L116.654 143.46L119.154 135.92H121.974L118.294 146H115.014ZM126.417 146.24C125.577 146.24 124.884 146.107 124.337 145.84C123.791 145.56 123.384 145.193 123.117 144.74C122.864 144.273 122.737 143.76 122.737 143.2C122.737 142.587 122.891 142.047 123.197 141.58C123.517 141.113 123.991 140.747 124.617 140.48C125.257 140.213 126.057 140.08 127.017 140.08H129.517C129.517 139.587 129.451 139.18 129.317 138.86C129.184 138.527 128.977 138.28 128.697 138.12C128.417 137.96 128.044 137.88 127.577 137.88C127.071 137.88 126.637 137.993 126.277 138.22C125.931 138.433 125.717 138.767 125.637 139.22H123.017C123.084 138.5 123.317 137.88 123.717 137.36C124.131 136.827 124.671 136.413 125.337 136.12C126.017 135.827 126.771 135.68 127.597 135.68C128.544 135.68 129.364 135.84 130.057 136.16C130.751 136.48 131.284 136.94 131.657 137.54C132.031 138.14 132.217 138.88 132.217 139.76V146H129.937L129.637 144.46C129.491 144.727 129.317 144.967 129.117 145.18C128.917 145.393 128.684 145.58 128.417 145.74C128.151 145.9 127.851 146.02 127.517 146.1C127.184 146.193 126.817 146.24 126.417 146.24ZM127.057 144.16C127.404 144.16 127.711 144.1 127.977 143.98C128.257 143.847 128.497 143.673 128.697 143.46C128.897 143.233 129.051 142.98 129.157 142.7C129.277 142.407 129.357 142.093 129.397 141.76V141.74H127.337C126.924 141.74 126.584 141.793 126.317 141.9C126.064 141.993 125.877 142.133 125.757 142.32C125.637 142.507 125.577 142.72 125.577 142.96C125.577 143.227 125.637 143.447 125.757 143.62C125.877 143.793 126.051 143.927 126.277 144.02C126.504 144.113 126.764 144.16 127.057 144.16ZM134.736 146V135.92H137.116L137.316 137.56C137.623 137 138.056 136.547 138.616 136.2C139.189 135.853 139.869 135.68 140.656 135.68C141.496 135.68 142.203 135.853 142.776 136.2C143.349 136.547 143.783 137.053 144.076 137.72C144.383 138.387 144.536 139.207 144.536 140.18V146H141.856V140.44C141.856 139.64 141.683 139.027 141.336 138.6C141.003 138.173 140.483 137.96 139.776 137.96C139.323 137.96 138.916 138.067 138.556 138.28C138.209 138.493 137.936 138.8 137.736 139.2C137.536 139.587 137.436 140.06 137.436 140.62V146H134.736ZM151.56 146.24C150.64 146.24 149.813 146.013 149.08 145.56C148.36 145.107 147.793 144.48 147.38 143.68C146.966 142.88 146.76 141.98 146.76 140.98C146.76 139.953 146.966 139.047 147.38 138.26C147.806 137.46 148.386 136.833 149.12 136.38C149.866 135.913 150.7 135.68 151.62 135.68C152.34 135.68 152.973 135.813 153.52 136.08C154.066 136.347 154.506 136.727 154.84 137.22V131.6H157.54V146H155.14L154.84 144.62C154.64 144.9 154.386 145.167 154.08 145.42C153.786 145.673 153.433 145.873 153.02 146.02C152.606 146.167 152.12 146.24 151.56 146.24ZM152.2 143.88C152.733 143.88 153.2 143.76 153.6 143.52C154.013 143.267 154.333 142.92 154.56 142.48C154.786 142.04 154.9 141.533 154.9 140.96C154.9 140.387 154.786 139.88 154.56 139.44C154.333 139 154.013 138.66 153.6 138.42C153.2 138.167 152.733 138.04 152.2 138.04C151.693 138.04 151.233 138.167 150.82 138.42C150.406 138.66 150.08 139 149.84 139.44C149.613 139.88 149.5 140.38 149.5 140.94C149.5 141.527 149.613 142.04 149.84 142.48C150.08 142.92 150.4 143.267 150.8 143.52C151.213 143.76 151.68 143.88 152.2 143.88ZM163.585 146.24C162.745 146.24 162.052 146.107 161.505 145.84C160.959 145.56 160.552 145.193 160.285 144.74C160.032 144.273 159.905 143.76 159.905 143.2C159.905 142.587 160.059 142.047 160.365 141.58C160.685 141.113 161.159 140.747 161.785 140.48C162.425 140.213 163.225 140.08 164.185 140.08H166.685C166.685 139.587 166.619 139.18 166.485 138.86C166.352 138.527 166.145 138.28 165.865 138.12C165.585 137.96 165.212 137.88 164.745 137.88C164.239 137.88 163.805 137.993 163.445 138.22C163.099 138.433 162.885 138.767 162.805 139.22H160.185C160.252 138.5 160.485 137.88 160.885 137.36C161.299 136.827 161.839 136.413 162.505 136.12C163.185 135.827 163.939 135.68 164.765 135.68C165.712 135.68 166.532 135.84 167.225 136.16C167.919 136.48 168.452 136.94 168.825 137.54C169.199 138.14 169.385 138.88 169.385 139.76V146H167.105L166.805 144.46C166.659 144.727 166.485 144.967 166.285 145.18C166.085 145.393 165.852 145.58 165.585 145.74C165.319 145.9 165.019 146.02 164.685 146.1C164.352 146.193 163.985 146.24 163.585 146.24ZM164.225 144.16C164.572 144.16 164.879 144.1 165.145 143.98C165.425 143.847 165.665 143.673 165.865 143.46C166.065 143.233 166.219 142.98 166.325 142.7C166.445 142.407 166.525 142.093 166.565 141.76V141.74H164.505C164.092 141.74 163.752 141.793 163.485 141.9C163.232 141.993 163.045 142.133 162.925 142.32C162.805 142.507 162.745 142.72 162.745 142.96C162.745 143.227 162.805 143.447 162.925 143.62C163.045 143.793 163.219 143.927 163.445 144.02C163.672 144.113 163.932 144.16 164.225 144.16Z" fill="#6A5ACD"/>
<defs>
<filter id="filter0_f_329_516" x="163.755" y="10.1165" width="78.6514" height="177.139" filterUnits="userSpaceOnUse" color-interpolation-filters="sRGB">
<feFlood flood-opacity="0" result="BackgroundImageFix"/>
<feBlend mode="normal" in="SourceGraphic" in2="BackgroundImageFix" result="shape"/>
<feGaussianBlur stdDeviation="15" result="effect1_foregroundBlur_329_516"/>
</filter>
<filter id="filter1_f_329_516" x="0.760254" y="20.605" width="219.681" height="218.744" filterUnits="userSpaceOnUse" color-interpolation-filters="sRGB">
<feFlood flood-opacity="0" result="BackgroundImageFix"/>
<feBlend mode="normal" in="SourceGraphic" in2="BackgroundImageFix" result="shape"/>
<feGaussianBlur stdDeviation="25" result="effect1_foregroundBlur_329_516"/>
</filter>
<linearGradient id="paint0_linear_329_516" x1="188.694" y1="207" x2="21.2126" y2="-75.993" gradientUnits="userSpaceOnUse">
<stop stop-color="#A1A4F3"/>
<stop offset="0.992945" stop-color="white" stop-opacity="0.86"/>
</linearGradient>
</defs>
</svg>
