<svg width="353" height="320" viewBox="0 0 353 320" fill="none" xmlns="http://www.w3.org/2000/svg">
<g filter="url(#filter0_f_329_506)">
<ellipse cx="203.081" cy="98.6862" rx="9.32577" ry="58.5698" fill="#050259" fill-opacity="0.5" style="mix-blend-mode:overlay"/>
</g>
<ellipse cx="129.252" cy="103.5" rx="100.252" ry="103.5" fill="url(#paint0_linear_329_506)"/>
<g filter="url(#filter1_f_329_506)">
<ellipse cx="110.6" cy="129.977" rx="59.8404" ry="59.3721" fill="#A1A4F3" fill-opacity="0.2"/>
</g>
<path d="M89.796 86V72H92.496V83.9H98.636V86H89.796ZM104.288 86.24C103.448 86.24 102.755 86.1067 102.208 85.84C101.662 85.56 101.255 85.1933 100.988 84.74C100.735 84.2733 100.608 83.76 100.608 83.2C100.608 82.5867 100.762 82.0467 101.068 81.58C101.388 81.1133 101.862 80.7467 102.488 80.48C103.128 80.2133 103.928 80.08 104.888 80.08H107.388C107.388 79.5867 107.322 79.18 107.188 78.86C107.055 78.5267 106.848 78.28 106.568 78.12C106.288 77.96 105.915 77.88 105.448 77.88C104.942 77.88 104.508 77.9933 104.148 78.22C103.802 78.4333 103.588 78.7667 103.508 79.22H100.888C100.955 78.5 101.188 77.88 101.588 77.36C102.002 76.8267 102.542 76.4133 103.208 76.12C103.888 75.8267 104.642 75.68 105.468 75.68C106.415 75.68 107.235 75.84 107.928 76.16C108.622 76.48 109.155 76.94 109.528 77.54C109.902 78.14 110.088 78.88 110.088 79.76V86H107.808L107.508 84.46C107.362 84.7267 107.188 84.9667 106.988 85.18C106.788 85.3933 106.555 85.58 106.288 85.74C106.022 85.9 105.722 86.02 105.388 86.1C105.055 86.1933 104.688 86.24 104.288 86.24ZM104.928 84.16C105.275 84.16 105.582 84.1 105.848 83.98C106.128 83.8467 106.368 83.6733 106.568 83.46C106.768 83.2333 106.922 82.98 107.028 82.7C107.148 82.4067 107.228 82.0933 107.268 81.76V81.74H105.208C104.795 81.74 104.455 81.7933 104.188 81.9C103.935 81.9933 103.748 82.1333 103.628 82.32C103.508 82.5067 103.448 82.72 103.448 82.96C103.448 83.2267 103.508 83.4467 103.628 83.62C103.748 83.7933 103.922 83.9267 104.148 84.02C104.375 84.1133 104.635 84.16 104.928 84.16ZM115.014 86L111.314 75.92H114.154L116.654 83.46L119.154 75.92H121.974L118.294 86H115.014ZM126.417 86.24C125.577 86.24 124.884 86.1067 124.337 85.84C123.791 85.56 123.384 85.1933 123.117 84.74C122.864 84.2733 122.737 83.76 122.737 83.2C122.737 82.5867 122.891 82.0467 123.197 81.58C123.517 81.1133 123.991 80.7467 124.617 80.48C125.257 80.2133 126.057 80.08 127.017 80.08H129.517C129.517 79.5867 129.451 79.18 129.317 78.86C129.184 78.5267 128.977 78.28 128.697 78.12C128.417 77.96 128.044 77.88 127.577 77.88C127.071 77.88 126.637 77.9933 126.277 78.22C125.931 78.4333 125.717 78.7667 125.637 79.22H123.017C123.084 78.5 123.317 77.88 123.717 77.36C124.131 76.8267 124.671 76.4133 125.337 76.12C126.017 75.8267 126.771 75.68 127.597 75.68C128.544 75.68 129.364 75.84 130.057 76.16C130.751 76.48 131.284 76.94 131.657 77.54C132.031 78.14 132.217 78.88 132.217 79.76V86H129.937L129.637 84.46C129.491 84.7267 129.317 84.9667 129.117 85.18C128.917 85.3933 128.684 85.58 128.417 85.74C128.151 85.9 127.851 86.02 127.517 86.1C127.184 86.1933 126.817 86.24 126.417 86.24ZM127.057 84.16C127.404 84.16 127.711 84.1 127.977 83.98C128.257 83.8467 128.497 83.6733 128.697 83.46C128.897 83.2333 129.051 82.98 129.157 82.7C129.277 82.4067 129.357 82.0933 129.397 81.76V81.74H127.337C126.924 81.74 126.584 81.7933 126.317 81.9C126.064 81.9933 125.877 82.1333 125.757 82.32C125.637 82.5067 125.577 82.72 125.577 82.96C125.577 83.2267 125.637 83.4467 125.757 83.62C125.877 83.7933 126.051 83.9267 126.277 84.02C126.504 84.1133 126.764 84.16 127.057 84.16ZM134.736 86V75.92H137.116L137.316 77.56C137.623 77 138.056 76.5467 138.616 76.2C139.189 75.8533 139.869 75.68 140.656 75.68C141.496 75.68 142.203 75.8533 142.776 76.2C143.349 76.5467 143.783 77.0533 144.076 77.72C144.383 78.3867 144.536 79.2067 144.536 80.18V86H141.856V80.44C141.856 79.64 141.683 79.0267 141.336 78.6C141.003 78.1733 140.483 77.96 139.776 77.96C139.323 77.96 138.916 78.0667 138.556 78.28C138.209 78.4933 137.936 78.8 137.736 79.2C137.536 79.5867 137.436 80.06 137.436 80.62V86H134.736ZM151.56 86.24C150.64 86.24 149.813 86.0133 149.08 85.56C148.36 85.1067 147.793 84.48 147.38 83.68C146.966 82.88 146.76 81.98 146.76 80.98C146.76 79.9533 146.966 79.0467 147.38 78.26C147.806 77.46 148.386 76.8333 149.12 76.38C149.866 75.9133 150.7 75.68 151.62 75.68C152.34 75.68 152.973 75.8133 153.52 76.08C154.066 76.3467 154.506 76.7267 154.84 77.22V71.6H157.54V86H155.14L154.84 84.62C154.64 84.9 154.386 85.1667 154.08 85.42C153.786 85.6733 153.433 85.8733 153.02 86.02C152.606 86.1667 152.12 86.24 151.56 86.24ZM152.2 83.88C152.733 83.88 153.2 83.76 153.6 83.52C154.013 83.2667 154.333 82.92 154.56 82.48C154.786 82.04 154.9 81.5333 154.9 80.96C154.9 80.3867 154.786 79.88 154.56 79.44C154.333 79 154.013 78.66 153.6 78.42C153.2 78.1667 152.733 78.04 152.2 78.04C151.693 78.04 151.233 78.1667 150.82 78.42C150.406 78.66 150.08 79 149.84 79.44C149.613 79.88 149.5 80.38 149.5 80.94C149.5 81.5267 149.613 82.04 149.84 82.48C150.08 82.92 150.4 83.2667 150.8 83.52C151.213 83.76 151.68 83.88 152.2 83.88ZM163.585 86.24C162.745 86.24 162.052 86.1067 161.505 85.84C160.959 85.56 160.552 85.1933 160.285 84.74C160.032 84.2733 159.905 83.76 159.905 83.2C159.905 82.5867 160.059 82.0467 160.365 81.58C160.685 81.1133 161.159 80.7467 161.785 80.48C162.425 80.2133 163.225 80.08 164.185 80.08H166.685C166.685 79.5867 166.619 79.18 166.485 78.86C166.352 78.5267 166.145 78.28 165.865 78.12C165.585 77.96 165.212 77.88 164.745 77.88C164.239 77.88 163.805 77.9933 163.445 78.22C163.099 78.4333 162.885 78.7667 162.805 79.22H160.185C160.252 78.5 160.485 77.88 160.885 77.36C161.299 76.8267 161.839 76.4133 162.505 76.12C163.185 75.8267 163.939 75.68 164.765 75.68C165.712 75.68 166.532 75.84 167.225 76.16C167.919 76.48 168.452 76.94 168.825 77.54C169.199 78.14 169.385 78.88 169.385 79.76V86H167.105L166.805 84.46C166.659 84.7267 166.485 84.9667 166.285 85.18C166.085 85.3933 165.852 85.58 165.585 85.74C165.319 85.9 165.019 86.02 164.685 86.1C164.352 86.1933 163.985 86.24 163.585 86.24ZM164.225 84.16C164.572 84.16 164.879 84.1 165.145 83.98C165.425 83.8467 165.665 83.6733 165.865 83.46C166.065 83.2333 166.219 82.98 166.325 82.7C166.445 82.4067 166.525 82.0933 166.565 81.76V81.74H164.505C164.092 81.74 163.752 81.7933 163.485 81.9C163.232 81.9933 163.045 82.1333 162.925 82.32C162.805 82.5067 162.745 82.72 162.745 82.96C162.745 83.2267 162.805 83.4467 162.925 83.62C163.045 83.7933 163.219 83.9267 163.445 84.02C163.672 84.1133 163.932 84.16 164.225 84.16ZM45.9491 110.24C44.5491 110.24 43.3424 109.94 42.3291 109.34C41.3291 108.727 40.5557 107.88 40.0091 106.8C39.4757 105.707 39.2091 104.447 39.2091 103.02C39.2091 101.593 39.4757 100.333 40.0091 99.24C40.5557 98.1467 41.3291 97.2933 42.3291 96.68C43.3424 96.0667 44.5491 95.76 45.9491 95.76C47.6424 95.76 49.0291 96.18 50.1091 97.02C51.1891 97.86 51.8624 99.0467 52.1291 100.58H49.1891C49.0157 99.8333 48.6491 99.2533 48.0891 98.84C47.5424 98.4133 46.8224 98.2 45.9291 98.2C45.1024 98.2 44.3891 98.4 43.7891 98.8C43.2024 99.1867 42.7491 99.74 42.4291 100.46C42.1091 101.167 41.9491 102.02 41.9491 103.02C41.9491 104.007 42.1091 104.86 42.4291 105.58C42.7491 106.3 43.2024 106.853 43.7891 107.24C44.3891 107.627 45.1024 107.82 45.9291 107.82C46.8224 107.82 47.5424 107.627 48.0891 107.24C48.6357 106.84 48.9957 106.287 49.1691 105.58H52.1291C51.8624 107.033 51.1891 108.173 50.1091 109C49.0291 109.827 47.6424 110.24 45.9491 110.24ZM57.7747 110.24C56.9347 110.24 56.2414 110.107 55.6947 109.84C55.148 109.56 54.7414 109.193 54.4747 108.74C54.2214 108.273 54.0947 107.76 54.0947 107.2C54.0947 106.587 54.248 106.047 54.5547 105.58C54.8747 105.113 55.348 104.747 55.9747 104.48C56.6147 104.213 57.4147 104.08 58.3747 104.08H60.8747C60.8747 103.587 60.808 103.18 60.6747 102.86C60.5414 102.527 60.3347 102.28 60.0547 102.12C59.7747 101.96 59.4014 101.88 58.9347 101.88C58.428 101.88 57.9947 101.993 57.6347 102.22C57.288 102.433 57.0747 102.767 56.9947 103.22H54.3747C54.4414 102.5 54.6747 101.88 55.0747 101.36C55.488 100.827 56.028 100.413 56.6947 100.12C57.3747 99.8267 58.128 99.68 58.9547 99.68C59.9014 99.68 60.7214 99.84 61.4147 100.16C62.108 100.48 62.6414 100.94 63.0147 101.54C63.388 102.14 63.5747 102.88 63.5747 103.76V110H61.2947L60.9947 108.46C60.848 108.727 60.6747 108.967 60.4747 109.18C60.2747 109.393 60.0414 109.58 59.7747 109.74C59.508 109.9 59.208 110.02 58.8747 110.1C58.5414 110.193 58.1747 110.24 57.7747 110.24ZM58.4147 108.16C58.7614 108.16 59.068 108.1 59.3347 107.98C59.6147 107.847 59.8547 107.673 60.0547 107.46C60.2547 107.233 60.408 106.98 60.5147 106.7C60.6347 106.407 60.7147 106.093 60.7547 105.76V105.74H58.6947C58.2814 105.74 57.9414 105.793 57.6747 105.9C57.4214 105.993 57.2347 106.133 57.1147 106.32C56.9947 106.507 56.9347 106.72 56.9347 106.96C56.9347 107.227 56.9947 107.447 57.1147 107.62C57.2347 107.793 57.408 107.927 57.6347 108.02C57.8614 108.113 58.1214 108.16 58.4147 108.16ZM66.0934 110V99.92H68.4734L68.6934 101.26C69.0134 100.78 69.4334 100.4 69.9534 100.12C70.4868 99.8267 71.0934 99.68 71.7734 99.68C72.2801 99.68 72.7334 99.7467 73.1334 99.88C73.5334 100.013 73.8868 100.207 74.1934 100.46C74.5134 100.713 74.7734 101.033 74.9734 101.42C75.3468 100.873 75.8334 100.447 76.4334 100.14C77.0334 99.8333 77.6868 99.68 78.3934 99.68C79.2734 99.68 80.0068 99.86 80.5934 100.22C81.1801 100.567 81.6201 101.073 81.9134 101.74C82.2201 102.407 82.3734 103.227 82.3734 104.2V110H79.6934V104.44C79.6934 103.64 79.5334 103.027 79.2134 102.6C78.9068 102.173 78.4268 101.96 77.7734 101.96C77.3468 101.96 76.9668 102.067 76.6334 102.28C76.3001 102.493 76.0401 102.8 75.8534 103.2C75.6801 103.6 75.5934 104.08 75.5934 104.64V110H72.8934V104.44C72.8934 103.64 72.7334 103.027 72.4134 102.6C72.0934 102.173 71.6001 101.96 70.9334 101.96C70.5201 101.96 70.1468 102.067 69.8134 102.28C69.4934 102.493 69.2401 102.8 69.0534 103.2C68.8801 103.6 68.7934 104.08 68.7934 104.64V110H66.0934ZM89.6816 110.24C88.7216 110.24 87.8549 110.02 87.0816 109.58C86.3216 109.127 85.7149 108.507 85.2616 107.72C84.8216 106.92 84.6016 106.007 84.6016 104.98C84.6016 103.927 84.8216 103.007 85.2616 102.22C85.7149 101.42 86.3282 100.8 87.1016 100.36C87.8749 99.9067 88.7416 99.68 89.7016 99.68C90.6749 99.68 91.5416 99.9067 92.3016 100.36C93.0749 100.8 93.6816 101.42 94.1216 102.22C94.5749 103.007 94.8016 103.92 94.8016 104.96C94.8016 106 94.5749 106.92 94.1216 107.72C93.6816 108.507 93.0749 109.127 92.3016 109.58C91.5282 110.02 90.6549 110.24 89.6816 110.24ZM89.6816 107.9C90.1349 107.9 90.5349 107.793 90.8816 107.58C91.2416 107.367 91.5216 107.04 91.7216 106.6C91.9349 106.16 92.0416 105.613 92.0416 104.96C92.0416 104.307 91.9349 103.767 91.7216 103.34C91.5216 102.9 91.2416 102.573 90.8816 102.36C90.5349 102.133 90.1416 102.02 89.7016 102.02C89.2749 102.02 88.8816 102.133 88.5216 102.36C88.1616 102.573 87.8749 102.9 87.6616 103.34C87.4616 103.767 87.3616 104.307 87.3616 104.96C87.3616 105.613 87.4616 106.16 87.6616 106.6C87.8749 107.04 88.1549 107.367 88.5016 107.58C88.8616 107.793 89.2549 107.9 89.6816 107.9ZM97.1286 110V99.92H99.5086L99.7286 101.26C100.049 100.78 100.469 100.4 100.989 100.12C101.522 99.8267 102.129 99.68 102.809 99.68C103.315 99.68 103.769 99.7467 104.169 99.88C104.569 100.013 104.922 100.207 105.229 100.46C105.549 100.713 105.809 101.033 106.009 101.42C106.382 100.873 106.869 100.447 107.469 100.14C108.069 99.8333 108.722 99.68 109.429 99.68C110.309 99.68 111.042 99.86 111.629 100.22C112.215 100.567 112.655 101.073 112.949 101.74C113.255 102.407 113.409 103.227 113.409 104.2V110H110.729V104.44C110.729 103.64 110.569 103.027 110.249 102.6C109.942 102.173 109.462 101.96 108.809 101.96C108.382 101.96 108.002 102.067 107.669 102.28C107.335 102.493 107.075 102.8 106.889 103.2C106.715 103.6 106.629 104.08 106.629 104.64V110H103.929V104.44C103.929 103.64 103.769 103.027 103.449 102.6C103.129 102.173 102.635 101.96 101.969 101.96C101.555 101.96 101.182 102.067 100.849 102.28C100.529 102.493 100.275 102.8 100.089 103.2C99.9153 103.6 99.8286 104.08 99.8286 104.64V110H97.1286ZM116.017 110V99.92H118.717V110H116.017ZM117.377 98.54C116.897 98.54 116.497 98.4 116.177 98.12C115.87 97.8267 115.717 97.46 115.717 97.02C115.717 96.58 115.87 96.22 116.177 95.94C116.497 95.6467 116.897 95.5 117.377 95.5C117.87 95.5 118.27 95.6467 118.577 95.94C118.897 96.22 119.057 96.58 119.057 97.02C119.057 97.46 118.897 97.8267 118.577 98.12C118.27 98.4 117.87 98.54 117.377 98.54ZM121.445 110V95.6H124.145V110H121.445ZM130.177 110.24C129.337 110.24 128.644 110.107 128.097 109.84C127.55 109.56 127.144 109.193 126.877 108.74C126.624 108.273 126.497 107.76 126.497 107.2C126.497 106.587 126.65 106.047 126.957 105.58C127.277 105.113 127.75 104.747 128.377 104.48C129.017 104.213 129.817 104.08 130.777 104.08H133.277C133.277 103.587 133.21 103.18 133.077 102.86C132.944 102.527 132.737 102.28 132.457 102.12C132.177 101.96 131.804 101.88 131.337 101.88C130.83 101.88 130.397 101.993 130.037 102.22C129.69 102.433 129.477 102.767 129.397 103.22H126.777C126.844 102.5 127.077 101.88 127.477 101.36C127.89 100.827 128.43 100.413 129.097 100.12C129.777 99.8267 130.53 99.68 131.357 99.68C132.304 99.68 133.124 99.84 133.817 100.16C134.51 100.48 135.044 100.94 135.417 101.54C135.79 102.14 135.977 102.88 135.977 103.76V110H133.697L133.397 108.46C133.25 108.727 133.077 108.967 132.877 109.18C132.677 109.393 132.444 109.58 132.177 109.74C131.91 109.9 131.61 110.02 131.277 110.1C130.944 110.193 130.577 110.24 130.177 110.24ZM130.817 108.16C131.164 108.16 131.47 108.1 131.737 107.98C132.017 107.847 132.257 107.673 132.457 107.46C132.657 107.233 132.81 106.98 132.917 106.7C133.037 106.407 133.117 106.093 133.157 105.76V105.74H131.097C130.684 105.74 130.344 105.793 130.077 105.9C129.824 105.993 129.637 106.133 129.517 106.32C129.397 106.507 129.337 106.72 129.337 106.96C129.337 107.227 129.397 107.447 129.517 107.62C129.637 107.793 129.81 107.927 130.037 108.02C130.264 108.113 130.524 108.16 130.817 108.16ZM143.263 110V96H148.483C149.616 96 150.549 96.1933 151.283 96.58C152.016 96.9667 152.563 97.4867 152.923 98.14C153.283 98.78 153.463 99.4933 153.463 100.28C153.463 101.027 153.289 101.727 152.943 102.38C152.596 103.02 152.049 103.54 151.303 103.94C150.569 104.327 149.623 104.52 148.463 104.52H145.963V110H143.263ZM150.523 110L147.643 103.84H150.563L153.603 110H150.523ZM145.963 102.56H148.323C149.136 102.56 149.736 102.36 150.123 101.96C150.509 101.56 150.703 101.033 150.703 100.38C150.703 99.7267 150.509 99.2133 150.123 98.84C149.749 98.4533 149.149 98.26 148.323 98.26H145.963V102.56ZM159.975 110.24C159.015 110.24 158.148 110.02 157.375 109.58C156.615 109.127 156.008 108.507 155.555 107.72C155.115 106.92 154.895 106.007 154.895 104.98C154.895 103.927 155.115 103.007 155.555 102.22C156.008 101.42 156.621 100.8 157.395 100.36C158.168 99.9067 159.035 99.68 159.995 99.68C160.968 99.68 161.835 99.9067 162.595 100.36C163.368 100.8 163.975 101.42 164.415 102.22C164.868 103.007 165.095 103.92 165.095 104.96C165.095 106 164.868 106.92 164.415 107.72C163.975 108.507 163.368 109.127 162.595 109.58C161.821 110.02 160.948 110.24 159.975 110.24ZM159.975 107.9C160.428 107.9 160.828 107.793 161.175 107.58C161.535 107.367 161.815 107.04 162.015 106.6C162.228 106.16 162.335 105.613 162.335 104.96C162.335 104.307 162.228 103.767 162.015 103.34C161.815 102.9 161.535 102.573 161.175 102.36C160.828 102.133 160.435 102.02 159.995 102.02C159.568 102.02 159.175 102.133 158.815 102.36C158.455 102.573 158.168 102.9 157.955 103.34C157.755 103.767 157.655 104.307 157.655 104.96C157.655 105.613 157.755 106.16 157.955 106.6C158.168 107.04 158.448 107.367 158.795 107.58C159.155 107.793 159.548 107.9 159.975 107.9ZM167.422 110V99.92H169.802L170.022 101.26C170.342 100.78 170.762 100.4 171.282 100.12C171.815 99.8267 172.422 99.68 173.102 99.68C173.608 99.68 174.062 99.7467 174.462 99.88C174.862 100.013 175.215 100.207 175.522 100.46C175.842 100.713 176.102 101.033 176.302 101.42C176.675 100.873 177.162 100.447 177.762 100.14C178.362 99.8333 179.015 99.68 179.722 99.68C180.602 99.68 181.335 99.86 181.922 100.22C182.508 100.567 182.948 101.073 183.242 101.74C183.548 102.407 183.702 103.227 183.702 104.2V110H181.022V104.44C181.022 103.64 180.862 103.027 180.542 102.6C180.235 102.173 179.755 101.96 179.102 101.96C178.675 101.96 178.295 102.067 177.962 102.28C177.628 102.493 177.368 102.8 177.182 103.2C177.008 103.6 176.922 104.08 176.922 104.64V110H174.222V104.44C174.222 103.64 174.062 103.027 173.742 102.6C173.422 102.173 172.928 101.96 172.262 101.96C171.848 101.96 171.475 102.067 171.142 102.28C170.822 102.493 170.568 102.8 170.382 103.2C170.208 103.6 170.122 104.08 170.122 104.64V110H167.422ZM189.65 110.24C188.81 110.24 188.116 110.107 187.57 109.84C187.023 109.56 186.616 109.193 186.35 108.74C186.096 108.273 185.97 107.76 185.97 107.2C185.97 106.587 186.123 106.047 186.43 105.58C186.75 105.113 187.223 104.747 187.85 104.48C188.49 104.213 189.29 104.08 190.25 104.08H192.75C192.75 103.587 192.683 103.18 192.55 102.86C192.416 102.527 192.21 102.28 191.93 102.12C191.65 101.96 191.276 101.88 190.81 101.88C190.303 101.88 189.87 101.993 189.51 102.22C189.163 102.433 188.95 102.767 188.87 103.22H186.25C186.316 102.5 186.55 101.88 186.95 101.36C187.363 100.827 187.903 100.413 188.57 100.12C189.25 99.8267 190.003 99.68 190.83 99.68C191.776 99.68 192.596 99.84 193.29 100.16C193.983 100.48 194.516 100.94 194.89 101.54C195.263 102.14 195.45 102.88 195.45 103.76V110H193.17L192.87 108.46C192.723 108.727 192.55 108.967 192.35 109.18C192.15 109.393 191.916 109.58 191.65 109.74C191.383 109.9 191.083 110.02 190.75 110.1C190.416 110.193 190.05 110.24 189.65 110.24ZM190.29 108.16C190.636 108.16 190.943 108.1 191.21 107.98C191.49 107.847 191.73 107.673 191.93 107.46C192.13 107.233 192.283 106.98 192.39 106.7C192.51 106.407 192.59 106.093 192.63 105.76V105.74H190.57C190.156 105.74 189.816 105.793 189.55 105.9C189.296 105.993 189.11 106.133 188.99 106.32C188.87 106.507 188.81 106.72 188.81 106.96C188.81 107.227 188.87 107.447 188.99 107.62C189.11 107.793 189.283 107.927 189.51 108.02C189.736 108.113 189.996 108.16 190.29 108.16ZM197.968 110V99.92H200.348L200.548 101.56C200.855 101 201.288 100.547 201.848 100.2C202.422 99.8533 203.102 99.68 203.888 99.68C204.728 99.68 205.435 99.8533 206.008 100.2C206.582 100.547 207.015 101.053 207.308 101.72C207.615 102.387 207.768 103.207 207.768 104.18V110H205.088V104.44C205.088 103.64 204.915 103.027 204.568 102.6C204.235 102.173 203.715 101.96 203.008 101.96C202.555 101.96 202.148 102.067 201.788 102.28C201.442 102.493 201.168 102.8 200.968 103.2C200.768 103.587 200.668 104.06 200.668 104.62V110H197.968ZM213.712 110.24C212.872 110.24 212.179 110.107 211.632 109.84C211.086 109.56 210.679 109.193 210.412 108.74C210.159 108.273 210.032 107.76 210.032 107.2C210.032 106.587 210.186 106.047 210.492 105.58C210.812 105.113 211.286 104.747 211.912 104.48C212.552 104.213 213.352 104.08 214.312 104.08H216.812C216.812 103.587 216.746 103.18 216.612 102.86C216.479 102.527 216.272 102.28 215.992 102.12C215.712 101.96 215.339 101.88 214.872 101.88C214.366 101.88 213.932 101.993 213.572 102.22C213.226 102.433 213.012 102.767 212.932 103.22H210.312C210.379 102.5 210.612 101.88 211.012 101.36C211.426 100.827 211.966 100.413 212.632 100.12C213.312 99.8267 214.066 99.68 214.892 99.68C215.839 99.68 216.659 99.84 217.352 100.16C218.046 100.48 218.579 100.94 218.952 101.54C219.326 102.14 219.512 102.88 219.512 103.76V110H217.232L216.932 108.46C216.786 108.727 216.612 108.967 216.412 109.18C216.212 109.393 215.979 109.58 215.712 109.74C215.446 109.9 215.146 110.02 214.812 110.1C214.479 110.193 214.112 110.24 213.712 110.24ZM214.352 108.16C214.699 108.16 215.006 108.1 215.272 107.98C215.552 107.847 215.792 107.673 215.992 107.46C216.192 107.233 216.346 106.98 216.452 106.7C216.572 106.407 216.652 106.093 216.692 105.76V105.74H214.632C214.219 105.74 213.879 105.793 213.612 105.9C213.359 105.993 213.172 106.133 213.052 106.32C212.932 106.507 212.872 106.72 212.872 106.96C212.872 107.227 212.932 107.447 213.052 107.62C213.172 107.793 213.346 107.927 213.572 108.02C213.799 108.113 214.059 108.16 214.352 108.16ZM102.052 134V120H104.752L111.192 129.66V120H113.892V134H111.192L104.752 124.36V134H102.052ZM121.402 134.24C120.389 134.24 119.489 134.027 118.702 133.6C117.929 133.16 117.322 132.553 116.882 131.78C116.456 130.993 116.242 130.087 116.242 129.06C116.242 128.007 116.456 127.08 116.882 126.28C117.322 125.467 117.929 124.833 118.702 124.38C119.476 123.913 120.376 123.68 121.402 123.68C122.402 123.68 123.276 123.9 124.022 124.34C124.769 124.78 125.349 125.373 125.762 126.12C126.176 126.867 126.382 127.713 126.382 128.66C126.382 128.793 126.382 128.947 126.382 129.12C126.382 129.28 126.369 129.447 126.342 129.62H118.162V127.98H123.662C123.622 127.327 123.389 126.813 122.962 126.44C122.549 126.067 122.029 125.88 121.402 125.88C120.949 125.88 120.529 125.987 120.142 126.2C119.756 126.4 119.449 126.713 119.222 127.14C119.009 127.567 118.902 128.107 118.902 128.76V129.34C118.902 129.887 119.002 130.367 119.202 130.78C119.416 131.18 119.709 131.493 120.082 131.72C120.456 131.933 120.889 132.04 121.382 132.04C121.876 132.04 122.282 131.933 122.602 131.72C122.936 131.507 123.182 131.233 123.342 130.9H126.102C125.916 131.527 125.602 132.093 125.162 132.6C124.722 133.107 124.182 133.507 123.542 133.8C122.902 134.093 122.189 134.24 121.402 134.24ZM128.593 134V123.92H130.993L131.253 125.78C131.493 125.34 131.793 124.967 132.153 124.66C132.527 124.353 132.947 124.113 133.413 123.94C133.893 123.767 134.42 123.68 134.993 123.68V126.54H134.073C133.673 126.54 133.3 126.587 132.953 126.68C132.62 126.773 132.327 126.927 132.073 127.14C131.82 127.34 131.627 127.62 131.493 127.98C131.36 128.34 131.293 128.793 131.293 129.34V134H128.593ZM141.381 134.24C140.421 134.24 139.554 134.02 138.781 133.58C138.021 133.127 137.414 132.507 136.961 131.72C136.521 130.92 136.301 130.007 136.301 128.98C136.301 127.927 136.521 127.007 136.961 126.22C137.414 125.42 138.027 124.8 138.801 124.36C139.574 123.907 140.441 123.68 141.401 123.68C142.374 123.68 143.241 123.907 144.001 124.36C144.774 124.8 145.381 125.42 145.821 126.22C146.274 127.007 146.501 127.92 146.501 128.96C146.501 130 146.274 130.92 145.821 131.72C145.381 132.507 144.774 133.127 144.001 133.58C143.227 134.02 142.354 134.24 141.381 134.24ZM141.381 131.9C141.834 131.9 142.234 131.793 142.581 131.58C142.941 131.367 143.221 131.04 143.421 130.6C143.634 130.16 143.741 129.613 143.741 128.96C143.741 128.307 143.634 127.767 143.421 127.34C143.221 126.9 142.941 126.573 142.581 126.36C142.234 126.133 141.841 126.02 141.401 126.02C140.974 126.02 140.581 126.133 140.221 126.36C139.861 126.573 139.574 126.9 139.361 127.34C139.161 127.767 139.061 128.307 139.061 128.96C139.061 129.613 139.161 130.16 139.361 130.6C139.574 131.04 139.854 131.367 140.201 131.58C140.561 131.793 140.954 131.9 141.381 131.9ZM148.828 134V119.6H151.528V134H148.828ZM154.22 134V123.92H156.92V134H154.22ZM155.58 122.54C155.1 122.54 154.7 122.4 154.38 122.12C154.073 121.827 153.92 121.46 153.92 121.02C153.92 120.58 154.073 120.22 154.38 119.94C154.7 119.647 155.1 119.5 155.58 119.5C156.073 119.5 156.473 119.647 156.78 119.94C157.1 120.22 157.26 120.58 157.26 121.02C157.26 121.46 157.1 121.827 156.78 122.12C156.473 122.4 156.073 122.54 155.58 122.54Z" fill="#6A5ACD"/>
<g filter="url(#filter2_f_329_506)">
<ellipse cx="255" cy="178.601" rx="41.0435" ry="14.3638" fill="#A1A4F3" fill-opacity="0.5" style="mix-blend-mode:overlay"/>
</g>
<ellipse cx="255" cy="229.592" rx="80" ry="82.5918" fill="url(#paint1_linear_329_506)"/>
<g filter="url(#filter3_f_329_506)">
<ellipse cx="250.13" cy="234.619" rx="52.8696" ry="34.4731" fill="#A1A4F3" fill-opacity="0.15" style="mix-blend-mode:overlay"/>
</g>
<path d="M235.445 212.24C234.045 212.24 232.838 211.94 231.825 211.34C230.825 210.727 230.052 209.88 229.505 208.8C228.972 207.707 228.705 206.447 228.705 205.02C228.705 203.593 228.972 202.333 229.505 201.24C230.052 200.147 230.825 199.293 231.825 198.68C232.838 198.067 234.045 197.76 235.445 197.76C237.138 197.76 238.525 198.18 239.605 199.02C240.685 199.86 241.358 201.047 241.625 202.58H238.685C238.512 201.833 238.145 201.253 237.585 200.84C237.038 200.413 236.318 200.2 235.425 200.2C234.598 200.2 233.885 200.4 233.285 200.8C232.698 201.187 232.245 201.74 231.925 202.46C231.605 203.167 231.445 204.02 231.445 205.02C231.445 206.007 231.605 206.86 231.925 207.58C232.245 208.3 232.698 208.853 233.285 209.24C233.885 209.627 234.598 209.82 235.425 209.82C236.318 209.82 237.038 209.627 237.585 209.24C238.132 208.84 238.492 208.287 238.665 207.58H241.625C241.358 209.033 240.685 210.173 239.605 211C238.525 211.827 237.138 212.24 235.445 212.24ZM248.711 212.24C247.697 212.24 246.797 212.027 246.011 211.6C245.237 211.16 244.631 210.553 244.191 209.78C243.764 208.993 243.551 208.087 243.551 207.06C243.551 206.007 243.764 205.08 244.191 204.28C244.631 203.467 245.237 202.833 246.011 202.38C246.784 201.913 247.684 201.68 248.711 201.68C249.711 201.68 250.584 201.9 251.331 202.34C252.077 202.78 252.657 203.373 253.071 204.12C253.484 204.867 253.691 205.713 253.691 206.66C253.691 206.793 253.691 206.947 253.691 207.12C253.691 207.28 253.677 207.447 253.651 207.62H245.471V205.98H250.971C250.931 205.327 250.697 204.813 250.271 204.44C249.857 204.067 249.337 203.88 248.711 203.88C248.257 203.88 247.837 203.987 247.451 204.2C247.064 204.4 246.757 204.713 246.531 205.14C246.317 205.567 246.211 206.107 246.211 206.76V207.34C246.211 207.887 246.311 208.367 246.511 208.78C246.724 209.18 247.017 209.493 247.391 209.72C247.764 209.933 248.197 210.04 248.691 210.04C249.184 210.04 249.591 209.933 249.911 209.72C250.244 209.507 250.491 209.233 250.651 208.9H253.411C253.224 209.527 252.911 210.093 252.471 210.6C252.031 211.107 251.491 211.507 250.851 211.8C250.211 212.093 249.497 212.24 248.711 212.24ZM260.382 212.24C259.462 212.24 258.635 212.013 257.902 211.56C257.182 211.107 256.615 210.48 256.202 209.68C255.789 208.88 255.582 207.98 255.582 206.98C255.582 205.953 255.789 205.047 256.202 204.26C256.629 203.46 257.209 202.833 257.942 202.38C258.689 201.913 259.522 201.68 260.442 201.68C261.162 201.68 261.795 201.813 262.342 202.08C262.889 202.347 263.329 202.727 263.662 203.22V197.6H266.362V212H263.962L263.662 210.62C263.462 210.9 263.209 211.167 262.902 211.42C262.609 211.673 262.255 211.873 261.842 212.02C261.429 212.167 260.942 212.24 260.382 212.24ZM261.022 209.88C261.555 209.88 262.022 209.76 262.422 209.52C262.835 209.267 263.155 208.92 263.382 208.48C263.609 208.04 263.722 207.533 263.722 206.96C263.722 206.387 263.609 205.88 263.382 205.44C263.155 205 262.835 204.66 262.422 204.42C262.022 204.167 261.555 204.04 261.022 204.04C260.515 204.04 260.055 204.167 259.642 204.42C259.229 204.66 258.902 205 258.662 205.44C258.435 205.88 258.322 206.38 258.322 206.94C258.322 207.527 258.435 208.04 258.662 208.48C258.902 208.92 259.222 209.267 259.622 209.52C260.035 209.76 260.502 209.88 261.022 209.88ZM269.007 212V201.92H271.408L271.668 203.78C271.908 203.34 272.208 202.967 272.568 202.66C272.941 202.353 273.361 202.113 273.828 201.94C274.308 201.767 274.834 201.68 275.408 201.68V204.54H274.488C274.088 204.54 273.714 204.587 273.368 204.68C273.034 204.773 272.741 204.927 272.488 205.14C272.234 205.34 272.041 205.62 271.908 205.98C271.774 206.34 271.708 206.793 271.708 207.34V212H269.007ZM281.795 212.24C280.835 212.24 279.968 212.02 279.195 211.58C278.435 211.127 277.828 210.507 277.375 209.72C276.935 208.92 276.715 208.007 276.715 206.98C276.715 205.927 276.935 205.007 277.375 204.22C277.828 203.42 278.442 202.8 279.215 202.36C279.988 201.907 280.855 201.68 281.815 201.68C282.788 201.68 283.655 201.907 284.415 202.36C285.188 202.8 285.795 203.42 286.235 204.22C286.688 205.007 286.915 205.92 286.915 206.96C286.915 208 286.688 208.92 286.235 209.72C285.795 210.507 285.188 211.127 284.415 211.58C283.642 212.02 282.768 212.24 281.795 212.24ZM281.795 209.9C282.248 209.9 282.648 209.793 282.995 209.58C283.355 209.367 283.635 209.04 283.835 208.6C284.048 208.16 284.155 207.613 284.155 206.96C284.155 206.307 284.048 205.767 283.835 205.34C283.635 204.9 283.355 204.573 282.995 204.36C282.648 204.133 282.255 204.02 281.815 204.02C281.388 204.02 280.995 204.133 280.635 204.36C280.275 204.573 279.988 204.9 279.775 205.34C279.575 205.767 279.475 206.307 279.475 206.96C279.475 207.613 279.575 208.16 279.775 208.6C279.988 209.04 280.268 209.367 280.615 209.58C280.975 209.793 281.368 209.9 281.795 209.9ZM225.9 236L220.8 222H223.68L227.56 233.24L231.46 222H234.32L229.22 236H225.9ZM239.57 236.24C238.557 236.24 237.657 236.027 236.87 235.6C236.097 235.16 235.49 234.553 235.05 233.78C234.623 232.993 234.41 232.087 234.41 231.06C234.41 230.007 234.623 229.08 235.05 228.28C235.49 227.467 236.097 226.833 236.87 226.38C237.643 225.913 238.543 225.68 239.57 225.68C240.57 225.68 241.443 225.9 242.19 226.34C242.937 226.78 243.517 227.373 243.93 228.12C244.343 228.867 244.55 229.713 244.55 230.66C244.55 230.793 244.55 230.947 244.55 231.12C244.55 231.28 244.537 231.447 244.51 231.62H236.33V229.98H241.83C241.79 229.327 241.557 228.813 241.13 228.44C240.717 228.067 240.197 227.88 239.57 227.88C239.117 227.88 238.697 227.987 238.31 228.2C237.923 228.4 237.617 228.713 237.39 229.14C237.177 229.567 237.07 230.107 237.07 230.76V231.34C237.07 231.887 237.17 232.367 237.37 232.78C237.583 233.18 237.877 233.493 238.25 233.72C238.623 233.933 239.057 234.04 239.55 234.04C240.043 234.04 240.45 233.933 240.77 233.72C241.103 233.507 241.35 233.233 241.51 232.9H244.27C244.083 233.527 243.77 234.093 243.33 234.6C242.89 235.107 242.35 235.507 241.71 235.8C241.07 236.093 240.357 236.24 239.57 236.24ZM251.165 236C250.458 236 249.838 235.893 249.305 235.68C248.785 235.453 248.378 235.087 248.085 234.58C247.791 234.06 247.645 233.353 247.645 232.46V228.18H245.925V225.92H247.645L247.945 223.18H250.345V225.92H253.005V228.18H250.345V232.5C250.345 232.953 250.445 233.267 250.645 233.44C250.845 233.613 251.185 233.7 251.665 233.7H252.985V236H251.165ZM255.337 236V225.92H258.037V236H255.337ZM256.697 224.54C256.217 224.54 255.817 224.4 255.497 224.12C255.19 223.827 255.037 223.46 255.037 223.02C255.037 222.58 255.19 222.22 255.497 221.94C255.817 221.647 256.217 221.5 256.697 221.5C257.19 221.5 257.59 221.647 257.897 221.94C258.217 222.22 258.377 222.58 258.377 223.02C258.377 223.46 258.217 223.827 257.897 224.12C257.59 224.4 257.19 224.54 256.697 224.54ZM263.465 236L259.765 225.92H262.605L265.105 233.46L267.605 225.92H270.425L266.745 236H263.465ZM276.445 236.24C275.432 236.24 274.532 236.027 273.745 235.6C272.972 235.16 272.365 234.553 271.925 233.78C271.498 232.993 271.285 232.087 271.285 231.06C271.285 230.007 271.498 229.08 271.925 228.28C272.365 227.467 272.972 226.833 273.745 226.38C274.518 225.913 275.418 225.68 276.445 225.68C277.445 225.68 278.318 225.9 279.065 226.34C279.812 226.78 280.392 227.373 280.805 228.12C281.218 228.867 281.425 229.713 281.425 230.66C281.425 230.793 281.425 230.947 281.425 231.12C281.425 231.28 281.412 231.447 281.385 231.62H273.205V229.98H278.705C278.665 229.327 278.432 228.813 278.005 228.44C277.592 228.067 277.072 227.88 276.445 227.88C275.992 227.88 275.572 227.987 275.185 228.2C274.798 228.4 274.492 228.713 274.265 229.14C274.052 229.567 273.945 230.107 273.945 230.76V231.34C273.945 231.887 274.045 232.367 274.245 232.78C274.458 233.18 274.752 233.493 275.125 233.72C275.498 233.933 275.932 234.04 276.425 234.04C276.918 234.04 277.325 233.933 277.645 233.72C277.978 233.507 278.225 233.233 278.385 232.9H281.145C280.958 233.527 280.645 234.093 280.205 234.6C279.765 235.107 279.225 235.507 278.585 235.8C277.945 236.093 277.232 236.24 276.445 236.24ZM283.636 236V225.92H286.036L286.296 227.78C286.536 227.34 286.836 226.967 287.196 226.66C287.57 226.353 287.99 226.113 288.456 225.94C288.936 225.767 289.463 225.68 290.036 225.68V228.54H289.116C288.716 228.54 288.343 228.587 287.996 228.68C287.663 228.773 287.37 228.927 287.116 229.14C286.863 229.34 286.67 229.62 286.536 229.98C286.403 230.34 286.336 230.793 286.336 231.34V236H283.636ZM222.452 260.24C221.439 260.24 220.532 260.067 219.732 259.72C218.945 259.373 218.319 258.867 217.852 258.2C217.399 257.533 217.165 256.727 217.152 255.78H220.012C220.025 256.193 220.132 256.567 220.332 256.9C220.532 257.233 220.805 257.5 221.152 257.7C221.512 257.887 221.939 257.98 222.432 257.98C222.859 257.98 223.225 257.913 223.532 257.78C223.852 257.633 224.099 257.433 224.272 257.18C224.445 256.927 224.532 256.627 224.532 256.28C224.532 255.88 224.432 255.547 224.232 255.28C224.045 255.013 223.779 254.787 223.432 254.6C223.099 254.413 222.705 254.247 222.252 254.1C221.812 253.94 221.345 253.773 220.852 253.6C219.745 253.24 218.899 252.76 218.312 252.16C217.739 251.56 217.452 250.767 217.452 249.78C217.452 248.94 217.652 248.22 218.052 247.62C218.465 247.02 219.032 246.56 219.752 246.24C220.472 245.92 221.292 245.76 222.212 245.76C223.159 245.76 223.985 245.927 224.692 246.26C225.412 246.58 225.979 247.047 226.392 247.66C226.819 248.273 227.039 248.993 227.052 249.82H224.172C224.159 249.513 224.065 249.227 223.892 248.96C223.732 248.68 223.505 248.46 223.212 248.3C222.919 248.127 222.572 248.04 222.172 248.04C221.825 248.027 221.505 248.08 221.212 248.2C220.932 248.32 220.705 248.5 220.532 248.74C220.372 248.967 220.292 249.253 220.292 249.6C220.292 249.933 220.372 250.213 220.532 250.44C220.705 250.667 220.939 250.867 221.232 251.04C221.525 251.2 221.872 251.353 222.272 251.5C222.672 251.633 223.105 251.773 223.572 251.92C224.265 252.16 224.905 252.447 225.492 252.78C226.079 253.1 226.545 253.52 226.892 254.04C227.239 254.56 227.412 255.247 227.412 256.1C227.412 256.833 227.219 257.513 226.832 258.14C226.445 258.767 225.885 259.273 225.152 259.66C224.432 260.047 223.532 260.24 222.452 260.24ZM233.042 260.24C232.202 260.24 231.509 260.107 230.962 259.84C230.416 259.56 230.009 259.193 229.742 258.74C229.489 258.273 229.362 257.76 229.362 257.2C229.362 256.587 229.516 256.047 229.822 255.58C230.142 255.113 230.616 254.747 231.242 254.48C231.882 254.213 232.682 254.08 233.642 254.08H236.142C236.142 253.587 236.076 253.18 235.942 252.86C235.809 252.527 235.602 252.28 235.322 252.12C235.042 251.96 234.669 251.88 234.202 251.88C233.696 251.88 233.262 251.993 232.902 252.22C232.556 252.433 232.342 252.767 232.262 253.22H229.642C229.709 252.5 229.942 251.88 230.342 251.36C230.756 250.827 231.296 250.413 231.962 250.12C232.642 249.827 233.396 249.68 234.222 249.68C235.169 249.68 235.989 249.84 236.682 250.16C237.376 250.48 237.909 250.94 238.282 251.54C238.656 252.14 238.842 252.88 238.842 253.76V260H236.562L236.262 258.46C236.116 258.727 235.942 258.967 235.742 259.18C235.542 259.393 235.309 259.58 235.042 259.74C234.776 259.9 234.476 260.02 234.142 260.1C233.809 260.193 233.442 260.24 233.042 260.24ZM233.682 258.16C234.029 258.16 234.336 258.1 234.602 257.98C234.882 257.847 235.122 257.673 235.322 257.46C235.522 257.233 235.676 256.98 235.782 256.7C235.902 256.407 235.982 256.093 236.022 255.76V255.74H233.962C233.549 255.74 233.209 255.793 232.942 255.9C232.689 255.993 232.502 256.133 232.382 256.32C232.262 256.507 232.202 256.72 232.202 256.96C232.202 257.227 232.262 257.447 232.382 257.62C232.502 257.793 232.676 257.927 232.902 258.02C233.129 258.113 233.389 258.16 233.682 258.16ZM231.162 249V247.08L234.122 245.48L237.062 247.08V249L234.122 247.36L231.162 249ZM241.361 260V249.92H243.741L243.941 251.56C244.248 251 244.681 250.547 245.241 250.2C245.814 249.853 246.494 249.68 247.281 249.68C248.121 249.68 248.828 249.853 249.401 250.2C249.974 250.547 250.408 251.053 250.701 251.72C251.008 252.387 251.161 253.207 251.161 254.18V260H248.481V254.44C248.481 253.64 248.308 253.027 247.961 252.6C247.628 252.173 247.108 251.96 246.401 251.96C245.948 251.96 245.541 252.067 245.181 252.28C244.834 252.493 244.561 252.8 244.361 253.2C244.161 253.587 244.061 254.06 244.061 254.62V260H241.361ZM258.185 260.24C257.265 260.24 256.438 260.013 255.705 259.56C254.985 259.107 254.418 258.48 254.005 257.68C253.591 256.88 253.385 255.98 253.385 254.98C253.385 253.953 253.591 253.047 254.005 252.26C254.431 251.46 255.011 250.833 255.745 250.38C256.491 249.913 257.325 249.68 258.245 249.68C258.965 249.68 259.598 249.813 260.145 250.08C260.691 250.347 261.131 250.727 261.465 251.22V245.6H264.165V260H261.765L261.465 258.62C261.265 258.9 261.011 259.167 260.705 259.42C260.411 259.673 260.058 259.873 259.645 260.02C259.231 260.167 258.745 260.24 258.185 260.24ZM258.825 257.88C259.358 257.88 259.825 257.76 260.225 257.52C260.638 257.267 260.958 256.92 261.185 256.48C261.411 256.04 261.525 255.533 261.525 254.96C261.525 254.387 261.411 253.88 261.185 253.44C260.958 253 260.638 252.66 260.225 252.42C259.825 252.167 259.358 252.04 258.825 252.04C258.318 252.04 257.858 252.167 257.445 252.42C257.031 252.66 256.705 253 256.465 253.44C256.238 253.88 256.125 254.38 256.125 254.94C256.125 255.527 256.238 256.04 256.465 256.48C256.705 256.92 257.025 257.267 257.425 257.52C257.838 257.76 258.305 257.88 258.825 257.88ZM270.21 260.24C269.37 260.24 268.677 260.107 268.13 259.84C267.584 259.56 267.177 259.193 266.91 258.74C266.657 258.273 266.53 257.76 266.53 257.2C266.53 256.587 266.684 256.047 266.99 255.58C267.31 255.113 267.784 254.747 268.41 254.48C269.05 254.213 269.85 254.08 270.81 254.08H273.31C273.31 253.587 273.244 253.18 273.11 252.86C272.977 252.527 272.77 252.28 272.49 252.12C272.21 251.96 271.837 251.88 271.37 251.88C270.864 251.88 270.43 251.993 270.07 252.22C269.724 252.433 269.51 252.767 269.43 253.22H266.81C266.877 252.5 267.11 251.88 267.51 251.36C267.924 250.827 268.464 250.413 269.13 250.12C269.81 249.827 270.564 249.68 271.39 249.68C272.337 249.68 273.157 249.84 273.85 250.16C274.544 250.48 275.077 250.94 275.45 251.54C275.824 252.14 276.01 252.88 276.01 253.76V260H273.73L273.43 258.46C273.284 258.727 273.11 258.967 272.91 259.18C272.71 259.393 272.477 259.58 272.21 259.74C271.944 259.9 271.644 260.02 271.31 260.1C270.977 260.193 270.61 260.24 270.21 260.24ZM270.85 258.16C271.197 258.16 271.504 258.1 271.77 257.98C272.05 257.847 272.29 257.673 272.49 257.46C272.69 257.233 272.844 256.98 272.95 256.7C273.07 256.407 273.15 256.093 273.19 255.76V255.74H271.13C270.717 255.74 270.377 255.793 270.11 255.9C269.857 255.993 269.67 256.133 269.55 256.32C269.43 256.507 269.37 256.72 269.37 256.96C269.37 257.227 269.43 257.447 269.55 257.62C269.67 257.793 269.844 257.927 270.07 258.02C270.297 258.113 270.557 258.16 270.85 258.16ZM278.529 260V245.6H281.229V260H278.529ZM288.621 260.24C287.661 260.24 286.794 260.02 286.021 259.58C285.261 259.127 284.654 258.507 284.201 257.72C283.761 256.92 283.541 256.007 283.541 254.98C283.541 253.927 283.761 253.007 284.201 252.22C284.654 251.42 285.268 250.8 286.041 250.36C286.814 249.907 287.681 249.68 288.641 249.68C289.614 249.68 290.481 249.907 291.241 250.36C292.014 250.8 292.621 251.42 293.061 252.22C293.514 253.007 293.741 253.92 293.741 254.96C293.741 256 293.514 256.92 293.061 257.72C292.621 258.507 292.014 259.127 291.241 259.58C290.468 260.02 289.594 260.24 288.621 260.24ZM288.621 257.9C289.074 257.9 289.474 257.793 289.821 257.58C290.181 257.367 290.461 257.04 290.661 256.6C290.874 256.16 290.981 255.613 290.981 254.96C290.981 254.307 290.874 253.767 290.661 253.34C290.461 252.9 290.181 252.573 289.821 252.36C289.474 252.133 289.081 252.02 288.641 252.02C288.214 252.02 287.821 252.133 287.461 252.36C287.101 252.573 286.814 252.9 286.601 253.34C286.401 253.767 286.301 254.307 286.301 254.96C286.301 255.613 286.401 256.16 286.601 256.6C286.814 257.04 287.094 257.367 287.441 257.58C287.801 257.793 288.194 257.9 288.621 257.9Z" fill="#6A5ACD"/>
<ellipse cx="197" cy="170" rx="18" ry="19" fill="url(#paint2_linear_329_506)"/>
<path d="M190.08 176.24C189.12 176.24 188.253 176.02 187.48 175.58C186.72 175.127 186.113 174.507 185.66 173.72C185.22 172.92 185 172.007 185 170.98C185 169.927 185.22 169.007 185.66 168.22C186.113 167.42 186.727 166.8 187.5 166.36C188.273 165.907 189.14 165.68 190.1 165.68C191.073 165.68 191.94 165.907 192.7 166.36C193.473 166.8 194.08 167.42 194.52 168.22C194.973 169.007 195.2 169.92 195.2 170.96C195.2 172 194.973 172.92 194.52 173.72C194.08 174.507 193.473 175.127 192.7 175.58C191.927 176.02 191.053 176.24 190.08 176.24ZM190.08 173.9C190.533 173.9 190.933 173.793 191.28 173.58C191.64 173.367 191.92 173.04 192.12 172.6C192.333 172.16 192.44 171.613 192.44 170.96C192.44 170.307 192.333 169.767 192.12 169.34C191.92 168.9 191.64 168.573 191.28 168.36C190.933 168.133 190.54 168.02 190.1 168.02C189.673 168.02 189.28 168.133 188.92 168.36C188.56 168.573 188.273 168.9 188.06 169.34C187.86 169.767 187.76 170.307 187.76 170.96C187.76 171.613 187.86 172.16 188.06 172.6C188.273 173.04 188.553 173.367 188.9 173.58C189.26 173.793 189.653 173.9 190.08 173.9ZM201.287 176.24C200.474 176.24 199.774 176.073 199.187 175.74C198.614 175.393 198.174 174.893 197.867 174.24C197.56 173.573 197.407 172.753 197.407 171.78V165.92H200.107V171.5C200.107 172.313 200.274 172.927 200.607 173.34C200.954 173.753 201.48 173.96 202.187 173.96C202.64 173.96 203.04 173.86 203.387 173.66C203.734 173.447 204.007 173.147 204.207 172.76C204.42 172.36 204.527 171.873 204.527 171.3V165.92H207.207V176H204.847L204.627 174.36C204.334 174.933 203.9 175.393 203.327 175.74C202.754 176.073 202.074 176.24 201.287 176.24Z" fill="#6A5ACD"/>
<defs>
<filter id="filter0_f_329_506" x="163.755" y="10.1165" width="78.6516" height="177.139" filterUnits="userSpaceOnUse" color-interpolation-filters="sRGB">
<feFlood flood-opacity="0" result="BackgroundImageFix"/>
<feBlend mode="normal" in="SourceGraphic" in2="BackgroundImageFix" result="shape"/>
<feGaussianBlur stdDeviation="15" result="effect1_foregroundBlur_329_506"/>
</filter>
<filter id="filter1_f_329_506" x="0.76001" y="20.605" width="219.681" height="218.744" filterUnits="userSpaceOnUse" color-interpolation-filters="sRGB">
<feFlood flood-opacity="0" result="BackgroundImageFix"/>
<feBlend mode="normal" in="SourceGraphic" in2="BackgroundImageFix" result="shape"/>
<feGaussianBlur stdDeviation="25" result="effect1_foregroundBlur_329_506"/>
</filter>
<filter id="filter2_f_329_506" x="183.957" y="134.237" width="142.087" height="88.7275" filterUnits="userSpaceOnUse" color-interpolation-filters="sRGB">
<feFlood flood-opacity="0" result="BackgroundImageFix"/>
<feBlend mode="normal" in="SourceGraphic" in2="BackgroundImageFix" result="shape"/>
<feGaussianBlur stdDeviation="15" result="effect1_foregroundBlur_329_506"/>
</filter>
<filter id="filter3_f_329_506" x="147.261" y="150.146" width="205.739" height="168.946" filterUnits="userSpaceOnUse" color-interpolation-filters="sRGB">
<feFlood flood-opacity="0" result="BackgroundImageFix"/>
<feBlend mode="normal" in="SourceGraphic" in2="BackgroundImageFix" result="shape"/>
<feGaussianBlur stdDeviation="25" result="effect1_foregroundBlur_329_506"/>
</filter>
<linearGradient id="paint0_linear_329_506" x1="188.694" y1="207" x2="21.2126" y2="-75.993" gradientUnits="userSpaceOnUse">
<stop stop-color="#A1A4F3"/>
<stop offset="0.992945" stop-color="white" stop-opacity="0.86"/>
</linearGradient>
<linearGradient id="paint1_linear_329_506" x1="302.434" y1="312.184" x2="168.786" y2="86.3585" gradientUnits="userSpaceOnUse">
<stop stop-color="#BBBCF2"/>
<stop offset="0.992945" stop-color="white" stop-opacity="0.86"/>
</linearGradient>
<linearGradient id="paint2_linear_329_506" x1="207.673" y1="189" x2="176.603" y2="137.654" gradientUnits="userSpaceOnUse">
<stop stop-color="#BBBCF2"/>
<stop offset="0.992945" stop-color="white" stop-opacity="0.86"/>
</linearGradient>
</defs>
</svg>
