<svg width="353" height="320" viewBox="0 0 353 320" fill="none" xmlns="http://www.w3.org/2000/svg">
<g filter="url(#filter0_f_329_507)">
<ellipse cx="203.081" cy="98.686" rx="9.32577" ry="58.5698" fill="#050259" fill-opacity="0.5" style="mix-blend-mode:overlay"/>
</g>
<ellipse cx="129.252" cy="103.5" rx="100.252" ry="103.5" fill="url(#paint0_linear_329_507)"/>
<g filter="url(#filter1_f_329_507)">
<ellipse cx="110.6" cy="129.977" rx="59.8404" ry="59.3721" fill="#A1A4F3" fill-opacity="0.2"/>
</g>
<path d="M84.8839 86V72H94.0839V74.18H87.5839V77.84H93.4839V79.94H87.5839V83.82H94.0839V86H84.8839ZM100.244 86.24C99.4307 86.24 98.7307 86.0733 98.1441 85.74C97.5707 85.3933 97.1307 84.8933 96.8241 84.24C96.5174 83.5733 96.3641 82.7533 96.3641 81.78V75.92H99.0641V81.5C99.0641 82.3133 99.2307 82.9267 99.5641 83.34C99.9107 83.7533 100.437 83.96 101.144 83.96C101.597 83.96 101.997 83.86 102.344 83.66C102.691 83.4467 102.964 83.1467 103.164 82.76C103.377 82.36 103.484 81.8733 103.484 81.3V75.92H106.164V86H103.804L103.584 84.36C103.291 84.9333 102.857 85.3933 102.284 85.74C101.711 86.0733 101.031 86.24 100.244 86.24ZM113.688 86.24C112.675 86.24 111.775 86.0133 110.988 85.56C110.202 85.1067 109.588 84.4867 109.148 83.7C108.708 82.9133 108.488 82.0133 108.488 81C108.488 79.96 108.708 79.0467 109.148 78.26C109.588 77.46 110.202 76.8333 110.988 76.38C111.775 75.9133 112.675 75.68 113.688 75.68C114.982 75.68 116.068 76.02 116.948 76.7C117.828 77.38 118.388 78.3133 118.628 79.5H115.768C115.648 79.0333 115.395 78.6667 115.008 78.4C114.635 78.1333 114.188 78 113.668 78C113.202 78 112.782 78.12 112.408 78.36C112.048 78.5867 111.762 78.9267 111.548 79.38C111.348 79.82 111.248 80.3467 111.248 80.96C111.248 81.4267 111.308 81.8467 111.428 82.22C111.548 82.58 111.715 82.8933 111.928 83.16C112.142 83.4133 112.395 83.6067 112.688 83.74C112.995 83.8733 113.322 83.94 113.668 83.94C114.015 83.94 114.328 83.88 114.608 83.76C114.902 83.64 115.148 83.4733 115.348 83.26C115.548 83.0333 115.688 82.76 115.768 82.44H118.628C118.388 83.6 117.822 84.5267 116.928 85.22C116.048 85.9 114.968 86.24 113.688 86.24ZM124.357 86.24C123.517 86.24 122.823 86.1067 122.277 85.84C121.73 85.56 121.323 85.1933 121.057 84.74C120.803 84.2733 120.677 83.76 120.677 83.2C120.677 82.5867 120.83 82.0467 121.137 81.58C121.457 81.1133 121.93 80.7467 122.557 80.48C123.197 80.2133 123.997 80.08 124.957 80.08H127.457C127.457 79.5867 127.39 79.18 127.257 78.86C127.123 78.5267 126.917 78.28 126.637 78.12C126.357 77.96 125.983 77.88 125.517 77.88C125.01 77.88 124.577 77.9933 124.217 78.22C123.87 78.4333 123.657 78.7667 123.577 79.22H120.957C121.023 78.5 121.257 77.88 121.657 77.36C122.07 76.8267 122.61 76.4133 123.277 76.12C123.957 75.8267 124.71 75.68 125.537 75.68C126.483 75.68 127.303 75.84 127.997 76.16C128.69 76.48 129.223 76.94 129.597 77.54C129.97 78.14 130.157 78.88 130.157 79.76V86H127.877L127.577 84.46C127.43 84.7267 127.257 84.9667 127.057 85.18C126.857 85.3933 126.623 85.58 126.357 85.74C126.09 85.9 125.79 86.02 125.457 86.1C125.123 86.1933 124.757 86.24 124.357 86.24ZM124.997 84.16C125.343 84.16 125.65 84.1 125.917 83.98C126.197 83.8467 126.437 83.6733 126.637 83.46C126.837 83.2333 126.99 82.98 127.097 82.7C127.217 82.4067 127.297 82.0933 127.337 81.76V81.74H125.277C124.863 81.74 124.523 81.7933 124.257 81.9C124.003 81.9933 123.817 82.1333 123.697 82.32C123.577 82.5067 123.517 82.72 123.517 82.96C123.517 83.2267 123.577 83.4467 123.697 83.62C123.817 83.7933 123.99 83.9267 124.217 84.02C124.443 84.1133 124.703 84.16 124.997 84.16ZM132.675 86V71.6H135.375V86H132.675ZM138.068 86V75.92H140.768V86H138.068ZM139.428 74.54C138.948 74.54 138.548 74.4 138.228 74.12C137.921 73.8267 137.768 73.46 137.768 73.02C137.768 72.58 137.921 72.22 138.228 71.94C138.548 71.6467 138.948 71.5 139.428 71.5C139.921 71.5 140.321 71.6467 140.628 71.94C140.948 72.22 141.108 72.58 141.108 73.02C141.108 73.46 140.948 73.8267 140.628 74.12C140.321 74.4 139.921 74.54 139.428 74.54ZM143.496 90.4V75.92H145.896L146.196 77.32C146.409 77.0267 146.662 76.76 146.956 76.52C147.249 76.2667 147.596 76.0667 147.996 75.92C148.409 75.76 148.889 75.68 149.436 75.68C150.382 75.68 151.216 75.9133 151.936 76.38C152.656 76.8467 153.222 77.48 153.636 78.28C154.062 79.0667 154.276 79.9667 154.276 80.98C154.276 81.9933 154.062 82.9 153.636 83.7C153.209 84.4867 152.636 85.1067 151.916 85.56C151.196 86.0133 150.376 86.24 149.456 86.24C148.709 86.24 148.062 86.1067 147.516 85.84C146.982 85.56 146.542 85.18 146.196 84.7V90.4H143.496ZM148.816 83.88C149.349 83.88 149.816 83.76 150.216 83.52C150.629 83.28 150.949 82.94 151.176 82.5C151.402 82.06 151.516 81.5533 151.516 80.98C151.516 80.4067 151.402 79.9 151.176 79.46C150.949 79.0067 150.629 78.66 150.216 78.42C149.816 78.1667 149.349 78.04 148.816 78.04C148.296 78.04 147.829 78.1667 147.416 78.42C147.016 78.66 146.696 79 146.456 79.44C146.229 79.88 146.116 80.3867 146.116 80.96C146.116 81.5333 146.229 82.0467 146.456 82.5C146.696 82.94 147.016 83.28 147.416 83.52C147.829 83.76 148.296 83.88 148.816 83.88ZM160.751 86C160.044 86 159.424 85.8933 158.891 85.68C158.371 85.4533 157.964 85.0867 157.671 84.58C157.377 84.06 157.231 83.3533 157.231 82.46V78.18H155.511V75.92H157.231L157.531 73.18H159.931V75.92H162.591V78.18H159.931V82.5C159.931 82.9533 160.031 83.2667 160.231 83.44C160.431 83.6133 160.771 83.7 161.251 83.7H162.571V86H160.751ZM169.369 86.24C168.409 86.24 167.542 86.02 166.769 85.58C166.009 85.1267 165.402 84.5067 164.949 83.72C164.509 82.92 164.289 82.0067 164.289 80.98C164.289 79.9267 164.509 79.0067 164.949 78.22C165.402 77.42 166.016 76.8 166.789 76.36C167.562 75.9067 168.429 75.68 169.389 75.68C170.362 75.68 171.229 75.9067 171.989 76.36C172.762 76.8 173.369 77.42 173.809 78.22C174.262 79.0067 174.489 79.92 174.489 80.96C174.489 82 174.262 82.92 173.809 83.72C173.369 84.5067 172.762 85.1267 171.989 85.58C171.216 86.02 170.342 86.24 169.369 86.24ZM169.369 83.9C169.822 83.9 170.222 83.7933 170.569 83.58C170.929 83.3667 171.209 83.04 171.409 82.6C171.622 82.16 171.729 81.6133 171.729 80.96C171.729 80.3067 171.622 79.7667 171.409 79.34C171.209 78.9 170.929 78.5733 170.569 78.36C170.222 78.1333 169.829 78.02 169.389 78.02C168.962 78.02 168.569 78.1333 168.209 78.36C167.849 78.5733 167.562 78.9 167.349 79.34C167.149 79.7667 167.049 80.3067 167.049 80.96C167.049 81.6133 167.149 82.16 167.349 82.6C167.562 83.04 167.842 83.3667 168.189 83.58C168.549 83.7933 168.942 83.9 169.369 83.9ZM56.7801 110V96H59.4801V110H56.7801ZM47.9601 110V96H50.6601V110H47.9601ZM50.2801 103.94V101.76H57.2401V103.94H50.2801ZM66.9374 110.24C65.9774 110.24 65.1108 110.02 64.3374 109.58C63.5774 109.127 62.9708 108.507 62.5174 107.72C62.0774 106.92 61.8574 106.007 61.8574 104.98C61.8574 103.927 62.0774 103.007 62.5174 102.22C62.9708 101.42 63.5841 100.8 64.3574 100.36C65.1308 99.9067 65.9974 99.68 66.9574 99.68C67.9308 99.68 68.7974 99.9067 69.5574 100.36C70.3308 100.8 70.9374 101.42 71.3774 102.22C71.8308 103.007 72.0574 103.92 72.0574 104.96C72.0574 106 71.8308 106.92 71.3774 107.72C70.9374 108.507 70.3308 109.127 69.5574 109.58C68.7841 110.02 67.9108 110.24 66.9374 110.24ZM66.9374 107.9C67.3908 107.9 67.7908 107.793 68.1374 107.58C68.4974 107.367 68.7774 107.04 68.9774 106.6C69.1908 106.16 69.2974 105.613 69.2974 104.96C69.2974 104.307 69.1908 103.767 68.9774 103.34C68.7774 102.9 68.4974 102.573 68.1374 102.36C67.7908 102.133 67.3974 102.02 66.9574 102.02C66.5308 102.02 66.1374 102.133 65.7774 102.36C65.4174 102.573 65.1308 102.9 64.9174 103.34C64.7174 103.767 64.6174 104.307 64.6174 104.96C64.6174 105.613 64.7174 106.16 64.9174 106.6C65.1308 107.04 65.4108 107.367 65.7574 107.58C66.1174 107.793 66.5108 107.9 66.9374 107.9ZM74.3845 110V99.92H76.7845L77.0445 101.78C77.2845 101.34 77.5845 100.967 77.9445 100.66C78.3178 100.353 78.7378 100.113 79.2045 99.94C79.6845 99.7667 80.2111 99.68 80.7845 99.68V102.54H79.8645C79.4645 102.54 79.0911 102.587 78.7445 102.68C78.4111 102.773 78.1178 102.927 77.8645 103.14C77.6111 103.34 77.4178 103.62 77.2845 103.98C77.1511 104.34 77.0845 104.793 77.0845 105.34V110H74.3845ZM87.108 110C86.4014 110 85.7814 109.893 85.248 109.68C84.728 109.453 84.3214 109.087 84.028 108.58C83.7347 108.06 83.588 107.353 83.588 106.46V102.18H81.868V99.92H83.588L83.888 97.18H86.288V99.92H88.948V102.18H86.288V106.5C86.288 106.953 86.388 107.267 86.588 107.44C86.788 107.613 87.128 107.7 87.608 107.7H88.928V110H87.108ZM95.8065 110.24C94.7932 110.24 93.8932 110.027 93.1065 109.6C92.3332 109.16 91.7265 108.553 91.2865 107.78C90.8598 106.993 90.6465 106.087 90.6465 105.06C90.6465 104.007 90.8598 103.08 91.2865 102.28C91.7265 101.467 92.3332 100.833 93.1065 100.38C93.8798 99.9133 94.7798 99.68 95.8065 99.68C96.8065 99.68 97.6798 99.9 98.4265 100.34C99.1732 100.78 99.7532 101.373 100.166 102.12C100.58 102.867 100.786 103.713 100.786 104.66C100.786 104.793 100.786 104.947 100.786 105.12C100.786 105.28 100.773 105.447 100.746 105.62H92.5665V103.98H98.0665C98.0265 103.327 97.7932 102.813 97.3665 102.44C96.9532 102.067 96.4332 101.88 95.8065 101.88C95.3532 101.88 94.9332 101.987 94.5465 102.2C94.1598 102.4 93.8532 102.713 93.6265 103.14C93.4132 103.567 93.3065 104.107 93.3065 104.76V105.34C93.3065 105.887 93.4065 106.367 93.6065 106.78C93.8198 107.18 94.1132 107.493 94.4865 107.72C94.8598 107.933 95.2932 108.04 95.7865 108.04C96.2798 108.04 96.6865 107.933 97.0065 107.72C97.3398 107.507 97.5865 107.233 97.7465 106.9H100.506C100.32 107.527 100.006 108.093 99.5665 108.6C99.1265 109.107 98.5865 109.507 97.9465 109.8C97.3065 110.093 96.5932 110.24 95.8065 110.24ZM102.998 110V95.6H105.698V110H102.998ZM111.73 110.24C110.89 110.24 110.196 110.107 109.65 109.84C109.103 109.56 108.696 109.193 108.43 108.74C108.176 108.273 108.05 107.76 108.05 107.2C108.05 106.587 108.203 106.047 108.51 105.58C108.83 105.113 109.303 104.747 109.93 104.48C110.57 104.213 111.37 104.08 112.33 104.08H114.83C114.83 103.587 114.763 103.18 114.63 102.86C114.496 102.527 114.29 102.28 114.01 102.12C113.73 101.96 113.356 101.88 112.89 101.88C112.383 101.88 111.95 101.993 111.59 102.22C111.243 102.433 111.03 102.767 110.95 103.22H108.33C108.396 102.5 108.63 101.88 109.03 101.36C109.443 100.827 109.983 100.413 110.65 100.12C111.33 99.8267 112.083 99.68 112.91 99.68C113.856 99.68 114.676 99.84 115.37 100.16C116.063 100.48 116.596 100.94 116.97 101.54C117.343 102.14 117.53 102.88 117.53 103.76V110H115.25L114.95 108.46C114.803 108.727 114.63 108.967 114.43 109.18C114.23 109.393 113.996 109.58 113.73 109.74C113.463 109.9 113.163 110.02 112.83 110.1C112.496 110.193 112.13 110.24 111.73 110.24ZM112.37 108.16C112.716 108.16 113.023 108.1 113.29 107.98C113.57 107.847 113.81 107.673 114.01 107.46C114.21 107.233 114.363 106.98 114.47 106.7C114.59 106.407 114.67 106.093 114.71 105.76V105.74H112.65C112.236 105.74 111.896 105.793 111.63 105.9C111.376 105.993 111.19 106.133 111.07 106.32C110.95 106.507 110.89 106.72 110.89 106.96C110.89 107.227 110.95 107.447 111.07 107.62C111.19 107.793 111.363 107.927 111.59 108.02C111.816 108.113 112.076 108.16 112.37 108.16ZM113.97 98.6C113.583 98.6 113.25 98.5267 112.97 98.38C112.703 98.2333 112.456 98.0867 112.23 97.94C112.003 97.78 111.75 97.7 111.47 97.7C111.256 97.7 111.07 97.7733 110.91 97.92C110.763 98.0667 110.663 98.2933 110.61 98.6H109.19C109.336 97.7067 109.616 97.0533 110.03 96.64C110.456 96.2267 110.976 96.02 111.59 96.02C111.976 96.02 112.303 96.1 112.57 96.26C112.836 96.4067 113.083 96.56 113.31 96.72C113.55 96.8667 113.81 96.94 114.09 96.94C114.316 96.94 114.503 96.8667 114.65 96.72C114.81 96.5733 114.91 96.3467 114.95 96.04H116.37C116.236 96.9333 115.956 97.5867 115.53 98C115.116 98.4 114.596 98.6 113.97 98.6ZM120.269 105.24V102.98H128.709V105.24H120.269ZM131.572 114.4V99.92H133.972L134.272 101.32C134.485 101.027 134.739 100.76 135.032 100.52C135.325 100.267 135.672 100.067 136.072 99.92C136.485 99.76 136.965 99.68 137.512 99.68C138.459 99.68 139.292 99.9133 140.012 100.38C140.732 100.847 141.299 101.48 141.712 102.28C142.139 103.067 142.352 103.967 142.352 104.98C142.352 105.993 142.139 106.9 141.712 107.7C141.285 108.487 140.712 109.107 139.992 109.56C139.272 110.013 138.452 110.24 137.532 110.24C136.785 110.24 136.139 110.107 135.592 109.84C135.059 109.56 134.619 109.18 134.272 108.7V114.4H131.572ZM136.892 107.88C137.425 107.88 137.892 107.76 138.292 107.52C138.705 107.28 139.025 106.94 139.252 106.5C139.479 106.06 139.592 105.553 139.592 104.98C139.592 104.407 139.479 103.9 139.252 103.46C139.025 103.007 138.705 102.66 138.292 102.42C137.892 102.167 137.425 102.04 136.892 102.04C136.372 102.04 135.905 102.167 135.492 102.42C135.092 102.66 134.772 103 134.532 103.44C134.305 103.88 134.192 104.387 134.192 104.96C134.192 105.533 134.305 106.047 134.532 106.5C134.772 106.94 135.092 107.28 135.492 107.52C135.905 107.76 136.372 107.88 136.892 107.88ZM144.737 110V99.92H147.437V110H144.737ZM146.097 98.54C145.617 98.54 145.217 98.4 144.897 98.12C144.591 97.8267 144.437 97.46 144.437 97.02C144.437 96.58 144.591 96.22 144.897 95.94C145.217 95.6467 145.617 95.5 146.097 95.5C146.591 95.5 146.991 95.6467 147.297 95.94C147.617 96.22 147.777 96.58 147.777 97.02C147.777 97.46 147.617 97.8267 147.297 98.12C146.991 98.4 146.591 98.54 146.097 98.54ZM150.166 110V99.92H152.546L152.766 101.26C153.086 100.78 153.506 100.4 154.026 100.12C154.559 99.8267 155.166 99.68 155.846 99.68C156.352 99.68 156.806 99.7467 157.206 99.88C157.606 100.013 157.959 100.207 158.266 100.46C158.586 100.713 158.846 101.033 159.046 101.42C159.419 100.873 159.906 100.447 160.506 100.14C161.106 99.8333 161.759 99.68 162.466 99.68C163.346 99.68 164.079 99.86 164.666 100.22C165.252 100.567 165.692 101.073 165.986 101.74C166.292 102.407 166.446 103.227 166.446 104.2V110H163.766V104.44C163.766 103.64 163.606 103.027 163.286 102.6C162.979 102.173 162.499 101.96 161.846 101.96C161.419 101.96 161.039 102.067 160.706 102.28C160.372 102.493 160.112 102.8 159.926 103.2C159.752 103.6 159.666 104.08 159.666 104.64V110H156.966V104.44C156.966 103.64 156.806 103.027 156.486 102.6C156.166 102.173 155.672 101.96 155.006 101.96C154.592 101.96 154.219 102.067 153.886 102.28C153.566 102.493 153.312 102.8 153.126 103.2C152.952 103.6 152.866 104.08 152.866 104.64V110H150.166ZM173.834 110.24C172.82 110.24 171.92 110.027 171.134 109.6C170.36 109.16 169.754 108.553 169.314 107.78C168.887 106.993 168.674 106.087 168.674 105.06C168.674 104.007 168.887 103.08 169.314 102.28C169.754 101.467 170.36 100.833 171.134 100.38C171.907 99.9133 172.807 99.68 173.834 99.68C174.834 99.68 175.707 99.9 176.454 100.34C177.2 100.78 177.78 101.373 178.194 102.12C178.607 102.867 178.814 103.713 178.814 104.66C178.814 104.793 178.814 104.947 178.814 105.12C178.814 105.28 178.8 105.447 178.774 105.62H170.594V103.98H176.094C176.054 103.327 175.82 102.813 175.394 102.44C174.98 102.067 174.46 101.88 173.834 101.88C173.38 101.88 172.96 101.987 172.574 102.2C172.187 102.4 171.88 102.713 171.654 103.14C171.44 103.567 171.334 104.107 171.334 104.76V105.34C171.334 105.887 171.434 106.367 171.634 106.78C171.847 107.18 172.14 107.493 172.514 107.72C172.887 107.933 173.32 108.04 173.814 108.04C174.307 108.04 174.714 107.933 175.034 107.72C175.367 107.507 175.614 107.233 175.774 106.9H178.534C178.347 107.527 178.034 108.093 177.594 108.6C177.154 109.107 176.614 109.507 175.974 109.8C175.334 110.093 174.62 110.24 173.834 110.24ZM181.025 110V99.92H183.405L183.605 101.56C183.912 101 184.345 100.547 184.905 100.2C185.478 99.8533 186.158 99.68 186.945 99.68C187.785 99.68 188.492 99.8533 189.065 100.2C189.638 100.547 190.072 101.053 190.365 101.72C190.672 102.387 190.825 103.207 190.825 104.18V110H188.145V104.44C188.145 103.64 187.972 103.027 187.625 102.6C187.292 102.173 186.772 101.96 186.065 101.96C185.612 101.96 185.205 102.067 184.845 102.28C184.498 102.493 184.225 102.8 184.025 103.2C183.825 103.587 183.725 104.06 183.725 104.62V110H181.025ZM197.909 110C197.202 110 196.582 109.893 196.049 109.68C195.529 109.453 195.122 109.087 194.829 108.58C194.535 108.06 194.389 107.353 194.389 106.46V102.18H192.669V99.92H194.389L194.689 97.18H197.089V99.92H199.749V102.18H197.089V106.5C197.089 106.953 197.189 107.267 197.389 107.44C197.589 107.613 197.929 107.7 198.409 107.7H199.729V110H197.909ZM205.421 110.24C204.581 110.24 203.888 110.107 203.341 109.84C202.795 109.56 202.388 109.193 202.121 108.74C201.868 108.273 201.741 107.76 201.741 107.2C201.741 106.587 201.895 106.047 202.201 105.58C202.521 105.113 202.995 104.747 203.621 104.48C204.261 104.213 205.061 104.08 206.021 104.08H208.521C208.521 103.587 208.455 103.18 208.321 102.86C208.188 102.527 207.981 102.28 207.701 102.12C207.421 101.96 207.048 101.88 206.581 101.88C206.075 101.88 205.641 101.993 205.281 102.22C204.935 102.433 204.721 102.767 204.641 103.22H202.021C202.088 102.5 202.321 101.88 202.721 101.36C203.135 100.827 203.675 100.413 204.341 100.12C205.021 99.8267 205.775 99.68 206.601 99.68C207.548 99.68 208.368 99.84 209.061 100.16C209.755 100.48 210.288 100.94 210.661 101.54C211.035 102.14 211.221 102.88 211.221 103.76V110H208.941L208.641 108.46C208.495 108.727 208.321 108.967 208.121 109.18C207.921 109.393 207.688 109.58 207.421 109.74C207.155 109.9 206.855 110.02 206.521 110.1C206.188 110.193 205.821 110.24 205.421 110.24ZM206.061 108.16C206.408 108.16 206.715 108.1 206.981 107.98C207.261 107.847 207.501 107.673 207.701 107.46C207.901 107.233 208.055 106.98 208.161 106.7C208.281 106.407 208.361 106.093 208.401 105.76V105.74H206.341C205.928 105.74 205.588 105.793 205.321 105.9C205.068 105.993 204.881 106.133 204.761 106.32C204.641 106.507 204.581 106.72 204.581 106.96C204.581 107.227 204.641 107.447 204.761 107.62C204.881 107.793 205.055 107.927 205.281 108.02C205.508 108.113 205.768 108.16 206.061 108.16ZM91.7661 134.24C90.4328 134.24 89.2728 133.947 88.2861 133.36C87.2994 132.76 86.5328 131.927 85.9861 130.86C85.4394 129.78 85.1661 128.527 85.1661 127.1C85.1661 125.66 85.4461 124.393 86.0061 123.3C86.5661 122.193 87.3728 121.327 88.4261 120.7C89.4794 120.073 90.7394 119.76 92.2061 119.76C93.8461 119.76 95.2061 120.153 96.2861 120.94C97.3794 121.727 98.0861 122.82 98.4061 124.22H95.3861C95.1861 123.607 94.8128 123.127 94.2661 122.78C93.7328 122.42 93.0394 122.24 92.1861 122.24C91.2794 122.24 90.5061 122.44 89.8661 122.84C89.2261 123.24 88.7394 123.8 88.4061 124.52C88.0728 125.24 87.9061 126.1 87.9061 127.1C87.9061 128.113 88.0728 128.973 88.4061 129.68C88.7394 130.387 89.2128 130.927 89.8261 131.3C90.4528 131.66 91.1861 131.84 92.0261 131.84C93.2528 131.84 94.1794 131.513 94.8061 130.86C95.4461 130.193 95.8261 129.333 95.9461 128.28H92.5061V126.26H98.6661V134H96.1661L95.9661 132.22C95.6728 132.66 95.3261 133.033 94.9261 133.34C94.5394 133.633 94.0861 133.853 93.5661 134C93.0461 134.16 92.4461 134.24 91.7661 134.24ZM105.973 134.24C104.959 134.24 104.059 134.027 103.273 133.6C102.499 133.16 101.893 132.553 101.453 131.78C101.026 130.993 100.813 130.087 100.813 129.06C100.813 128.007 101.026 127.08 101.453 126.28C101.893 125.467 102.499 124.833 103.273 124.38C104.046 123.913 104.946 123.68 105.973 123.68C106.973 123.68 107.846 123.9 108.593 124.34C109.339 124.78 109.919 125.373 110.333 126.12C110.746 126.867 110.953 127.713 110.953 128.66C110.953 128.793 110.953 128.947 110.953 129.12C110.953 129.28 110.939 129.447 110.913 129.62H102.733V127.98H108.233C108.193 127.327 107.959 126.813 107.533 126.44C107.119 126.067 106.599 125.88 105.973 125.88C105.519 125.88 105.099 125.987 104.713 126.2C104.326 126.4 104.019 126.713 103.793 127.14C103.579 127.567 103.473 128.107 103.473 128.76V129.34C103.473 129.887 103.573 130.367 103.773 130.78C103.986 131.18 104.279 131.493 104.653 131.72C105.026 131.933 105.459 132.04 105.953 132.04C106.446 132.04 106.853 131.933 107.173 131.72C107.506 131.507 107.753 131.233 107.913 130.9H110.673C110.486 131.527 110.173 132.093 109.733 132.6C109.293 133.107 108.753 133.507 108.113 133.8C107.473 134.093 106.759 134.24 105.973 134.24ZM113.164 134V123.92H115.544L115.744 125.56C116.05 125 116.484 124.547 117.044 124.2C117.617 123.853 118.297 123.68 119.084 123.68C119.924 123.68 120.63 123.853 121.204 124.2C121.777 124.547 122.21 125.053 122.504 125.72C122.81 126.387 122.964 127.207 122.964 128.18V134H120.284V128.44C120.284 127.64 120.11 127.027 119.764 126.6C119.43 126.173 118.91 125.96 118.204 125.96C117.75 125.96 117.344 126.067 116.984 126.28C116.637 126.493 116.364 126.8 116.164 127.2C115.964 127.587 115.864 128.06 115.864 128.62V134H113.164ZM129.848 138.64C128.888 138.64 128.048 138.52 127.328 138.28C126.608 138.053 126.048 137.7 125.648 137.22C125.261 136.753 125.068 136.173 125.068 135.48C125.068 135.013 125.188 134.573 125.428 134.16C125.668 133.747 126.014 133.373 126.468 133.04C126.934 132.693 127.514 132.4 128.208 132.16L129.228 133.48C128.614 133.68 128.168 133.927 127.888 134.22C127.621 134.527 127.488 134.853 127.488 135.2C127.488 135.507 127.588 135.767 127.788 135.98C128.001 136.193 128.281 136.347 128.628 136.44C128.988 136.547 129.388 136.6 129.828 136.6C130.254 136.6 130.621 136.547 130.928 136.44C131.248 136.333 131.494 136.173 131.668 135.96C131.854 135.76 131.948 135.52 131.948 135.24C131.948 134.88 131.821 134.587 131.568 134.36C131.314 134.133 130.808 133.993 130.048 133.94C129.368 133.887 128.761 133.813 128.228 133.72C127.708 133.613 127.248 133.493 126.848 133.36C126.448 133.213 126.108 133.053 125.828 132.88C125.561 132.707 125.341 132.533 125.168 132.36V131.9L127.308 129.6L129.248 130.22L126.728 132.7L127.488 131.38C127.634 131.46 127.774 131.54 127.908 131.62C128.054 131.687 128.234 131.753 128.448 131.82C128.661 131.873 128.941 131.927 129.288 131.98C129.634 132.033 130.074 132.08 130.608 132.12C131.488 132.2 132.208 132.367 132.768 132.62C133.341 132.873 133.761 133.213 134.028 133.64C134.294 134.053 134.428 134.567 134.428 135.18C134.428 135.78 134.261 136.34 133.928 136.86C133.608 137.393 133.108 137.82 132.428 138.14C131.748 138.473 130.888 138.64 129.848 138.64ZM129.848 131.02C129.008 131.02 128.281 130.86 127.668 130.54C127.068 130.207 126.601 129.767 126.268 129.22C125.948 128.66 125.788 128.04 125.788 127.36C125.788 126.68 125.948 126.067 126.268 125.52C126.601 124.96 127.068 124.513 127.668 124.18C128.281 123.847 129.008 123.68 129.848 123.68C130.701 123.68 131.428 123.847 132.028 124.18C132.641 124.513 133.108 124.96 133.428 125.52C133.748 126.067 133.908 126.68 133.908 127.36C133.908 128.04 133.748 128.66 133.428 129.22C133.108 129.767 132.641 130.207 132.028 130.54C131.428 130.86 130.701 131.02 129.848 131.02ZM129.848 128.96C130.368 128.96 130.788 128.827 131.108 128.56C131.428 128.293 131.588 127.9 131.588 127.38C131.588 126.86 131.428 126.467 131.108 126.2C130.788 125.92 130.368 125.78 129.848 125.78C129.341 125.78 128.921 125.92 128.588 126.2C128.268 126.467 128.108 126.86 128.108 127.38C128.108 127.9 128.268 128.293 128.588 128.56C128.921 128.827 129.341 128.96 129.848 128.96ZM131.528 125.84L131.088 123.92H135.228V125.52L131.528 125.84ZM137.482 134V123.92H140.182V134H137.482ZM138.842 122.54C138.362 122.54 137.962 122.4 137.642 122.12C137.335 121.827 137.182 121.46 137.182 121.02C137.182 120.58 137.335 120.22 137.642 119.94C137.962 119.647 138.362 119.5 138.842 119.5C139.335 119.5 139.735 119.647 140.042 119.94C140.362 120.22 140.522 120.58 140.522 121.02C140.522 121.46 140.362 121.827 140.042 122.12C139.735 122.4 139.335 122.54 138.842 122.54ZM148.87 134.24C148.35 134.24 147.883 134.173 147.47 134.04C147.07 133.907 146.71 133.727 146.39 133.5C146.083 133.26 145.823 132.993 145.61 132.7L145.31 134H142.91V119.6H145.61V125.32C145.93 124.853 146.35 124.467 146.87 124.16C147.403 123.84 148.063 123.68 148.85 123.68C149.783 123.68 150.61 123.913 151.33 124.38C152.063 124.833 152.637 125.46 153.05 126.26C153.477 127.047 153.69 127.953 153.69 128.98C153.69 129.98 153.477 130.88 153.05 131.68C152.637 132.48 152.07 133.107 151.35 133.56C150.63 134.013 149.803 134.24 148.87 134.24ZM148.23 131.88C148.763 131.88 149.23 131.76 149.63 131.52C150.043 131.267 150.363 130.927 150.59 130.5C150.817 130.06 150.93 129.553 150.93 128.98C150.93 128.407 150.817 127.9 150.59 127.46C150.363 127.007 150.043 126.66 149.63 126.42C149.23 126.167 148.763 126.04 148.23 126.04C147.71 126.04 147.243 126.167 146.83 126.42C146.43 126.66 146.11 127 145.87 127.44C145.643 127.88 145.53 128.387 145.53 128.96C145.53 129.533 145.643 130.047 145.87 130.5C146.11 130.94 146.43 131.28 146.83 131.52C147.243 131.76 147.71 131.88 148.23 131.88ZM156.015 134V123.92H158.415L158.675 125.78C158.915 125.34 159.215 124.967 159.575 124.66C159.949 124.353 160.369 124.113 160.835 123.94C161.315 123.767 161.842 123.68 162.415 123.68V126.54H161.495C161.095 126.54 160.722 126.587 160.375 126.68C160.042 126.773 159.749 126.927 159.495 127.14C159.242 127.34 159.049 127.62 158.915 127.98C158.782 128.34 158.715 128.793 158.715 129.34V134H156.015ZM168.883 134.24C167.869 134.24 166.969 134.027 166.183 133.6C165.409 133.16 164.803 132.553 164.363 131.78C163.936 130.993 163.723 130.087 163.723 129.06C163.723 128.007 163.936 127.08 164.363 126.28C164.803 125.467 165.409 124.833 166.183 124.38C166.956 123.913 167.856 123.68 168.883 123.68C169.883 123.68 170.756 123.9 171.503 124.34C172.249 124.78 172.829 125.373 173.243 126.12C173.656 126.867 173.863 127.713 173.863 128.66C173.863 128.793 173.863 128.947 173.863 129.12C173.863 129.28 173.849 129.447 173.823 129.62H165.643V127.98H171.143C171.103 127.327 170.869 126.813 170.443 126.44C170.029 126.067 169.509 125.88 168.883 125.88C168.429 125.88 168.009 125.987 167.623 126.2C167.236 126.4 166.929 126.713 166.703 127.14C166.489 127.567 166.383 128.107 166.383 128.76V129.34C166.383 129.887 166.483 130.367 166.683 130.78C166.896 131.18 167.189 131.493 167.563 131.72C167.936 131.933 168.369 132.04 168.863 132.04C169.356 132.04 169.763 131.933 170.083 131.72C170.416 131.507 170.663 131.233 170.823 130.9H173.583C173.396 131.527 173.083 132.093 172.643 132.6C172.203 133.107 171.663 133.507 171.023 133.8C170.383 134.093 169.669 134.24 168.883 134.24Z" fill="#6A5ACD"/>
<g filter="url(#filter2_f_329_507)">
<ellipse cx="255" cy="178.601" rx="41.0435" ry="14.3638" fill="#A1A4F3" fill-opacity="0.5" style="mix-blend-mode:overlay"/>
</g>
<ellipse cx="255" cy="229.592" rx="80" ry="82.5918" fill="url(#paint1_linear_329_507)"/>
<g filter="url(#filter3_f_329_507)">
<ellipse cx="250.13" cy="234.619" rx="52.8696" ry="34.4731" fill="#A1A4F3" fill-opacity="0.15" style="mix-blend-mode:overlay"/>
</g>
<path d="M218.15 212V198H220.85V209.9H226.99V212H218.15ZM232.642 212.24C231.802 212.24 231.109 212.107 230.562 211.84C230.015 211.56 229.609 211.193 229.342 210.74C229.089 210.273 228.962 209.76 228.962 209.2C228.962 208.587 229.115 208.047 229.422 207.58C229.742 207.113 230.215 206.747 230.842 206.48C231.482 206.213 232.282 206.08 233.242 206.08H235.742C235.742 205.587 235.675 205.18 235.542 204.86C235.409 204.527 235.202 204.28 234.922 204.12C234.642 203.96 234.269 203.88 233.802 203.88C233.295 203.88 232.862 203.993 232.502 204.22C232.155 204.433 231.942 204.767 231.862 205.22H229.242C229.309 204.5 229.542 203.88 229.942 203.36C230.355 202.827 230.895 202.413 231.562 202.12C232.242 201.827 232.995 201.68 233.822 201.68C234.769 201.68 235.589 201.84 236.282 202.16C236.975 202.48 237.509 202.94 237.882 203.54C238.255 204.14 238.442 204.88 238.442 205.76V212H236.162L235.862 210.46C235.715 210.727 235.542 210.967 235.342 211.18C235.142 211.393 234.909 211.58 234.642 211.74C234.375 211.9 234.075 212.02 233.742 212.1C233.409 212.193 233.042 212.24 232.642 212.24ZM233.282 210.16C233.629 210.16 233.935 210.1 234.202 209.98C234.482 209.847 234.722 209.673 234.922 209.46C235.122 209.233 235.275 208.98 235.382 208.7C235.502 208.407 235.582 208.093 235.622 207.76V207.74H233.562C233.149 207.74 232.809 207.793 232.542 207.9C232.289 207.993 232.102 208.133 231.982 208.32C231.862 208.507 231.802 208.72 231.802 208.96C231.802 209.227 231.862 209.447 231.982 209.62C232.102 209.793 232.275 209.927 232.502 210.02C232.729 210.113 232.989 210.16 233.282 210.16ZM243.368 212L239.668 201.92H242.508L245.008 209.46L247.508 201.92H250.328L246.648 212H243.368ZM254.771 212.24C253.931 212.24 253.237 212.107 252.691 211.84C252.144 211.56 251.737 211.193 251.471 210.74C251.217 210.273 251.091 209.76 251.091 209.2C251.091 208.587 251.244 208.047 251.551 207.58C251.871 207.113 252.344 206.747 252.971 206.48C253.611 206.213 254.411 206.08 255.371 206.08H257.871C257.871 205.587 257.804 205.18 257.671 204.86C257.537 204.527 257.331 204.28 257.051 204.12C256.771 203.96 256.397 203.88 255.931 203.88C255.424 203.88 254.991 203.993 254.631 204.22C254.284 204.433 254.071 204.767 253.991 205.22H251.371C251.437 204.5 251.671 203.88 252.071 203.36C252.484 202.827 253.024 202.413 253.691 202.12C254.371 201.827 255.124 201.68 255.951 201.68C256.897 201.68 257.717 201.84 258.411 202.16C259.104 202.48 259.637 202.94 260.011 203.54C260.384 204.14 260.571 204.88 260.571 205.76V212H258.291L257.991 210.46C257.844 210.727 257.671 210.967 257.471 211.18C257.271 211.393 257.037 211.58 256.771 211.74C256.504 211.9 256.204 212.02 255.871 212.1C255.537 212.193 255.171 212.24 254.771 212.24ZM255.411 210.16C255.757 210.16 256.064 210.1 256.331 209.98C256.611 209.847 256.851 209.673 257.051 209.46C257.251 209.233 257.404 208.98 257.511 208.7C257.631 208.407 257.711 208.093 257.751 207.76V207.74H255.691C255.277 207.74 254.937 207.793 254.671 207.9C254.417 207.993 254.231 208.133 254.111 208.32C253.991 208.507 253.931 208.72 253.931 208.96C253.931 209.227 253.991 209.447 254.111 209.62C254.231 209.793 254.404 209.927 254.631 210.02C254.857 210.113 255.117 210.16 255.411 210.16ZM263.09 212V201.92H265.47L265.67 203.56C265.976 203 266.41 202.547 266.97 202.2C267.543 201.853 268.223 201.68 269.01 201.68C269.85 201.68 270.556 201.853 271.13 202.2C271.703 202.547 272.136 203.053 272.43 203.72C272.736 204.387 272.89 205.207 272.89 206.18V212H270.21V206.44C270.21 205.64 270.036 205.027 269.69 204.6C269.356 204.173 268.836 203.96 268.13 203.96C267.676 203.96 267.27 204.067 266.91 204.28C266.563 204.493 266.29 204.8 266.09 205.2C265.89 205.587 265.79 206.06 265.79 206.62V212H263.09ZM279.913 212.24C278.993 212.24 278.167 212.013 277.433 211.56C276.713 211.107 276.147 210.48 275.733 209.68C275.32 208.88 275.113 207.98 275.113 206.98C275.113 205.953 275.32 205.047 275.733 204.26C276.16 203.46 276.74 202.833 277.473 202.38C278.22 201.913 279.053 201.68 279.973 201.68C280.693 201.68 281.327 201.813 281.873 202.08C282.42 202.347 282.86 202.727 283.193 203.22V197.6H285.893V212H283.493L283.193 210.62C282.993 210.9 282.74 211.167 282.433 211.42C282.14 211.673 281.787 211.873 281.373 212.02C280.96 212.167 280.473 212.24 279.913 212.24ZM280.553 209.88C281.087 209.88 281.553 209.76 281.953 209.52C282.367 209.267 282.687 208.92 282.913 208.48C283.14 208.04 283.253 207.533 283.253 206.96C283.253 206.387 283.14 205.88 282.913 205.44C282.687 205 282.367 204.66 281.953 204.42C281.553 204.167 281.087 204.04 280.553 204.04C280.047 204.04 279.587 204.167 279.173 204.42C278.76 204.66 278.433 205 278.193 205.44C277.967 205.88 277.853 206.38 277.853 206.94C277.853 207.527 277.967 208.04 278.193 208.48C278.433 208.92 278.753 209.267 279.153 209.52C279.567 209.76 280.033 209.88 280.553 209.88ZM291.939 212.24C291.099 212.24 290.405 212.107 289.859 211.84C289.312 211.56 288.905 211.193 288.639 210.74C288.385 210.273 288.259 209.76 288.259 209.2C288.259 208.587 288.412 208.047 288.719 207.58C289.039 207.113 289.512 206.747 290.139 206.48C290.779 206.213 291.579 206.08 292.539 206.08H295.039C295.039 205.587 294.972 205.18 294.839 204.86C294.705 204.527 294.499 204.28 294.219 204.12C293.939 203.96 293.565 203.88 293.099 203.88C292.592 203.88 292.159 203.993 291.799 204.22C291.452 204.433 291.239 204.767 291.159 205.22H288.539C288.605 204.5 288.839 203.88 289.239 203.36C289.652 202.827 290.192 202.413 290.859 202.12C291.539 201.827 292.292 201.68 293.119 201.68C294.065 201.68 294.885 201.84 295.579 202.16C296.272 202.48 296.805 202.94 297.179 203.54C297.552 204.14 297.739 204.88 297.739 205.76V212H295.459L295.159 210.46C295.012 210.727 294.839 210.967 294.639 211.18C294.439 211.393 294.205 211.58 293.939 211.74C293.672 211.9 293.372 212.02 293.039 212.1C292.705 212.193 292.339 212.24 291.939 212.24ZM292.579 210.16C292.925 210.16 293.232 210.1 293.499 209.98C293.779 209.847 294.019 209.673 294.219 209.46C294.419 209.233 294.572 208.98 294.679 208.7C294.799 208.407 294.879 208.093 294.919 207.76V207.74H292.859C292.445 207.74 292.105 207.793 291.839 207.9C291.585 207.993 291.399 208.133 291.279 208.32C291.159 208.507 291.099 208.72 291.099 208.96C291.099 209.227 291.159 209.447 291.279 209.62C291.399 209.793 291.572 209.927 291.799 210.02C292.025 210.113 292.285 210.16 292.579 210.16ZM217.844 236L222.964 222H226.024L231.124 236H228.264L224.484 225.08L220.684 236H217.844ZM220.104 232.82L220.824 230.72H227.944L228.644 232.82H220.104ZM232.904 236V221.6H235.604V236H232.904ZM243.076 236.24C242.063 236.24 241.163 236.027 240.376 235.6C239.603 235.16 238.996 234.553 238.556 233.78C238.129 232.993 237.916 232.087 237.916 231.06C237.916 230.007 238.129 229.08 238.556 228.28C238.996 227.467 239.603 226.833 240.376 226.38C241.149 225.913 242.049 225.68 243.076 225.68C244.076 225.68 244.949 225.9 245.696 226.34C246.443 226.78 247.023 227.373 247.436 228.12C247.849 228.867 248.056 229.713 248.056 230.66C248.056 230.793 248.056 230.947 248.056 231.12C248.056 231.28 248.043 231.447 248.016 231.62H239.836V229.98H245.336C245.296 229.327 245.063 228.813 244.636 228.44C244.223 228.067 243.703 227.88 243.076 227.88C242.623 227.88 242.203 227.987 241.816 228.2C241.429 228.4 241.123 228.713 240.896 229.14C240.683 229.567 240.576 230.107 240.576 230.76V231.34C240.576 231.887 240.676 232.367 240.876 232.78C241.089 233.18 241.383 233.493 241.756 233.72C242.129 233.933 242.563 234.04 243.056 234.04C243.549 234.04 243.956 233.933 244.276 233.72C244.609 233.507 244.856 233.233 245.016 232.9H247.776C247.589 233.527 247.276 234.093 246.836 234.6C246.396 235.107 245.856 235.507 245.216 235.8C244.576 236.093 243.863 236.24 243.076 236.24ZM255.147 236.24C254.134 236.24 253.234 236.013 252.447 235.56C251.661 235.107 251.047 234.487 250.607 233.7C250.167 232.913 249.947 232.013 249.947 231C249.947 229.96 250.167 229.047 250.607 228.26C251.047 227.46 251.661 226.833 252.447 226.38C253.234 225.913 254.134 225.68 255.147 225.68C256.441 225.68 257.527 226.02 258.407 226.7C259.287 227.38 259.847 228.313 260.087 229.5H257.227C257.107 229.033 256.854 228.667 256.467 228.4C256.094 228.133 255.647 228 255.127 228C254.661 228 254.241 228.12 253.867 228.36C253.507 228.587 253.221 228.927 253.007 229.38C252.807 229.82 252.707 230.347 252.707 230.96C252.707 231.427 252.767 231.847 252.887 232.22C253.007 232.58 253.174 232.893 253.387 233.16C253.601 233.413 253.854 233.607 254.147 233.74C254.454 233.873 254.781 233.94 255.127 233.94C255.474 233.94 255.787 233.88 256.067 233.76C256.361 233.64 256.607 233.473 256.807 233.26C257.007 233.033 257.147 232.76 257.227 232.44H260.087C259.847 233.6 259.281 234.527 258.387 235.22C257.507 235.9 256.427 236.24 255.147 236.24ZM262.416 236V225.92H264.816L265.076 227.78C265.316 227.34 265.616 226.967 265.976 226.66C266.349 226.353 266.769 226.113 267.236 225.94C267.716 225.767 268.242 225.68 268.816 225.68V228.54H267.896C267.496 228.54 267.122 228.587 266.776 228.68C266.442 228.773 266.149 228.927 265.896 229.14C265.642 229.34 265.449 229.62 265.316 229.98C265.182 230.34 265.116 230.793 265.116 231.34V236H262.416ZM270.659 236V225.92H273.359V236H270.659ZM272.019 224.54C271.539 224.54 271.139 224.4 270.819 224.12C270.513 223.827 270.359 223.46 270.359 223.02C270.359 222.58 270.513 222.22 270.819 221.94C271.139 221.647 271.539 221.5 272.019 221.5C272.513 221.5 272.913 221.647 273.219 221.94C273.539 222.22 273.699 222.58 273.699 223.02C273.699 223.46 273.539 223.827 273.219 224.12C272.913 224.4 272.513 224.54 272.019 224.54ZM276.088 236V225.92H278.468L278.688 227.26C279.008 226.78 279.428 226.4 279.948 226.12C280.481 225.827 281.088 225.68 281.768 225.68C282.274 225.68 282.728 225.747 283.128 225.88C283.528 226.013 283.881 226.207 284.188 226.46C284.508 226.713 284.768 227.033 284.968 227.42C285.341 226.873 285.828 226.447 286.428 226.14C287.028 225.833 287.681 225.68 288.388 225.68C289.268 225.68 290.001 225.86 290.588 226.22C291.174 226.567 291.614 227.073 291.908 227.74C292.214 228.407 292.368 229.227 292.368 230.2V236H289.688V230.44C289.688 229.64 289.528 229.027 289.208 228.6C288.901 228.173 288.421 227.96 287.768 227.96C287.341 227.96 286.961 228.067 286.628 228.28C286.294 228.493 286.034 228.8 285.848 229.2C285.674 229.6 285.588 230.08 285.588 230.64V236H282.888V230.44C282.888 229.64 282.728 229.027 282.408 228.6C282.088 228.173 281.594 227.96 280.928 227.96C280.514 227.96 280.141 228.067 279.808 228.28C279.488 228.493 279.234 228.8 279.048 229.2C278.874 229.6 278.788 230.08 278.788 230.64V236H276.088ZM205.083 260V246H208.303L212.583 254.74L216.823 246H220.043V260H217.343V250.6L213.643 258.04H211.503L207.783 250.6V260H205.083ZM226.138 260.24C225.298 260.24 224.605 260.107 224.058 259.84C223.511 259.56 223.105 259.193 222.838 258.74C222.585 258.273 222.458 257.76 222.458 257.2C222.458 256.587 222.611 256.047 222.918 255.58C223.238 255.113 223.711 254.747 224.338 254.48C224.978 254.213 225.778 254.08 226.738 254.08H229.238C229.238 253.587 229.171 253.18 229.038 252.86C228.905 252.527 228.698 252.28 228.418 252.12C228.138 251.96 227.765 251.88 227.298 251.88C226.791 251.88 226.358 251.993 225.998 252.22C225.651 252.433 225.438 252.767 225.358 253.22H222.738C222.805 252.5 223.038 251.88 223.438 251.36C223.851 250.827 224.391 250.413 225.058 250.12C225.738 249.827 226.491 249.68 227.318 249.68C228.265 249.68 229.085 249.84 229.778 250.16C230.471 250.48 231.005 250.94 231.378 251.54C231.751 252.14 231.938 252.88 231.938 253.76V260H229.658L229.358 258.46C229.211 258.727 229.038 258.967 228.838 259.18C228.638 259.393 228.405 259.58 228.138 259.74C227.871 259.9 227.571 260.02 227.238 260.1C226.905 260.193 226.538 260.24 226.138 260.24ZM226.778 258.16C227.125 258.16 227.431 258.1 227.698 257.98C227.978 257.847 228.218 257.673 228.418 257.46C228.618 257.233 228.771 256.98 228.878 256.7C228.998 256.407 229.078 256.093 229.118 255.76V255.74H227.058C226.645 255.74 226.305 255.793 226.038 255.9C225.785 255.993 225.598 256.133 225.478 256.32C225.358 256.507 225.298 256.72 225.298 256.96C225.298 257.227 225.358 257.447 225.478 257.62C225.598 257.793 225.771 257.927 225.998 258.02C226.225 258.113 226.485 258.16 226.778 258.16ZM234.457 260V249.92H236.837L237.037 251.56C237.343 251 237.777 250.547 238.337 250.2C238.91 249.853 239.59 249.68 240.377 249.68C241.217 249.68 241.923 249.853 242.497 250.2C243.07 250.547 243.503 251.053 243.797 251.72C244.103 252.387 244.257 253.207 244.257 254.18V260H241.577V254.44C241.577 253.64 241.403 253.027 241.057 252.6C240.723 252.173 240.203 251.96 239.497 251.96C239.043 251.96 238.637 252.067 238.277 252.28C237.93 252.493 237.657 252.8 237.457 253.2C237.257 253.587 237.157 254.06 237.157 254.62V260H234.457ZM244.9 264.4V262.1H245.72C246.147 262.1 246.447 262.013 246.62 261.84C246.807 261.667 246.9 261.387 246.9 261V249.92H249.6V260.98C249.6 261.807 249.454 262.467 249.16 262.96C248.88 263.467 248.48 263.833 247.96 264.06C247.44 264.287 246.827 264.4 246.12 264.4H244.9ZM248.26 248.54C247.767 248.54 247.367 248.4 247.06 248.12C246.754 247.827 246.6 247.46 246.6 247.02C246.6 246.58 246.754 246.22 247.06 245.94C247.367 245.647 247.767 245.5 248.26 245.5C248.754 245.5 249.154 245.647 249.46 245.94C249.767 246.22 249.92 246.58 249.92 247.02C249.92 247.46 249.767 247.827 249.46 248.12C249.154 248.4 248.754 248.54 248.26 248.54ZM257.129 260.24C256.115 260.24 255.215 260.027 254.429 259.6C253.655 259.16 253.049 258.553 252.609 257.78C252.182 256.993 251.969 256.087 251.969 255.06C251.969 254.007 252.182 253.08 252.609 252.28C253.049 251.467 253.655 250.833 254.429 250.38C255.202 249.913 256.102 249.68 257.129 249.68C258.129 249.68 259.002 249.9 259.749 250.34C260.495 250.78 261.075 251.373 261.489 252.12C261.902 252.867 262.109 253.713 262.109 254.66C262.109 254.793 262.109 254.947 262.109 255.12C262.109 255.28 262.095 255.447 262.069 255.62H253.889V253.98H259.389C259.349 253.327 259.115 252.813 258.689 252.44C258.275 252.067 257.755 251.88 257.129 251.88C256.675 251.88 256.255 251.987 255.869 252.2C255.482 252.4 255.175 252.713 254.949 253.14C254.735 253.567 254.629 254.107 254.629 254.76V255.34C254.629 255.887 254.729 256.367 254.929 256.78C255.142 257.18 255.435 257.493 255.809 257.72C256.182 257.933 256.615 258.04 257.109 258.04C257.602 258.04 258.009 257.933 258.329 257.72C258.662 257.507 258.909 257.233 259.069 256.9H261.829C261.642 257.527 261.329 258.093 260.889 258.6C260.449 259.107 259.909 259.507 259.269 259.8C258.629 260.093 257.915 260.24 257.129 260.24ZM264.32 260V249.92H266.72L266.98 251.78C267.22 251.34 267.52 250.967 267.88 250.66C268.253 250.353 268.673 250.113 269.14 249.94C269.62 249.767 270.147 249.68 270.72 249.68V252.54H269.8C269.4 252.54 269.027 252.587 268.68 252.68C268.347 252.773 268.053 252.927 267.8 253.14C267.547 253.34 267.353 253.62 267.22 253.98C267.087 254.34 267.02 254.793 267.02 255.34V260H264.32ZM277.107 260.24C276.147 260.24 275.281 260.02 274.507 259.58C273.747 259.127 273.141 258.507 272.687 257.72C272.247 256.92 272.027 256.007 272.027 254.98C272.027 253.927 272.247 253.007 272.687 252.22C273.141 251.42 273.754 250.8 274.527 250.36C275.301 249.907 276.167 249.68 277.127 249.68C278.101 249.68 278.967 249.907 279.727 250.36C280.501 250.8 281.107 251.42 281.547 252.22C282.001 253.007 282.227 253.92 282.227 254.96C282.227 256 282.001 256.92 281.547 257.72C281.107 258.507 280.501 259.127 279.727 259.58C278.954 260.02 278.081 260.24 277.107 260.24ZM277.107 257.9C277.561 257.9 277.961 257.793 278.307 257.58C278.667 257.367 278.947 257.04 279.147 256.6C279.361 256.16 279.467 255.613 279.467 254.96C279.467 254.307 279.361 253.767 279.147 253.34C278.947 252.9 278.667 252.573 278.307 252.36C277.961 252.133 277.567 252.02 277.127 252.02C276.701 252.02 276.307 252.133 275.947 252.36C275.587 252.573 275.301 252.9 275.087 253.34C274.887 253.767 274.787 254.307 274.787 254.96C274.787 255.613 274.887 256.16 275.087 256.6C275.301 257.04 275.581 257.367 275.927 257.58C276.287 257.793 276.681 257.9 277.107 257.9ZM284.554 260V249.92H286.934L287.134 251.56C287.441 251 287.874 250.547 288.434 250.2C289.008 249.853 289.688 249.68 290.474 249.68C291.314 249.68 292.021 249.853 292.594 250.2C293.168 250.547 293.601 251.053 293.894 251.72C294.201 252.387 294.354 253.207 294.354 254.18V260H291.674V254.44C291.674 253.64 291.501 253.027 291.154 252.6C290.821 252.173 290.301 251.96 289.594 251.96C289.141 251.96 288.734 252.067 288.374 252.28C288.028 252.493 287.754 252.8 287.554 253.2C287.354 253.587 287.254 254.06 287.254 254.62V260H284.554ZM300.298 260.24C299.458 260.24 298.765 260.107 298.218 259.84C297.671 259.56 297.265 259.193 296.998 258.74C296.745 258.273 296.618 257.76 296.618 257.2C296.618 256.587 296.771 256.047 297.078 255.58C297.398 255.113 297.871 254.747 298.498 254.48C299.138 254.213 299.938 254.08 300.898 254.08H303.398C303.398 253.587 303.331 253.18 303.198 252.86C303.065 252.527 302.858 252.28 302.578 252.12C302.298 251.96 301.925 251.88 301.458 251.88C300.951 251.88 300.518 251.993 300.158 252.22C299.811 252.433 299.598 252.767 299.518 253.22H296.898C296.965 252.5 297.198 251.88 297.598 251.36C298.011 250.827 298.551 250.413 299.218 250.12C299.898 249.827 300.651 249.68 301.478 249.68C302.425 249.68 303.245 249.84 303.938 250.16C304.631 250.48 305.165 250.94 305.538 251.54C305.911 252.14 306.098 252.88 306.098 253.76V260H303.818L303.518 258.46C303.371 258.727 303.198 258.967 302.998 259.18C302.798 259.393 302.565 259.58 302.298 259.74C302.031 259.9 301.731 260.02 301.398 260.1C301.065 260.193 300.698 260.24 300.298 260.24ZM300.938 258.16C301.285 258.16 301.591 258.1 301.858 257.98C302.138 257.847 302.378 257.673 302.578 257.46C302.778 257.233 302.931 256.98 303.038 256.7C303.158 256.407 303.238 256.093 303.278 255.76V255.74H301.218C300.805 255.74 300.465 255.793 300.198 255.9C299.945 255.993 299.758 256.133 299.638 256.32C299.518 256.507 299.458 256.72 299.458 256.96C299.458 257.227 299.518 257.447 299.638 257.62C299.758 257.793 299.931 257.927 300.158 258.02C300.385 258.113 300.645 258.16 300.938 258.16Z" fill="#6A5ACD"/>
<ellipse cx="197" cy="170" rx="18" ry="19" fill="url(#paint2_linear_329_507)"/>
<path d="M190.08 176.24C189.12 176.24 188.253 176.02 187.48 175.58C186.72 175.127 186.113 174.507 185.66 173.72C185.22 172.92 185 172.007 185 170.98C185 169.927 185.22 169.007 185.66 168.22C186.113 167.42 186.727 166.8 187.5 166.36C188.273 165.907 189.14 165.68 190.1 165.68C191.073 165.68 191.94 165.907 192.7 166.36C193.473 166.8 194.08 167.42 194.52 168.22C194.973 169.007 195.2 169.92 195.2 170.96C195.2 172 194.973 172.92 194.52 173.72C194.08 174.507 193.473 175.127 192.7 175.58C191.927 176.02 191.053 176.24 190.08 176.24ZM190.08 173.9C190.533 173.9 190.933 173.793 191.28 173.58C191.64 173.367 191.92 173.04 192.12 172.6C192.333 172.16 192.44 171.613 192.44 170.96C192.44 170.307 192.333 169.767 192.12 169.34C191.92 168.9 191.64 168.573 191.28 168.36C190.933 168.133 190.54 168.02 190.1 168.02C189.673 168.02 189.28 168.133 188.92 168.36C188.56 168.573 188.273 168.9 188.06 169.34C187.86 169.767 187.76 170.307 187.76 170.96C187.76 171.613 187.86 172.16 188.06 172.6C188.273 173.04 188.553 173.367 188.9 173.58C189.26 173.793 189.653 173.9 190.08 173.9ZM201.287 176.24C200.474 176.24 199.774 176.073 199.187 175.74C198.614 175.393 198.174 174.893 197.867 174.24C197.56 173.573 197.407 172.753 197.407 171.78V165.92H200.107V171.5C200.107 172.313 200.274 172.927 200.607 173.34C200.954 173.753 201.48 173.96 202.187 173.96C202.64 173.96 203.04 173.86 203.387 173.66C203.734 173.447 204.007 173.147 204.207 172.76C204.42 172.36 204.527 171.873 204.527 171.3V165.92H207.207V176H204.847L204.627 174.36C204.334 174.933 203.9 175.393 203.327 175.74C202.754 176.073 202.074 176.24 201.287 176.24Z" fill="#6A5ACD"/>
<defs>
<filter id="filter0_f_329_507" x="163.755" y="10.1162" width="78.6516" height="177.14" filterUnits="userSpaceOnUse" color-interpolation-filters="sRGB">
<feFlood flood-opacity="0" result="BackgroundImageFix"/>
<feBlend mode="normal" in="SourceGraphic" in2="BackgroundImageFix" result="shape"/>
<feGaussianBlur stdDeviation="15" result="effect1_foregroundBlur_329_507"/>
</filter>
<filter id="filter1_f_329_507" x="0.76001" y="20.605" width="219.681" height="218.744" filterUnits="userSpaceOnUse" color-interpolation-filters="sRGB">
<feFlood flood-opacity="0" result="BackgroundImageFix"/>
<feBlend mode="normal" in="SourceGraphic" in2="BackgroundImageFix" result="shape"/>
<feGaussianBlur stdDeviation="25" result="effect1_foregroundBlur_329_507"/>
</filter>
<filter id="filter2_f_329_507" x="183.957" y="134.237" width="142.087" height="88.7275" filterUnits="userSpaceOnUse" color-interpolation-filters="sRGB">
<feFlood flood-opacity="0" result="BackgroundImageFix"/>
<feBlend mode="normal" in="SourceGraphic" in2="BackgroundImageFix" result="shape"/>
<feGaussianBlur stdDeviation="15" result="effect1_foregroundBlur_329_507"/>
</filter>
<filter id="filter3_f_329_507" x="147.261" y="150.146" width="205.739" height="168.946" filterUnits="userSpaceOnUse" color-interpolation-filters="sRGB">
<feFlood flood-opacity="0" result="BackgroundImageFix"/>
<feBlend mode="normal" in="SourceGraphic" in2="BackgroundImageFix" result="shape"/>
<feGaussianBlur stdDeviation="25" result="effect1_foregroundBlur_329_507"/>
</filter>
<linearGradient id="paint0_linear_329_507" x1="188.694" y1="207" x2="21.2126" y2="-75.993" gradientUnits="userSpaceOnUse">
<stop stop-color="#A1A4F3"/>
<stop offset="0.992945" stop-color="white" stop-opacity="0.86"/>
</linearGradient>
<linearGradient id="paint1_linear_329_507" x1="302.434" y1="312.184" x2="168.786" y2="86.3585" gradientUnits="userSpaceOnUse">
<stop stop-color="#BBBCF2"/>
<stop offset="0.992945" stop-color="white" stop-opacity="0.86"/>
</linearGradient>
<linearGradient id="paint2_linear_329_507" x1="207.673" y1="189" x2="176.603" y2="137.654" gradientUnits="userSpaceOnUse">
<stop stop-color="#BBBCF2"/>
<stop offset="0.992945" stop-color="white" stop-opacity="0.86"/>
</linearGradient>
</defs>
</svg>
