<svg width="243" height="240" viewBox="0 0 243 240" fill="none" xmlns="http://www.w3.org/2000/svg">
<g filter="url(#filter0_f_329_513)">
<ellipse cx="203.081" cy="98.6862" rx="9.32577" ry="58.5698" fill="#050259" fill-opacity="0.5" style="mix-blend-mode:overlay"/>
</g>
<ellipse cx="129.252" cy="103.5" rx="100.252" ry="103.5" fill="url(#paint0_linear_329_513)"/>
<g filter="url(#filter1_f_329_513)">
<ellipse cx="110.601" cy="129.977" rx="59.8404" ry="59.3721" fill="#A1A4F3" fill-opacity="0.2"/>
</g>
<path d="M89.796 74V60H92.496V71.9H98.636V74H89.796ZM104.288 74.24C103.448 74.24 102.755 74.1067 102.208 73.84C101.662 73.56 101.255 73.1933 100.988 72.74C100.735 72.2733 100.608 71.76 100.608 71.2C100.608 70.5867 100.762 70.0467 101.068 69.58C101.388 69.1133 101.862 68.7467 102.488 68.48C103.128 68.2133 103.928 68.08 104.888 68.08H107.388C107.388 67.5867 107.322 67.18 107.188 66.86C107.055 66.5267 106.848 66.28 106.568 66.12C106.288 65.96 105.915 65.88 105.448 65.88C104.942 65.88 104.508 65.9933 104.148 66.22C103.802 66.4333 103.588 66.7667 103.508 67.22H100.888C100.955 66.5 101.188 65.88 101.588 65.36C102.002 64.8267 102.542 64.4133 103.208 64.12C103.888 63.8267 104.642 63.68 105.468 63.68C106.415 63.68 107.235 63.84 107.928 64.16C108.622 64.48 109.155 64.94 109.528 65.54C109.902 66.14 110.088 66.88 110.088 67.76V74H107.808L107.508 72.46C107.362 72.7267 107.188 72.9667 106.988 73.18C106.788 73.3933 106.555 73.58 106.288 73.74C106.022 73.9 105.722 74.02 105.388 74.1C105.055 74.1933 104.688 74.24 104.288 74.24ZM104.928 72.16C105.275 72.16 105.582 72.1 105.848 71.98C106.128 71.8467 106.368 71.6733 106.568 71.46C106.768 71.2333 106.922 70.98 107.028 70.7C107.148 70.4067 107.228 70.0933 107.268 69.76V69.74H105.208C104.795 69.74 104.455 69.7933 104.188 69.9C103.935 69.9933 103.748 70.1333 103.628 70.32C103.508 70.5067 103.448 70.72 103.448 70.96C103.448 71.2267 103.508 71.4467 103.628 71.62C103.748 71.7933 103.922 71.9267 104.148 72.02C104.375 72.1133 104.635 72.16 104.928 72.16ZM115.014 74L111.314 63.92H114.154L116.654 71.46L119.154 63.92H121.974L118.294 74H115.014ZM126.417 74.24C125.577 74.24 124.884 74.1067 124.337 73.84C123.791 73.56 123.384 73.1933 123.117 72.74C122.864 72.2733 122.737 71.76 122.737 71.2C122.737 70.5867 122.891 70.0467 123.197 69.58C123.517 69.1133 123.991 68.7467 124.617 68.48C125.257 68.2133 126.057 68.08 127.017 68.08H129.517C129.517 67.5867 129.451 67.18 129.317 66.86C129.184 66.5267 128.977 66.28 128.697 66.12C128.417 65.96 128.044 65.88 127.577 65.88C127.071 65.88 126.637 65.9933 126.277 66.22C125.931 66.4333 125.717 66.7667 125.637 67.22H123.017C123.084 66.5 123.317 65.88 123.717 65.36C124.131 64.8267 124.671 64.4133 125.337 64.12C126.017 63.8267 126.771 63.68 127.597 63.68C128.544 63.68 129.364 63.84 130.057 64.16C130.751 64.48 131.284 64.94 131.657 65.54C132.031 66.14 132.217 66.88 132.217 67.76V74H129.937L129.637 72.46C129.491 72.7267 129.317 72.9667 129.117 73.18C128.917 73.3933 128.684 73.58 128.417 73.74C128.151 73.9 127.851 74.02 127.517 74.1C127.184 74.1933 126.817 74.24 126.417 74.24ZM127.057 72.16C127.404 72.16 127.711 72.1 127.977 71.98C128.257 71.8467 128.497 71.6733 128.697 71.46C128.897 71.2333 129.051 70.98 129.157 70.7C129.277 70.4067 129.357 70.0933 129.397 69.76V69.74H127.337C126.924 69.74 126.584 69.7933 126.317 69.9C126.064 69.9933 125.877 70.1333 125.757 70.32C125.637 70.5067 125.577 70.72 125.577 70.96C125.577 71.2267 125.637 71.4467 125.757 71.62C125.877 71.7933 126.051 71.9267 126.277 72.02C126.504 72.1133 126.764 72.16 127.057 72.16ZM134.736 74V63.92H137.116L137.316 65.56C137.623 65 138.056 64.5467 138.616 64.2C139.189 63.8533 139.869 63.68 140.656 63.68C141.496 63.68 142.203 63.8533 142.776 64.2C143.349 64.5467 143.783 65.0533 144.076 65.72C144.383 66.3867 144.536 67.2067 144.536 68.18V74H141.856V68.44C141.856 67.64 141.683 67.0267 141.336 66.6C141.003 66.1733 140.483 65.96 139.776 65.96C139.323 65.96 138.916 66.0667 138.556 66.28C138.209 66.4933 137.936 66.8 137.736 67.2C137.536 67.5867 137.436 68.06 137.436 68.62V74H134.736ZM151.56 74.24C150.64 74.24 149.813 74.0133 149.08 73.56C148.36 73.1067 147.793 72.48 147.38 71.68C146.966 70.88 146.76 69.98 146.76 68.98C146.76 67.9533 146.966 67.0467 147.38 66.26C147.806 65.46 148.386 64.8333 149.12 64.38C149.866 63.9133 150.7 63.68 151.62 63.68C152.34 63.68 152.973 63.8133 153.52 64.08C154.066 64.3467 154.506 64.7267 154.84 65.22V59.6H157.54V74H155.14L154.84 72.62C154.64 72.9 154.386 73.1667 154.08 73.42C153.786 73.6733 153.433 73.8733 153.02 74.02C152.606 74.1667 152.12 74.24 151.56 74.24ZM152.2 71.88C152.733 71.88 153.2 71.76 153.6 71.52C154.013 71.2667 154.333 70.92 154.56 70.48C154.786 70.04 154.9 69.5333 154.9 68.96C154.9 68.3867 154.786 67.88 154.56 67.44C154.333 67 154.013 66.66 153.6 66.42C153.2 66.1667 152.733 66.04 152.2 66.04C151.693 66.04 151.233 66.1667 150.82 66.42C150.406 66.66 150.08 67 149.84 67.44C149.613 67.88 149.5 68.38 149.5 68.94C149.5 69.5267 149.613 70.04 149.84 70.48C150.08 70.92 150.4 71.2667 150.8 71.52C151.213 71.76 151.68 71.88 152.2 71.88ZM163.585 74.24C162.745 74.24 162.052 74.1067 161.505 73.84C160.959 73.56 160.552 73.1933 160.285 72.74C160.032 72.2733 159.905 71.76 159.905 71.2C159.905 70.5867 160.059 70.0467 160.365 69.58C160.685 69.1133 161.159 68.7467 161.785 68.48C162.425 68.2133 163.225 68.08 164.185 68.08H166.685C166.685 67.5867 166.619 67.18 166.485 66.86C166.352 66.5267 166.145 66.28 165.865 66.12C165.585 65.96 165.212 65.88 164.745 65.88C164.239 65.88 163.805 65.9933 163.445 66.22C163.099 66.4333 162.885 66.7667 162.805 67.22H160.185C160.252 66.5 160.485 65.88 160.885 65.36C161.299 64.8267 161.839 64.4133 162.505 64.12C163.185 63.8267 163.939 63.68 164.765 63.68C165.712 63.68 166.532 63.84 167.225 64.16C167.919 64.48 168.452 64.94 168.825 65.54C169.199 66.14 169.385 66.88 169.385 67.76V74H167.105L166.805 72.46C166.659 72.7267 166.485 72.9667 166.285 73.18C166.085 73.3933 165.852 73.58 165.585 73.74C165.319 73.9 165.019 74.02 164.685 74.1C164.352 74.1933 163.985 74.24 163.585 74.24ZM164.225 72.16C164.572 72.16 164.879 72.1 165.145 71.98C165.425 71.8467 165.665 71.6733 165.865 71.46C166.065 71.2333 166.219 70.98 166.325 70.7C166.445 70.4067 166.525 70.0933 166.565 69.76V69.74H164.505C164.092 69.74 163.752 69.7933 163.485 69.9C163.232 69.9933 163.045 70.1333 162.925 70.32C162.805 70.5067 162.745 70.72 162.745 70.96C162.745 71.2267 162.805 71.4467 162.925 71.62C163.045 71.7933 163.219 71.9267 163.445 72.02C163.672 72.1133 163.932 72.16 164.225 72.16ZM87.7166 98.24C86.3166 98.24 85.11 97.94 84.0966 97.34C83.0966 96.7267 82.3233 95.88 81.7766 94.8C81.2433 93.7067 80.9766 92.4467 80.9766 91.02C80.9766 89.5933 81.2433 88.3333 81.7766 87.24C82.3233 86.1467 83.0966 85.2933 84.0966 84.68C85.11 84.0667 86.3166 83.76 87.7166 83.76C89.41 83.76 90.7966 84.18 91.8766 85.02C92.9566 85.86 93.63 87.0467 93.8966 88.58H90.9566C90.7833 87.8333 90.4166 87.2533 89.8566 86.84C89.31 86.4133 88.59 86.2 87.6966 86.2C86.87 86.2 86.1566 86.4 85.5566 86.8C84.97 87.1867 84.5166 87.74 84.1966 88.46C83.8766 89.1667 83.7166 90.02 83.7166 91.02C83.7166 92.0067 83.8766 92.86 84.1966 93.58C84.5166 94.3 84.97 94.8533 85.5566 95.24C86.1566 95.6267 86.87 95.82 87.6966 95.82C88.59 95.82 89.31 95.6267 89.8566 95.24C90.4033 94.84 90.7633 94.2867 90.9366 93.58H93.8966C93.63 95.0333 92.9566 96.1733 91.8766 97C90.7966 97.8267 89.41 98.24 87.7166 98.24ZM99.5423 98.24C98.7023 98.24 98.0089 98.1067 97.4623 97.84C96.9156 97.56 96.5089 97.1933 96.2423 96.74C95.9889 96.2733 95.8623 95.76 95.8623 95.2C95.8623 94.5867 96.0156 94.0467 96.3223 93.58C96.6423 93.1133 97.1156 92.7467 97.7423 92.48C98.3823 92.2133 99.1823 92.08 100.142 92.08H102.642C102.642 91.5867 102.576 91.18 102.442 90.86C102.309 90.5267 102.102 90.28 101.822 90.12C101.542 89.96 101.169 89.88 100.702 89.88C100.196 89.88 99.7623 89.9933 99.4023 90.22C99.0556 90.4333 98.8423 90.7667 98.7623 91.22H96.1423C96.2089 90.5 96.4423 89.88 96.8423 89.36C97.2556 88.8267 97.7956 88.4133 98.4623 88.12C99.1423 87.8267 99.8956 87.68 100.722 87.68C101.669 87.68 102.489 87.84 103.182 88.16C103.876 88.48 104.409 88.94 104.782 89.54C105.156 90.14 105.342 90.88 105.342 91.76V98H103.062L102.762 96.46C102.616 96.7267 102.442 96.9667 102.242 97.18C102.042 97.3933 101.809 97.58 101.542 97.74C101.276 97.9 100.976 98.02 100.642 98.1C100.309 98.1933 99.9423 98.24 99.5423 98.24ZM100.182 96.16C100.529 96.16 100.836 96.1 101.102 95.98C101.382 95.8467 101.622 95.6733 101.822 95.46C102.022 95.2333 102.176 94.98 102.282 94.7C102.402 94.4067 102.482 94.0933 102.522 93.76V93.74H100.462C100.049 93.74 99.7089 93.7933 99.4423 93.9C99.1889 93.9933 99.0023 94.1333 98.8823 94.32C98.7623 94.5067 98.7023 94.72 98.7023 94.96C98.7023 95.2267 98.7623 95.4467 98.8823 95.62C99.0023 95.7933 99.1756 95.9267 99.4023 96.02C99.6289 96.1133 99.8889 96.16 100.182 96.16ZM107.861 98V87.92H110.241L110.461 89.26C110.781 88.78 111.201 88.4 111.721 88.12C112.254 87.8267 112.861 87.68 113.541 87.68C114.048 87.68 114.501 87.7467 114.901 87.88C115.301 88.0133 115.654 88.2067 115.961 88.46C116.281 88.7133 116.541 89.0333 116.741 89.42C117.114 88.8733 117.601 88.4467 118.201 88.14C118.801 87.8333 119.454 87.68 120.161 87.68C121.041 87.68 121.774 87.86 122.361 88.22C122.948 88.5667 123.388 89.0733 123.681 89.74C123.988 90.4067 124.141 91.2267 124.141 92.2V98H121.461V92.44C121.461 91.64 121.301 91.0267 120.981 90.6C120.674 90.1733 120.194 89.96 119.541 89.96C119.114 89.96 118.734 90.0667 118.401 90.28C118.068 90.4933 117.808 90.8 117.621 91.2C117.448 91.6 117.361 92.08 117.361 92.64V98H114.661V92.44C114.661 91.64 114.501 91.0267 114.181 90.6C113.861 90.1733 113.368 89.96 112.701 89.96C112.288 89.96 111.914 90.0667 111.581 90.28C111.261 90.4933 111.008 90.8 110.821 91.2C110.648 91.6 110.561 92.08 110.561 92.64V98H107.861ZM131.449 98.24C130.489 98.24 129.622 98.02 128.849 97.58C128.089 97.1267 127.482 96.5067 127.029 95.72C126.589 94.92 126.369 94.0067 126.369 92.98C126.369 91.9267 126.589 91.0067 127.029 90.22C127.482 89.42 128.096 88.8 128.869 88.36C129.642 87.9067 130.509 87.68 131.469 87.68C132.442 87.68 133.309 87.9067 134.069 88.36C134.842 88.8 135.449 89.42 135.889 90.22C136.342 91.0067 136.569 91.92 136.569 92.96C136.569 94 136.342 94.92 135.889 95.72C135.449 96.5067 134.842 97.1267 134.069 97.58C133.296 98.02 132.422 98.24 131.449 98.24ZM131.449 95.9C131.902 95.9 132.302 95.7933 132.649 95.58C133.009 95.3667 133.289 95.04 133.489 94.6C133.702 94.16 133.809 93.6133 133.809 92.96C133.809 92.3067 133.702 91.7667 133.489 91.34C133.289 90.9 133.009 90.5733 132.649 90.36C132.302 90.1333 131.909 90.02 131.469 90.02C131.042 90.02 130.649 90.1333 130.289 90.36C129.929 90.5733 129.642 90.9 129.429 91.34C129.229 91.7667 129.129 92.3067 129.129 92.96C129.129 93.6133 129.229 94.16 129.429 94.6C129.642 95.04 129.922 95.3667 130.269 95.58C130.629 95.7933 131.022 95.9 131.449 95.9ZM138.896 98V87.92H141.276L141.496 89.26C141.816 88.78 142.236 88.4 142.756 88.12C143.29 87.8267 143.896 87.68 144.576 87.68C145.083 87.68 145.536 87.7467 145.936 87.88C146.336 88.0133 146.69 88.2067 146.996 88.46C147.316 88.7133 147.576 89.0333 147.776 89.42C148.15 88.8733 148.636 88.4467 149.236 88.14C149.836 87.8333 150.49 87.68 151.196 87.68C152.076 87.68 152.81 87.86 153.396 88.22C153.983 88.5667 154.423 89.0733 154.716 89.74C155.023 90.4067 155.176 91.2267 155.176 92.2V98H152.496V92.44C152.496 91.64 152.336 91.0267 152.016 90.6C151.71 90.1733 151.23 89.96 150.576 89.96C150.15 89.96 149.77 90.0667 149.436 90.28C149.103 90.4933 148.843 90.8 148.656 91.2C148.483 91.6 148.396 92.08 148.396 92.64V98H145.696V92.44C145.696 91.64 145.536 91.0267 145.216 90.6C144.896 90.1733 144.403 89.96 143.736 89.96C143.323 89.96 142.95 90.0667 142.616 90.28C142.296 90.4933 142.043 90.8 141.856 91.2C141.683 91.6 141.596 92.08 141.596 92.64V98H138.896ZM157.784 98V87.92H160.484V98H157.784ZM159.144 86.54C158.664 86.54 158.264 86.4 157.944 86.12C157.638 85.8267 157.484 85.46 157.484 85.02C157.484 84.58 157.638 84.22 157.944 83.94C158.264 83.6467 158.664 83.5 159.144 83.5C159.638 83.5 160.038 83.6467 160.344 83.94C160.664 84.22 160.824 84.58 160.824 85.02C160.824 85.46 160.664 85.8267 160.344 86.12C160.038 86.4 159.638 86.54 159.144 86.54ZM163.213 98V83.6H165.913V98H163.213ZM171.945 98.24C171.105 98.24 170.411 98.1067 169.865 97.84C169.318 97.56 168.911 97.1933 168.645 96.74C168.391 96.2733 168.265 95.76 168.265 95.2C168.265 94.5867 168.418 94.0467 168.725 93.58C169.045 93.1133 169.518 92.7467 170.145 92.48C170.785 92.2133 171.585 92.08 172.545 92.08H175.045C175.045 91.5867 174.978 91.18 174.845 90.86C174.711 90.5267 174.505 90.28 174.225 90.12C173.945 89.96 173.571 89.88 173.105 89.88C172.598 89.88 172.165 89.9933 171.805 90.22C171.458 90.4333 171.245 90.7667 171.165 91.22H168.545C168.611 90.5 168.845 89.88 169.245 89.36C169.658 88.8267 170.198 88.4133 170.865 88.12C171.545 87.8267 172.298 87.68 173.125 87.68C174.071 87.68 174.891 87.84 175.585 88.16C176.278 88.48 176.811 88.94 177.185 89.54C177.558 90.14 177.745 90.88 177.745 91.76V98H175.465L175.165 96.46C175.018 96.7267 174.845 96.9667 174.645 97.18C174.445 97.3933 174.211 97.58 173.945 97.74C173.678 97.9 173.378 98.02 173.045 98.1C172.711 98.1933 172.345 98.24 171.945 98.24ZM172.585 96.16C172.931 96.16 173.238 96.1 173.505 95.98C173.785 95.8467 174.025 95.6733 174.225 95.46C174.425 95.2333 174.578 94.98 174.685 94.7C174.805 94.4067 174.885 94.0933 174.925 93.76V93.74H172.865C172.451 93.74 172.111 93.7933 171.845 93.9C171.591 93.9933 171.405 94.1333 171.285 94.32C171.165 94.5067 171.105 94.72 171.105 94.96C171.105 95.2267 171.165 95.4467 171.285 95.62C171.405 95.7933 171.578 95.9267 171.805 96.02C172.031 96.1133 172.291 96.16 172.585 96.16ZM107.092 122.24C105.692 122.24 104.485 121.94 103.472 121.34C102.472 120.727 101.698 119.88 101.152 118.8C100.618 117.707 100.352 116.447 100.352 115.02C100.352 113.593 100.618 112.333 101.152 111.24C101.698 110.147 102.472 109.293 103.472 108.68C104.485 108.067 105.692 107.76 107.092 107.76C108.785 107.76 110.172 108.18 111.252 109.02C112.332 109.86 113.005 111.047 113.272 112.58H110.332C110.158 111.833 109.792 111.253 109.232 110.84C108.685 110.413 107.965 110.2 107.072 110.2C106.245 110.2 105.532 110.4 104.932 110.8C104.345 111.187 103.892 111.74 103.572 112.46C103.252 113.167 103.092 114.02 103.092 115.02C103.092 116.007 103.252 116.86 103.572 117.58C103.892 118.3 104.345 118.853 104.932 119.24C105.532 119.627 106.245 119.82 107.072 119.82C107.965 119.82 108.685 119.627 109.232 119.24C109.778 118.84 110.138 118.287 110.312 117.58H113.272C113.005 119.033 112.332 120.173 111.252 121C110.172 121.827 108.785 122.24 107.092 122.24ZM120.357 122.24C119.344 122.24 118.444 122.027 117.657 121.6C116.884 121.16 116.277 120.553 115.837 119.78C115.411 118.993 115.197 118.087 115.197 117.06C115.197 116.007 115.411 115.08 115.837 114.28C116.277 113.467 116.884 112.833 117.657 112.38C118.431 111.913 119.331 111.68 120.357 111.68C121.357 111.68 122.231 111.9 122.977 112.34C123.724 112.78 124.304 113.373 124.717 114.12C125.131 114.867 125.337 115.713 125.337 116.66C125.337 116.793 125.337 116.947 125.337 117.12C125.337 117.28 125.324 117.447 125.297 117.62H117.117V115.98H122.617C122.577 115.327 122.344 114.813 121.917 114.44C121.504 114.067 120.984 113.88 120.357 113.88C119.904 113.88 119.484 113.987 119.097 114.2C118.711 114.4 118.404 114.713 118.177 115.14C117.964 115.567 117.857 116.107 117.857 116.76V117.34C117.857 117.887 117.957 118.367 118.157 118.78C118.371 119.18 118.664 119.493 119.037 119.72C119.411 119.933 119.844 120.04 120.337 120.04C120.831 120.04 121.237 119.933 121.557 119.72C121.891 119.507 122.137 119.233 122.297 118.9H125.057C124.871 119.527 124.557 120.093 124.117 120.6C123.677 121.107 123.137 121.507 122.497 121.8C121.857 122.093 121.144 122.24 120.357 122.24ZM132.029 122.24C131.109 122.24 130.282 122.013 129.549 121.56C128.829 121.107 128.262 120.48 127.849 119.68C127.435 118.88 127.229 117.98 127.229 116.98C127.229 115.953 127.435 115.047 127.849 114.26C128.275 113.46 128.855 112.833 129.589 112.38C130.335 111.913 131.169 111.68 132.089 111.68C132.809 111.68 133.442 111.813 133.989 112.08C134.535 112.347 134.975 112.727 135.309 113.22V107.6H138.009V122H135.609L135.309 120.62C135.109 120.9 134.855 121.167 134.549 121.42C134.255 121.673 133.902 121.873 133.489 122.02C133.075 122.167 132.589 122.24 132.029 122.24ZM132.669 119.88C133.202 119.88 133.669 119.76 134.069 119.52C134.482 119.267 134.802 118.92 135.029 118.48C135.255 118.04 135.369 117.533 135.369 116.96C135.369 116.387 135.255 115.88 135.029 115.44C134.802 115 134.482 114.66 134.069 114.42C133.669 114.167 133.202 114.04 132.669 114.04C132.162 114.04 131.702 114.167 131.289 114.42C130.875 114.66 130.549 115 130.309 115.44C130.082 115.88 129.969 116.38 129.969 116.94C129.969 117.527 130.082 118.04 130.309 118.48C130.549 118.92 130.869 119.267 131.269 119.52C131.682 119.76 132.149 119.88 132.669 119.88ZM140.654 122V111.92H143.054L143.314 113.78C143.554 113.34 143.854 112.967 144.214 112.66C144.587 112.353 145.007 112.113 145.474 111.94C145.954 111.767 146.481 111.68 147.054 111.68V114.54H146.134C145.734 114.54 145.361 114.587 145.014 114.68C144.681 114.773 144.387 114.927 144.134 115.14C143.881 115.34 143.687 115.62 143.554 115.98C143.421 116.34 143.354 116.793 143.354 117.34V122H140.654ZM153.441 122.24C152.481 122.24 151.615 122.02 150.841 121.58C150.081 121.127 149.475 120.507 149.021 119.72C148.581 118.92 148.361 118.007 148.361 116.98C148.361 115.927 148.581 115.007 149.021 114.22C149.475 113.42 150.088 112.8 150.861 112.36C151.635 111.907 152.501 111.68 153.461 111.68C154.435 111.68 155.301 111.907 156.061 112.36C156.835 112.8 157.441 113.42 157.881 114.22C158.335 115.007 158.561 115.92 158.561 116.96C158.561 118 158.335 118.92 157.881 119.72C157.441 120.507 156.835 121.127 156.061 121.58C155.288 122.02 154.415 122.24 153.441 122.24ZM153.441 119.9C153.895 119.9 154.295 119.793 154.641 119.58C155.001 119.367 155.281 119.04 155.481 118.6C155.695 118.16 155.801 117.613 155.801 116.96C155.801 116.307 155.695 115.767 155.481 115.34C155.281 114.9 155.001 114.573 154.641 114.36C154.295 114.133 153.901 114.02 153.461 114.02C153.035 114.02 152.641 114.133 152.281 114.36C151.921 114.573 151.635 114.9 151.421 115.34C151.221 115.767 151.121 116.307 151.121 116.96C151.121 117.613 151.221 118.16 151.421 118.6C151.635 119.04 151.915 119.367 152.261 119.58C152.621 119.793 153.015 119.9 153.441 119.9ZM96.452 146.24C95.4386 146.24 94.532 146.067 93.732 145.72C92.9453 145.373 92.3186 144.867 91.852 144.2C91.3986 143.533 91.1653 142.727 91.152 141.78H94.012C94.0253 142.193 94.132 142.567 94.332 142.9C94.532 143.233 94.8053 143.5 95.152 143.7C95.512 143.887 95.9386 143.98 96.432 143.98C96.8586 143.98 97.2253 143.913 97.532 143.78C97.852 143.633 98.0986 143.433 98.272 143.18C98.4453 142.927 98.532 142.627 98.532 142.28C98.532 141.88 98.432 141.547 98.232 141.28C98.0453 141.013 97.7786 140.787 97.432 140.6C97.0986 140.413 96.7053 140.247 96.252 140.1C95.812 139.94 95.3453 139.773 94.852 139.6C93.7453 139.24 92.8986 138.76 92.312 138.16C91.7386 137.56 91.452 136.767 91.452 135.78C91.452 134.94 91.652 134.22 92.052 133.62C92.4653 133.02 93.032 132.56 93.752 132.24C94.472 131.92 95.292 131.76 96.212 131.76C97.1586 131.76 97.9853 131.927 98.692 132.26C99.412 132.58 99.9786 133.047 100.392 133.66C100.819 134.273 101.039 134.993 101.052 135.82H98.172C98.1586 135.513 98.0653 135.227 97.892 134.96C97.732 134.68 97.5053 134.46 97.212 134.3C96.9186 134.127 96.572 134.04 96.172 134.04C95.8253 134.027 95.5053 134.08 95.212 134.2C94.932 134.32 94.7053 134.5 94.532 134.74C94.372 134.967 94.292 135.253 94.292 135.6C94.292 135.933 94.372 136.213 94.532 136.44C94.7053 136.667 94.9386 136.867 95.232 137.04C95.5253 137.2 95.872 137.353 96.272 137.5C96.672 137.633 97.1053 137.773 97.572 137.92C98.2653 138.16 98.9053 138.447 99.492 138.78C100.079 139.1 100.545 139.52 100.892 140.04C101.239 140.56 101.412 141.247 101.412 142.1C101.412 142.833 101.219 143.513 100.832 144.14C100.445 144.767 99.8853 145.273 99.152 145.66C98.432 146.047 97.532 146.24 96.452 146.24ZM107.042 146.24C106.202 146.24 105.509 146.107 104.962 145.84C104.416 145.56 104.009 145.193 103.742 144.74C103.489 144.273 103.362 143.76 103.362 143.2C103.362 142.587 103.516 142.047 103.822 141.58C104.142 141.113 104.616 140.747 105.242 140.48C105.882 140.213 106.682 140.08 107.642 140.08H110.142C110.142 139.587 110.076 139.18 109.942 138.86C109.809 138.527 109.602 138.28 109.322 138.12C109.042 137.96 108.669 137.88 108.202 137.88C107.696 137.88 107.262 137.993 106.902 138.22C106.556 138.433 106.342 138.767 106.262 139.22H103.642C103.709 138.5 103.942 137.88 104.342 137.36C104.756 136.827 105.296 136.413 105.962 136.12C106.642 135.827 107.396 135.68 108.222 135.68C109.169 135.68 109.989 135.84 110.682 136.16C111.376 136.48 111.909 136.94 112.282 137.54C112.656 138.14 112.842 138.88 112.842 139.76V146H110.562L110.262 144.46C110.116 144.727 109.942 144.967 109.742 145.18C109.542 145.393 109.309 145.58 109.042 145.74C108.776 145.9 108.476 146.02 108.142 146.1C107.809 146.193 107.442 146.24 107.042 146.24ZM107.682 144.16C108.029 144.16 108.336 144.1 108.602 143.98C108.882 143.847 109.122 143.673 109.322 143.46C109.522 143.233 109.676 142.98 109.782 142.7C109.902 142.407 109.982 142.093 110.022 141.76V141.74H107.962C107.549 141.74 107.209 141.793 106.942 141.9C106.689 141.993 106.502 142.133 106.382 142.32C106.262 142.507 106.202 142.72 106.202 142.96C106.202 143.227 106.262 143.447 106.382 143.62C106.502 143.793 106.676 143.927 106.902 144.02C107.129 144.113 107.389 144.16 107.682 144.16ZM105.162 135V133.08L108.122 131.48L111.062 133.08V135L108.122 133.36L105.162 135ZM115.361 146V135.92H117.741L117.941 137.56C118.248 137 118.681 136.547 119.241 136.2C119.814 135.853 120.494 135.68 121.281 135.68C122.121 135.68 122.828 135.853 123.401 136.2C123.974 136.547 124.408 137.053 124.701 137.72C125.008 138.387 125.161 139.207 125.161 140.18V146H122.481V140.44C122.481 139.64 122.308 139.027 121.961 138.6C121.628 138.173 121.108 137.96 120.401 137.96C119.948 137.96 119.541 138.067 119.181 138.28C118.834 138.493 118.561 138.8 118.361 139.2C118.161 139.587 118.061 140.06 118.061 140.62V146H115.361ZM132.185 146.24C131.265 146.24 130.438 146.013 129.705 145.56C128.985 145.107 128.418 144.48 128.005 143.68C127.591 142.88 127.385 141.98 127.385 140.98C127.385 139.953 127.591 139.047 128.005 138.26C128.431 137.46 129.011 136.833 129.745 136.38C130.491 135.913 131.325 135.68 132.245 135.68C132.965 135.68 133.598 135.813 134.145 136.08C134.691 136.347 135.131 136.727 135.465 137.22V131.6H138.165V146H135.765L135.465 144.62C135.265 144.9 135.011 145.167 134.705 145.42C134.411 145.673 134.058 145.873 133.645 146.02C133.231 146.167 132.745 146.24 132.185 146.24ZM132.825 143.88C133.358 143.88 133.825 143.76 134.225 143.52C134.638 143.267 134.958 142.92 135.185 142.48C135.411 142.04 135.525 141.533 135.525 140.96C135.525 140.387 135.411 139.88 135.185 139.44C134.958 139 134.638 138.66 134.225 138.42C133.825 138.167 133.358 138.04 132.825 138.04C132.318 138.04 131.858 138.167 131.445 138.42C131.031 138.66 130.705 139 130.465 139.44C130.238 139.88 130.125 140.38 130.125 140.94C130.125 141.527 130.238 142.04 130.465 142.48C130.705 142.92 131.025 143.267 131.425 143.52C131.838 143.76 132.305 143.88 132.825 143.88ZM144.21 146.24C143.37 146.24 142.677 146.107 142.13 145.84C141.584 145.56 141.177 145.193 140.91 144.74C140.657 144.273 140.53 143.76 140.53 143.2C140.53 142.587 140.684 142.047 140.99 141.58C141.31 141.113 141.784 140.747 142.41 140.48C143.05 140.213 143.85 140.08 144.81 140.08H147.31C147.31 139.587 147.244 139.18 147.11 138.86C146.977 138.527 146.77 138.28 146.49 138.12C146.21 137.96 145.837 137.88 145.37 137.88C144.864 137.88 144.43 137.993 144.07 138.22C143.724 138.433 143.51 138.767 143.43 139.22H140.81C140.877 138.5 141.11 137.88 141.51 137.36C141.924 136.827 142.464 136.413 143.13 136.12C143.81 135.827 144.564 135.68 145.39 135.68C146.337 135.68 147.157 135.84 147.85 136.16C148.544 136.48 149.077 136.94 149.45 137.54C149.824 138.14 150.01 138.88 150.01 139.76V146H147.73L147.43 144.46C147.284 144.727 147.11 144.967 146.91 145.18C146.71 145.393 146.477 145.58 146.21 145.74C145.944 145.9 145.644 146.02 145.31 146.1C144.977 146.193 144.61 146.24 144.21 146.24ZM144.85 144.16C145.197 144.16 145.504 144.1 145.77 143.98C146.05 143.847 146.29 143.673 146.49 143.46C146.69 143.233 146.844 142.98 146.95 142.7C147.07 142.407 147.15 142.093 147.19 141.76V141.74H145.13C144.717 141.74 144.377 141.793 144.11 141.9C143.857 141.993 143.67 142.133 143.55 142.32C143.43 142.507 143.37 142.72 143.37 142.96C143.37 143.227 143.43 143.447 143.55 143.62C143.67 143.793 143.844 143.927 144.07 144.02C144.297 144.113 144.557 144.16 144.85 144.16ZM152.529 146V131.6H155.229V146H152.529ZM162.621 146.24C161.661 146.24 160.794 146.02 160.021 145.58C159.261 145.127 158.654 144.507 158.201 143.72C157.761 142.92 157.541 142.007 157.541 140.98C157.541 139.927 157.761 139.007 158.201 138.22C158.654 137.42 159.268 136.8 160.041 136.36C160.814 135.907 161.681 135.68 162.641 135.68C163.614 135.68 164.481 135.907 165.241 136.36C166.014 136.8 166.621 137.42 167.061 138.22C167.514 139.007 167.741 139.92 167.741 140.96C167.741 142 167.514 142.92 167.061 143.72C166.621 144.507 166.014 145.127 165.241 145.58C164.468 146.02 163.594 146.24 162.621 146.24ZM162.621 143.9C163.074 143.9 163.474 143.793 163.821 143.58C164.181 143.367 164.461 143.04 164.661 142.6C164.874 142.16 164.981 141.613 164.981 140.96C164.981 140.307 164.874 139.767 164.661 139.34C164.461 138.9 164.181 138.573 163.821 138.36C163.474 138.133 163.081 138.02 162.641 138.02C162.214 138.02 161.821 138.133 161.461 138.36C161.101 138.573 160.814 138.9 160.601 139.34C160.401 139.767 160.301 140.307 160.301 140.96C160.301 141.613 160.401 142.16 160.601 142.6C160.814 143.04 161.094 143.367 161.441 143.58C161.801 143.793 162.194 143.9 162.621 143.9Z" fill="#6A5ACD"/>
<defs>
<filter id="filter0_f_329_513" x="163.755" y="10.1165" width="78.6514" height="177.139" filterUnits="userSpaceOnUse" color-interpolation-filters="sRGB">
<feFlood flood-opacity="0" result="BackgroundImageFix"/>
<feBlend mode="normal" in="SourceGraphic" in2="BackgroundImageFix" result="shape"/>
<feGaussianBlur stdDeviation="15" result="effect1_foregroundBlur_329_513"/>
</filter>
<filter id="filter1_f_329_513" x="0.760254" y="20.605" width="219.681" height="218.744" filterUnits="userSpaceOnUse" color-interpolation-filters="sRGB">
<feFlood flood-opacity="0" result="BackgroundImageFix"/>
<feBlend mode="normal" in="SourceGraphic" in2="BackgroundImageFix" result="shape"/>
<feGaussianBlur stdDeviation="25" result="effect1_foregroundBlur_329_513"/>
</filter>
<linearGradient id="paint0_linear_329_513" x1="188.694" y1="207" x2="21.2126" y2="-75.993" gradientUnits="userSpaceOnUse">
<stop stop-color="#A1A4F3"/>
<stop offset="0.992945" stop-color="white" stop-opacity="0.86"/>
</linearGradient>
</defs>
</svg>
