<svg width="353" height="320" viewBox="0 0 353 320" fill="none" xmlns="http://www.w3.org/2000/svg">
<g filter="url(#filter0_f_329_508)">
<ellipse cx="203.081" cy="98.686" rx="9.32577" ry="58.5698" fill="#050259" fill-opacity="0.5" style="mix-blend-mode:overlay"/>
</g>
<ellipse cx="129.252" cy="103.5" rx="100.252" ry="103.5" fill="url(#paint0_linear_329_508)"/>
<g filter="url(#filter1_f_329_508)">
<ellipse cx="110.6" cy="129.977" rx="59.8404" ry="59.3721" fill="#A1A4F3" fill-opacity="0.2"/>
</g>
<path d="M101.183 86V72H103.883V83.9H110.023V86H101.183ZM112.335 86V75.92H115.035V86H112.335ZM113.695 74.54C113.215 74.54 112.815 74.4 112.495 74.12C112.188 73.8267 112.035 73.46 112.035 73.02C112.035 72.58 112.188 72.22 112.495 71.94C112.815 71.6467 113.215 71.5 113.695 71.5C114.188 71.5 114.588 71.6467 114.895 71.94C115.215 72.22 115.375 72.58 115.375 73.02C115.375 73.46 115.215 73.8267 114.895 74.12C114.588 74.4 114.188 74.54 113.695 74.54ZM117.763 86V75.92H120.143L120.363 77.26C120.683 76.78 121.103 76.4 121.623 76.12C122.157 75.8267 122.763 75.68 123.443 75.68C123.95 75.68 124.403 75.7467 124.803 75.88C125.203 76.0133 125.557 76.2067 125.863 76.46C126.183 76.7133 126.443 77.0333 126.643 77.42C127.017 76.8733 127.503 76.4467 128.103 76.14C128.703 75.8333 129.357 75.68 130.063 75.68C130.943 75.68 131.677 75.86 132.263 76.22C132.85 76.5667 133.29 77.0733 133.583 77.74C133.89 78.4067 134.043 79.2267 134.043 80.2V86H131.363V80.44C131.363 79.64 131.203 79.0267 130.883 78.6C130.577 78.1733 130.097 77.96 129.443 77.96C129.017 77.96 128.637 78.0667 128.303 78.28C127.97 78.4933 127.71 78.8 127.523 79.2C127.35 79.6 127.263 80.08 127.263 80.64V86H124.563V80.44C124.563 79.64 124.403 79.0267 124.083 78.6C123.763 78.1733 123.27 77.96 122.603 77.96C122.19 77.96 121.817 78.0667 121.483 78.28C121.163 78.4933 120.91 78.8 120.723 79.2C120.55 79.6 120.463 80.08 120.463 80.64V86H117.763ZM139.991 86.24C139.151 86.24 138.458 86.1067 137.911 85.84C137.365 85.56 136.958 85.1933 136.691 84.74C136.438 84.2733 136.311 83.76 136.311 83.2C136.311 82.5867 136.465 82.0467 136.771 81.58C137.091 81.1133 137.565 80.7467 138.191 80.48C138.831 80.2133 139.631 80.08 140.591 80.08H143.091C143.091 79.5867 143.025 79.18 142.891 78.86C142.758 78.5267 142.551 78.28 142.271 78.12C141.991 77.96 141.618 77.88 141.151 77.88C140.645 77.88 140.211 77.9933 139.851 78.22C139.505 78.4333 139.291 78.7667 139.211 79.22H136.591C136.658 78.5 136.891 77.88 137.291 77.36C137.705 76.8267 138.245 76.4133 138.911 76.12C139.591 75.8267 140.345 75.68 141.171 75.68C142.118 75.68 142.938 75.84 143.631 76.16C144.325 76.48 144.858 76.94 145.231 77.54C145.605 78.14 145.791 78.88 145.791 79.76V86H143.511L143.211 84.46C143.065 84.7267 142.891 84.9667 142.691 85.18C142.491 85.3933 142.258 85.58 141.991 85.74C141.725 85.9 141.425 86.02 141.091 86.1C140.758 86.1933 140.391 86.24 139.991 86.24ZM140.631 84.16C140.978 84.16 141.285 84.1 141.551 83.98C141.831 83.8467 142.071 83.6733 142.271 83.46C142.471 83.2333 142.625 82.98 142.731 82.7C142.851 82.4067 142.931 82.0933 142.971 81.76V81.74H140.911C140.498 81.74 140.158 81.7933 139.891 81.9C139.638 81.9933 139.451 82.1333 139.331 82.32C139.211 82.5067 139.151 82.72 139.151 82.96C139.151 83.2267 139.211 83.4467 139.331 83.62C139.451 83.7933 139.625 83.9267 139.851 84.02C140.078 84.1133 140.338 84.16 140.631 84.16ZM142.231 74.6C141.845 74.6 141.511 74.5267 141.231 74.38C140.965 74.2333 140.718 74.0867 140.491 73.94C140.265 73.78 140.011 73.7 139.731 73.7C139.518 73.7 139.331 73.7733 139.171 73.92C139.025 74.0667 138.925 74.2933 138.871 74.6H137.451C137.598 73.7067 137.878 73.0533 138.291 72.64C138.718 72.2267 139.238 72.02 139.851 72.02C140.238 72.02 140.565 72.1 140.831 72.26C141.098 72.4067 141.345 72.56 141.571 72.72C141.811 72.8667 142.071 72.94 142.351 72.94C142.578 72.94 142.765 72.8667 142.911 72.72C143.071 72.5733 143.171 72.3467 143.211 72.04H144.631C144.498 72.9333 144.218 73.5867 143.791 74C143.378 74.4 142.858 74.6 142.231 74.6ZM153.07 86.24C152.11 86.24 151.244 86.02 150.47 85.58C149.71 85.1267 149.104 84.5067 148.65 83.72C148.21 82.92 147.99 82.0067 147.99 80.98C147.99 79.9267 148.21 79.0067 148.65 78.22C149.104 77.42 149.717 76.8 150.49 76.36C151.264 75.9067 152.13 75.68 153.09 75.68C154.064 75.68 154.93 75.9067 155.69 76.36C156.464 76.8 157.07 77.42 157.51 78.22C157.964 79.0067 158.19 79.92 158.19 80.96C158.19 82 157.964 82.92 157.51 83.72C157.07 84.5067 156.464 85.1267 155.69 85.58C154.917 86.02 154.044 86.24 153.07 86.24ZM153.07 83.9C153.524 83.9 153.924 83.7933 154.27 83.58C154.63 83.3667 154.91 83.04 155.11 82.6C155.324 82.16 155.43 81.6133 155.43 80.96C155.43 80.3067 155.324 79.7667 155.11 79.34C154.91 78.9 154.63 78.5733 154.27 78.36C153.924 78.1333 153.53 78.02 153.09 78.02C152.664 78.02 152.27 78.1333 151.91 78.36C151.55 78.5733 151.264 78.9 151.05 79.34C150.85 79.7667 150.75 80.3067 150.75 80.96C150.75 81.6133 150.85 82.16 151.05 82.6C151.264 83.04 151.544 83.3667 151.89 83.58C152.25 83.7933 152.644 83.9 153.07 83.9ZM91.8443 110L96.9643 96H100.024L105.124 110H102.264L98.4843 99.08L94.6843 110H91.8443ZM94.1043 106.82L94.8243 104.72H101.944L102.644 106.82H94.1043ZM106.904 110V95.6H109.604V110H106.904ZM117.076 110.24C116.063 110.24 115.163 110.027 114.376 109.6C113.603 109.16 112.996 108.553 112.556 107.78C112.129 106.993 111.916 106.087 111.916 105.06C111.916 104.007 112.129 103.08 112.556 102.28C112.996 101.467 113.603 100.833 114.376 100.38C115.149 99.9133 116.049 99.68 117.076 99.68C118.076 99.68 118.949 99.9 119.696 100.34C120.443 100.78 121.023 101.373 121.436 102.12C121.849 102.867 122.056 103.713 122.056 104.66C122.056 104.793 122.056 104.947 122.056 105.12C122.056 105.28 122.043 105.447 122.016 105.62H113.836V103.98H119.336C119.296 103.327 119.063 102.813 118.636 102.44C118.223 102.067 117.703 101.88 117.076 101.88C116.623 101.88 116.203 101.987 115.816 102.2C115.429 102.4 115.123 102.713 114.896 103.14C114.683 103.567 114.576 104.107 114.576 104.76V105.34C114.576 105.887 114.676 106.367 114.876 106.78C115.089 107.18 115.383 107.493 115.756 107.72C116.129 107.933 116.563 108.04 117.056 108.04C117.549 108.04 117.956 107.933 118.276 107.72C118.609 107.507 118.856 107.233 119.016 106.9H121.776C121.589 107.527 121.276 108.093 120.836 108.6C120.396 109.107 119.856 109.507 119.216 109.8C118.576 110.093 117.863 110.24 117.076 110.24ZM129.147 110.24C128.134 110.24 127.234 110.013 126.447 109.56C125.661 109.107 125.047 108.487 124.607 107.7C124.167 106.913 123.947 106.013 123.947 105C123.947 103.96 124.167 103.047 124.607 102.26C125.047 101.46 125.661 100.833 126.447 100.38C127.234 99.9133 128.134 99.68 129.147 99.68C130.441 99.68 131.527 100.02 132.407 100.7C133.287 101.38 133.847 102.313 134.087 103.5H131.227C131.107 103.033 130.854 102.667 130.467 102.4C130.094 102.133 129.647 102 129.127 102C128.661 102 128.241 102.12 127.867 102.36C127.507 102.587 127.221 102.927 127.007 103.38C126.807 103.82 126.707 104.347 126.707 104.96C126.707 105.427 126.767 105.847 126.887 106.22C127.007 106.58 127.174 106.893 127.387 107.16C127.601 107.413 127.854 107.607 128.147 107.74C128.454 107.873 128.781 107.94 129.127 107.94C129.474 107.94 129.787 107.88 130.067 107.76C130.361 107.64 130.607 107.473 130.807 107.26C131.007 107.033 131.147 106.76 131.227 106.44H134.087C133.847 107.6 133.281 108.527 132.387 109.22C131.507 109.9 130.427 110.24 129.147 110.24ZM136.416 110V99.92H138.816L139.076 101.78C139.316 101.34 139.616 100.967 139.976 100.66C140.349 100.353 140.769 100.113 141.236 99.94C141.716 99.7667 142.242 99.68 142.816 99.68V102.54H141.896C141.496 102.54 141.122 102.587 140.776 102.68C140.442 102.773 140.149 102.927 139.896 103.14C139.642 103.34 139.449 103.62 139.316 103.98C139.182 104.34 139.116 104.793 139.116 105.34V110H136.416ZM144.659 110V99.92H147.359V110H144.659ZM146.019 98.54C145.539 98.54 145.139 98.4 144.819 98.12C144.513 97.8267 144.359 97.46 144.359 97.02C144.359 96.58 144.513 96.22 144.819 95.94C145.139 95.6467 145.539 95.5 146.019 95.5C146.513 95.5 146.913 95.6467 147.219 95.94C147.539 96.22 147.699 96.58 147.699 97.02C147.699 97.46 147.539 97.8267 147.219 98.12C146.913 98.4 146.513 98.54 146.019 98.54ZM150.088 110V99.92H152.468L152.688 101.26C153.008 100.78 153.428 100.4 153.948 100.12C154.481 99.8267 155.088 99.68 155.768 99.68C156.274 99.68 156.728 99.7467 157.128 99.88C157.528 100.013 157.881 100.207 158.188 100.46C158.508 100.713 158.768 101.033 158.968 101.42C159.341 100.873 159.828 100.447 160.428 100.14C161.028 99.8333 161.681 99.68 162.388 99.68C163.268 99.68 164.001 99.86 164.588 100.22C165.174 100.567 165.614 101.073 165.908 101.74C166.214 102.407 166.368 103.227 166.368 104.2V110H163.688V104.44C163.688 103.64 163.528 103.027 163.208 102.6C162.901 102.173 162.421 101.96 161.768 101.96C161.341 101.96 160.961 102.067 160.628 102.28C160.294 102.493 160.034 102.8 159.848 103.2C159.674 103.6 159.588 104.08 159.588 104.64V110H156.888V104.44C156.888 103.64 156.728 103.027 156.408 102.6C156.088 102.173 155.594 101.96 154.928 101.96C154.514 101.96 154.141 102.067 153.808 102.28C153.488 102.493 153.234 102.8 153.048 103.2C152.874 103.6 152.788 104.08 152.788 104.64V110H150.088ZM99.6495 134V120H102.87L107.15 128.74L111.39 120H114.61V134H111.91V124.6L108.21 132.04H106.07L102.35 124.6V134H99.6495ZM122.144 134.24C121.131 134.24 120.231 134.027 119.444 133.6C118.671 133.16 118.064 132.553 117.624 131.78C117.198 130.993 116.984 130.087 116.984 129.06C116.984 128.007 117.198 127.08 117.624 126.28C118.064 125.467 118.671 124.833 119.444 124.38C120.218 123.913 121.118 123.68 122.144 123.68C123.144 123.68 124.018 123.9 124.764 124.34C125.511 124.78 126.091 125.373 126.504 126.12C126.918 126.867 127.124 127.713 127.124 128.66C127.124 128.793 127.124 128.947 127.124 129.12C127.124 129.28 127.111 129.447 127.084 129.62H118.904V127.98H124.404C124.364 127.327 124.131 126.813 123.704 126.44C123.291 126.067 122.771 125.88 122.144 125.88C121.691 125.88 121.271 125.987 120.884 126.2C120.498 126.4 120.191 126.713 119.964 127.14C119.751 127.567 119.644 128.107 119.644 128.76V129.34C119.644 129.887 119.744 130.367 119.944 130.78C120.158 131.18 120.451 131.493 120.824 131.72C121.198 131.933 121.631 132.04 122.124 132.04C122.618 132.04 123.024 131.933 123.344 131.72C123.678 131.507 123.924 131.233 124.084 130.9H126.844C126.658 131.527 126.344 132.093 125.904 132.6C125.464 133.107 124.924 133.507 124.284 133.8C123.644 134.093 122.931 134.24 122.144 134.24ZM129.336 134V123.92H131.716L131.916 125.56C132.222 125 132.656 124.547 133.216 124.2C133.789 123.853 134.469 123.68 135.256 123.68C136.096 123.68 136.802 123.853 137.376 124.2C137.949 124.547 138.382 125.053 138.676 125.72C138.982 126.387 139.136 127.207 139.136 128.18V134H136.456V128.44C136.456 127.64 136.282 127.027 135.936 126.6C135.602 126.173 135.082 125.96 134.376 125.96C133.922 125.96 133.516 126.067 133.156 126.28C132.809 126.493 132.536 126.8 132.336 127.2C132.136 127.587 132.036 128.06 132.036 128.62V134H129.336ZM146.219 134C145.513 134 144.893 133.893 144.359 133.68C143.839 133.453 143.433 133.087 143.139 132.58C142.846 132.06 142.699 131.353 142.699 130.46V126.18H140.979V123.92H142.699L142.999 121.18H145.399V123.92H148.059V126.18H145.399V130.5C145.399 130.953 145.499 131.267 145.699 131.44C145.899 131.613 146.239 131.7 146.719 131.7H148.039V134H146.219ZM153.732 134.24C152.892 134.24 152.198 134.107 151.652 133.84C151.105 133.56 150.698 133.193 150.432 132.74C150.178 132.273 150.052 131.76 150.052 131.2C150.052 130.587 150.205 130.047 150.512 129.58C150.832 129.113 151.305 128.747 151.932 128.48C152.572 128.213 153.372 128.08 154.332 128.08H156.832C156.832 127.587 156.765 127.18 156.632 126.86C156.498 126.527 156.292 126.28 156.012 126.12C155.732 125.96 155.358 125.88 154.892 125.88C154.385 125.88 153.952 125.993 153.592 126.22C153.245 126.433 153.032 126.767 152.952 127.22H150.332C150.398 126.5 150.632 125.88 151.032 125.36C151.445 124.827 151.985 124.413 152.652 124.12C153.332 123.827 154.085 123.68 154.912 123.68C155.858 123.68 156.678 123.84 157.372 124.16C158.065 124.48 158.598 124.94 158.972 125.54C159.345 126.14 159.532 126.88 159.532 127.76V134H157.252L156.952 132.46C156.805 132.727 156.632 132.967 156.432 133.18C156.232 133.393 155.998 133.58 155.732 133.74C155.465 133.9 155.165 134.02 154.832 134.1C154.498 134.193 154.132 134.24 153.732 134.24ZM154.372 132.16C154.718 132.16 155.025 132.1 155.292 131.98C155.572 131.847 155.812 131.673 156.012 131.46C156.212 131.233 156.365 130.98 156.472 130.7C156.592 130.407 156.672 130.093 156.712 129.76V129.74H154.652C154.238 129.74 153.898 129.793 153.632 129.9C153.378 129.993 153.192 130.133 153.072 130.32C152.952 130.507 152.892 130.72 152.892 130.96C152.892 131.227 152.952 131.447 153.072 131.62C153.192 131.793 153.365 131.927 153.592 132.02C153.818 132.113 154.078 132.16 154.372 132.16Z" fill="#6A5ACD"/>
<g filter="url(#filter2_f_329_508)">
<ellipse cx="255" cy="178.601" rx="41.0435" ry="14.3638" fill="#A1A4F3" fill-opacity="0.5" style="mix-blend-mode:overlay"/>
</g>
<ellipse cx="255" cy="229.592" rx="80" ry="82.5918" fill="url(#paint1_linear_329_508)"/>
<g filter="url(#filter3_f_329_508)">
<ellipse cx="250.13" cy="234.619" rx="52.8696" ry="34.4731" fill="#A1A4F3" fill-opacity="0.15" style="mix-blend-mode:overlay"/>
</g>
<path d="M223.864 200V186H226.564V200H223.864ZM215.044 200V186H217.744V200H215.044ZM217.364 193.94V191.76H224.324V193.94H217.364ZM234.021 200.24C233.061 200.24 232.195 200.02 231.421 199.58C230.661 199.127 230.055 198.507 229.601 197.72C229.161 196.92 228.941 196.007 228.941 194.98C228.941 193.927 229.161 193.007 229.601 192.22C230.055 191.42 230.668 190.8 231.441 190.36C232.215 189.907 233.081 189.68 234.041 189.68C235.015 189.68 235.881 189.907 236.641 190.36C237.415 190.8 238.021 191.42 238.461 192.22C238.915 193.007 239.141 193.92 239.141 194.96C239.141 196 238.915 196.92 238.461 197.72C238.021 198.507 237.415 199.127 236.641 199.58C235.868 200.02 234.995 200.24 234.021 200.24ZM234.021 197.9C234.475 197.9 234.875 197.793 235.221 197.58C235.581 197.367 235.861 197.04 236.061 196.6C236.275 196.16 236.381 195.613 236.381 194.96C236.381 194.307 236.275 193.767 236.061 193.34C235.861 192.9 235.581 192.573 235.221 192.36C234.875 192.133 234.481 192.02 234.041 192.02C233.615 192.02 233.221 192.133 232.861 192.36C232.501 192.573 232.215 192.9 232.001 193.34C231.801 193.767 231.701 194.307 231.701 194.96C231.701 195.613 231.801 196.16 232.001 196.6C232.215 197.04 232.495 197.367 232.841 197.58C233.201 197.793 233.595 197.9 234.021 197.9ZM241.468 200V189.92H243.868L244.128 191.78C244.368 191.34 244.668 190.967 245.028 190.66C245.402 190.353 245.822 190.113 246.288 189.94C246.768 189.767 247.295 189.68 247.868 189.68V192.54H246.948C246.548 192.54 246.175 192.587 245.828 192.68C245.495 192.773 245.202 192.927 244.948 193.14C244.695 193.34 244.502 193.62 244.368 193.98C244.235 194.34 244.168 194.793 244.168 195.34V200H241.468ZM254.192 200C253.485 200 252.865 199.893 252.332 199.68C251.812 199.453 251.405 199.087 251.112 198.58C250.819 198.06 250.672 197.353 250.672 196.46V192.18H248.952V189.92H250.672L250.972 187.18H253.372V189.92H256.032V192.18H253.372V196.5C253.372 196.953 253.472 197.267 253.672 197.44C253.872 197.613 254.212 197.7 254.692 197.7H256.012V200H254.192ZM262.89 200.24C261.877 200.24 260.977 200.027 260.19 199.6C259.417 199.16 258.81 198.553 258.37 197.78C257.944 196.993 257.73 196.087 257.73 195.06C257.73 194.007 257.944 193.08 258.37 192.28C258.81 191.467 259.417 190.833 260.19 190.38C260.964 189.913 261.864 189.68 262.89 189.68C263.89 189.68 264.764 189.9 265.51 190.34C266.257 190.78 266.837 191.373 267.25 192.12C267.664 192.867 267.87 193.713 267.87 194.66C267.87 194.793 267.87 194.947 267.87 195.12C267.87 195.28 267.857 195.447 267.83 195.62H259.65V193.98H265.15C265.11 193.327 264.877 192.813 264.45 192.44C264.037 192.067 263.517 191.88 262.89 191.88C262.437 191.88 262.017 191.987 261.63 192.2C261.244 192.4 260.937 192.713 260.71 193.14C260.497 193.567 260.39 194.107 260.39 194.76V195.34C260.39 195.887 260.49 196.367 260.69 196.78C260.904 197.18 261.197 197.493 261.57 197.72C261.944 197.933 262.377 198.04 262.87 198.04C263.364 198.04 263.77 197.933 264.09 197.72C264.424 197.507 264.67 197.233 264.83 196.9H267.59C267.404 197.527 267.09 198.093 266.65 198.6C266.21 199.107 265.67 199.507 265.03 199.8C264.39 200.093 263.677 200.24 262.89 200.24ZM270.082 200V185.6H272.782V200H270.082ZM278.814 200.24C277.974 200.24 277.28 200.107 276.734 199.84C276.187 199.56 275.78 199.193 275.514 198.74C275.26 198.273 275.134 197.76 275.134 197.2C275.134 196.587 275.287 196.047 275.594 195.58C275.914 195.113 276.387 194.747 277.014 194.48C277.654 194.213 278.454 194.08 279.414 194.08H281.914C281.914 193.587 281.847 193.18 281.714 192.86C281.58 192.527 281.374 192.28 281.094 192.12C280.814 191.96 280.44 191.88 279.974 191.88C279.467 191.88 279.034 191.993 278.674 192.22C278.327 192.433 278.114 192.767 278.034 193.22H275.414C275.48 192.5 275.714 191.88 276.114 191.36C276.527 190.827 277.067 190.413 277.734 190.12C278.414 189.827 279.167 189.68 279.994 189.68C280.94 189.68 281.76 189.84 282.454 190.16C283.147 190.48 283.68 190.94 284.054 191.54C284.427 192.14 284.614 192.88 284.614 193.76V200H282.334L282.034 198.46C281.887 198.727 281.714 198.967 281.514 199.18C281.314 199.393 281.08 199.58 280.814 199.74C280.547 199.9 280.247 200.02 279.914 200.1C279.58 200.193 279.214 200.24 278.814 200.24ZM279.454 198.16C279.8 198.16 280.107 198.1 280.374 197.98C280.654 197.847 280.894 197.673 281.094 197.46C281.294 197.233 281.447 196.98 281.554 196.7C281.674 196.407 281.754 196.093 281.794 195.76V195.74H279.734C279.32 195.74 278.98 195.793 278.714 195.9C278.46 195.993 278.274 196.133 278.154 196.32C278.034 196.507 277.974 196.72 277.974 196.96C277.974 197.227 278.034 197.447 278.154 197.62C278.274 197.793 278.447 197.927 278.674 198.02C278.9 198.113 279.16 198.16 279.454 198.16ZM281.054 188.6C280.667 188.6 280.334 188.527 280.054 188.38C279.787 188.233 279.54 188.087 279.314 187.94C279.087 187.78 278.834 187.7 278.554 187.7C278.34 187.7 278.154 187.773 277.994 187.92C277.847 188.067 277.747 188.293 277.694 188.6H276.274C276.42 187.707 276.7 187.053 277.114 186.64C277.54 186.227 278.06 186.02 278.674 186.02C279.06 186.02 279.387 186.1 279.654 186.26C279.92 186.407 280.167 186.56 280.394 186.72C280.634 186.867 280.894 186.94 281.174 186.94C281.4 186.94 281.587 186.867 281.734 186.72C281.894 186.573 281.994 186.347 282.034 186.04H283.454C283.32 186.933 283.04 187.587 282.614 188C282.2 188.4 281.68 188.6 281.054 188.6ZM287.353 195.24V192.98H295.793V195.24H287.353ZM215.736 228.4V213.92H218.136L218.436 215.32C218.649 215.027 218.903 214.76 219.196 214.52C219.489 214.267 219.836 214.067 220.236 213.92C220.649 213.76 221.129 213.68 221.676 213.68C222.623 213.68 223.456 213.913 224.176 214.38C224.896 214.847 225.463 215.48 225.876 216.28C226.303 217.067 226.516 217.967 226.516 218.98C226.516 219.993 226.303 220.9 225.876 221.7C225.449 222.487 224.876 223.107 224.156 223.56C223.436 224.013 222.616 224.24 221.696 224.24C220.949 224.24 220.303 224.107 219.756 223.84C219.223 223.56 218.783 223.18 218.436 222.7V228.4H215.736ZM221.056 221.88C221.589 221.88 222.056 221.76 222.456 221.52C222.869 221.28 223.189 220.94 223.416 220.5C223.643 220.06 223.756 219.553 223.756 218.98C223.756 218.407 223.643 217.9 223.416 217.46C223.189 217.007 222.869 216.66 222.456 216.42C222.056 216.167 221.589 216.04 221.056 216.04C220.536 216.04 220.069 216.167 219.656 216.42C219.256 216.66 218.936 217 218.696 217.44C218.469 217.88 218.356 218.387 218.356 218.96C218.356 219.533 218.469 220.047 218.696 220.5C218.936 220.94 219.256 221.28 219.656 221.52C220.069 221.76 220.536 221.88 221.056 221.88ZM228.901 224V213.92H231.601V224H228.901ZM230.261 212.54C229.781 212.54 229.381 212.4 229.061 212.12C228.755 211.827 228.601 211.46 228.601 211.02C228.601 210.58 228.755 210.22 229.061 209.94C229.381 209.647 229.781 209.5 230.261 209.5C230.755 209.5 231.155 209.647 231.461 209.94C231.781 210.22 231.941 210.58 231.941 211.02C231.941 211.46 231.781 211.827 231.461 212.12C231.155 212.4 230.755 212.54 230.261 212.54ZM234.33 224V213.92H236.71L236.93 215.26C237.25 214.78 237.67 214.4 238.19 214.12C238.723 213.827 239.33 213.68 240.01 213.68C240.516 213.68 240.97 213.747 241.37 213.88C241.77 214.013 242.123 214.207 242.43 214.46C242.75 214.713 243.01 215.033 243.21 215.42C243.583 214.873 244.07 214.447 244.67 214.14C245.27 213.833 245.923 213.68 246.63 213.68C247.51 213.68 248.243 213.86 248.83 214.22C249.416 214.567 249.856 215.073 250.15 215.74C250.456 216.407 250.61 217.227 250.61 218.2V224H247.93V218.44C247.93 217.64 247.77 217.027 247.45 216.6C247.143 216.173 246.663 215.96 246.01 215.96C245.583 215.96 245.203 216.067 244.87 216.28C244.536 216.493 244.276 216.8 244.09 217.2C243.916 217.6 243.83 218.08 243.83 218.64V224H241.13V218.44C241.13 217.64 240.97 217.027 240.65 216.6C240.33 216.173 239.836 215.96 239.17 215.96C238.756 215.96 238.383 216.067 238.05 216.28C237.73 216.493 237.476 216.8 237.29 217.2C237.116 217.6 237.03 218.08 237.03 218.64V224H234.33ZM257.998 224.24C256.985 224.24 256.085 224.027 255.298 223.6C254.525 223.16 253.918 222.553 253.478 221.78C253.051 220.993 252.838 220.087 252.838 219.06C252.838 218.007 253.051 217.08 253.478 216.28C253.918 215.467 254.525 214.833 255.298 214.38C256.071 213.913 256.971 213.68 257.998 213.68C258.998 213.68 259.871 213.9 260.618 214.34C261.365 214.78 261.945 215.373 262.358 216.12C262.771 216.867 262.978 217.713 262.978 218.66C262.978 218.793 262.978 218.947 262.978 219.12C262.978 219.28 262.965 219.447 262.938 219.62H254.758V217.98H260.258C260.218 217.327 259.985 216.813 259.558 216.44C259.145 216.067 258.625 215.88 257.998 215.88C257.545 215.88 257.125 215.987 256.738 216.2C256.351 216.4 256.045 216.713 255.818 217.14C255.605 217.567 255.498 218.107 255.498 218.76V219.34C255.498 219.887 255.598 220.367 255.798 220.78C256.011 221.18 256.305 221.493 256.678 221.72C257.051 221.933 257.485 222.04 257.978 222.04C258.471 222.04 258.878 221.933 259.198 221.72C259.531 221.507 259.778 221.233 259.938 220.9H262.698C262.511 221.527 262.198 222.093 261.758 222.6C261.318 223.107 260.778 223.507 260.138 223.8C259.498 224.093 258.785 224.24 257.998 224.24ZM265.189 224V213.92H267.569L267.769 215.56C268.076 215 268.509 214.547 269.069 214.2C269.642 213.853 270.322 213.68 271.109 213.68C271.949 213.68 272.656 213.853 273.229 214.2C273.802 214.547 274.236 215.053 274.529 215.72C274.836 216.387 274.989 217.207 274.989 218.18V224H272.309V218.44C272.309 217.64 272.136 217.027 271.789 216.6C271.456 216.173 270.936 215.96 270.229 215.96C269.776 215.96 269.369 216.067 269.009 216.28C268.662 216.493 268.389 216.8 268.189 217.2C267.989 217.587 267.889 218.06 267.889 218.62V224H265.189ZM282.073 224C281.366 224 280.746 223.893 280.213 223.68C279.693 223.453 279.286 223.087 278.993 222.58C278.7 222.06 278.553 221.353 278.553 220.46V216.18H276.833V213.92H278.553L278.853 211.18H281.253V213.92H283.913V216.18H281.253V220.5C281.253 220.953 281.353 221.267 281.553 221.44C281.753 221.613 282.093 221.7 282.573 221.7H283.893V224H282.073ZM289.585 224.24C288.745 224.24 288.052 224.107 287.505 223.84C286.959 223.56 286.552 223.193 286.285 222.74C286.032 222.273 285.905 221.76 285.905 221.2C285.905 220.587 286.059 220.047 286.365 219.58C286.685 219.113 287.159 218.747 287.785 218.48C288.425 218.213 289.225 218.08 290.185 218.08H292.685C292.685 217.587 292.619 217.18 292.485 216.86C292.352 216.527 292.145 216.28 291.865 216.12C291.585 215.96 291.212 215.88 290.745 215.88C290.239 215.88 289.805 215.993 289.445 216.22C289.099 216.433 288.885 216.767 288.805 217.22H286.185C286.252 216.5 286.485 215.88 286.885 215.36C287.299 214.827 287.839 214.413 288.505 214.12C289.185 213.827 289.939 213.68 290.765 213.68C291.712 213.68 292.532 213.84 293.225 214.16C293.919 214.48 294.452 214.94 294.825 215.54C295.199 216.14 295.385 216.88 295.385 217.76V224H293.105L292.805 222.46C292.659 222.727 292.485 222.967 292.285 223.18C292.085 223.393 291.852 223.58 291.585 223.74C291.319 223.9 291.019 224.02 290.685 224.1C290.352 224.193 289.985 224.24 289.585 224.24ZM290.225 222.16C290.572 222.16 290.879 222.1 291.145 221.98C291.425 221.847 291.665 221.673 291.865 221.46C292.065 221.233 292.219 220.98 292.325 220.7C292.445 220.407 292.525 220.093 292.565 219.76V219.74H290.505C290.092 219.74 289.752 219.793 289.485 219.9C289.232 219.993 289.045 220.133 288.925 220.32C288.805 220.507 288.745 220.72 288.745 220.96C288.745 221.227 288.805 221.447 288.925 221.62C289.045 221.793 289.219 221.927 289.445 222.02C289.672 222.113 289.932 222.16 290.225 222.16ZM217.844 248L222.964 234H226.024L231.124 248H228.264L224.484 237.08L220.684 248H217.844ZM220.104 244.82L220.824 242.72H227.944L228.644 244.82H220.104ZM232.904 248V233.6H235.604V248H232.904ZM243.076 248.24C242.063 248.24 241.163 248.027 240.376 247.6C239.603 247.16 238.996 246.553 238.556 245.78C238.129 244.993 237.916 244.087 237.916 243.06C237.916 242.007 238.129 241.08 238.556 240.28C238.996 239.467 239.603 238.833 240.376 238.38C241.149 237.913 242.049 237.68 243.076 237.68C244.076 237.68 244.949 237.9 245.696 238.34C246.443 238.78 247.023 239.373 247.436 240.12C247.849 240.867 248.056 241.713 248.056 242.66C248.056 242.793 248.056 242.947 248.056 243.12C248.056 243.28 248.043 243.447 248.016 243.62H239.836V241.98H245.336C245.296 241.327 245.063 240.813 244.636 240.44C244.223 240.067 243.703 239.88 243.076 239.88C242.623 239.88 242.203 239.987 241.816 240.2C241.429 240.4 241.123 240.713 240.896 241.14C240.683 241.567 240.576 242.107 240.576 242.76V243.34C240.576 243.887 240.676 244.367 240.876 244.78C241.089 245.18 241.383 245.493 241.756 245.72C242.129 245.933 242.563 246.04 243.056 246.04C243.549 246.04 243.956 245.933 244.276 245.72C244.609 245.507 244.856 245.233 245.016 244.9H247.776C247.589 245.527 247.276 246.093 246.836 246.6C246.396 247.107 245.856 247.507 245.216 247.8C244.576 248.093 243.863 248.24 243.076 248.24ZM255.147 248.24C254.134 248.24 253.234 248.013 252.447 247.56C251.661 247.107 251.047 246.487 250.607 245.7C250.167 244.913 249.947 244.013 249.947 243C249.947 241.96 250.167 241.047 250.607 240.26C251.047 239.46 251.661 238.833 252.447 238.38C253.234 237.913 254.134 237.68 255.147 237.68C256.441 237.68 257.527 238.02 258.407 238.7C259.287 239.38 259.847 240.313 260.087 241.5H257.227C257.107 241.033 256.854 240.667 256.467 240.4C256.094 240.133 255.647 240 255.127 240C254.661 240 254.241 240.12 253.867 240.36C253.507 240.587 253.221 240.927 253.007 241.38C252.807 241.82 252.707 242.347 252.707 242.96C252.707 243.427 252.767 243.847 252.887 244.22C253.007 244.58 253.174 244.893 253.387 245.16C253.601 245.413 253.854 245.607 254.147 245.74C254.454 245.873 254.781 245.94 255.127 245.94C255.474 245.94 255.787 245.88 256.067 245.76C256.361 245.64 256.607 245.473 256.807 245.26C257.007 245.033 257.147 244.76 257.227 244.44H260.087C259.847 245.6 259.281 246.527 258.387 247.22C257.507 247.9 256.427 248.24 255.147 248.24ZM262.416 248V237.92H264.816L265.076 239.78C265.316 239.34 265.616 238.967 265.976 238.66C266.349 238.353 266.769 238.113 267.236 237.94C267.716 237.767 268.242 237.68 268.816 237.68V240.54H267.896C267.496 240.54 267.122 240.587 266.776 240.68C266.442 240.773 266.149 240.927 265.896 241.14C265.642 241.34 265.449 241.62 265.316 241.98C265.182 242.34 265.116 242.793 265.116 243.34V248H262.416ZM270.659 248V237.92H273.359V248H270.659ZM272.019 236.54C271.539 236.54 271.139 236.4 270.819 236.12C270.513 235.827 270.359 235.46 270.359 235.02C270.359 234.58 270.513 234.22 270.819 233.94C271.139 233.647 271.539 233.5 272.019 233.5C272.513 233.5 272.913 233.647 273.219 233.94C273.539 234.22 273.699 234.58 273.699 235.02C273.699 235.46 273.539 235.827 273.219 236.12C272.913 236.4 272.513 236.54 272.019 236.54ZM276.088 248V237.92H278.468L278.688 239.26C279.008 238.78 279.428 238.4 279.948 238.12C280.481 237.827 281.088 237.68 281.768 237.68C282.274 237.68 282.728 237.747 283.128 237.88C283.528 238.013 283.881 238.207 284.188 238.46C284.508 238.713 284.768 239.033 284.968 239.42C285.341 238.873 285.828 238.447 286.428 238.14C287.028 237.833 287.681 237.68 288.388 237.68C289.268 237.68 290.001 237.86 290.588 238.22C291.174 238.567 291.614 239.073 291.908 239.74C292.214 240.407 292.368 241.227 292.368 242.2V248H289.688V242.44C289.688 241.64 289.528 241.027 289.208 240.6C288.901 240.173 288.421 239.96 287.768 239.96C287.341 239.96 286.961 240.067 286.628 240.28C286.294 240.493 286.034 240.8 285.848 241.2C285.674 241.6 285.588 242.08 285.588 242.64V248H282.888V242.44C282.888 241.64 282.728 241.027 282.408 240.6C282.088 240.173 281.594 239.96 280.928 239.96C280.514 239.96 280.141 240.067 279.808 240.28C279.488 240.493 279.234 240.8 279.048 241.2C278.874 241.6 278.788 242.08 278.788 242.64V248H276.088ZM232.882 272.24C231.868 272.24 230.962 272.067 230.162 271.72C229.375 271.373 228.748 270.867 228.282 270.2C227.828 269.533 227.595 268.727 227.582 267.78H230.442C230.455 268.193 230.562 268.567 230.762 268.9C230.962 269.233 231.235 269.5 231.582 269.7C231.942 269.887 232.368 269.98 232.862 269.98C233.288 269.98 233.655 269.913 233.962 269.78C234.282 269.633 234.528 269.433 234.702 269.18C234.875 268.927 234.962 268.627 234.962 268.28C234.962 267.88 234.862 267.547 234.662 267.28C234.475 267.013 234.208 266.787 233.862 266.6C233.528 266.413 233.135 266.247 232.682 266.1C232.242 265.94 231.775 265.773 231.282 265.6C230.175 265.24 229.328 264.76 228.742 264.16C228.168 263.56 227.882 262.767 227.882 261.78C227.882 260.94 228.082 260.22 228.482 259.62C228.895 259.02 229.462 258.56 230.182 258.24C230.902 257.92 231.722 257.76 232.642 257.76C233.588 257.76 234.415 257.927 235.122 258.26C235.842 258.58 236.408 259.047 236.822 259.66C237.248 260.273 237.468 260.993 237.482 261.82H234.602C234.588 261.513 234.495 261.227 234.322 260.96C234.162 260.68 233.935 260.46 233.642 260.3C233.348 260.127 233.002 260.04 232.602 260.04C232.255 260.027 231.935 260.08 231.642 260.2C231.362 260.32 231.135 260.5 230.962 260.74C230.802 260.967 230.722 261.253 230.722 261.6C230.722 261.933 230.802 262.213 230.962 262.44C231.135 262.667 231.368 262.867 231.662 263.04C231.955 263.2 232.302 263.353 232.702 263.5C233.102 263.633 233.535 263.773 234.002 263.92C234.695 264.16 235.335 264.447 235.922 264.78C236.508 265.1 236.975 265.52 237.322 266.04C237.668 266.56 237.842 267.247 237.842 268.1C237.842 268.833 237.648 269.513 237.262 270.14C236.875 270.767 236.315 271.273 235.582 271.66C234.862 272.047 233.962 272.24 232.882 272.24ZM243.472 272.24C242.632 272.24 241.939 272.107 241.392 271.84C240.845 271.56 240.439 271.193 240.172 270.74C239.919 270.273 239.792 269.76 239.792 269.2C239.792 268.587 239.945 268.047 240.252 267.58C240.572 267.113 241.045 266.747 241.672 266.48C242.312 266.213 243.112 266.08 244.072 266.08H246.572C246.572 265.587 246.505 265.18 246.372 264.86C246.239 264.527 246.032 264.28 245.752 264.12C245.472 263.96 245.099 263.88 244.632 263.88C244.125 263.88 243.692 263.993 243.332 264.22C242.985 264.433 242.772 264.767 242.692 265.22H240.072C240.139 264.5 240.372 263.88 240.772 263.36C241.185 262.827 241.725 262.413 242.392 262.12C243.072 261.827 243.825 261.68 244.652 261.68C245.599 261.68 246.419 261.84 247.112 262.16C247.805 262.48 248.339 262.94 248.712 263.54C249.085 264.14 249.272 264.88 249.272 265.76V272H246.992L246.692 270.46C246.545 270.727 246.372 270.967 246.172 271.18C245.972 271.393 245.739 271.58 245.472 271.74C245.205 271.9 244.905 272.02 244.572 272.1C244.239 272.193 243.872 272.24 243.472 272.24ZM244.112 270.16C244.459 270.16 244.765 270.1 245.032 269.98C245.312 269.847 245.552 269.673 245.752 269.46C245.952 269.233 246.105 268.98 246.212 268.7C246.332 268.407 246.412 268.093 246.452 267.76V267.74H244.392C243.979 267.74 243.639 267.793 243.372 267.9C243.119 267.993 242.932 268.133 242.812 268.32C242.692 268.507 242.632 268.72 242.632 268.96C242.632 269.227 242.692 269.447 242.812 269.62C242.932 269.793 243.105 269.927 243.332 270.02C243.559 270.113 243.819 270.16 244.112 270.16ZM242.432 261.06L242.192 259.28L246.572 256.78L246.892 258.84L242.432 261.06ZM251.791 272V257.6H254.491V272H251.791ZM259.823 272L256.123 261.92H258.963L261.463 269.46L263.963 261.92H266.783L263.103 272H259.823ZM268.491 272V261.92H271.191V272H268.491ZM269.851 260.54C269.371 260.54 268.971 260.4 268.651 260.12C268.345 259.827 268.191 259.46 268.191 259.02C268.191 258.58 268.345 258.22 268.651 257.94C268.971 257.647 269.371 257.5 269.851 257.5C270.345 257.5 270.745 257.647 271.051 257.94C271.371 258.22 271.531 258.58 271.531 259.02C271.531 259.46 271.371 259.827 271.051 260.12C270.745 260.4 270.345 260.54 269.851 260.54ZM277.32 272.24C276.48 272.24 275.786 272.107 275.24 271.84C274.693 271.56 274.286 271.193 274.02 270.74C273.766 270.273 273.64 269.76 273.64 269.2C273.64 268.587 273.793 268.047 274.1 267.58C274.42 267.113 274.893 266.747 275.52 266.48C276.16 266.213 276.96 266.08 277.92 266.08H280.42C280.42 265.587 280.353 265.18 280.22 264.86C280.086 264.527 279.88 264.28 279.6 264.12C279.32 263.96 278.946 263.88 278.48 263.88C277.973 263.88 277.54 263.993 277.18 264.22C276.833 264.433 276.62 264.767 276.54 265.22H273.92C273.986 264.5 274.22 263.88 274.62 263.36C275.033 262.827 275.573 262.413 276.24 262.12C276.92 261.827 277.673 261.68 278.5 261.68C279.446 261.68 280.266 261.84 280.96 262.16C281.653 262.48 282.186 262.94 282.56 263.54C282.933 264.14 283.12 264.88 283.12 265.76V272H280.84L280.54 270.46C280.393 270.727 280.22 270.967 280.02 271.18C279.82 271.393 279.586 271.58 279.32 271.74C279.053 271.9 278.753 272.02 278.42 272.1C278.086 272.193 277.72 272.24 277.32 272.24ZM277.96 270.16C278.306 270.16 278.613 270.1 278.88 269.98C279.16 269.847 279.4 269.673 279.6 269.46C279.8 269.233 279.953 268.98 280.06 268.7C280.18 268.407 280.26 268.093 280.3 267.76V267.74H278.24C277.826 267.74 277.486 267.793 277.22 267.9C276.966 267.993 276.78 268.133 276.66 268.32C276.54 268.507 276.48 268.72 276.48 268.96C276.48 269.227 276.54 269.447 276.66 269.62C276.78 269.793 276.953 269.927 277.18 270.02C277.406 270.113 277.666 270.16 277.96 270.16Z" fill="#6A5ACD"/>
<ellipse cx="197" cy="172" rx="18" ry="19" fill="url(#paint2_linear_329_508)"/>
<path d="M190.08 178.24C189.12 178.24 188.253 178.02 187.48 177.58C186.72 177.127 186.113 176.507 185.66 175.72C185.22 174.92 185 174.007 185 172.98C185 171.927 185.22 171.007 185.66 170.22C186.113 169.42 186.727 168.8 187.5 168.36C188.273 167.907 189.14 167.68 190.1 167.68C191.073 167.68 191.94 167.907 192.7 168.36C193.473 168.8 194.08 169.42 194.52 170.22C194.973 171.007 195.2 171.92 195.2 172.96C195.2 174 194.973 174.92 194.52 175.72C194.08 176.507 193.473 177.127 192.7 177.58C191.927 178.02 191.053 178.24 190.08 178.24ZM190.08 175.9C190.533 175.9 190.933 175.793 191.28 175.58C191.64 175.367 191.92 175.04 192.12 174.6C192.333 174.16 192.44 173.613 192.44 172.96C192.44 172.307 192.333 171.767 192.12 171.34C191.92 170.9 191.64 170.573 191.28 170.36C190.933 170.133 190.54 170.02 190.1 170.02C189.673 170.02 189.28 170.133 188.92 170.36C188.56 170.573 188.273 170.9 188.06 171.34C187.86 171.767 187.76 172.307 187.76 172.96C187.76 173.613 187.86 174.16 188.06 174.6C188.273 175.04 188.553 175.367 188.9 175.58C189.26 175.793 189.653 175.9 190.08 175.9ZM201.287 178.24C200.474 178.24 199.774 178.073 199.187 177.74C198.614 177.393 198.174 176.893 197.867 176.24C197.56 175.573 197.407 174.753 197.407 173.78V167.92H200.107V173.5C200.107 174.313 200.274 174.927 200.607 175.34C200.954 175.753 201.48 175.96 202.187 175.96C202.64 175.96 203.04 175.86 203.387 175.66C203.734 175.447 204.007 175.147 204.207 174.76C204.42 174.36 204.527 173.873 204.527 173.3V167.92H207.207V178H204.847L204.627 176.36C204.334 176.933 203.9 177.393 203.327 177.74C202.754 178.073 202.074 178.24 201.287 178.24Z" fill="#6A5ACD"/>
<defs>
<filter id="filter0_f_329_508" x="163.755" y="10.1162" width="78.6516" height="177.14" filterUnits="userSpaceOnUse" color-interpolation-filters="sRGB">
<feFlood flood-opacity="0" result="BackgroundImageFix"/>
<feBlend mode="normal" in="SourceGraphic" in2="BackgroundImageFix" result="shape"/>
<feGaussianBlur stdDeviation="15" result="effect1_foregroundBlur_329_508"/>
</filter>
<filter id="filter1_f_329_508" x="0.76001" y="20.605" width="219.681" height="218.744" filterUnits="userSpaceOnUse" color-interpolation-filters="sRGB">
<feFlood flood-opacity="0" result="BackgroundImageFix"/>
<feBlend mode="normal" in="SourceGraphic" in2="BackgroundImageFix" result="shape"/>
<feGaussianBlur stdDeviation="25" result="effect1_foregroundBlur_329_508"/>
</filter>
<filter id="filter2_f_329_508" x="183.957" y="134.237" width="142.087" height="88.7275" filterUnits="userSpaceOnUse" color-interpolation-filters="sRGB">
<feFlood flood-opacity="0" result="BackgroundImageFix"/>
<feBlend mode="normal" in="SourceGraphic" in2="BackgroundImageFix" result="shape"/>
<feGaussianBlur stdDeviation="15" result="effect1_foregroundBlur_329_508"/>
</filter>
<filter id="filter3_f_329_508" x="147.261" y="150.146" width="205.739" height="168.946" filterUnits="userSpaceOnUse" color-interpolation-filters="sRGB">
<feFlood flood-opacity="0" result="BackgroundImageFix"/>
<feBlend mode="normal" in="SourceGraphic" in2="BackgroundImageFix" result="shape"/>
<feGaussianBlur stdDeviation="25" result="effect1_foregroundBlur_329_508"/>
</filter>
<linearGradient id="paint0_linear_329_508" x1="188.694" y1="207" x2="21.2126" y2="-75.993" gradientUnits="userSpaceOnUse">
<stop stop-color="#A1A4F3"/>
<stop offset="0.992945" stop-color="white" stop-opacity="0.86"/>
</linearGradient>
<linearGradient id="paint1_linear_329_508" x1="302.434" y1="312.184" x2="168.786" y2="86.3585" gradientUnits="userSpaceOnUse">
<stop stop-color="#BBBCF2"/>
<stop offset="0.992945" stop-color="white" stop-opacity="0.86"/>
</linearGradient>
<linearGradient id="paint2_linear_329_508" x1="207.673" y1="191" x2="176.603" y2="139.654" gradientUnits="userSpaceOnUse">
<stop stop-color="#BBBCF2"/>
<stop offset="0.992945" stop-color="white" stop-opacity="0.86"/>
</linearGradient>
</defs>
</svg>
