<svg width="243" height="240" viewBox="0 0 243 240" fill="none" xmlns="http://www.w3.org/2000/svg">
<g filter="url(#filter0_f_329_510)">
<ellipse cx="203.081" cy="98.686" rx="9.32577" ry="58.5698" fill="#050259" fill-opacity="0.5" style="mix-blend-mode:overlay"/>
</g>
<ellipse cx="129.252" cy="103.5" rx="100.252" ry="103.5" fill="url(#paint0_linear_329_510)"/>
<g filter="url(#filter1_f_329_510)">
<ellipse cx="110.601" cy="129.977" rx="59.8404" ry="59.3721" fill="#A1A4F3" fill-opacity="0.2"/>
</g>
<path d="M101.183 74V60H103.883V71.9H110.023V74H101.183ZM112.335 74V63.92H115.035V74H112.335ZM113.695 62.54C113.215 62.54 112.815 62.4 112.495 62.12C112.188 61.8267 112.035 61.46 112.035 61.02C112.035 60.58 112.188 60.22 112.495 59.94C112.815 59.6467 113.215 59.5 113.695 59.5C114.188 59.5 114.588 59.6467 114.895 59.94C115.215 60.22 115.375 60.58 115.375 61.02C115.375 61.46 115.215 61.8267 114.895 62.12C114.588 62.4 114.188 62.54 113.695 62.54ZM117.763 74V63.92H120.143L120.363 65.26C120.683 64.78 121.103 64.4 121.623 64.12C122.157 63.8267 122.763 63.68 123.443 63.68C123.95 63.68 124.403 63.7467 124.803 63.88C125.203 64.0133 125.557 64.2067 125.863 64.46C126.183 64.7133 126.443 65.0333 126.643 65.42C127.017 64.8733 127.503 64.4467 128.103 64.14C128.703 63.8333 129.357 63.68 130.063 63.68C130.943 63.68 131.677 63.86 132.263 64.22C132.85 64.5667 133.29 65.0733 133.583 65.74C133.89 66.4067 134.043 67.2267 134.043 68.2V74H131.363V68.44C131.363 67.64 131.203 67.0267 130.883 66.6C130.577 66.1733 130.097 65.96 129.443 65.96C129.017 65.96 128.637 66.0667 128.303 66.28C127.97 66.4933 127.71 66.8 127.523 67.2C127.35 67.6 127.263 68.08 127.263 68.64V74H124.563V68.44C124.563 67.64 124.403 67.0267 124.083 66.6C123.763 66.1733 123.27 65.96 122.603 65.96C122.19 65.96 121.817 66.0667 121.483 66.28C121.163 66.4933 120.91 66.8 120.723 67.2C120.55 67.6 120.463 68.08 120.463 68.64V74H117.763ZM139.991 74.24C139.151 74.24 138.458 74.1067 137.911 73.84C137.365 73.56 136.958 73.1933 136.691 72.74C136.438 72.2733 136.311 71.76 136.311 71.2C136.311 70.5867 136.465 70.0467 136.771 69.58C137.091 69.1133 137.565 68.7467 138.191 68.48C138.831 68.2133 139.631 68.08 140.591 68.08H143.091C143.091 67.5867 143.025 67.18 142.891 66.86C142.758 66.5267 142.551 66.28 142.271 66.12C141.991 65.96 141.618 65.88 141.151 65.88C140.645 65.88 140.211 65.9933 139.851 66.22C139.505 66.4333 139.291 66.7667 139.211 67.22H136.591C136.658 66.5 136.891 65.88 137.291 65.36C137.705 64.8267 138.245 64.4133 138.911 64.12C139.591 63.8267 140.345 63.68 141.171 63.68C142.118 63.68 142.938 63.84 143.631 64.16C144.325 64.48 144.858 64.94 145.231 65.54C145.605 66.14 145.791 66.88 145.791 67.76V74H143.511L143.211 72.46C143.065 72.7267 142.891 72.9667 142.691 73.18C142.491 73.3933 142.258 73.58 141.991 73.74C141.725 73.9 141.425 74.02 141.091 74.1C140.758 74.1933 140.391 74.24 139.991 74.24ZM140.631 72.16C140.978 72.16 141.285 72.1 141.551 71.98C141.831 71.8467 142.071 71.6733 142.271 71.46C142.471 71.2333 142.625 70.98 142.731 70.7C142.851 70.4067 142.931 70.0933 142.971 69.76V69.74H140.911C140.498 69.74 140.158 69.7933 139.891 69.9C139.638 69.9933 139.451 70.1333 139.331 70.32C139.211 70.5067 139.151 70.72 139.151 70.96C139.151 71.2267 139.211 71.4467 139.331 71.62C139.451 71.7933 139.625 71.9267 139.851 72.02C140.078 72.1133 140.338 72.16 140.631 72.16ZM142.231 62.6C141.845 62.6 141.511 62.5267 141.231 62.38C140.965 62.2333 140.718 62.0867 140.491 61.94C140.265 61.78 140.011 61.7 139.731 61.7C139.518 61.7 139.331 61.7733 139.171 61.92C139.025 62.0667 138.925 62.2933 138.871 62.6H137.451C137.598 61.7067 137.878 61.0533 138.291 60.64C138.718 60.2267 139.238 60.02 139.851 60.02C140.238 60.02 140.565 60.1 140.831 60.26C141.098 60.4067 141.345 60.56 141.571 60.72C141.811 60.8667 142.071 60.94 142.351 60.94C142.578 60.94 142.765 60.8667 142.911 60.72C143.071 60.5733 143.171 60.3467 143.211 60.04H144.631C144.498 60.9333 144.218 61.5867 143.791 62C143.378 62.4 142.858 62.6 142.231 62.6ZM153.07 74.24C152.11 74.24 151.244 74.02 150.47 73.58C149.71 73.1267 149.104 72.5067 148.65 71.72C148.21 70.92 147.99 70.0067 147.99 68.98C147.99 67.9267 148.21 67.0067 148.65 66.22C149.104 65.42 149.717 64.8 150.49 64.36C151.264 63.9067 152.13 63.68 153.09 63.68C154.064 63.68 154.93 63.9067 155.69 64.36C156.464 64.8 157.07 65.42 157.51 66.22C157.964 67.0067 158.19 67.92 158.19 68.96C158.19 70 157.964 70.92 157.51 71.72C157.07 72.5067 156.464 73.1267 155.69 73.58C154.917 74.02 154.044 74.24 153.07 74.24ZM153.07 71.9C153.524 71.9 153.924 71.7933 154.27 71.58C154.63 71.3667 154.91 71.04 155.11 70.6C155.324 70.16 155.43 69.6133 155.43 68.96C155.43 68.3067 155.324 67.7667 155.11 67.34C154.91 66.9 154.63 66.5733 154.27 66.36C153.924 66.1333 153.53 66.02 153.09 66.02C152.664 66.02 152.27 66.1333 151.91 66.36C151.55 66.5733 151.264 66.9 151.05 67.34C150.85 67.7667 150.75 68.3067 150.75 68.96C150.75 69.6133 150.85 70.16 151.05 70.6C151.264 71.04 151.544 71.3667 151.89 71.58C152.25 71.7933 152.644 71.9 153.07 71.9ZM77.1886 98V84H82.9286C83.9019 84 84.7219 84.1533 85.3886 84.46C86.0553 84.7667 86.5553 85.1933 86.8886 85.74C87.2353 86.2733 87.4086 86.8933 87.4086 87.6C87.4086 88.3067 87.2553 88.9 86.9486 89.38C86.6419 89.86 86.2353 90.2333 85.7286 90.5C85.2353 90.7533 84.6886 90.9 84.0886 90.94L84.4086 90.72C85.0486 90.7467 85.6153 90.92 86.1086 91.24C86.6153 91.5467 87.0086 91.96 87.2886 92.48C87.5819 93 87.7286 93.5667 87.7286 94.18C87.7286 94.9267 87.5486 95.5867 87.1886 96.16C86.8286 96.7333 86.3086 97.1867 85.6286 97.52C84.9486 97.84 84.1153 98 83.1286 98H77.1886ZM79.8886 95.8H82.6886C83.4219 95.8 83.9886 95.6333 84.3886 95.3C84.7886 94.9667 84.9886 94.4867 84.9886 93.86C84.9886 93.2333 84.7819 92.7467 84.3686 92.4C83.9553 92.04 83.3819 91.86 82.6486 91.86H79.8886V95.8ZM79.8886 89.84H82.4886C83.1953 89.84 83.7286 89.68 84.0886 89.36C84.4619 89.04 84.6486 88.5867 84.6486 88C84.6486 87.4267 84.4619 86.98 84.0886 86.66C83.7286 86.3267 83.1886 86.16 82.4686 86.16H79.8886V89.84ZM94.7225 98.24C93.7092 98.24 92.8092 98.0267 92.0225 97.6C91.2492 97.16 90.6425 96.5533 90.2025 95.78C89.7758 94.9933 89.5625 94.0867 89.5625 93.06C89.5625 92.0067 89.7758 91.08 90.2025 90.28C90.6425 89.4667 91.2492 88.8333 92.0225 88.38C92.7958 87.9133 93.6958 87.68 94.7225 87.68C95.7225 87.68 96.5958 87.9 97.3425 88.34C98.0892 88.78 98.6692 89.3733 99.0825 90.12C99.4958 90.8667 99.7025 91.7133 99.7025 92.66C99.7025 92.7933 99.7025 92.9467 99.7025 93.12C99.7025 93.28 99.6892 93.4467 99.6625 93.62H91.4825V91.98H96.9825C96.9425 91.3267 96.7092 90.8133 96.2825 90.44C95.8692 90.0667 95.3492 89.88 94.7225 89.88C94.2692 89.88 93.8492 89.9867 93.4625 90.2C93.0758 90.4 92.7692 90.7133 92.5425 91.14C92.3292 91.5667 92.2225 92.1067 92.2225 92.76V93.34C92.2225 93.8867 92.3225 94.3667 92.5225 94.78C92.7358 95.18 93.0292 95.4933 93.4025 95.72C93.7758 95.9333 94.2092 96.04 94.7025 96.04C95.1958 96.04 95.6025 95.9333 95.9225 95.72C96.2558 95.5067 96.5025 95.2333 96.6625 94.9H99.4225C99.2358 95.5267 98.9225 96.0933 98.4825 96.6C98.0425 97.1067 97.5025 97.5067 96.8625 97.8C96.2225 98.0933 95.5092 98.24 94.7225 98.24ZM101.914 98V87.92H104.314L104.574 89.78C104.814 89.34 105.114 88.9667 105.474 88.66C105.847 88.3533 106.267 88.1133 106.734 87.94C107.214 87.7667 107.74 87.68 108.314 87.68V90.54H107.394C106.994 90.54 106.62 90.5867 106.274 90.68C105.94 90.7733 105.647 90.9267 105.394 91.14C105.14 91.34 104.947 91.62 104.814 91.98C104.68 92.34 104.614 92.7933 104.614 93.34V98H101.914ZM114.203 102.64C113.243 102.64 112.403 102.52 111.683 102.28C110.963 102.053 110.403 101.7 110.003 101.22C109.616 100.753 109.423 100.173 109.423 99.48C109.423 99.0133 109.543 98.5733 109.783 98.16C110.023 97.7467 110.37 97.3733 110.823 97.04C111.29 96.6933 111.87 96.4 112.563 96.16L113.583 97.48C112.97 97.68 112.523 97.9267 112.243 98.22C111.976 98.5267 111.843 98.8533 111.843 99.2C111.843 99.5067 111.943 99.7667 112.143 99.98C112.356 100.193 112.636 100.347 112.983 100.44C113.343 100.547 113.743 100.6 114.183 100.6C114.61 100.6 114.976 100.547 115.283 100.44C115.603 100.333 115.85 100.173 116.023 99.96C116.21 99.76 116.303 99.52 116.303 99.24C116.303 98.88 116.176 98.5867 115.923 98.36C115.67 98.1333 115.163 97.9933 114.403 97.94C113.723 97.8867 113.116 97.8133 112.583 97.72C112.063 97.6133 111.603 97.4933 111.203 97.36C110.803 97.2133 110.463 97.0533 110.183 96.88C109.916 96.7067 109.696 96.5333 109.523 96.36V95.9L111.663 93.6L113.603 94.22L111.083 96.7L111.843 95.38C111.99 95.46 112.13 95.54 112.263 95.62C112.41 95.6867 112.59 95.7533 112.803 95.82C113.016 95.8733 113.296 95.9267 113.643 95.98C113.99 96.0333 114.43 96.08 114.963 96.12C115.843 96.2 116.563 96.3667 117.123 96.62C117.696 96.8733 118.116 97.2133 118.383 97.64C118.65 98.0533 118.783 98.5667 118.783 99.18C118.783 99.78 118.616 100.34 118.283 100.86C117.963 101.393 117.463 101.82 116.783 102.14C116.103 102.473 115.243 102.64 114.203 102.64ZM114.203 95.02C113.363 95.02 112.636 94.86 112.023 94.54C111.423 94.2067 110.956 93.7667 110.623 93.22C110.303 92.66 110.143 92.04 110.143 91.36C110.143 90.68 110.303 90.0667 110.623 89.52C110.956 88.96 111.423 88.5133 112.023 88.18C112.636 87.8467 113.363 87.68 114.203 87.68C115.056 87.68 115.783 87.8467 116.383 88.18C116.996 88.5133 117.463 88.96 117.783 89.52C118.103 90.0667 118.263 90.68 118.263 91.36C118.263 92.04 118.103 92.66 117.783 93.22C117.463 93.7667 116.996 94.2067 116.383 94.54C115.783 94.86 115.056 95.02 114.203 95.02ZM114.203 92.96C114.723 92.96 115.143 92.8267 115.463 92.56C115.783 92.2933 115.943 91.9 115.943 91.38C115.943 90.86 115.783 90.4667 115.463 90.2C115.143 89.92 114.723 89.78 114.203 89.78C113.696 89.78 113.276 89.92 112.943 90.2C112.623 90.4667 112.463 90.86 112.463 91.38C112.463 91.9 112.623 92.2933 112.943 92.56C113.276 92.8267 113.696 92.96 114.203 92.96ZM115.883 89.84L115.443 87.92H119.583V89.52L115.883 89.84ZM125.177 98.24C124.337 98.24 123.644 98.1067 123.097 97.84C122.55 97.56 122.144 97.1933 121.877 96.74C121.624 96.2733 121.497 95.76 121.497 95.2C121.497 94.5867 121.65 94.0467 121.957 93.58C122.277 93.1133 122.75 92.7467 123.377 92.48C124.017 92.2133 124.817 92.08 125.777 92.08H128.277C128.277 91.5867 128.21 91.18 128.077 90.86C127.944 90.5267 127.737 90.28 127.457 90.12C127.177 89.96 126.804 89.88 126.337 89.88C125.83 89.88 125.397 89.9933 125.037 90.22C124.69 90.4333 124.477 90.7667 124.397 91.22H121.777C121.844 90.5 122.077 89.88 122.477 89.36C122.89 88.8267 123.43 88.4133 124.097 88.12C124.777 87.8267 125.53 87.68 126.357 87.68C127.304 87.68 128.124 87.84 128.817 88.16C129.51 88.48 130.044 88.94 130.417 89.54C130.79 90.14 130.977 90.88 130.977 91.76V98H128.697L128.397 96.46C128.25 96.7267 128.077 96.9667 127.877 97.18C127.677 97.3933 127.444 97.58 127.177 97.74C126.91 97.9 126.61 98.02 126.277 98.1C125.944 98.1933 125.577 98.24 125.177 98.24ZM125.817 96.16C126.164 96.16 126.47 96.1 126.737 95.98C127.017 95.8467 127.257 95.6733 127.457 95.46C127.657 95.2333 127.81 94.98 127.917 94.7C128.037 94.4067 128.117 94.0933 128.157 93.76V93.74H126.097C125.684 93.74 125.344 93.7933 125.077 93.9C124.824 93.9933 124.637 94.1333 124.517 94.32C124.397 94.5067 124.337 94.72 124.337 94.96C124.337 95.2267 124.397 95.4467 124.517 95.62C124.637 95.7933 124.81 95.9267 125.037 96.02C125.264 96.1133 125.524 96.16 125.817 96.16ZM133.496 98V87.92H135.876L136.096 89.26C136.416 88.78 136.836 88.4 137.356 88.12C137.889 87.8267 138.496 87.68 139.176 87.68C139.682 87.68 140.136 87.7467 140.536 87.88C140.936 88.0133 141.289 88.2067 141.596 88.46C141.916 88.7133 142.176 89.0333 142.376 89.42C142.749 88.8733 143.236 88.4467 143.836 88.14C144.436 87.8333 145.089 87.68 145.796 87.68C146.676 87.68 147.409 87.86 147.996 88.22C148.582 88.5667 149.022 89.0733 149.316 89.74C149.622 90.4067 149.776 91.2267 149.776 92.2V98H147.096V92.44C147.096 91.64 146.936 91.0267 146.616 90.6C146.309 90.1733 145.829 89.96 145.176 89.96C144.749 89.96 144.369 90.0667 144.036 90.28C143.702 90.4933 143.442 90.8 143.256 91.2C143.082 91.6 142.996 92.08 142.996 92.64V98H140.296V92.44C140.296 91.64 140.136 91.0267 139.816 90.6C139.496 90.1733 139.002 89.96 138.336 89.96C137.922 89.96 137.549 90.0667 137.216 90.28C136.896 90.4933 136.642 90.8 136.456 91.2C136.282 91.6 136.196 92.08 136.196 92.64V98H133.496ZM157.084 98.24C156.124 98.24 155.257 98.02 154.484 97.58C153.724 97.1267 153.117 96.5067 152.664 95.72C152.224 94.92 152.004 94.0067 152.004 92.98C152.004 91.9267 152.224 91.0067 152.664 90.22C153.117 89.42 153.731 88.8 154.504 88.36C155.277 87.9067 156.144 87.68 157.104 87.68C158.077 87.68 158.944 87.9067 159.704 88.36C160.477 88.8 161.084 89.42 161.524 90.22C161.977 91.0067 162.204 91.92 162.204 92.96C162.204 94 161.977 94.92 161.524 95.72C161.084 96.5067 160.477 97.1267 159.704 97.58C158.931 98.02 158.057 98.24 157.084 98.24ZM157.084 95.9C157.537 95.9 157.937 95.7933 158.284 95.58C158.644 95.3667 158.924 95.04 159.124 94.6C159.337 94.16 159.444 93.6133 159.444 92.96C159.444 92.3067 159.337 91.7667 159.124 91.34C158.924 90.9 158.644 90.5733 158.284 90.36C157.937 90.1333 157.544 90.02 157.104 90.02C156.677 90.02 156.284 90.1333 155.924 90.36C155.564 90.5733 155.277 90.9 155.064 91.34C154.864 91.7667 154.764 92.3067 154.764 92.96C154.764 93.6133 154.864 94.16 155.064 94.6C155.277 95.04 155.557 95.3667 155.904 95.58C156.264 95.7933 156.657 95.9 157.084 95.9ZM168.68 98C167.974 98 167.354 97.8933 166.82 97.68C166.3 97.4533 165.894 97.0867 165.6 96.58C165.307 96.06 165.16 95.3533 165.16 94.46V90.18H163.44V87.92H165.16L165.46 85.18H167.86V87.92H170.52V90.18H167.86V94.5C167.86 94.9533 167.96 95.2667 168.16 95.44C168.36 95.6133 168.7 95.7 169.18 95.7H170.5V98H168.68ZM176.193 98.24C175.353 98.24 174.659 98.1067 174.113 97.84C173.566 97.56 173.159 97.1933 172.893 96.74C172.639 96.2733 172.513 95.76 172.513 95.2C172.513 94.5867 172.666 94.0467 172.973 93.58C173.293 93.1133 173.766 92.7467 174.393 92.48C175.033 92.2133 175.833 92.08 176.793 92.08H179.293C179.293 91.5867 179.226 91.18 179.093 90.86C178.959 90.5267 178.753 90.28 178.473 90.12C178.193 89.96 177.819 89.88 177.353 89.88C176.846 89.88 176.413 89.9933 176.053 90.22C175.706 90.4333 175.493 90.7667 175.413 91.22H172.793C172.859 90.5 173.093 89.88 173.493 89.36C173.906 88.8267 174.446 88.4133 175.113 88.12C175.793 87.8267 176.546 87.68 177.373 87.68C178.319 87.68 179.139 87.84 179.833 88.16C180.526 88.48 181.059 88.94 181.433 89.54C181.806 90.14 181.993 90.88 181.993 91.76V98H179.713L179.413 96.46C179.266 96.7267 179.093 96.9667 178.893 97.18C178.693 97.3933 178.459 97.58 178.193 97.74C177.926 97.9 177.626 98.02 177.293 98.1C176.959 98.1933 176.593 98.24 176.193 98.24ZM176.833 96.16C177.179 96.16 177.486 96.1 177.753 95.98C178.033 95.8467 178.273 95.6733 178.473 95.46C178.673 95.2333 178.826 94.98 178.933 94.7C179.053 94.4067 179.133 94.0933 179.173 93.76V93.74H177.113C176.699 93.74 176.359 93.7933 176.093 93.9C175.839 93.9933 175.653 94.1333 175.533 94.32C175.413 94.5067 175.353 94.72 175.353 94.96C175.353 95.2267 175.413 95.4467 175.533 95.62C175.653 95.7933 175.826 95.9267 176.053 96.02C176.279 96.1133 176.539 96.16 176.833 96.16ZM84.8839 122V108H94.0839V110.18H87.5839V113.84H93.4839V115.94H87.5839V119.82H94.0839V122H84.8839ZM100.244 122.24C99.4307 122.24 98.7307 122.073 98.1441 121.74C97.5707 121.393 97.1307 120.893 96.8241 120.24C96.5174 119.573 96.3641 118.753 96.3641 117.78V111.92H99.0641V117.5C99.0641 118.313 99.2307 118.927 99.5641 119.34C99.9107 119.753 100.437 119.96 101.144 119.96C101.597 119.96 101.997 119.86 102.344 119.66C102.691 119.447 102.964 119.147 103.164 118.76C103.377 118.36 103.484 117.873 103.484 117.3V111.92H106.164V122H103.804L103.584 120.36C103.291 120.933 102.857 121.393 102.284 121.74C101.711 122.073 101.031 122.24 100.244 122.24ZM113.688 122.24C112.675 122.24 111.775 122.013 110.988 121.56C110.202 121.107 109.588 120.487 109.148 119.7C108.708 118.913 108.488 118.013 108.488 117C108.488 115.96 108.708 115.047 109.148 114.26C109.588 113.46 110.202 112.833 110.988 112.38C111.775 111.913 112.675 111.68 113.688 111.68C114.982 111.68 116.068 112.02 116.948 112.7C117.828 113.38 118.388 114.313 118.628 115.5H115.768C115.648 115.033 115.395 114.667 115.008 114.4C114.635 114.133 114.188 114 113.668 114C113.202 114 112.782 114.12 112.408 114.36C112.048 114.587 111.762 114.927 111.548 115.38C111.348 115.82 111.248 116.347 111.248 116.96C111.248 117.427 111.308 117.847 111.428 118.22C111.548 118.58 111.715 118.893 111.928 119.16C112.142 119.413 112.395 119.607 112.688 119.74C112.995 119.873 113.322 119.94 113.668 119.94C114.015 119.94 114.328 119.88 114.608 119.76C114.902 119.64 115.148 119.473 115.348 119.26C115.548 119.033 115.688 118.76 115.768 118.44H118.628C118.388 119.6 117.822 120.527 116.928 121.22C116.048 121.9 114.968 122.24 113.688 122.24ZM124.357 122.24C123.517 122.24 122.823 122.107 122.277 121.84C121.73 121.56 121.323 121.193 121.057 120.74C120.803 120.273 120.677 119.76 120.677 119.2C120.677 118.587 120.83 118.047 121.137 117.58C121.457 117.113 121.93 116.747 122.557 116.48C123.197 116.213 123.997 116.08 124.957 116.08H127.457C127.457 115.587 127.39 115.18 127.257 114.86C127.123 114.527 126.917 114.28 126.637 114.12C126.357 113.96 125.983 113.88 125.517 113.88C125.01 113.88 124.577 113.993 124.217 114.22C123.87 114.433 123.657 114.767 123.577 115.22H120.957C121.023 114.5 121.257 113.88 121.657 113.36C122.07 112.827 122.61 112.413 123.277 112.12C123.957 111.827 124.71 111.68 125.537 111.68C126.483 111.68 127.303 111.84 127.997 112.16C128.69 112.48 129.223 112.94 129.597 113.54C129.97 114.14 130.157 114.88 130.157 115.76V122H127.877L127.577 120.46C127.43 120.727 127.257 120.967 127.057 121.18C126.857 121.393 126.623 121.58 126.357 121.74C126.09 121.9 125.79 122.02 125.457 122.1C125.123 122.193 124.757 122.24 124.357 122.24ZM124.997 120.16C125.343 120.16 125.65 120.1 125.917 119.98C126.197 119.847 126.437 119.673 126.637 119.46C126.837 119.233 126.99 118.98 127.097 118.7C127.217 118.407 127.297 118.093 127.337 117.76V117.74H125.277C124.863 117.74 124.523 117.793 124.257 117.9C124.003 117.993 123.817 118.133 123.697 118.32C123.577 118.507 123.517 118.72 123.517 118.96C123.517 119.227 123.577 119.447 123.697 119.62C123.817 119.793 123.99 119.927 124.217 120.02C124.443 120.113 124.703 120.16 124.997 120.16ZM132.675 122V107.6H135.375V122H132.675ZM138.068 122V111.92H140.768V122H138.068ZM139.428 110.54C138.948 110.54 138.548 110.4 138.228 110.12C137.921 109.827 137.768 109.46 137.768 109.02C137.768 108.58 137.921 108.22 138.228 107.94C138.548 107.647 138.948 107.5 139.428 107.5C139.921 107.5 140.321 107.647 140.628 107.94C140.948 108.22 141.108 108.58 141.108 109.02C141.108 109.46 140.948 109.827 140.628 110.12C140.321 110.4 139.921 110.54 139.428 110.54ZM143.496 126.4V111.92H145.896L146.196 113.32C146.409 113.027 146.662 112.76 146.956 112.52C147.249 112.267 147.596 112.067 147.996 111.92C148.409 111.76 148.889 111.68 149.436 111.68C150.382 111.68 151.216 111.913 151.936 112.38C152.656 112.847 153.222 113.48 153.636 114.28C154.062 115.067 154.276 115.967 154.276 116.98C154.276 117.993 154.062 118.9 153.636 119.7C153.209 120.487 152.636 121.107 151.916 121.56C151.196 122.013 150.376 122.24 149.456 122.24C148.709 122.24 148.062 122.107 147.516 121.84C146.982 121.56 146.542 121.18 146.196 120.7V126.4H143.496ZM148.816 119.88C149.349 119.88 149.816 119.76 150.216 119.52C150.629 119.28 150.949 118.94 151.176 118.5C151.402 118.06 151.516 117.553 151.516 116.98C151.516 116.407 151.402 115.9 151.176 115.46C150.949 115.007 150.629 114.66 150.216 114.42C149.816 114.167 149.349 114.04 148.816 114.04C148.296 114.04 147.829 114.167 147.416 114.42C147.016 114.66 146.696 115 146.456 115.44C146.229 115.88 146.116 116.387 146.116 116.96C146.116 117.533 146.229 118.047 146.456 118.5C146.696 118.94 147.016 119.28 147.416 119.52C147.829 119.76 148.296 119.88 148.816 119.88ZM160.751 122C160.044 122 159.424 121.893 158.891 121.68C158.371 121.453 157.964 121.087 157.671 120.58C157.377 120.06 157.231 119.353 157.231 118.46V114.18H155.511V111.92H157.231L157.531 109.18H159.931V111.92H162.591V114.18H159.931V118.5C159.931 118.953 160.031 119.267 160.231 119.44C160.431 119.613 160.771 119.7 161.251 119.7H162.571V122H160.751ZM169.369 122.24C168.409 122.24 167.542 122.02 166.769 121.58C166.009 121.127 165.402 120.507 164.949 119.72C164.509 118.92 164.289 118.007 164.289 116.98C164.289 115.927 164.509 115.007 164.949 114.22C165.402 113.42 166.016 112.8 166.789 112.36C167.562 111.907 168.429 111.68 169.389 111.68C170.362 111.68 171.229 111.907 171.989 112.36C172.762 112.8 173.369 113.42 173.809 114.22C174.262 115.007 174.489 115.92 174.489 116.96C174.489 118 174.262 118.92 173.809 119.72C173.369 120.507 172.762 121.127 171.989 121.58C171.216 122.02 170.342 122.24 169.369 122.24ZM169.369 119.9C169.822 119.9 170.222 119.793 170.569 119.58C170.929 119.367 171.209 119.04 171.409 118.6C171.622 118.16 171.729 117.613 171.729 116.96C171.729 116.307 171.622 115.767 171.409 115.34C171.209 114.9 170.929 114.573 170.569 114.36C170.222 114.133 169.829 114.02 169.389 114.02C168.962 114.02 168.569 114.133 168.209 114.36C167.849 114.573 167.562 114.9 167.349 115.34C167.149 115.767 167.049 116.307 167.049 116.96C167.049 117.613 167.149 118.16 167.349 118.6C167.562 119.04 167.842 119.367 168.189 119.58C168.549 119.793 168.942 119.9 169.369 119.9ZM91.8443 146L96.9643 132H100.024L105.124 146H102.264L98.4843 135.08L94.6843 146H91.8443ZM94.1043 142.82L94.8243 140.72H101.944L102.644 142.82H94.1043ZM106.904 146V131.6H109.604V146H106.904ZM117.076 146.24C116.063 146.24 115.163 146.027 114.376 145.6C113.603 145.16 112.996 144.553 112.556 143.78C112.129 142.993 111.916 142.087 111.916 141.06C111.916 140.007 112.129 139.08 112.556 138.28C112.996 137.467 113.603 136.833 114.376 136.38C115.149 135.913 116.049 135.68 117.076 135.68C118.076 135.68 118.949 135.9 119.696 136.34C120.443 136.78 121.023 137.373 121.436 138.12C121.849 138.867 122.056 139.713 122.056 140.66C122.056 140.793 122.056 140.947 122.056 141.12C122.056 141.28 122.043 141.447 122.016 141.62H113.836V139.98H119.336C119.296 139.327 119.063 138.813 118.636 138.44C118.223 138.067 117.703 137.88 117.076 137.88C116.623 137.88 116.203 137.987 115.816 138.2C115.429 138.4 115.123 138.713 114.896 139.14C114.683 139.567 114.576 140.107 114.576 140.76V141.34C114.576 141.887 114.676 142.367 114.876 142.78C115.089 143.18 115.383 143.493 115.756 143.72C116.129 143.933 116.563 144.04 117.056 144.04C117.549 144.04 117.956 143.933 118.276 143.72C118.609 143.507 118.856 143.233 119.016 142.9H121.776C121.589 143.527 121.276 144.093 120.836 144.6C120.396 145.107 119.856 145.507 119.216 145.8C118.576 146.093 117.863 146.24 117.076 146.24ZM129.147 146.24C128.134 146.24 127.234 146.013 126.447 145.56C125.661 145.107 125.047 144.487 124.607 143.7C124.167 142.913 123.947 142.013 123.947 141C123.947 139.96 124.167 139.047 124.607 138.26C125.047 137.46 125.661 136.833 126.447 136.38C127.234 135.913 128.134 135.68 129.147 135.68C130.441 135.68 131.527 136.02 132.407 136.7C133.287 137.38 133.847 138.313 134.087 139.5H131.227C131.107 139.033 130.854 138.667 130.467 138.4C130.094 138.133 129.647 138 129.127 138C128.661 138 128.241 138.12 127.867 138.36C127.507 138.587 127.221 138.927 127.007 139.38C126.807 139.82 126.707 140.347 126.707 140.96C126.707 141.427 126.767 141.847 126.887 142.22C127.007 142.58 127.174 142.893 127.387 143.16C127.601 143.413 127.854 143.607 128.147 143.74C128.454 143.873 128.781 143.94 129.127 143.94C129.474 143.94 129.787 143.88 130.067 143.76C130.361 143.64 130.607 143.473 130.807 143.26C131.007 143.033 131.147 142.76 131.227 142.44H134.087C133.847 143.6 133.281 144.527 132.387 145.22C131.507 145.9 130.427 146.24 129.147 146.24ZM136.416 146V135.92H138.816L139.076 137.78C139.316 137.34 139.616 136.967 139.976 136.66C140.349 136.353 140.769 136.113 141.236 135.94C141.716 135.767 142.242 135.68 142.816 135.68V138.54H141.896C141.496 138.54 141.122 138.587 140.776 138.68C140.442 138.773 140.149 138.927 139.896 139.14C139.642 139.34 139.449 139.62 139.316 139.98C139.182 140.34 139.116 140.793 139.116 141.34V146H136.416ZM144.659 146V135.92H147.359V146H144.659ZM146.019 134.54C145.539 134.54 145.139 134.4 144.819 134.12C144.513 133.827 144.359 133.46 144.359 133.02C144.359 132.58 144.513 132.22 144.819 131.94C145.139 131.647 145.539 131.5 146.019 131.5C146.513 131.5 146.913 131.647 147.219 131.94C147.539 132.22 147.699 132.58 147.699 133.02C147.699 133.46 147.539 133.827 147.219 134.12C146.913 134.4 146.513 134.54 146.019 134.54ZM150.088 146V135.92H152.468L152.688 137.26C153.008 136.78 153.428 136.4 153.948 136.12C154.481 135.827 155.088 135.68 155.768 135.68C156.274 135.68 156.728 135.747 157.128 135.88C157.528 136.013 157.881 136.207 158.188 136.46C158.508 136.713 158.768 137.033 158.968 137.42C159.341 136.873 159.828 136.447 160.428 136.14C161.028 135.833 161.681 135.68 162.388 135.68C163.268 135.68 164.001 135.86 164.588 136.22C165.174 136.567 165.614 137.073 165.908 137.74C166.214 138.407 166.368 139.227 166.368 140.2V146H163.688V140.44C163.688 139.64 163.528 139.027 163.208 138.6C162.901 138.173 162.421 137.96 161.768 137.96C161.341 137.96 160.961 138.067 160.628 138.28C160.294 138.493 160.034 138.8 159.848 139.2C159.674 139.6 159.588 140.08 159.588 140.64V146H156.888V140.44C156.888 139.64 156.728 139.027 156.408 138.6C156.088 138.173 155.594 137.96 154.928 137.96C154.514 137.96 154.141 138.067 153.808 138.28C153.488 138.493 153.234 138.8 153.048 139.2C152.874 139.6 152.788 140.08 152.788 140.64V146H150.088Z" fill="#6A5ACD"/>
<defs>
<filter id="filter0_f_329_510" x="163.755" y="10.1162" width="78.6514" height="177.14" filterUnits="userSpaceOnUse" color-interpolation-filters="sRGB">
<feFlood flood-opacity="0" result="BackgroundImageFix"/>
<feBlend mode="normal" in="SourceGraphic" in2="BackgroundImageFix" result="shape"/>
<feGaussianBlur stdDeviation="15" result="effect1_foregroundBlur_329_510"/>
</filter>
<filter id="filter1_f_329_510" x="0.760254" y="20.605" width="219.681" height="218.744" filterUnits="userSpaceOnUse" color-interpolation-filters="sRGB">
<feFlood flood-opacity="0" result="BackgroundImageFix"/>
<feBlend mode="normal" in="SourceGraphic" in2="BackgroundImageFix" result="shape"/>
<feGaussianBlur stdDeviation="25" result="effect1_foregroundBlur_329_510"/>
</filter>
<linearGradient id="paint0_linear_329_510" x1="188.694" y1="207" x2="21.2126" y2="-75.993" gradientUnits="userSpaceOnUse">
<stop stop-color="#A1A4F3"/>
<stop offset="0.992945" stop-color="white" stop-opacity="0.86"/>
</linearGradient>
</defs>
</svg>
